G75*
G70*
%OFA0B0*%
%FSLAX24Y24*%
%IPPOS*%
%LPD*%
%AMOC8*
5,1,8,0,0,1.08239X$1,22.5*
%
%ADD10C,0.0000*%
D10*
X038793Y020068D02*
X040053Y020068D01*
X040051Y020042D01*
X040046Y020017D01*
X040038Y019993D01*
X040027Y019969D01*
X040012Y019948D01*
X039995Y019929D01*
X039976Y019912D01*
X039954Y019897D01*
X039931Y019886D01*
X039907Y019878D01*
X039882Y019873D01*
X039856Y019871D01*
X038990Y019871D01*
X038964Y019873D01*
X038939Y019878D01*
X038915Y019886D01*
X038891Y019897D01*
X038870Y019912D01*
X038851Y019929D01*
X038834Y019948D01*
X038819Y019970D01*
X038808Y019993D01*
X038800Y020017D01*
X038795Y020042D01*
X038793Y020068D01*
X038795Y020094D01*
X038800Y020119D01*
X038808Y020143D01*
X038819Y020167D01*
X038834Y020188D01*
X038851Y020207D01*
X038870Y020224D01*
X038891Y020239D01*
X038915Y020250D01*
X038939Y020258D01*
X038964Y020263D01*
X038990Y020265D01*
X039856Y020265D01*
X039882Y020263D01*
X039907Y020258D01*
X039931Y020250D01*
X039955Y020239D01*
X039976Y020224D01*
X039995Y020207D01*
X040012Y020188D01*
X040027Y020166D01*
X040038Y020143D01*
X040046Y020119D01*
X040051Y020094D01*
X040053Y020068D01*
X041120Y019308D02*
X041120Y018441D01*
X041122Y018415D01*
X041127Y018390D01*
X041135Y018366D01*
X041146Y018343D01*
X041161Y018321D01*
X041178Y018302D01*
X041197Y018285D01*
X041218Y018270D01*
X041242Y018259D01*
X041266Y018251D01*
X041291Y018246D01*
X041317Y018244D01*
X041343Y018246D01*
X041368Y018251D01*
X041392Y018259D01*
X041415Y018270D01*
X041437Y018285D01*
X041456Y018302D01*
X041473Y018321D01*
X041488Y018342D01*
X041499Y018366D01*
X041507Y018390D01*
X041512Y018415D01*
X041514Y018441D01*
X041514Y019308D01*
X041317Y019505D02*
X041291Y019503D01*
X041266Y019498D01*
X041242Y019490D01*
X041218Y019479D01*
X041197Y019464D01*
X041178Y019447D01*
X041161Y019428D01*
X041146Y019407D01*
X041135Y019383D01*
X041127Y019359D01*
X041122Y019334D01*
X041120Y019308D01*
X041317Y019505D02*
X041343Y019503D01*
X041368Y019498D01*
X041392Y019490D01*
X041416Y019479D01*
X041437Y019464D01*
X041456Y019447D01*
X041473Y019428D01*
X041488Y019406D01*
X041499Y019383D01*
X041507Y019359D01*
X041512Y019334D01*
X041514Y019308D01*
X039856Y017860D02*
X038990Y017860D01*
X038793Y017663D02*
X038795Y017637D01*
X038800Y017612D01*
X038808Y017588D01*
X038819Y017565D01*
X038834Y017543D01*
X038851Y017524D01*
X038870Y017507D01*
X038891Y017492D01*
X038915Y017481D01*
X038939Y017473D01*
X038964Y017468D01*
X038990Y017466D01*
X039856Y017466D01*
X039882Y017468D01*
X039907Y017473D01*
X039931Y017481D01*
X039954Y017492D01*
X039976Y017507D01*
X039995Y017524D01*
X040012Y017543D01*
X040027Y017564D01*
X040038Y017588D01*
X040046Y017612D01*
X040051Y017637D01*
X040053Y017663D01*
X040051Y017689D01*
X040046Y017714D01*
X040038Y017738D01*
X040027Y017761D01*
X040012Y017783D01*
X039995Y017802D01*
X039976Y017819D01*
X039955Y017834D01*
X039931Y017845D01*
X039907Y017853D01*
X039882Y017858D01*
X039856Y017860D01*
X038990Y017860D02*
X038964Y017858D01*
X038939Y017853D01*
X038915Y017845D01*
X038891Y017834D01*
X038870Y017819D01*
X038851Y017802D01*
X038834Y017783D01*
X038819Y017762D01*
X038808Y017738D01*
X038800Y017714D01*
X038795Y017689D01*
X038793Y017663D01*
M02*
