G75*
G70*
%OFA0B0*%
%FSLAX24Y24*%
%IPPOS*%
%LPD*%
%AMOC8*
5,1,8,0,0,1.08239X$1,22.5*
%
%ADD10C,0.1360*%
%ADD11C,0.0540*%
%ADD12R,0.0760X0.0760*%
%ADD13OC8,0.0760*%
%ADD14C,0.0820*%
%ADD15C,0.0920*%
%ADD16OC8,0.0660*%
%ADD17OC8,0.0560*%
%ADD18R,0.0808X0.0611*%
%ADD19R,0.0611X0.0769*%
%ADD20R,0.0651X0.0336*%
%ADD21R,0.0660X0.0360*%
%ADD22R,0.0532X0.0375*%
%ADD23R,0.0690X0.0520*%
%ADD24R,0.0720X0.0060*%
%ADD25R,0.0375X0.0532*%
%ADD26C,0.0520*%
%ADD27R,0.0414X0.0375*%
%ADD28R,0.0387X0.0308*%
%ADD29R,0.0520X0.0690*%
%ADD30R,0.1044X0.0847*%
%ADD31R,0.0847X0.1044*%
%ADD32R,0.1044X0.0532*%
%ADD33C,0.0847*%
%ADD34C,0.0847*%
%ADD35R,0.0650X0.0850*%
%ADD36R,0.1560X0.0850*%
%ADD37C,0.0590*%
%ADD38R,0.0060X0.0720*%
%ADD39R,0.0300X0.0930*%
%ADD40R,0.1620X0.1620*%
%ADD41R,0.1310X0.1310*%
%ADD42C,0.0050*%
%ADD43R,0.0360X0.0660*%
%ADD44R,0.0308X0.0387*%
%ADD45R,0.0808X0.0493*%
%ADD46R,0.1044X0.0454*%
%ADD47R,0.2422X0.1044*%
D10*
X002170Y001785D03*
X002170Y033410D03*
X044170Y033410D03*
X044170Y001910D03*
D11*
X028670Y015170D02*
X028670Y015650D01*
X027670Y015650D02*
X027670Y015170D01*
X026670Y015170D02*
X026670Y015650D01*
X025670Y015650D02*
X025670Y015170D01*
X024670Y015170D02*
X024670Y015650D01*
X023670Y015650D02*
X023670Y015170D01*
X022670Y015170D02*
X022670Y015650D01*
X021670Y015650D02*
X021670Y015170D01*
X021670Y018170D02*
X021670Y018650D01*
X022670Y018650D02*
X022670Y018170D01*
X023670Y018170D02*
X023670Y018650D01*
X024670Y018650D02*
X024670Y018170D01*
X025670Y018170D02*
X025670Y018650D01*
X026670Y018650D02*
X026670Y018170D01*
X027670Y018170D02*
X027670Y018650D01*
X028670Y018650D02*
X028670Y018170D01*
X028170Y022420D02*
X028170Y022900D01*
X027170Y022900D02*
X027170Y022420D01*
X026170Y022420D02*
X026170Y022900D01*
X025170Y022900D02*
X025170Y022420D01*
X024170Y022420D02*
X024170Y022900D01*
X023170Y022900D02*
X023170Y022420D01*
X022170Y022420D02*
X022170Y022900D01*
X021170Y022900D02*
X021170Y022420D01*
X020170Y022420D02*
X020170Y022900D01*
X019170Y022900D02*
X019170Y022420D01*
X018170Y022420D02*
X018170Y022900D01*
X017170Y022900D02*
X017170Y022420D01*
X016170Y022420D02*
X016170Y022900D01*
X016170Y025420D02*
X016170Y025900D01*
X017170Y025900D02*
X017170Y025420D01*
X018170Y025420D02*
X018170Y025900D01*
X019170Y025900D02*
X019170Y025420D01*
X020170Y025420D02*
X020170Y025900D01*
X021170Y025900D02*
X021170Y025420D01*
X022170Y025420D02*
X022170Y025900D01*
X023170Y025900D02*
X023170Y025420D01*
X024170Y025420D02*
X024170Y025900D01*
X025170Y025900D02*
X025170Y025420D01*
X026170Y025420D02*
X026170Y025900D01*
X027170Y025900D02*
X027170Y025420D01*
X028170Y025420D02*
X028170Y025900D01*
X029170Y025900D02*
X029170Y025420D01*
X029170Y022900D02*
X029170Y022420D01*
D12*
X022420Y031910D03*
D13*
X023420Y031910D03*
X024420Y031910D03*
X024420Y032910D03*
X023420Y032910D03*
X022420Y032910D03*
D14*
X005670Y023660D03*
X005670Y022660D03*
X005670Y021660D03*
X005670Y020660D03*
X005670Y019660D03*
X005670Y018660D03*
X004170Y018660D03*
X004170Y019660D03*
X004170Y020660D03*
X004170Y021660D03*
X004170Y022660D03*
X004170Y023660D03*
X002670Y023660D03*
X002670Y022660D03*
X002670Y021660D03*
X002670Y020660D03*
X002670Y019660D03*
X002670Y018660D03*
D15*
X004420Y013410D03*
X004420Y012410D03*
X004420Y011410D03*
D16*
X026420Y031910D03*
X027420Y031910D03*
X028420Y031910D03*
X029420Y031910D03*
X030420Y031910D03*
X031420Y031910D03*
X032420Y031910D03*
X032420Y032910D03*
X031420Y032910D03*
X030420Y032910D03*
X029420Y032910D03*
X028420Y032910D03*
X027420Y032910D03*
X026420Y032910D03*
X033420Y032910D03*
X033420Y031910D03*
X035420Y031910D03*
X036420Y031910D03*
X037420Y031910D03*
X038420Y031910D03*
X038420Y032910D03*
X037420Y032910D03*
X036420Y032910D03*
X035420Y032910D03*
X039420Y032910D03*
X040420Y032910D03*
X040420Y031910D03*
X039420Y031910D03*
D17*
X028170Y030160D03*
X027170Y030160D03*
X026170Y030160D03*
X025170Y030160D03*
X024170Y030160D03*
X023170Y030160D03*
X021170Y030160D03*
X020170Y030160D03*
X019170Y030160D03*
X018170Y030160D03*
X017170Y030160D03*
X016170Y030160D03*
X016170Y011160D03*
X017170Y011160D03*
X018170Y011160D03*
X019170Y011160D03*
X020170Y011160D03*
X021170Y011160D03*
X022170Y011160D03*
X023170Y011160D03*
X024920Y011160D03*
X025920Y011160D03*
X026920Y011160D03*
X027920Y011160D03*
X028920Y011160D03*
X029920Y011160D03*
X030920Y011160D03*
X031920Y011160D03*
D18*
X042001Y023317D03*
X042355Y028514D03*
D19*
X036843Y026310D03*
X036843Y023947D03*
D20*
X040701Y026270D03*
X040859Y025837D03*
X041016Y025404D03*
X040859Y024971D03*
X041016Y024538D03*
X040859Y024105D03*
X040859Y023672D03*
X040859Y026703D03*
D21*
X021170Y031660D03*
X021170Y033160D03*
X019170Y033160D03*
X019170Y031660D03*
D22*
X012045Y026014D03*
X012045Y025306D03*
X009545Y025306D03*
X009545Y026014D03*
X007670Y026056D03*
X007670Y026764D03*
X006670Y026764D03*
X006670Y026056D03*
X005670Y026056D03*
X005670Y026764D03*
X006920Y023514D03*
X006920Y022806D03*
X007920Y022806D03*
X007920Y023514D03*
X007920Y021514D03*
X007920Y020806D03*
X006920Y020806D03*
X006920Y021514D03*
X006920Y019514D03*
X006920Y018806D03*
X007920Y018806D03*
X007920Y019514D03*
X005420Y017264D03*
X005420Y016556D03*
X004170Y016556D03*
X004170Y017264D03*
X004170Y015514D03*
X004170Y014806D03*
X005420Y014806D03*
X005420Y015514D03*
X005920Y013264D03*
X005920Y012556D03*
X005670Y009514D03*
X005670Y008806D03*
X004670Y008806D03*
X004670Y009514D03*
X003670Y009514D03*
X003670Y008806D03*
X006670Y008806D03*
X006670Y009514D03*
X007670Y009514D03*
X007670Y008806D03*
X008670Y008806D03*
X008670Y009514D03*
X009670Y009514D03*
X009670Y008806D03*
X010670Y008806D03*
X010670Y009514D03*
X011670Y009514D03*
X011670Y008806D03*
X012670Y008806D03*
X012670Y009514D03*
X013670Y009514D03*
X013670Y008806D03*
X014670Y008806D03*
X014670Y009514D03*
X015670Y009514D03*
X015670Y008806D03*
X016670Y008806D03*
X016670Y009514D03*
X017670Y009514D03*
X017670Y008806D03*
X018670Y008806D03*
X018670Y009514D03*
X019670Y009514D03*
X019670Y008806D03*
X020670Y008806D03*
X020670Y009514D03*
X021670Y009514D03*
X021670Y008806D03*
X022670Y008806D03*
X022670Y009514D03*
X023670Y009514D03*
X023670Y008806D03*
X024670Y008806D03*
X024670Y009514D03*
X025670Y009514D03*
X025670Y008806D03*
X026670Y008806D03*
X026670Y009514D03*
X027670Y009514D03*
X027670Y008806D03*
X028670Y008806D03*
X028670Y009514D03*
X029670Y009514D03*
X029670Y008806D03*
X030670Y008806D03*
X030670Y009514D03*
X031670Y009514D03*
X031670Y008806D03*
X032670Y008806D03*
X032670Y009514D03*
X033670Y009514D03*
X033670Y008806D03*
X034670Y008806D03*
X034670Y009514D03*
X035670Y009514D03*
X035670Y008806D03*
X036670Y008806D03*
X036670Y009514D03*
X037670Y009514D03*
X037670Y008806D03*
X038670Y008806D03*
X038670Y009514D03*
X039670Y009514D03*
X039670Y008806D03*
X040670Y008806D03*
X040670Y009514D03*
X041670Y009514D03*
X041670Y008806D03*
X042670Y008806D03*
X042670Y009514D03*
X042670Y018056D03*
X042670Y018764D03*
X041670Y018764D03*
X041670Y018056D03*
X042670Y019806D03*
X042670Y020514D03*
X042670Y021306D03*
X042670Y022014D03*
X035670Y027056D03*
X035670Y027764D03*
X034670Y027764D03*
X034670Y027056D03*
X033670Y027056D03*
X033670Y027764D03*
X033670Y028556D03*
X033670Y029264D03*
X032670Y029264D03*
X032670Y028556D03*
X032670Y027764D03*
X032670Y027056D03*
X031670Y027056D03*
X031670Y027764D03*
X031670Y028556D03*
X031670Y029264D03*
X012295Y023014D03*
X012295Y022306D03*
X011420Y022306D03*
X011420Y023014D03*
X011420Y021014D03*
X011420Y020306D03*
X012295Y020306D03*
X012295Y021014D03*
X012295Y019014D03*
X012295Y018306D03*
X011420Y018306D03*
X011420Y019014D03*
D23*
X019420Y019360D03*
X019420Y019960D03*
X003670Y007460D03*
X003670Y006860D03*
D24*
X003670Y007160D03*
X019420Y019660D03*
D25*
X018274Y018535D03*
X017566Y018535D03*
X017566Y017660D03*
X018274Y017660D03*
X021191Y019660D03*
X021899Y019660D03*
X021899Y020535D03*
X021191Y020535D03*
X021191Y021410D03*
X021899Y021410D03*
X027441Y020660D03*
X028149Y020660D03*
X028149Y019660D03*
X027441Y019660D03*
X023024Y026910D03*
X022316Y026910D03*
X020024Y026910D03*
X019316Y026910D03*
X016024Y027410D03*
X015316Y027410D03*
X015316Y028410D03*
X016024Y028410D03*
X013774Y025910D03*
X013066Y025910D03*
D26*
X019471Y018360D02*
X019931Y018360D01*
X019931Y017660D02*
X019471Y017660D01*
X019471Y016960D02*
X019931Y016960D01*
D27*
X010564Y018286D03*
X009737Y018660D03*
X010564Y019034D03*
X010564Y020286D03*
X009737Y020660D03*
X010564Y021034D03*
X010564Y022286D03*
X009737Y022660D03*
X010564Y023034D03*
D28*
X008920Y022707D03*
X008920Y021613D03*
X008920Y020707D03*
X008920Y019613D03*
X008920Y018707D03*
X008920Y023613D03*
D29*
X010620Y025660D03*
X011220Y025660D03*
X008114Y016660D03*
X007514Y016660D03*
X006914Y016660D03*
D30*
X007528Y006016D03*
X009812Y003103D03*
X007528Y002394D03*
X004812Y003103D03*
X012528Y002394D03*
X014812Y003103D03*
X017528Y002394D03*
X019812Y003103D03*
X022528Y002394D03*
X024812Y003103D03*
X027528Y002394D03*
X029812Y003103D03*
X032528Y002394D03*
X034812Y003103D03*
X037528Y002394D03*
X039812Y003103D03*
X042528Y002394D03*
X042528Y006016D03*
X037528Y006016D03*
X032528Y006016D03*
X027528Y006016D03*
X022528Y006016D03*
X017528Y006016D03*
X012528Y006016D03*
D31*
X010875Y007611D03*
X015875Y007611D03*
X020875Y007611D03*
X025875Y007611D03*
X030875Y007611D03*
X035875Y007611D03*
X040875Y007611D03*
X005875Y007611D03*
D32*
X004812Y002001D03*
X009812Y002001D03*
X014812Y002001D03*
X019812Y002001D03*
X024812Y002001D03*
X029812Y002001D03*
X034812Y002001D03*
X039812Y002001D03*
D33*
X041170Y002788D03*
X041170Y005544D03*
X036170Y005544D03*
X036170Y002788D03*
X031170Y002788D03*
X031170Y005544D03*
X026170Y005544D03*
X026170Y002788D03*
X021170Y002788D03*
X021170Y005544D03*
X016170Y005544D03*
X016170Y002788D03*
X011170Y002788D03*
X011170Y005544D03*
X006170Y005544D03*
X006170Y002788D03*
D34*
X039670Y014516D02*
X039670Y015304D01*
X042070Y015304D02*
X042070Y014516D01*
X041264Y013010D02*
X040476Y013010D01*
D35*
X014330Y026920D03*
X013430Y026920D03*
X012530Y026920D03*
X011330Y026920D03*
X010430Y026920D03*
X009530Y026920D03*
D36*
X010420Y029400D03*
X013420Y029400D03*
D37*
X033877Y030241D03*
X034664Y030241D03*
X035451Y030241D03*
X036239Y030241D03*
X037026Y030241D03*
X037814Y030241D03*
X038601Y030241D03*
X039389Y030241D03*
X040176Y030241D03*
X040963Y030241D03*
X040963Y021579D03*
X040176Y021579D03*
X039389Y021579D03*
X038601Y021579D03*
X037814Y021579D03*
X037026Y021579D03*
X036239Y021579D03*
X035451Y021579D03*
X034664Y021579D03*
X033877Y021579D03*
D38*
X010920Y025660D03*
D39*
X017170Y026880D03*
X017670Y026880D03*
X018170Y026880D03*
X018670Y026880D03*
X018670Y028940D03*
X018170Y028940D03*
X017670Y028940D03*
X017170Y028940D03*
D40*
X033420Y018160D03*
D41*
X036520Y018160D03*
X030320Y018160D03*
D42*
X034167Y023390D02*
X034223Y023350D01*
X034285Y023321D01*
X034352Y023304D01*
X034420Y023298D01*
X034488Y023304D01*
X034555Y023321D01*
X034617Y023350D01*
X034673Y023390D01*
X034722Y023438D01*
X034761Y023494D01*
X034790Y023557D01*
X034808Y023623D01*
X034814Y023691D01*
X034808Y023760D01*
X034790Y023826D01*
X034761Y023888D01*
X034722Y023944D01*
X034673Y023993D01*
X034617Y024032D01*
X034555Y024061D01*
X034488Y024079D01*
X034420Y024085D01*
X034352Y024079D01*
X034285Y024061D01*
X034223Y024032D01*
X034167Y023993D01*
X034118Y023944D01*
X034079Y023888D01*
X034050Y023826D01*
X034032Y023760D01*
X034026Y023691D01*
X034032Y023623D01*
X034050Y023557D01*
X034079Y023494D01*
X034118Y023438D01*
X034167Y023390D01*
X034191Y023373D02*
X034649Y023373D01*
X034705Y023422D02*
X034135Y023422D01*
X034096Y023470D02*
X034744Y023470D01*
X034772Y023519D02*
X034068Y023519D01*
X034047Y023567D02*
X034793Y023567D01*
X034806Y023616D02*
X034034Y023616D01*
X034029Y023664D02*
X034811Y023664D01*
X034812Y023713D02*
X034028Y023713D01*
X034033Y023761D02*
X034807Y023761D01*
X034794Y023810D02*
X034046Y023810D01*
X034065Y023858D02*
X034775Y023858D01*
X034748Y023907D02*
X034092Y023907D01*
X034129Y023955D02*
X034711Y023955D01*
X034658Y024004D02*
X034182Y024004D01*
X034266Y024052D02*
X034574Y024052D01*
X034562Y023325D02*
X034278Y023325D01*
X003308Y026342D02*
X003314Y026410D01*
X003308Y026478D01*
X003290Y026545D01*
X003261Y026607D01*
X003222Y026663D01*
X003173Y026712D01*
X003117Y026751D01*
X003055Y026780D01*
X002988Y026798D01*
X002920Y026804D01*
X002852Y026798D01*
X002785Y026780D01*
X002723Y026751D01*
X002667Y026712D01*
X002618Y026663D01*
X002579Y026607D01*
X002550Y026545D01*
X002532Y026478D01*
X002526Y026410D01*
X002532Y026342D01*
X002550Y026275D01*
X002579Y026213D01*
X002618Y026157D01*
X002667Y026108D01*
X002723Y026069D01*
X002785Y026040D01*
X002852Y026022D01*
X002920Y026016D01*
X002988Y026022D01*
X003055Y026040D01*
X003117Y026069D01*
X003173Y026108D01*
X003222Y026157D01*
X003261Y026213D01*
X003290Y026275D01*
X003308Y026342D01*
X003305Y026332D02*
X002535Y026332D01*
X002529Y026380D02*
X003311Y026380D01*
X003312Y026429D02*
X002528Y026429D01*
X002532Y026477D02*
X003308Y026477D01*
X003295Y026526D02*
X002545Y026526D01*
X002564Y026574D02*
X003276Y026574D01*
X003250Y026623D02*
X002590Y026623D01*
X002626Y026671D02*
X003214Y026671D01*
X003162Y026720D02*
X002678Y026720D01*
X002760Y026768D02*
X003080Y026768D01*
X003292Y026283D02*
X002548Y026283D01*
X002569Y026235D02*
X003271Y026235D01*
X003242Y026186D02*
X002598Y026186D01*
X002638Y026138D02*
X003202Y026138D01*
X003146Y026089D02*
X002694Y026089D01*
X002784Y026041D02*
X003056Y026041D01*
X002670Y004304D02*
X002602Y004298D01*
X002535Y004280D01*
X002473Y004251D01*
X002417Y004212D01*
X002368Y004163D01*
X002329Y004107D01*
X002300Y004045D01*
X002282Y003978D01*
X002276Y003910D01*
X002282Y003842D01*
X002300Y003775D01*
X002329Y003713D01*
X002368Y003657D01*
X002417Y003608D01*
X002473Y003569D01*
X002535Y003540D01*
X002602Y003522D01*
X002670Y003516D01*
X002738Y003522D01*
X002805Y003540D01*
X002867Y003569D01*
X002923Y003608D01*
X002972Y003657D01*
X003011Y003713D01*
X003040Y003775D01*
X003058Y003842D01*
X003064Y003910D01*
X003058Y003978D01*
X003040Y004045D01*
X003011Y004107D01*
X002972Y004163D01*
X002923Y004212D01*
X002867Y004251D01*
X002805Y004280D01*
X002738Y004298D01*
X002670Y004304D01*
X002501Y004264D02*
X002839Y004264D01*
X002917Y004216D02*
X002423Y004216D01*
X002372Y004167D02*
X002968Y004167D01*
X003003Y004119D02*
X002337Y004119D01*
X002312Y004070D02*
X003028Y004070D01*
X003046Y004022D02*
X002294Y004022D01*
X002282Y003973D02*
X003058Y003973D01*
X003062Y003925D02*
X002278Y003925D01*
X002279Y003876D02*
X003061Y003876D01*
X003054Y003828D02*
X002286Y003828D01*
X002299Y003779D02*
X003041Y003779D01*
X003019Y003731D02*
X002321Y003731D01*
X002351Y003682D02*
X002989Y003682D01*
X002948Y003634D02*
X002392Y003634D01*
X002450Y003585D02*
X002890Y003585D01*
X002791Y003537D02*
X002549Y003537D01*
D43*
X013170Y016660D03*
X014670Y016660D03*
X014670Y018660D03*
X014670Y019660D03*
X013170Y019660D03*
X013170Y018660D03*
X013170Y021660D03*
X013170Y022660D03*
X014670Y022660D03*
X014670Y021660D03*
X014670Y024660D03*
X013170Y024660D03*
D44*
X039342Y022629D03*
X040248Y022629D03*
D45*
X025398Y021113D03*
X025398Y020207D03*
X023942Y020207D03*
X023942Y021113D03*
D46*
X019920Y027910D03*
X019920Y028910D03*
D47*
X021920Y028410D03*
M02*
