G75*
G70*
%OFA0B0*%
%FSLAX24Y24*%
%IPPOS*%
%LPD*%
%AMOC8*
5,1,8,0,0,1.08239X$1,22.5*
%
%ADD10C,0.0480*%
%ADD11R,0.0700X0.0700*%
%ADD12OC8,0.0700*%
%ADD13C,0.0860*%
%ADD14OC8,0.0600*%
%ADD15OC8,0.0500*%
%ADD16C,0.0460*%
%ADD17C,0.0480*%
%ADD18C,0.0787*%
%ADD19C,0.0530*%
%ADD20C,0.0660*%
%ADD21C,0.0100*%
%ADD22C,0.0357*%
%ADD23C,0.0160*%
%ADD24C,0.0080*%
%ADD25C,0.0120*%
D10*
X019420Y014980D02*
X019420Y015460D01*
X020420Y015460D02*
X020420Y014980D01*
X021420Y014980D02*
X021420Y015460D01*
X022420Y015460D02*
X022420Y014980D01*
X023420Y014980D02*
X023420Y015460D01*
X024420Y015460D02*
X024420Y014980D01*
X025420Y014980D02*
X025420Y015460D01*
X026420Y015460D02*
X026420Y014980D01*
X026420Y017980D02*
X026420Y018460D01*
X025420Y018460D02*
X025420Y017980D01*
X024420Y017980D02*
X024420Y018460D01*
X023420Y018460D02*
X023420Y017980D01*
X022420Y017980D02*
X022420Y018460D01*
X021420Y018460D02*
X021420Y017980D01*
X020420Y017980D02*
X020420Y018460D01*
X019420Y018460D02*
X019420Y017980D01*
X018920Y022230D02*
X018920Y022710D01*
X017920Y022710D02*
X017920Y022230D01*
X016920Y022230D02*
X016920Y022710D01*
X015920Y022710D02*
X015920Y022230D01*
X014920Y022230D02*
X014920Y022710D01*
X013920Y022710D02*
X013920Y022230D01*
X013920Y025230D02*
X013920Y025710D01*
X014920Y025710D02*
X014920Y025230D01*
X015920Y025230D02*
X015920Y025710D01*
X016920Y025710D02*
X016920Y025230D01*
X017920Y025230D02*
X017920Y025710D01*
X018920Y025710D02*
X018920Y025230D01*
X019920Y025230D02*
X019920Y025710D01*
X020920Y025710D02*
X020920Y025230D01*
X021920Y025230D02*
X021920Y025710D01*
X022920Y025710D02*
X022920Y025230D01*
X023920Y025230D02*
X023920Y025710D01*
X024920Y025710D02*
X024920Y025230D01*
X025920Y025230D02*
X025920Y025710D01*
X026920Y025710D02*
X026920Y025230D01*
X026920Y022710D02*
X026920Y022230D01*
X025920Y022230D02*
X025920Y022710D01*
X024920Y022710D02*
X024920Y022230D01*
X023920Y022230D02*
X023920Y022710D01*
X022920Y022710D02*
X022920Y022230D01*
X021920Y022230D02*
X021920Y022710D01*
X020920Y022710D02*
X020920Y022230D01*
X019920Y022230D02*
X019920Y022710D01*
D11*
X020170Y031720D03*
D12*
X021170Y031720D03*
X022170Y031720D03*
X022170Y032720D03*
X021170Y032720D03*
X020170Y032720D03*
D13*
X002170Y023470D03*
X002170Y022470D03*
X002170Y021470D03*
X002170Y020470D03*
X002170Y019470D03*
X002170Y018470D03*
X002170Y013220D03*
X002170Y012220D03*
X002170Y011220D03*
D14*
X024170Y031720D03*
X024170Y032720D03*
X025170Y032720D03*
X026170Y032720D03*
X027170Y032720D03*
X027170Y031720D03*
X026170Y031720D03*
X025170Y031720D03*
X028170Y031720D03*
X029170Y031720D03*
X030170Y031720D03*
X030170Y032720D03*
X029170Y032720D03*
X028170Y032720D03*
X031170Y032720D03*
X031170Y031720D03*
X033170Y031720D03*
X033170Y032720D03*
X034170Y032720D03*
X035170Y032720D03*
X036170Y032720D03*
X036170Y031720D03*
X035170Y031720D03*
X034170Y031720D03*
X037170Y031720D03*
X038170Y031720D03*
X038170Y032720D03*
X037170Y032720D03*
D15*
X025920Y029970D03*
X024920Y029970D03*
X023920Y029970D03*
X022920Y029970D03*
X021920Y029970D03*
X020920Y029970D03*
X018920Y029970D03*
X017920Y029970D03*
X016920Y029970D03*
X015920Y029970D03*
X014920Y029970D03*
X013920Y029970D03*
X013920Y010970D03*
X014920Y010970D03*
X015920Y010970D03*
X016920Y010970D03*
X017920Y010970D03*
X018920Y010970D03*
X019920Y010970D03*
X020920Y010970D03*
X022670Y010970D03*
X023670Y010970D03*
X024670Y010970D03*
X025670Y010970D03*
X026670Y010970D03*
X027670Y010970D03*
X028670Y010970D03*
X029670Y010970D03*
D16*
X017681Y016770D02*
X017221Y016770D01*
X017221Y017470D02*
X017681Y017470D01*
X017681Y018170D02*
X017221Y018170D01*
D17*
X021420Y020470D03*
X023420Y020470D03*
D18*
X006070Y026326D02*
X006070Y027114D01*
X003670Y027114D02*
X003670Y026326D01*
X004476Y024820D02*
X005264Y024820D01*
D19*
X031627Y021389D03*
X032414Y021389D03*
X033201Y021389D03*
X033989Y021389D03*
X034776Y021389D03*
X035564Y021389D03*
X036351Y021389D03*
X037139Y021389D03*
X037926Y021389D03*
X038713Y021389D03*
X038713Y030051D03*
X037926Y030051D03*
X037139Y030051D03*
X036351Y030051D03*
X035564Y030051D03*
X034776Y030051D03*
X033989Y030051D03*
X033201Y030051D03*
X032414Y030051D03*
X031627Y030051D03*
D20*
X017670Y028720D03*
X017670Y027720D03*
D21*
X001442Y001315D02*
X001159Y001478D01*
X000928Y001709D01*
X000765Y001992D01*
X000681Y002307D01*
X000670Y002470D01*
X000670Y009670D01*
X000700Y009640D01*
X000843Y009581D01*
X000997Y009581D01*
X001140Y009640D01*
X001250Y009750D01*
X001309Y009893D01*
X001309Y010047D01*
X001250Y010190D01*
X001210Y010230D01*
X001210Y011850D01*
X001635Y011850D01*
X001627Y011857D02*
X001765Y011720D01*
X001627Y011583D01*
X001530Y011347D01*
X001530Y011093D01*
X001627Y010857D01*
X001807Y010677D01*
X002043Y010580D01*
X002297Y010580D01*
X002533Y010677D01*
X002713Y010857D01*
X002810Y011093D01*
X002810Y011347D01*
X002713Y011583D01*
X002575Y011720D01*
X002713Y011857D01*
X002810Y012093D01*
X002810Y012347D01*
X002713Y012583D01*
X002575Y012720D01*
X002713Y012857D01*
X002810Y013093D01*
X002810Y013347D01*
X002780Y013420D01*
X003830Y014470D01*
X014130Y014470D01*
X014130Y013840D01*
X013174Y012884D01*
X013130Y012778D01*
X013130Y011980D01*
X013090Y011940D01*
X013031Y011797D01*
X013031Y011643D01*
X013090Y011500D01*
X013200Y011390D01*
X013343Y011331D01*
X013497Y011331D01*
X013630Y011386D01*
X013630Y011331D01*
X013460Y011161D01*
X013460Y010779D01*
X013729Y010510D01*
X014111Y010510D01*
X014380Y010779D01*
X014380Y011161D01*
X014210Y011331D01*
X014210Y012350D01*
X014630Y012770D01*
X014630Y011331D01*
X014460Y011161D01*
X014460Y010779D01*
X014729Y010510D01*
X015111Y010510D01*
X015130Y010529D01*
X015130Y009090D01*
X014399Y008359D01*
X014343Y008359D01*
X014200Y008300D01*
X014090Y008190D01*
X014031Y008047D01*
X014031Y008019D01*
X013834Y008216D01*
X013728Y008260D01*
X011680Y008260D01*
X011640Y008300D01*
X011497Y008359D01*
X011343Y008359D01*
X011200Y008300D01*
X011160Y008260D01*
X010112Y008260D01*
X010006Y008216D01*
X009924Y008134D01*
X009809Y008019D01*
X009809Y008047D01*
X009750Y008190D01*
X009710Y008230D01*
X009710Y010210D01*
X009750Y010250D01*
X009980Y010250D01*
X010020Y010210D02*
X010020Y008222D01*
X010340Y008260D02*
X010340Y009939D01*
X010362Y009930D02*
X009710Y009930D01*
X009710Y009610D02*
X015130Y009610D01*
X015130Y009930D02*
X014680Y009930D01*
X014640Y009890D02*
X014750Y010000D01*
X014809Y010143D01*
X014809Y010297D01*
X014750Y010440D01*
X014640Y010550D01*
X014497Y010609D01*
X014343Y010609D01*
X014200Y010550D01*
X014160Y010510D01*
X010540Y010510D01*
X009916Y011134D01*
X009834Y011216D01*
X009728Y011260D01*
X008290Y011260D01*
X006666Y012884D01*
X006584Y012966D01*
X006478Y013010D01*
X004457Y013010D01*
X004436Y013015D01*
X004399Y013010D01*
X004362Y013010D01*
X004343Y013002D01*
X004322Y012999D01*
X004290Y012980D01*
X004256Y012966D01*
X004241Y012951D01*
X004223Y012940D01*
X004200Y012910D01*
X004174Y012884D01*
X004166Y012865D01*
X003599Y012109D01*
X003593Y012109D01*
X003450Y012050D01*
X003340Y011940D01*
X003281Y011797D01*
X003281Y011643D01*
X003340Y011500D01*
X003450Y011390D01*
X003593Y011331D01*
X003747Y011331D01*
X003890Y011390D01*
X004000Y011500D01*
X004059Y011643D01*
X004059Y011755D01*
X004565Y012430D01*
X006300Y012430D01*
X008006Y010724D01*
X008112Y010680D01*
X009086Y010680D01*
X009031Y010547D01*
X009031Y010393D01*
X009090Y010250D01*
X006120Y010250D01*
X006093Y010240D02*
X006418Y010358D01*
X006682Y010580D01*
X006855Y010880D01*
X006915Y011220D01*
X006855Y011560D01*
X006855Y011560D01*
X006682Y011860D01*
X006418Y012082D01*
X006418Y012082D01*
X006093Y012200D01*
X005747Y012200D01*
X005422Y012082D01*
X005158Y011860D01*
X005158Y011860D01*
X004985Y011560D01*
X004925Y011220D01*
X004985Y010880D01*
X004985Y010880D01*
X005158Y010580D01*
X005422Y010358D01*
X005422Y010358D01*
X005747Y010240D01*
X005870Y010240D01*
X006093Y010240D01*
X006093Y010240D01*
X006180Y010272D02*
X006180Y008280D01*
X006200Y008300D02*
X006160Y008260D01*
X005112Y008260D01*
X005006Y008216D01*
X004924Y008134D01*
X004809Y008019D01*
X004809Y008047D01*
X004750Y008190D01*
X004710Y008230D01*
X004710Y010210D01*
X004750Y010250D01*
X005720Y010250D01*
X005860Y010240D02*
X005860Y008260D01*
X005540Y008260D02*
X005540Y010315D01*
X005220Y010528D02*
X005220Y008260D01*
X004900Y008110D02*
X004900Y012430D01*
X005220Y012430D02*
X005220Y011912D01*
X005158Y011860D02*
X005158Y011860D01*
X005152Y011850D02*
X004130Y011850D01*
X004260Y012023D02*
X004260Y010824D01*
X004200Y010800D02*
X004090Y010690D01*
X004031Y010547D01*
X004031Y010393D01*
X004090Y010250D01*
X001210Y010250D01*
X001210Y010570D02*
X004041Y010570D01*
X004200Y010800D02*
X004343Y010859D01*
X004497Y010859D01*
X004640Y010800D01*
X004750Y010690D01*
X004809Y010547D01*
X004809Y010393D01*
X004750Y010250D01*
X004710Y009930D02*
X009130Y009930D01*
X009130Y010210D02*
X009130Y008230D01*
X009090Y008190D01*
X009031Y008047D01*
X009031Y008019D01*
X008834Y008216D01*
X008728Y008260D01*
X006680Y008260D01*
X006640Y008300D01*
X006497Y008359D01*
X006343Y008359D01*
X006200Y008300D01*
X006273Y008330D02*
X004710Y008330D01*
X004710Y008650D02*
X009130Y008650D01*
X009130Y008330D02*
X006567Y008330D01*
X006500Y008358D02*
X006500Y010427D01*
X006670Y010570D02*
X009041Y010570D01*
X009060Y010617D02*
X009060Y010680D01*
X008740Y010680D02*
X008740Y008255D01*
X008420Y008260D02*
X008420Y010680D01*
X008100Y010685D02*
X008100Y008260D01*
X007780Y008260D02*
X007780Y010950D01*
X007840Y010890D02*
X006857Y010890D01*
X006855Y010880D02*
X006855Y010880D01*
X006820Y010819D02*
X006820Y008260D01*
X007140Y008260D02*
X007140Y011590D01*
X007200Y011530D02*
X006860Y011530D01*
X006820Y011621D02*
X006820Y011910D01*
X006880Y011850D02*
X006688Y011850D01*
X006682Y011860D02*
X006682Y011860D01*
X006500Y012013D02*
X006500Y012230D01*
X006560Y012170D02*
X006175Y012170D01*
X006180Y012168D02*
X006180Y012430D01*
X005860Y012430D02*
X005860Y012200D01*
X005665Y012170D02*
X004370Y012170D01*
X004580Y012430D02*
X004580Y010824D01*
X004799Y010570D02*
X005170Y010570D01*
X005158Y010580D02*
X005158Y010580D01*
X004983Y010890D02*
X002726Y010890D01*
X002660Y010805D02*
X002660Y008260D01*
X002980Y008260D02*
X002980Y013620D01*
X003130Y013770D02*
X014060Y013770D01*
X013860Y013570D02*
X013860Y014470D01*
X014130Y014410D02*
X003770Y014410D01*
X003940Y014470D02*
X003940Y012563D01*
X003885Y012490D02*
X002751Y012490D01*
X002660Y012635D02*
X002660Y012805D01*
X002665Y012810D02*
X004125Y012810D01*
X004260Y012968D02*
X004260Y014470D01*
X004580Y014470D02*
X004580Y013010D01*
X004900Y013010D02*
X004900Y014470D01*
X005220Y014470D02*
X005220Y013010D01*
X005540Y013010D02*
X005540Y014470D01*
X005860Y014470D02*
X005860Y013010D01*
X006180Y013010D02*
X006180Y014470D01*
X006500Y014470D02*
X006500Y013001D01*
X006740Y012810D02*
X013143Y012810D01*
X013220Y012930D02*
X013220Y014470D01*
X012900Y014470D02*
X012900Y010510D01*
X013220Y010510D02*
X013220Y011382D01*
X013078Y011530D02*
X008020Y011530D01*
X008100Y011450D02*
X008100Y014470D01*
X007780Y014470D02*
X007780Y011770D01*
X007700Y011850D02*
X013053Y011850D01*
X013130Y012170D02*
X007380Y012170D01*
X007460Y012090D02*
X007460Y014470D01*
X007140Y014470D02*
X007140Y012410D01*
X007060Y012490D02*
X013130Y012490D01*
X013420Y013130D02*
X002810Y013130D01*
X002810Y013450D02*
X013740Y013450D01*
X013540Y013250D02*
X013540Y014470D01*
X013540Y014970D02*
X013540Y021430D01*
X013220Y021430D02*
X013220Y014970D01*
X012900Y014970D02*
X012900Y021430D01*
X012612Y021430D02*
X012506Y021474D01*
X012424Y021556D01*
X012424Y021556D01*
X012174Y021806D01*
X012130Y021912D01*
X012130Y023210D01*
X012090Y023250D01*
X012031Y023393D01*
X012031Y023449D01*
X011924Y023556D01*
X011880Y023662D01*
X011880Y025430D01*
X009540Y025430D01*
X008309Y024199D01*
X008309Y024143D01*
X008250Y024000D01*
X008140Y023890D01*
X007997Y023831D01*
X007843Y023831D01*
X007700Y023890D01*
X007590Y024000D01*
X007531Y024143D01*
X007531Y024297D01*
X007590Y024440D01*
X007700Y024550D01*
X007843Y024609D01*
X007899Y024609D01*
X009256Y025966D01*
X009362Y026010D01*
X011910Y026010D01*
X011950Y026050D01*
X012093Y026109D01*
X012247Y026109D01*
X012390Y026050D01*
X012500Y025940D01*
X012559Y025797D01*
X012559Y025643D01*
X012500Y025500D01*
X012460Y025460D01*
X012460Y023859D01*
X012497Y023859D01*
X012640Y023800D01*
X012750Y023690D01*
X013630Y023690D01*
X013630Y023370D02*
X012799Y023370D01*
X012809Y023393D02*
X012809Y023547D01*
X012750Y023690D01*
X012580Y023824D02*
X012580Y027782D01*
X012648Y027850D02*
X013130Y027850D01*
X013130Y027530D02*
X012328Y027530D01*
X012309Y027511D02*
X013130Y028332D01*
X013130Y024662D01*
X013174Y024556D01*
X013256Y024474D01*
X013630Y024100D01*
X013630Y023056D01*
X013539Y022965D01*
X013470Y022800D01*
X013470Y022140D01*
X013524Y022010D01*
X012790Y022010D01*
X012710Y022090D01*
X013491Y022090D01*
X013220Y022010D02*
X013220Y024510D01*
X013135Y024650D02*
X012460Y024650D01*
X012460Y024330D02*
X013400Y024330D01*
X013540Y024190D02*
X013540Y022966D01*
X013624Y023050D02*
X012710Y023050D01*
X012710Y023210D02*
X012750Y023250D01*
X012809Y023393D01*
X012710Y023210D02*
X012710Y022090D01*
X012900Y022010D02*
X012900Y028102D01*
X012968Y028170D02*
X013130Y028170D01*
X012630Y028653D02*
X011899Y027921D01*
X011843Y027921D01*
X011700Y027862D01*
X011590Y027753D01*
X011531Y027610D01*
X011531Y027455D01*
X011590Y027312D01*
X011700Y027203D01*
X011843Y027144D01*
X011997Y027144D01*
X012140Y027203D01*
X012250Y027312D01*
X012309Y027455D01*
X012309Y027511D01*
X012260Y027338D02*
X012260Y026103D01*
X012504Y025930D02*
X013130Y025930D01*
X013130Y025610D02*
X012545Y025610D01*
X012460Y025290D02*
X013130Y025290D01*
X013130Y024970D02*
X012460Y024970D01*
X011880Y024970D02*
X009080Y024970D01*
X009060Y024950D02*
X009060Y016520D01*
X009190Y016650D02*
X006010Y016650D01*
X005860Y016500D02*
X005860Y016062D01*
X005890Y016050D02*
X005747Y016109D01*
X005593Y016109D01*
X005450Y016050D01*
X005340Y015940D01*
X005281Y015797D01*
X005281Y015741D01*
X004800Y015260D01*
X003862Y015260D01*
X003756Y015216D01*
X003510Y014970D01*
X000670Y014970D01*
X000670Y032470D01*
X000681Y032633D01*
X000765Y032948D01*
X000928Y033231D01*
X001159Y033462D01*
X001442Y033625D01*
X001757Y033709D01*
X001920Y033720D01*
X019010Y033720D01*
X017050Y031760D01*
X014112Y031760D01*
X014006Y031716D01*
X013924Y031634D01*
X012674Y030384D01*
X012630Y030278D01*
X012630Y028653D01*
X012580Y028603D02*
X012580Y033720D01*
X012260Y033720D02*
X012260Y028283D01*
X012147Y028170D02*
X000670Y028170D01*
X000670Y027850D02*
X011688Y027850D01*
X011620Y027782D02*
X011620Y033720D01*
X011940Y033720D02*
X011940Y027963D01*
X011531Y027530D02*
X006507Y027530D01*
X006500Y027537D02*
X006500Y033720D01*
X006820Y033720D02*
X006820Y018280D01*
X006790Y018250D02*
X005554Y018250D01*
X005554Y018167D02*
X005554Y019694D01*
X005691Y019831D01*
X005747Y019831D01*
X005890Y019890D01*
X006000Y020000D01*
X006059Y020143D01*
X006059Y020297D01*
X006000Y020440D01*
X005890Y020550D01*
X005747Y020609D01*
X005593Y020609D01*
X005450Y020550D01*
X005340Y020440D01*
X005281Y020297D01*
X005281Y020241D01*
X005018Y019978D01*
X004974Y019871D01*
X004974Y018197D01*
X002853Y018197D01*
X002780Y018270D01*
X002810Y018343D01*
X002810Y018597D01*
X002780Y018670D01*
X003166Y019056D01*
X003210Y019162D01*
X003210Y019778D01*
X003166Y019884D01*
X003084Y019966D01*
X002780Y020270D01*
X002810Y020343D01*
X002810Y020597D01*
X002780Y020670D01*
X003166Y021056D01*
X003210Y021162D01*
X003210Y021778D01*
X003166Y021884D01*
X003084Y021966D01*
X002780Y022270D01*
X002810Y022343D01*
X002810Y022597D01*
X002713Y022833D01*
X002575Y022970D01*
X002713Y023107D01*
X002810Y023343D01*
X002810Y023597D01*
X002713Y023833D01*
X002533Y024013D01*
X002297Y024110D01*
X002043Y024110D01*
X001807Y024013D01*
X001627Y023833D01*
X001530Y023597D01*
X001530Y023343D01*
X001627Y023107D01*
X001765Y022970D01*
X001627Y022833D01*
X001530Y022597D01*
X001530Y022343D01*
X001627Y022107D01*
X001765Y021970D01*
X001627Y021833D01*
X001530Y021597D01*
X001530Y021343D01*
X001627Y021107D01*
X001765Y020970D01*
X001627Y020833D01*
X001530Y020597D01*
X001530Y020343D01*
X001627Y020107D01*
X001765Y019970D01*
X001627Y019833D01*
X001530Y019597D01*
X001530Y019343D01*
X001627Y019107D01*
X001765Y018970D01*
X001627Y018833D01*
X001530Y018597D01*
X001530Y018343D01*
X001627Y018107D01*
X001807Y017927D01*
X002043Y017830D01*
X002297Y017830D01*
X002370Y017860D01*
X002568Y017662D01*
X002675Y017618D01*
X005004Y017618D01*
X005044Y017578D01*
X005186Y017519D01*
X005341Y017519D01*
X005484Y017578D01*
X005593Y017687D01*
X005652Y017830D01*
X005652Y017985D01*
X005593Y018128D01*
X005554Y018167D01*
X005652Y017930D02*
X006470Y017930D01*
X006500Y017960D02*
X006500Y025903D01*
X006527Y025930D02*
X009220Y025930D01*
X009380Y026010D02*
X009380Y033720D01*
X009060Y033720D02*
X009060Y025770D01*
X008900Y025610D02*
X000670Y025610D01*
X000670Y025290D02*
X004093Y025290D01*
X004134Y025332D02*
X003965Y025162D01*
X003873Y024940D01*
X003873Y024700D01*
X003965Y024478D01*
X004134Y024308D01*
X004356Y024216D01*
X005384Y024216D01*
X005606Y024308D01*
X005775Y024478D01*
X005867Y024700D01*
X005867Y024940D01*
X005775Y025162D01*
X005606Y025332D01*
X005384Y025424D01*
X004356Y025424D01*
X004134Y025332D01*
X004260Y025384D02*
X004260Y033720D01*
X003940Y033720D02*
X003940Y027564D01*
X003944Y027562D02*
X003871Y027599D01*
X003793Y027625D01*
X003718Y027636D01*
X003718Y026768D01*
X003622Y026768D01*
X003622Y026672D01*
X003146Y026672D01*
X003146Y026285D01*
X003159Y026204D01*
X003185Y026125D01*
X003222Y026052D01*
X003271Y025985D01*
X003329Y025927D01*
X003396Y025878D01*
X003469Y025841D01*
X003547Y025815D01*
X003622Y025804D01*
X003622Y026672D01*
X003718Y026672D01*
X003718Y026768D01*
X004194Y026768D01*
X004194Y027155D01*
X004181Y027236D01*
X004155Y027315D01*
X004118Y027388D01*
X004069Y027455D01*
X004011Y027513D01*
X003944Y027562D01*
X003988Y027530D02*
X005633Y027530D01*
X005558Y027456D02*
X005466Y027234D01*
X005466Y026206D01*
X005558Y025984D01*
X005728Y025815D01*
X005950Y025723D01*
X006190Y025723D01*
X006412Y025815D01*
X006582Y025984D01*
X006674Y026206D01*
X006674Y027234D01*
X006582Y027456D01*
X006412Y027625D01*
X006190Y027717D01*
X005950Y027717D01*
X005728Y027625D01*
X005558Y027456D01*
X005540Y027412D02*
X005540Y033720D01*
X005220Y033720D02*
X005220Y025424D01*
X004900Y025424D02*
X004900Y033720D01*
X004580Y033720D02*
X004580Y025424D01*
X003940Y025103D02*
X003940Y025876D01*
X003944Y025878D02*
X004011Y025927D01*
X004069Y025985D01*
X004118Y026052D01*
X004155Y026125D01*
X004181Y026204D01*
X004194Y026285D01*
X004194Y026672D01*
X003718Y026672D01*
X003718Y025804D01*
X003793Y025815D01*
X003871Y025841D01*
X003944Y025878D01*
X004014Y025930D02*
X005613Y025930D01*
X005540Y026028D02*
X005540Y025359D01*
X005647Y025290D02*
X008580Y025290D01*
X008420Y025130D02*
X008420Y033720D01*
X008100Y033720D02*
X008100Y024810D01*
X008260Y024970D02*
X005855Y024970D01*
X005860Y024958D02*
X005860Y025760D01*
X006180Y025723D02*
X006180Y017640D01*
X006150Y017610D02*
X005516Y017610D01*
X005540Y017634D02*
X005540Y017000D01*
X005510Y016970D02*
X000670Y016970D01*
X000670Y017290D02*
X005830Y017290D01*
X005860Y017320D02*
X005860Y019878D01*
X005793Y019850D02*
X008130Y019850D01*
X008130Y019590D02*
X004649Y016109D01*
X004593Y016109D01*
X004450Y016050D01*
X004340Y015940D01*
X004281Y015797D01*
X004281Y015643D01*
X004340Y015500D01*
X004450Y015390D01*
X004593Y015331D01*
X004747Y015331D01*
X004890Y015390D01*
X005000Y015500D01*
X005059Y015643D01*
X005059Y015699D01*
X008584Y019224D01*
X008584Y019224D01*
X008666Y019306D01*
X008710Y019412D01*
X008710Y023210D01*
X008750Y023250D01*
X008809Y023393D01*
X008809Y023547D01*
X008750Y023690D01*
X011880Y023690D01*
X011940Y023540D02*
X011940Y014970D01*
X011620Y014970D02*
X011620Y017788D01*
X011640Y017797D02*
X011750Y017906D01*
X011809Y018049D01*
X011809Y018204D01*
X011750Y018346D01*
X011710Y018386D01*
X011710Y019960D01*
X011750Y020000D01*
X011809Y020143D01*
X011809Y020297D01*
X011750Y020440D01*
X011640Y020550D01*
X011497Y020609D01*
X011343Y020609D01*
X011200Y020550D01*
X011090Y020440D01*
X011031Y020297D01*
X011031Y020143D01*
X011090Y020000D01*
X011130Y019960D01*
X011130Y018386D01*
X011090Y018346D01*
X011031Y018204D01*
X011031Y018049D01*
X011090Y017906D01*
X011200Y017797D01*
X011343Y017738D01*
X011497Y017738D01*
X011640Y017797D01*
X011759Y017930D02*
X014630Y017930D01*
X014630Y017610D02*
X010783Y017610D01*
X010809Y017547D02*
X010750Y017690D01*
X010640Y017800D01*
X010497Y017859D01*
X010441Y017859D01*
X010085Y018215D01*
X010085Y020710D01*
X010125Y020750D01*
X010184Y020893D01*
X010184Y021047D01*
X010125Y021190D01*
X010015Y021300D01*
X009872Y021359D01*
X009718Y021359D01*
X009575Y021300D01*
X009465Y021190D01*
X009406Y021047D01*
X009406Y020893D01*
X009465Y020750D01*
X009505Y020710D01*
X009505Y018037D01*
X009549Y017931D01*
X010010Y017470D01*
X008550Y016010D01*
X005930Y016010D01*
X005890Y016050D01*
X005930Y016010D02*
X008550Y016010D01*
X008420Y016010D02*
X008420Y019060D01*
X008570Y019210D02*
X009505Y019210D01*
X009505Y018890D02*
X008250Y018890D01*
X008100Y018740D02*
X008100Y016010D01*
X007780Y016010D02*
X007780Y018420D01*
X007930Y018570D02*
X009505Y018570D01*
X009505Y018250D02*
X007610Y018250D01*
X007460Y018100D02*
X007460Y016010D01*
X007140Y016010D02*
X007140Y017780D01*
X007290Y017930D02*
X009550Y017930D01*
X009700Y017780D02*
X009700Y017160D01*
X009830Y017290D02*
X006650Y017290D01*
X006500Y017140D02*
X006500Y016010D01*
X006820Y016010D02*
X006820Y017460D01*
X006970Y017610D02*
X009870Y017610D01*
X010340Y017960D02*
X010340Y025430D01*
X010660Y025430D02*
X010660Y017780D01*
X010809Y017547D02*
X010809Y017393D01*
X010750Y017250D01*
X010640Y017140D01*
X010497Y017081D01*
X010441Y017081D01*
X008834Y015474D01*
X008728Y015430D01*
X005930Y015430D01*
X005890Y015390D01*
X005747Y015331D01*
X005691Y015331D01*
X005330Y014970D01*
X014130Y014970D01*
X014130Y016460D01*
X014090Y016500D01*
X014031Y016643D01*
X014031Y016797D01*
X014090Y016940D01*
X014200Y017050D01*
X014343Y017109D01*
X014497Y017109D01*
X014630Y017054D01*
X014630Y021770D01*
X014416Y021556D01*
X014334Y021474D01*
X014228Y021430D01*
X012612Y021430D01*
X012580Y021443D02*
X012580Y014970D01*
X012260Y014970D02*
X012260Y021720D01*
X012210Y021770D02*
X008710Y021770D01*
X008710Y021450D02*
X012564Y021450D01*
X012130Y022090D02*
X008710Y022090D01*
X008710Y022410D02*
X012130Y022410D01*
X012130Y022730D02*
X008710Y022730D01*
X008710Y023050D02*
X012130Y023050D01*
X012041Y023370D02*
X008799Y023370D01*
X008740Y023240D02*
X008740Y016200D01*
X008870Y016330D02*
X005690Y016330D01*
X005540Y016180D02*
X005540Y016087D01*
X005410Y016010D02*
X005370Y016010D01*
X005220Y015860D02*
X005220Y015680D01*
X005230Y015690D02*
X005059Y015690D01*
X004900Y015400D02*
X004900Y015360D01*
X004910Y015370D02*
X004841Y015370D01*
X004580Y015337D02*
X004580Y015260D01*
X004499Y015370D02*
X000670Y015370D01*
X000670Y015050D02*
X003590Y015050D01*
X003620Y015080D02*
X003620Y017618D01*
X003300Y017618D02*
X003300Y014970D01*
X002980Y014970D02*
X002980Y017618D01*
X002660Y017624D02*
X002660Y014970D01*
X002340Y014970D02*
X002340Y017848D01*
X002020Y017839D02*
X002020Y014970D01*
X001700Y014970D02*
X001700Y018035D01*
X001805Y017930D02*
X000670Y017930D01*
X000670Y017610D02*
X005011Y017610D01*
X004900Y017618D02*
X004900Y016360D01*
X004870Y016330D02*
X000670Y016330D01*
X000670Y016010D02*
X004410Y016010D01*
X004580Y016103D02*
X004580Y017618D01*
X004260Y017618D02*
X004260Y015260D01*
X003940Y015260D02*
X003940Y017618D01*
X003940Y018197D02*
X003940Y024537D01*
X003893Y024650D02*
X000670Y024650D01*
X000670Y024330D02*
X004113Y024330D01*
X004260Y024256D02*
X004260Y018197D01*
X004580Y018197D02*
X004580Y024216D01*
X004900Y024216D02*
X004900Y018197D01*
X004974Y018250D02*
X002800Y018250D01*
X002980Y018197D02*
X002980Y018870D01*
X003000Y018890D02*
X004974Y018890D01*
X004974Y018570D02*
X002810Y018570D01*
X003300Y018197D02*
X003300Y025956D01*
X003326Y025930D02*
X000670Y025930D01*
X000670Y026250D02*
X003152Y026250D01*
X003146Y026570D02*
X000670Y026570D01*
X000670Y026890D02*
X003146Y026890D01*
X003146Y026768D02*
X003622Y026768D01*
X003622Y027636D01*
X003547Y027625D01*
X003469Y027599D01*
X003396Y027562D01*
X003329Y027513D01*
X003271Y027455D01*
X003222Y027388D01*
X003185Y027315D01*
X003159Y027236D01*
X003146Y027155D01*
X003146Y026768D01*
X003300Y026768D02*
X003300Y026672D01*
X003620Y026672D02*
X003620Y026768D01*
X003622Y026890D02*
X003718Y026890D01*
X003940Y026768D02*
X003940Y026672D01*
X003718Y026570D02*
X003622Y026570D01*
X003622Y026250D02*
X003718Y026250D01*
X003718Y025930D02*
X003622Y025930D01*
X003620Y025804D02*
X003620Y018197D01*
X003210Y019210D02*
X004974Y019210D01*
X004974Y019530D02*
X003210Y019530D01*
X003180Y019850D02*
X004974Y019850D01*
X005210Y020170D02*
X002880Y020170D01*
X002980Y020070D02*
X002980Y020870D01*
X002920Y020810D02*
X008130Y020810D01*
X008130Y020490D02*
X005950Y020490D01*
X005860Y020562D02*
X005860Y024682D01*
X005847Y024650D02*
X007940Y024650D01*
X007780Y024583D02*
X007780Y033720D01*
X007460Y033720D02*
X007460Y018920D01*
X007430Y018890D02*
X005554Y018890D01*
X005554Y018570D02*
X007110Y018570D01*
X007140Y018600D02*
X007140Y033720D01*
X006180Y033720D02*
X006180Y027717D01*
X005860Y027680D02*
X005860Y033720D01*
X003620Y033720D02*
X003620Y027636D01*
X003622Y027530D02*
X003718Y027530D01*
X003718Y027210D02*
X003622Y027210D01*
X003352Y027530D02*
X000670Y027530D01*
X000670Y027210D02*
X003155Y027210D01*
X003300Y027484D02*
X003300Y033720D01*
X002980Y033720D02*
X002980Y033027D01*
X003013Y032970D02*
X018260Y032970D01*
X018340Y033050D02*
X018340Y033720D01*
X018020Y033720D02*
X018020Y032730D01*
X017940Y032650D02*
X003133Y032650D01*
X003105Y032810D02*
X003105Y032810D01*
X003165Y032470D01*
X003165Y032470D01*
X003105Y032130D01*
X003105Y032130D01*
X002932Y031830D01*
X002932Y031830D01*
X002932Y031830D01*
X002668Y031608D01*
X002668Y031608D01*
X002343Y031490D01*
X002343Y031490D01*
X002220Y031490D01*
X001997Y031490D01*
X001672Y031608D01*
X001672Y031608D01*
X001408Y031830D01*
X001408Y031830D01*
X001235Y032130D01*
X001235Y032130D01*
X001175Y032470D01*
X001175Y032470D01*
X001235Y032810D01*
X001235Y032810D01*
X001408Y033110D01*
X001408Y033110D01*
X001672Y033332D01*
X001672Y033332D01*
X001997Y033450D01*
X002343Y033450D01*
X002668Y033332D01*
X002668Y033332D01*
X002932Y033110D01*
X002932Y033110D01*
X003105Y032810D01*
X003140Y032330D02*
X017620Y032330D01*
X017700Y032410D02*
X017700Y033720D01*
X017380Y033720D02*
X017380Y032090D01*
X017300Y032010D02*
X003036Y032010D01*
X002980Y031913D02*
X002980Y022070D01*
X002960Y022090D02*
X008130Y022090D01*
X008130Y021770D02*
X003210Y021770D01*
X003210Y021450D02*
X008130Y021450D01*
X008130Y021130D02*
X003197Y021130D01*
X002810Y020490D02*
X005390Y020490D01*
X005540Y020587D02*
X005540Y024281D01*
X005627Y024330D02*
X007545Y024330D01*
X007586Y024010D02*
X002535Y024010D01*
X002660Y023885D02*
X002660Y031605D01*
X002765Y031690D02*
X013980Y031690D01*
X013860Y031570D02*
X013860Y033720D01*
X013540Y033720D02*
X013540Y031250D01*
X013660Y031370D02*
X000670Y031370D01*
X000670Y031050D02*
X013340Y031050D01*
X013220Y030930D02*
X013220Y033720D01*
X012900Y033720D02*
X012900Y030610D01*
X013020Y030730D02*
X000670Y030730D01*
X000670Y030410D02*
X012700Y030410D01*
X012630Y030090D02*
X000670Y030090D01*
X000670Y029770D02*
X012630Y029770D01*
X012630Y029450D02*
X000670Y029450D01*
X000670Y029130D02*
X012630Y029130D01*
X012630Y028810D02*
X000670Y028810D01*
X000670Y028490D02*
X012467Y028490D01*
X012147Y027210D02*
X013130Y027210D01*
X013130Y026890D02*
X006674Y026890D01*
X006674Y026570D02*
X013130Y026570D01*
X013130Y026250D02*
X006674Y026250D01*
X006674Y027210D02*
X011693Y027210D01*
X011620Y027283D02*
X011620Y026010D01*
X011300Y026010D02*
X011300Y033720D01*
X010980Y033720D02*
X010980Y026010D01*
X010660Y026010D02*
X010660Y033720D01*
X010340Y033720D02*
X010340Y026010D01*
X010020Y026010D02*
X010020Y033720D01*
X009700Y033720D02*
X009700Y026010D01*
X009700Y025430D02*
X009700Y021351D01*
X010020Y021295D02*
X010020Y025430D01*
X009400Y025290D02*
X011880Y025290D01*
X011620Y025430D02*
X011620Y020558D01*
X011700Y020490D02*
X014630Y020490D01*
X014630Y020170D02*
X011809Y020170D01*
X011710Y019850D02*
X014630Y019850D01*
X014630Y019530D02*
X011710Y019530D01*
X011710Y019210D02*
X014630Y019210D01*
X014630Y018890D02*
X011710Y018890D01*
X011710Y018570D02*
X014630Y018570D01*
X014630Y018250D02*
X011790Y018250D01*
X011300Y017755D02*
X011300Y014970D01*
X010980Y014970D02*
X010980Y025430D01*
X011300Y025430D02*
X011300Y020591D01*
X011140Y020490D02*
X010085Y020490D01*
X010085Y020170D02*
X011031Y020170D01*
X011130Y019850D02*
X010085Y019850D01*
X010085Y019530D02*
X011130Y019530D01*
X011130Y019210D02*
X010085Y019210D01*
X010085Y018890D02*
X011130Y018890D01*
X011130Y018570D02*
X010085Y018570D01*
X010085Y018250D02*
X011050Y018250D01*
X011081Y017930D02*
X010370Y017930D01*
X010766Y017290D02*
X014630Y017290D01*
X014500Y017108D02*
X014500Y021640D01*
X014630Y021450D02*
X014276Y021450D01*
X014180Y021430D02*
X014180Y017030D01*
X014120Y016970D02*
X010330Y016970D01*
X010340Y016980D02*
X010340Y014970D01*
X010660Y014970D02*
X010660Y017160D01*
X010020Y016660D02*
X010020Y014970D01*
X009700Y014970D02*
X009700Y016340D01*
X009690Y016330D02*
X014130Y016330D01*
X014130Y016010D02*
X009370Y016010D01*
X009380Y016020D02*
X009380Y014970D01*
X009060Y014970D02*
X009060Y015700D01*
X009050Y015690D02*
X014130Y015690D01*
X014130Y015370D02*
X005841Y015370D01*
X005860Y015378D02*
X005860Y014970D01*
X006180Y014970D02*
X006180Y015430D01*
X006500Y015430D02*
X006500Y014970D01*
X006820Y014970D02*
X006820Y015430D01*
X007140Y015430D02*
X007140Y014970D01*
X007460Y014970D02*
X007460Y015430D01*
X007780Y015430D02*
X007780Y014970D01*
X008100Y014970D02*
X008100Y015430D01*
X008420Y015430D02*
X008420Y014970D01*
X008740Y014970D02*
X008740Y015435D01*
X008740Y014470D02*
X008740Y011260D01*
X008420Y011260D02*
X008420Y014470D01*
X009060Y014470D02*
X009060Y011260D01*
X009380Y011260D02*
X009380Y014470D01*
X009700Y014470D02*
X009700Y011260D01*
X009840Y011210D02*
X013509Y011210D01*
X013540Y011241D02*
X013540Y011349D01*
X013460Y010890D02*
X010160Y010890D01*
X010020Y011030D02*
X010020Y014470D01*
X010340Y014470D02*
X010340Y010710D01*
X010480Y010570D02*
X013669Y010570D01*
X013540Y010510D02*
X013540Y010699D01*
X013860Y010510D02*
X013860Y010510D01*
X014171Y010570D02*
X014249Y010570D01*
X014180Y010579D02*
X014180Y010530D01*
X014500Y010608D02*
X014500Y010739D01*
X014460Y010890D02*
X014380Y010890D01*
X014331Y011210D02*
X014509Y011210D01*
X014500Y011201D02*
X014500Y012640D01*
X014630Y012490D02*
X014350Y012490D01*
X014210Y012170D02*
X014630Y012170D01*
X014630Y011850D02*
X014210Y011850D01*
X014210Y011530D02*
X014630Y011530D01*
X014591Y010570D02*
X014669Y010570D01*
X014820Y010510D02*
X014820Y008780D01*
X014690Y008650D02*
X009710Y008650D01*
X009710Y008330D02*
X011273Y008330D01*
X011300Y008341D02*
X011300Y009930D01*
X010980Y009930D02*
X010980Y008260D01*
X010660Y008260D02*
X010660Y009930D01*
X010362Y009930D02*
X014160Y009930D01*
X014200Y009890D01*
X014343Y009831D01*
X014497Y009831D01*
X014640Y009890D01*
X014500Y009832D02*
X014500Y008460D01*
X014273Y008330D02*
X011567Y008330D01*
X011620Y008308D02*
X011620Y009930D01*
X011940Y009930D02*
X011940Y008260D01*
X012260Y008260D02*
X012260Y009930D01*
X012580Y009930D02*
X012580Y008260D01*
X012900Y008260D02*
X012900Y009930D01*
X013220Y009930D02*
X013220Y008260D01*
X013540Y008260D02*
X013540Y009930D01*
X013860Y009930D02*
X013860Y008190D01*
X014180Y008280D02*
X014180Y009910D01*
X014809Y010250D02*
X015130Y010250D01*
X015130Y009290D02*
X009710Y009290D01*
X009710Y008970D02*
X015010Y008970D01*
X015290Y007680D02*
X016160Y007680D01*
X016200Y007640D01*
X016343Y007581D01*
X016497Y007581D01*
X016640Y007640D01*
X016680Y007680D01*
X018550Y007680D01*
X018924Y007306D01*
X019006Y007224D01*
X019112Y007180D01*
X019728Y007180D01*
X019834Y007224D01*
X020290Y007680D01*
X021160Y007680D01*
X021200Y007640D01*
X021343Y007581D01*
X021497Y007581D01*
X021640Y007640D01*
X021680Y007680D01*
X023550Y007680D01*
X023924Y007306D01*
X024006Y007224D01*
X024112Y007180D01*
X024728Y007180D01*
X024834Y007224D01*
X025290Y007680D01*
X026160Y007680D01*
X026200Y007640D01*
X026343Y007581D01*
X026497Y007581D01*
X026640Y007640D01*
X026680Y007680D01*
X028550Y007680D01*
X029006Y007224D01*
X029112Y007180D01*
X029728Y007180D01*
X029834Y007224D01*
X029916Y007306D01*
X030290Y007680D01*
X031160Y007680D01*
X031200Y007640D01*
X031343Y007581D01*
X031497Y007581D01*
X031640Y007640D01*
X031680Y007680D01*
X033550Y007680D01*
X034006Y007224D01*
X034112Y007180D01*
X034728Y007180D01*
X034834Y007224D01*
X035290Y007680D01*
X036160Y007680D01*
X036200Y007640D01*
X036343Y007581D01*
X036497Y007581D01*
X036640Y007640D01*
X036750Y007750D01*
X036809Y007893D01*
X036809Y008047D01*
X036750Y008190D01*
X036640Y008300D01*
X036497Y008359D01*
X036343Y008359D01*
X036200Y008300D01*
X036160Y008260D01*
X035112Y008260D01*
X035006Y008216D01*
X034924Y008134D01*
X034809Y008019D01*
X034809Y008047D01*
X034750Y008190D01*
X034640Y008300D01*
X034497Y008359D01*
X034441Y008359D01*
X033620Y009180D01*
X037800Y009180D01*
X039031Y007949D01*
X039031Y007893D01*
X039090Y007750D01*
X039200Y007640D01*
X039343Y007581D01*
X039497Y007581D01*
X039640Y007640D01*
X039750Y007750D01*
X039809Y007893D01*
X039809Y008047D01*
X039750Y008190D01*
X039640Y008300D01*
X039497Y008359D01*
X039441Y008359D01*
X038084Y009716D01*
X037978Y009760D01*
X027790Y009760D01*
X027460Y010090D01*
X027460Y010529D01*
X027479Y010510D01*
X027861Y010510D01*
X028130Y010779D01*
X028130Y011161D01*
X027861Y011430D01*
X027479Y011430D01*
X027460Y011411D01*
X027460Y014528D01*
X027416Y014634D01*
X027334Y014716D01*
X026870Y015180D01*
X026870Y015550D01*
X026801Y015715D01*
X026675Y015841D01*
X026510Y015910D01*
X026330Y015910D01*
X026227Y015867D01*
X026441Y016081D01*
X026497Y016081D01*
X026640Y016140D01*
X026750Y016250D01*
X026809Y016393D01*
X026809Y016547D01*
X026750Y016690D01*
X026640Y016800D01*
X026497Y016859D01*
X026343Y016859D01*
X026200Y016800D01*
X026090Y016690D01*
X026031Y016547D01*
X026031Y016491D01*
X025800Y016260D01*
X025120Y016260D01*
X025166Y016306D01*
X026166Y017306D01*
X026210Y017412D01*
X026210Y017580D01*
X026330Y017530D01*
X026510Y017530D01*
X026644Y017586D01*
X028380Y015850D01*
X028380Y011331D01*
X028210Y011161D01*
X028210Y010779D01*
X028479Y010510D01*
X028861Y010510D01*
X029130Y010779D01*
X029130Y011161D01*
X028960Y011331D01*
X028960Y016028D01*
X028916Y016134D01*
X026870Y018180D01*
X026870Y018550D01*
X026801Y018715D01*
X026675Y018841D01*
X026510Y018910D01*
X026330Y018910D01*
X026210Y018860D01*
X026210Y018970D01*
X029380Y018970D01*
X029380Y011331D01*
X029210Y011161D01*
X029210Y010779D01*
X029479Y010510D01*
X029861Y010510D01*
X030130Y010779D01*
X030130Y011161D01*
X029960Y011331D01*
X029960Y018970D01*
X041170Y018970D01*
X041170Y002470D01*
X041159Y002307D01*
X041075Y001992D01*
X040912Y001709D01*
X040681Y001478D01*
X040398Y001315D01*
X040083Y001231D01*
X039920Y001220D01*
X001920Y001220D01*
X001757Y001231D01*
X001442Y001315D01*
X001442Y001315D01*
X001380Y001351D02*
X001380Y007581D01*
X001343Y007581D02*
X001497Y007581D01*
X001640Y007640D01*
X001680Y007680D01*
X003550Y007680D01*
X003924Y007306D01*
X004006Y007224D01*
X004112Y007180D01*
X004728Y007180D01*
X004834Y007224D01*
X005290Y007680D01*
X006160Y007680D01*
X006200Y007640D01*
X006343Y007581D01*
X006497Y007581D01*
X006640Y007640D01*
X006680Y007680D01*
X008550Y007680D01*
X008924Y007306D01*
X009006Y007224D01*
X009112Y007180D01*
X009728Y007180D01*
X009834Y007224D01*
X010290Y007680D01*
X011160Y007680D01*
X011200Y007640D01*
X011343Y007581D01*
X011497Y007581D01*
X011640Y007640D01*
X011680Y007680D01*
X013550Y007680D01*
X013924Y007306D01*
X014006Y007224D01*
X014112Y007180D01*
X014728Y007180D01*
X014834Y007224D01*
X015290Y007680D01*
X015460Y007680D02*
X015460Y001220D01*
X015780Y001220D02*
X015780Y007680D01*
X016100Y007680D02*
X016100Y001220D01*
X016420Y001220D02*
X016420Y007581D01*
X016740Y007680D02*
X016740Y001220D01*
X017060Y001220D02*
X017060Y007680D01*
X017380Y007680D02*
X017380Y001220D01*
X017700Y001220D02*
X017700Y007680D01*
X018020Y007680D02*
X018020Y001220D01*
X018340Y001220D02*
X018340Y002316D01*
X018367Y002250D02*
X014473Y002250D01*
X014466Y002233D02*
X014564Y002470D01*
X014564Y002726D01*
X014466Y002963D01*
X014285Y003144D01*
X014048Y003242D01*
X013792Y003242D01*
X013555Y003144D01*
X013374Y002963D01*
X013276Y002726D01*
X013276Y002470D01*
X013374Y002233D01*
X013555Y002052D01*
X013792Y001954D01*
X014048Y001954D01*
X014285Y002052D01*
X014466Y002233D01*
X014500Y002316D02*
X014500Y001220D01*
X014180Y001220D02*
X014180Y002009D01*
X013860Y001954D02*
X013860Y001220D01*
X013540Y001220D02*
X013540Y002068D01*
X013367Y002250D02*
X009473Y002250D01*
X009466Y002233D02*
X009564Y002470D01*
X009564Y002726D01*
X009466Y002963D01*
X009285Y003144D01*
X009048Y003242D01*
X008792Y003242D01*
X008555Y003144D01*
X008374Y002963D01*
X008276Y002726D01*
X008276Y002470D01*
X008374Y002233D01*
X008555Y002052D01*
X008792Y001954D01*
X009048Y001954D01*
X009285Y002052D01*
X009466Y002233D01*
X009380Y002148D02*
X009380Y001220D01*
X009060Y001220D02*
X009060Y001959D01*
X008740Y001976D02*
X008740Y001220D01*
X008420Y001220D02*
X008420Y002188D01*
X008367Y002250D02*
X004473Y002250D01*
X004466Y002233D02*
X004564Y002470D01*
X004564Y002726D01*
X004466Y002963D01*
X004285Y003144D01*
X004048Y003242D01*
X003792Y003242D01*
X003555Y003144D01*
X003374Y002963D01*
X003276Y002726D01*
X003276Y002470D01*
X003374Y002233D01*
X003555Y002052D01*
X003792Y001954D01*
X004048Y001954D01*
X004285Y002052D01*
X004466Y002233D01*
X004260Y002042D02*
X004260Y001220D01*
X003940Y001220D02*
X003940Y001954D01*
X003620Y002025D02*
X003620Y001220D01*
X003300Y001220D02*
X003300Y002413D01*
X003276Y002570D02*
X000670Y002570D01*
X000670Y002890D02*
X003344Y002890D01*
X003300Y002783D02*
X003300Y005169D01*
X003316Y005130D02*
X000670Y005130D01*
X000670Y004810D02*
X003554Y004810D01*
X003555Y004808D02*
X003792Y004710D01*
X004048Y004710D01*
X004285Y004808D01*
X004466Y004989D01*
X004564Y005226D01*
X004564Y005482D01*
X004466Y005718D01*
X004285Y005900D01*
X004048Y005998D01*
X003792Y005998D01*
X003555Y005900D01*
X003374Y005718D01*
X003276Y005482D01*
X003276Y005226D01*
X003374Y004989D01*
X003555Y004808D01*
X003620Y004781D02*
X003620Y003170D01*
X003716Y003210D02*
X000670Y003210D01*
X000670Y003530D02*
X041170Y003530D01*
X041170Y003210D02*
X039124Y003210D01*
X039140Y003204D02*
X039140Y004748D01*
X039048Y004710D02*
X039285Y004808D01*
X039466Y004989D01*
X039564Y005226D01*
X039564Y005482D01*
X039466Y005718D01*
X039285Y005900D01*
X039048Y005998D01*
X038792Y005998D01*
X038555Y005900D01*
X038374Y005718D01*
X038276Y005482D01*
X038276Y005226D01*
X038374Y004989D01*
X038555Y004808D01*
X038792Y004710D01*
X039048Y004710D01*
X038820Y004710D02*
X038820Y003242D01*
X038792Y003242D02*
X039048Y003242D01*
X039285Y003144D01*
X039466Y002963D01*
X039564Y002726D01*
X039564Y002470D01*
X039466Y002233D01*
X039285Y002052D01*
X039048Y001954D01*
X038792Y001954D01*
X038555Y002052D01*
X038374Y002233D01*
X038276Y002470D01*
X038276Y002726D01*
X038374Y002963D01*
X038555Y003144D01*
X038792Y003242D01*
X038716Y003210D02*
X034124Y003210D01*
X034048Y003242D02*
X033792Y003242D01*
X033555Y003144D01*
X033374Y002963D01*
X033276Y002726D01*
X033276Y002470D01*
X033374Y002233D01*
X033555Y002052D01*
X033792Y001954D01*
X034048Y001954D01*
X034285Y002052D01*
X034466Y002233D01*
X034564Y002470D01*
X034564Y002726D01*
X034466Y002963D01*
X034285Y003144D01*
X034048Y003242D01*
X034020Y003242D02*
X034020Y004710D01*
X034048Y004710D02*
X034285Y004808D01*
X034466Y004989D01*
X034564Y005226D01*
X034564Y005482D01*
X034466Y005718D01*
X034285Y005900D01*
X034048Y005998D01*
X033792Y005998D01*
X033555Y005900D01*
X033374Y005718D01*
X033276Y005482D01*
X033276Y005226D01*
X033374Y004989D01*
X033555Y004808D01*
X033792Y004710D01*
X034048Y004710D01*
X034286Y004810D02*
X038554Y004810D01*
X038500Y004864D02*
X038500Y003088D01*
X038344Y002890D02*
X034496Y002890D01*
X034340Y003088D02*
X034340Y004864D01*
X034524Y005130D02*
X038316Y005130D01*
X038276Y005450D02*
X034564Y005450D01*
X034414Y005770D02*
X038426Y005770D01*
X038500Y005844D02*
X038500Y008480D01*
X038650Y008330D02*
X036567Y008330D01*
X036580Y008324D02*
X036580Y009180D01*
X036260Y009180D02*
X036260Y008324D01*
X036273Y008330D02*
X034567Y008330D01*
X034660Y008280D02*
X034660Y009180D01*
X034340Y009180D02*
X034340Y008460D01*
X034150Y008650D02*
X038330Y008650D01*
X038180Y008800D02*
X038180Y001220D01*
X037860Y001220D02*
X037860Y009120D01*
X038010Y008970D02*
X033830Y008970D01*
X033700Y009100D02*
X033700Y009180D01*
X034020Y009180D02*
X034020Y008780D01*
X034924Y008134D02*
X034924Y008134D01*
X034980Y008190D02*
X034980Y009180D01*
X035300Y009180D02*
X035300Y008260D01*
X035620Y008260D02*
X035620Y009180D01*
X035940Y009180D02*
X035940Y008260D01*
X035940Y007680D02*
X035940Y001220D01*
X035620Y001220D02*
X035620Y007680D01*
X035300Y007680D02*
X035300Y001220D01*
X034980Y001220D02*
X034980Y007370D01*
X041170Y007370D01*
X041170Y007050D02*
X000670Y007050D01*
X000670Y006730D02*
X041170Y006730D01*
X041170Y006410D02*
X000670Y006410D01*
X000670Y006090D02*
X041170Y006090D01*
X041170Y005770D02*
X039414Y005770D01*
X039460Y005724D02*
X039460Y007581D01*
X039690Y007690D02*
X041170Y007690D01*
X041170Y008010D02*
X039809Y008010D01*
X039780Y008117D02*
X039780Y010240D01*
X039747Y010240D02*
X040093Y010240D01*
X040418Y010358D01*
X040682Y010580D01*
X040682Y010580D01*
X040682Y010580D01*
X040855Y010880D01*
X040915Y011220D01*
X040855Y011560D01*
X040855Y011560D01*
X040682Y011860D01*
X040418Y012082D01*
X040418Y012082D01*
X040093Y012200D01*
X039870Y012200D01*
X039747Y012200D01*
X039422Y012082D01*
X039158Y011860D01*
X039158Y011860D01*
X038985Y011560D01*
X038925Y011220D01*
X038985Y010880D01*
X038985Y010880D01*
X039158Y010580D01*
X039422Y010358D01*
X039422Y010358D01*
X039747Y010240D01*
X039720Y010250D02*
X027460Y010250D01*
X027620Y010510D02*
X027620Y009930D01*
X041170Y009930D01*
X041170Y009610D02*
X038190Y009610D01*
X038180Y009620D02*
X038180Y018970D01*
X037860Y018970D02*
X037860Y009760D01*
X037540Y009760D02*
X037540Y018970D01*
X037220Y018970D02*
X037220Y009760D01*
X036900Y009760D02*
X036900Y018970D01*
X036580Y018970D02*
X036580Y009760D01*
X036260Y009760D02*
X036260Y018970D01*
X035940Y018970D02*
X035940Y009760D01*
X035620Y009760D02*
X035620Y018970D01*
X035300Y018970D02*
X035300Y009760D01*
X034980Y009760D02*
X034980Y018970D01*
X034660Y018970D02*
X034660Y009760D01*
X034340Y009760D02*
X034340Y018970D01*
X034020Y018970D02*
X034020Y009760D01*
X033700Y009760D02*
X033700Y018970D01*
X033380Y018970D02*
X033380Y009760D01*
X033060Y009760D02*
X033060Y018970D01*
X032740Y018970D02*
X032740Y009760D01*
X032420Y009760D02*
X032420Y018970D01*
X032100Y018970D02*
X032100Y009760D01*
X031780Y009760D02*
X031780Y018970D01*
X031460Y018970D02*
X031460Y009760D01*
X031140Y009760D02*
X031140Y018970D01*
X030820Y018970D02*
X030820Y009760D01*
X030500Y009760D02*
X030500Y018970D01*
X030180Y018970D02*
X030180Y009760D01*
X029860Y009760D02*
X029860Y010510D01*
X029921Y010570D02*
X039170Y010570D01*
X039158Y010580D02*
X039158Y010580D01*
X039140Y010611D02*
X039140Y008660D01*
X039150Y008650D02*
X041170Y008650D01*
X041170Y008330D02*
X039567Y008330D01*
X039460Y008359D02*
X039460Y010345D01*
X040100Y010243D02*
X040100Y001235D01*
X040304Y001290D02*
X001535Y001290D01*
X001700Y001246D02*
X001700Y007680D01*
X002020Y007680D02*
X002020Y001220D01*
X002340Y001220D02*
X002340Y007680D01*
X002660Y007680D02*
X002660Y001220D01*
X002980Y001220D02*
X002980Y007680D01*
X003300Y007680D02*
X003300Y005539D01*
X003276Y005450D02*
X000670Y005450D01*
X000670Y005770D02*
X003426Y005770D01*
X003620Y005926D02*
X003620Y007610D01*
X003860Y007370D02*
X000670Y007370D01*
X000670Y007690D02*
X001150Y007690D01*
X001200Y007640D02*
X001343Y007581D01*
X001200Y007640D02*
X001090Y007750D01*
X001031Y007893D01*
X001031Y008047D01*
X001090Y008190D01*
X001200Y008300D01*
X001343Y008359D01*
X001497Y008359D01*
X001640Y008300D01*
X001680Y008260D01*
X003728Y008260D01*
X003834Y008216D01*
X004031Y008019D01*
X004031Y008047D01*
X004090Y008190D01*
X004130Y008230D01*
X004130Y010210D01*
X004090Y010250D01*
X004130Y009930D02*
X001309Y009930D01*
X001067Y009610D02*
X004130Y009610D01*
X004130Y009290D02*
X000670Y009290D01*
X000670Y008970D02*
X004130Y008970D01*
X004130Y008650D02*
X000670Y008650D01*
X000670Y008330D02*
X001273Y008330D01*
X001380Y008359D02*
X001380Y012020D01*
X001530Y012093D02*
X001627Y011857D01*
X001700Y011785D02*
X001700Y011655D01*
X001606Y011530D02*
X001210Y011530D01*
X001210Y011850D02*
X001530Y012170D01*
X001530Y012093D01*
X001530Y011210D02*
X001210Y011210D01*
X001210Y010890D02*
X001614Y010890D01*
X001700Y010785D02*
X001700Y008260D01*
X001567Y008330D02*
X004130Y008330D01*
X003940Y008110D02*
X003940Y011440D01*
X004012Y011530D02*
X004980Y011530D01*
X004985Y011560D02*
X004985Y011560D01*
X004925Y011220D02*
X004925Y011220D01*
X004927Y011210D02*
X002810Y011210D01*
X002734Y011530D02*
X003328Y011530D01*
X003300Y011597D02*
X003300Y008260D01*
X003620Y008260D02*
X003620Y011331D01*
X003300Y011843D02*
X003300Y013940D01*
X003450Y014090D02*
X014130Y014090D01*
X013860Y014970D02*
X013860Y021430D01*
X014630Y021130D02*
X010149Y021130D01*
X010149Y020810D02*
X014630Y020810D01*
X013470Y022410D02*
X012710Y022410D01*
X012710Y022730D02*
X013470Y022730D01*
X013630Y024010D02*
X012460Y024010D01*
X011880Y024010D02*
X008254Y024010D01*
X008343Y023859D02*
X008200Y023800D01*
X008090Y023690D01*
X002772Y023690D01*
X002810Y023370D02*
X008041Y023370D01*
X008031Y023393D02*
X008090Y023250D01*
X008130Y023210D01*
X008130Y019590D01*
X008100Y019560D02*
X008100Y023240D01*
X008031Y023393D02*
X008031Y023547D01*
X008090Y023690D01*
X008100Y023700D02*
X008100Y023874D01*
X008343Y023859D02*
X008497Y023859D01*
X008640Y023800D01*
X008750Y023690D01*
X008740Y023700D02*
X008740Y024630D01*
X008760Y024650D02*
X011880Y024650D01*
X011880Y024330D02*
X008440Y024330D01*
X008420Y024310D02*
X008420Y023859D01*
X007780Y023857D02*
X007780Y019240D01*
X007750Y019210D02*
X005554Y019210D01*
X005554Y019530D02*
X008070Y019530D01*
X008710Y019530D02*
X009505Y019530D01*
X009505Y019850D02*
X008710Y019850D01*
X008710Y020170D02*
X009505Y020170D01*
X009505Y020490D02*
X008710Y020490D01*
X008710Y020810D02*
X009441Y020810D01*
X009441Y021130D02*
X008710Y021130D01*
X008130Y020170D02*
X006059Y020170D01*
X005220Y020180D02*
X005220Y024216D01*
X003885Y024970D02*
X000670Y024970D01*
X000670Y024010D02*
X001805Y024010D01*
X001700Y023905D02*
X001700Y031598D01*
X001575Y031690D02*
X000670Y031690D01*
X000670Y032010D02*
X001304Y032010D01*
X001380Y031878D02*
X001380Y014970D01*
X001060Y014970D02*
X001060Y033363D01*
X000987Y033290D02*
X001623Y033290D01*
X001700Y033342D02*
X001700Y033694D01*
X001416Y033610D02*
X018900Y033610D01*
X018980Y033690D02*
X018980Y033720D01*
X018660Y033720D02*
X018660Y033370D01*
X018580Y033290D02*
X002717Y033290D01*
X002660Y033335D02*
X002660Y033720D01*
X002340Y033720D02*
X002340Y033450D01*
X002020Y033450D02*
X002020Y033720D01*
X001380Y033589D02*
X001380Y033062D01*
X001408Y033110D02*
X001408Y033110D01*
X001327Y032970D02*
X000778Y032970D01*
X000740Y032854D02*
X000740Y014970D01*
X000670Y015690D02*
X004281Y015690D01*
X005410Y015050D02*
X014130Y015050D01*
X012580Y014470D02*
X012580Y010510D01*
X012260Y010510D02*
X012260Y014470D01*
X011940Y014470D02*
X011940Y010510D01*
X011620Y010510D02*
X011620Y014470D01*
X011300Y014470D02*
X011300Y010510D01*
X010980Y010510D02*
X010980Y014470D01*
X010660Y014470D02*
X010660Y010510D01*
X010362Y009930D02*
X010256Y009974D01*
X009809Y010421D01*
X009809Y010393D01*
X009750Y010250D01*
X009130Y010210D02*
X009090Y010250D01*
X009060Y010323D02*
X009060Y008117D01*
X008740Y007490D02*
X008740Y005976D01*
X008792Y005998D02*
X008555Y005900D01*
X008374Y005718D01*
X008276Y005482D01*
X008276Y005226D01*
X008374Y004989D01*
X008555Y004808D01*
X008792Y004710D01*
X009048Y004710D01*
X009285Y004808D01*
X009466Y004989D01*
X009564Y005226D01*
X009564Y005482D01*
X009466Y005718D01*
X009285Y005900D01*
X009048Y005998D01*
X008792Y005998D01*
X009060Y005993D02*
X009060Y007202D01*
X008860Y007370D02*
X004980Y007370D01*
X004900Y007290D02*
X004900Y001220D01*
X004580Y001220D02*
X004580Y007180D01*
X004260Y007180D02*
X004260Y005910D01*
X004414Y005770D02*
X008426Y005770D01*
X008420Y005764D02*
X008420Y007680D01*
X008100Y007680D02*
X008100Y001220D01*
X007780Y001220D02*
X007780Y007680D01*
X007460Y007680D02*
X007460Y001220D01*
X007140Y001220D02*
X007140Y007680D01*
X006820Y007680D02*
X006820Y001220D01*
X006500Y001220D02*
X006500Y007582D01*
X006180Y007660D02*
X006180Y001220D01*
X005860Y001220D02*
X005860Y007680D01*
X005540Y007680D02*
X005540Y001220D01*
X005220Y001220D02*
X005220Y007610D01*
X003940Y007290D02*
X003940Y005998D01*
X004564Y005450D02*
X008276Y005450D01*
X008316Y005130D02*
X004524Y005130D01*
X004286Y004810D02*
X008554Y004810D01*
X008420Y004944D02*
X008420Y003008D01*
X008344Y002890D02*
X004496Y002890D01*
X004564Y002570D02*
X008276Y002570D01*
X008716Y003210D02*
X004124Y003210D01*
X004260Y003154D02*
X004260Y004798D01*
X003940Y004710D02*
X003940Y003242D01*
X003367Y002250D02*
X000696Y002250D01*
X000740Y002086D02*
X000740Y009624D01*
X000773Y009610D02*
X000670Y009610D01*
X001060Y009607D02*
X001060Y008117D01*
X001031Y008010D02*
X000670Y008010D01*
X001060Y007823D02*
X001060Y001577D01*
X001027Y001610D02*
X040813Y001610D01*
X040740Y001537D02*
X040740Y010680D01*
X040670Y010570D02*
X041170Y010570D01*
X041170Y010890D02*
X040857Y010890D01*
X040855Y010880D02*
X040855Y010880D01*
X040913Y011210D02*
X041170Y011210D01*
X040915Y011220D02*
X040915Y011220D01*
X040860Y011530D02*
X041170Y011530D01*
X041170Y011850D02*
X040688Y011850D01*
X040682Y011860D02*
X040682Y011860D01*
X040740Y011760D02*
X040740Y018970D01*
X040420Y018970D02*
X040420Y012080D01*
X040175Y012170D02*
X041170Y012170D01*
X041170Y012490D02*
X029960Y012490D01*
X029960Y012810D02*
X041170Y012810D01*
X041170Y013130D02*
X029960Y013130D01*
X029960Y013450D02*
X041170Y013450D01*
X041170Y013770D02*
X029960Y013770D01*
X029960Y014090D02*
X041170Y014090D01*
X041170Y014410D02*
X029960Y014410D01*
X029960Y014730D02*
X041170Y014730D01*
X041170Y015050D02*
X029960Y015050D01*
X029960Y015370D02*
X041170Y015370D01*
X041170Y015690D02*
X029960Y015690D01*
X029960Y016010D02*
X041170Y016010D01*
X041170Y016330D02*
X029960Y016330D01*
X029960Y016650D02*
X041170Y016650D01*
X041170Y016970D02*
X029960Y016970D01*
X029960Y017290D02*
X041170Y017290D01*
X041170Y017610D02*
X029960Y017610D01*
X029960Y017930D02*
X041170Y017930D01*
X041170Y018250D02*
X029960Y018250D01*
X029960Y018570D02*
X041170Y018570D01*
X041170Y018890D02*
X029960Y018890D01*
X029960Y019470D02*
X029960Y021028D01*
X029916Y021134D01*
X029834Y021216D01*
X029719Y021331D01*
X029747Y021331D01*
X029890Y021390D01*
X030000Y021500D01*
X030059Y021643D01*
X030059Y021797D01*
X030000Y021940D01*
X029890Y022050D01*
X029747Y022109D01*
X029691Y022109D01*
X028309Y023491D01*
X028309Y023547D01*
X028306Y023555D01*
X029737Y023555D01*
X029853Y023555D01*
X029959Y023599D01*
X033291Y026931D01*
X033335Y027037D01*
X033335Y028184D01*
X033291Y028291D01*
X033209Y028372D01*
X032496Y029085D01*
X032496Y029141D01*
X032437Y029284D01*
X032328Y029393D01*
X032185Y029452D01*
X032030Y029452D01*
X031887Y029393D01*
X031848Y029354D01*
X031446Y029354D01*
X031210Y029590D01*
X031210Y030100D01*
X031240Y030130D01*
X031232Y030090D01*
X031210Y030090D01*
X031232Y030090D02*
X031232Y030070D01*
X031608Y030070D01*
X031608Y030430D01*
X031646Y030430D01*
X031646Y030070D01*
X031939Y030070D01*
X031939Y030032D01*
X031646Y030032D01*
X031646Y030070D01*
X031608Y030070D01*
X031608Y030032D01*
X031646Y030032D01*
X031646Y029656D01*
X031666Y029656D01*
X031742Y029671D01*
X031814Y029701D01*
X031878Y029744D01*
X031934Y029799D01*
X031977Y029864D01*
X031977Y029864D01*
X032011Y029782D01*
X032145Y029648D01*
X032320Y029576D01*
X032509Y029576D01*
X032683Y029648D01*
X032808Y029773D01*
X032932Y029648D01*
X033107Y029576D01*
X033296Y029576D01*
X033471Y029648D01*
X033595Y029773D01*
X033720Y029648D01*
X033894Y029576D01*
X034083Y029576D01*
X034138Y029598D01*
X033924Y029384D01*
X033880Y029278D01*
X033880Y027480D01*
X033840Y027440D01*
X033781Y027297D01*
X033781Y027143D01*
X033840Y027000D01*
X033950Y026890D01*
X034093Y026831D01*
X034247Y026831D01*
X034390Y026890D01*
X034486Y026987D01*
X034486Y023806D01*
X034530Y023699D01*
X034612Y023618D01*
X035781Y022449D01*
X035781Y022393D01*
X035840Y022250D01*
X035950Y022140D01*
X036093Y022081D01*
X036247Y022081D01*
X036390Y022140D01*
X036500Y022250D01*
X036559Y022393D01*
X036559Y022547D01*
X036500Y022690D01*
X036390Y022800D01*
X036247Y022859D01*
X036191Y022859D01*
X035066Y023984D01*
X035066Y026558D01*
X035090Y026500D01*
X035200Y026390D01*
X035343Y026331D01*
X035497Y026331D01*
X035640Y026390D01*
X035750Y026500D01*
X035809Y026643D01*
X035809Y026797D01*
X035750Y026940D01*
X035710Y026980D01*
X035710Y028850D01*
X035790Y028930D01*
X039228Y028930D01*
X039334Y028974D01*
X039416Y029056D01*
X039666Y029306D01*
X039710Y029412D01*
X039710Y030278D01*
X039666Y030384D01*
X039584Y030466D01*
X039059Y030991D01*
X039059Y031047D01*
X039000Y031190D01*
X038890Y031300D01*
X038747Y031359D01*
X038593Y031359D01*
X038450Y031300D01*
X038340Y031190D01*
X038281Y031047D01*
X038281Y030893D01*
X038208Y030966D01*
X038102Y031010D01*
X037290Y031010D01*
X037090Y031210D01*
X037381Y031210D01*
X037680Y031509D01*
X037680Y031931D01*
X037391Y032220D01*
X037680Y032509D01*
X037680Y032931D01*
X037381Y033230D01*
X036959Y033230D01*
X036875Y033147D01*
X036823Y033199D01*
X036323Y033699D01*
X036272Y033720D01*
X039920Y033720D01*
X040083Y033709D01*
X040398Y033625D01*
X040681Y033462D01*
X040912Y033231D01*
X041075Y032948D01*
X041159Y032633D01*
X041170Y032470D01*
X041170Y019470D01*
X029960Y019470D01*
X029960Y019530D02*
X041170Y019530D01*
X041060Y019470D02*
X041060Y032974D01*
X041062Y032970D02*
X040763Y032970D01*
X040740Y033010D02*
X040740Y033403D01*
X040853Y033290D02*
X040467Y033290D01*
X040420Y033330D02*
X040420Y033612D01*
X040424Y033610D02*
X036412Y033610D01*
X036580Y033720D02*
X036580Y033442D01*
X036732Y033290D02*
X039373Y033290D01*
X039422Y033332D02*
X039158Y033110D01*
X038985Y032810D01*
X038925Y032470D01*
X038985Y032130D01*
X038985Y032130D01*
X039158Y031830D01*
X039422Y031608D01*
X039422Y031608D01*
X039747Y031490D01*
X039870Y031490D01*
X040093Y031490D01*
X040418Y031608D01*
X040682Y031830D01*
X040682Y031830D01*
X040682Y031830D01*
X040855Y032130D01*
X040915Y032470D01*
X040855Y032810D01*
X040855Y032810D01*
X040682Y033110D01*
X040418Y033332D01*
X040418Y033332D01*
X040093Y033450D01*
X039747Y033450D01*
X039422Y033332D01*
X039422Y033332D01*
X039460Y033345D02*
X039460Y033720D01*
X039780Y033720D02*
X039780Y033450D01*
X040100Y033447D02*
X040100Y033705D01*
X040682Y033110D02*
X040682Y033110D01*
X040883Y032650D02*
X041155Y032650D01*
X040915Y032470D02*
X040915Y032470D01*
X040890Y032330D02*
X041170Y032330D01*
X041170Y032010D02*
X040786Y032010D01*
X040740Y031930D02*
X040740Y019470D01*
X040420Y019470D02*
X040420Y031610D01*
X040418Y031608D02*
X040418Y031608D01*
X040515Y031690D02*
X041170Y031690D01*
X041170Y031370D02*
X038428Y031370D01*
X038500Y031320D02*
X038500Y031442D01*
X038600Y031542D02*
X038600Y031670D01*
X038220Y031670D01*
X038220Y031770D01*
X038600Y031770D01*
X038600Y031898D01*
X038348Y032150D01*
X038220Y032150D01*
X038220Y031770D01*
X038120Y031770D01*
X038120Y032150D01*
X037992Y032150D01*
X037740Y031898D01*
X037740Y031770D01*
X038120Y031770D01*
X038120Y031670D01*
X038220Y031670D01*
X038220Y031290D01*
X038348Y031290D01*
X038600Y031542D01*
X038500Y031670D02*
X038500Y031770D01*
X038500Y031998D02*
X038500Y032442D01*
X038600Y032542D02*
X038600Y032670D01*
X038220Y032670D01*
X038220Y032770D01*
X038600Y032770D01*
X038600Y032898D01*
X038348Y033150D01*
X038220Y033150D01*
X038220Y032770D01*
X038120Y032770D01*
X038120Y033150D01*
X037992Y033150D01*
X037740Y032898D01*
X037740Y032770D01*
X038120Y032770D01*
X038120Y032670D01*
X038220Y032670D01*
X038220Y032290D01*
X038348Y032290D01*
X038600Y032542D01*
X038600Y032650D02*
X038957Y032650D01*
X038985Y032810D02*
X038985Y032810D01*
X039077Y032970D02*
X038528Y032970D01*
X038500Y032998D02*
X038500Y033720D01*
X038180Y033720D02*
X038180Y032770D01*
X038180Y032670D02*
X038180Y031770D01*
X038220Y031690D02*
X039325Y031690D01*
X039460Y031595D02*
X039460Y030590D01*
X039320Y030730D02*
X041170Y030730D01*
X041170Y030410D02*
X039640Y030410D01*
X039710Y030090D02*
X041170Y030090D01*
X041170Y029770D02*
X039710Y029770D01*
X039710Y029450D02*
X041170Y029450D01*
X041170Y029130D02*
X039490Y029130D01*
X039460Y029100D02*
X039460Y019470D01*
X039140Y019470D02*
X039140Y021178D01*
X039120Y021130D02*
X041170Y021130D01*
X041170Y021450D02*
X039188Y021450D01*
X039188Y021484D02*
X039188Y021295D01*
X039116Y021120D01*
X038982Y020987D01*
X038808Y020914D01*
X038619Y020914D01*
X038444Y020987D01*
X038320Y021111D01*
X038195Y020987D01*
X038020Y020914D01*
X037831Y020914D01*
X037657Y020987D01*
X037532Y021111D01*
X037408Y020987D01*
X037233Y020914D01*
X037044Y020914D01*
X036869Y020987D01*
X036745Y021111D01*
X036620Y020987D01*
X036446Y020914D01*
X036257Y020914D01*
X036082Y020987D01*
X035957Y021111D01*
X035833Y020987D01*
X035658Y020914D01*
X035469Y020914D01*
X035295Y020987D01*
X035170Y021111D01*
X035045Y020987D01*
X034871Y020914D01*
X034682Y020914D01*
X034507Y020987D01*
X034383Y021111D01*
X034258Y020987D01*
X034083Y020914D01*
X033894Y020914D01*
X033720Y020987D01*
X033595Y021111D01*
X033471Y020987D01*
X033296Y020914D01*
X033107Y020914D01*
X032932Y020987D01*
X032808Y021111D01*
X032683Y020987D01*
X032509Y020914D01*
X032320Y020914D01*
X032145Y020987D01*
X032020Y021111D01*
X031896Y020987D01*
X031721Y020914D01*
X031532Y020914D01*
X031358Y020987D01*
X031224Y021120D01*
X031152Y021295D01*
X031152Y021484D01*
X031224Y021658D01*
X031358Y021792D01*
X031532Y021864D01*
X031721Y021864D01*
X031896Y021792D01*
X032020Y021667D01*
X032145Y021792D01*
X032320Y021864D01*
X032509Y021864D01*
X032683Y021792D01*
X032808Y021667D01*
X032932Y021792D01*
X033107Y021864D01*
X033296Y021864D01*
X033471Y021792D01*
X033595Y021667D01*
X033720Y021792D01*
X033894Y021864D01*
X034083Y021864D01*
X034258Y021792D01*
X034383Y021667D01*
X034507Y021792D01*
X034682Y021864D01*
X034871Y021864D01*
X035045Y021792D01*
X035170Y021667D01*
X035295Y021792D01*
X035469Y021864D01*
X035658Y021864D01*
X035833Y021792D01*
X035957Y021667D01*
X036082Y021792D01*
X036257Y021864D01*
X036446Y021864D01*
X036620Y021792D01*
X036745Y021667D01*
X036869Y021792D01*
X037044Y021864D01*
X037233Y021864D01*
X037408Y021792D01*
X037532Y021667D01*
X037657Y021792D01*
X037831Y021864D01*
X038020Y021864D01*
X038195Y021792D01*
X038320Y021667D01*
X038444Y021792D01*
X038619Y021864D01*
X038808Y021864D01*
X038982Y021792D01*
X039116Y021658D01*
X039188Y021484D01*
X039140Y021600D02*
X039140Y028930D01*
X038820Y028930D02*
X038820Y021859D01*
X039004Y021770D02*
X041170Y021770D01*
X041170Y022090D02*
X036268Y022090D01*
X036260Y022087D02*
X036260Y021864D01*
X036060Y021770D02*
X035855Y021770D01*
X035940Y021685D02*
X035940Y022150D01*
X036072Y022090D02*
X029793Y022090D01*
X029860Y022062D02*
X029860Y023558D01*
X030050Y023690D02*
X034540Y023690D01*
X034612Y023618D02*
X034612Y023618D01*
X034660Y023570D02*
X034660Y021855D01*
X034485Y021770D02*
X034280Y021770D01*
X034340Y021710D02*
X034340Y026870D01*
X034389Y026890D02*
X034486Y026890D01*
X034486Y026570D02*
X032930Y026570D01*
X033060Y026700D02*
X033060Y021845D01*
X032910Y021770D02*
X032705Y021770D01*
X032740Y021735D02*
X032740Y026380D01*
X032610Y026250D02*
X034486Y026250D01*
X034486Y025930D02*
X032290Y025930D01*
X032420Y026060D02*
X032420Y021864D01*
X032123Y021770D02*
X031918Y021770D01*
X031780Y021840D02*
X031780Y025420D01*
X031650Y025290D02*
X034486Y025290D01*
X034486Y025610D02*
X031970Y025610D01*
X032100Y025740D02*
X032100Y021747D01*
X031460Y021834D02*
X031460Y025100D01*
X031330Y024970D02*
X034486Y024970D01*
X034486Y024650D02*
X031010Y024650D01*
X031140Y024780D02*
X031140Y019470D01*
X031460Y019470D02*
X031460Y020944D01*
X031220Y021130D02*
X029918Y021130D01*
X029860Y021190D02*
X029860Y021378D01*
X029950Y021450D02*
X031152Y021450D01*
X031336Y021770D02*
X030059Y021770D01*
X029834Y021216D02*
X029834Y021216D01*
X029960Y020810D02*
X041170Y020810D01*
X041170Y020490D02*
X029960Y020490D01*
X029960Y020170D02*
X041170Y020170D01*
X041170Y019850D02*
X029960Y019850D01*
X030180Y019470D02*
X030180Y023820D01*
X030370Y024010D02*
X034486Y024010D01*
X034486Y024330D02*
X030690Y024330D01*
X030820Y024460D02*
X030820Y019470D01*
X030500Y019470D02*
X030500Y024140D01*
X029540Y023555D02*
X029540Y022260D01*
X029390Y022410D02*
X035781Y022410D01*
X035620Y022610D02*
X035620Y021864D01*
X035300Y021794D02*
X035300Y022930D01*
X035180Y023050D02*
X028750Y023050D01*
X028900Y022900D02*
X028900Y023555D01*
X028580Y023555D02*
X028580Y023220D01*
X028430Y023370D02*
X034860Y023370D01*
X034980Y023250D02*
X034980Y021819D01*
X035067Y021770D02*
X035273Y021770D01*
X035300Y020984D02*
X035300Y019470D01*
X034980Y019470D02*
X034980Y020960D01*
X034660Y020923D02*
X034660Y019470D01*
X034340Y019470D02*
X034340Y021069D01*
X034020Y020914D02*
X034020Y019470D01*
X033700Y019470D02*
X033700Y021006D01*
X033380Y020949D02*
X033380Y019470D01*
X033060Y019470D02*
X033060Y020934D01*
X032740Y021043D02*
X032740Y019470D01*
X032420Y019470D02*
X032420Y020914D01*
X032100Y021032D02*
X032100Y019470D01*
X031780Y019470D02*
X031780Y020939D01*
X033380Y021829D02*
X033380Y029611D01*
X033593Y029770D02*
X033598Y029770D01*
X033700Y029668D02*
X033700Y021772D01*
X033698Y021770D02*
X033493Y021770D01*
X034020Y021864D02*
X034020Y026861D01*
X033951Y026890D02*
X033250Y026890D01*
X033335Y027210D02*
X033781Y027210D01*
X033880Y027530D02*
X033335Y027530D01*
X033335Y027850D02*
X033880Y027850D01*
X033880Y028170D02*
X033335Y028170D01*
X033209Y028372D02*
X033209Y028372D01*
X033091Y028490D02*
X033880Y028490D01*
X033880Y028810D02*
X032771Y028810D01*
X032740Y028841D02*
X032740Y029705D01*
X032805Y029770D02*
X032810Y029770D01*
X033060Y029595D02*
X033060Y028521D01*
X032496Y029130D02*
X033880Y029130D01*
X033990Y029450D02*
X032191Y029450D01*
X032100Y029452D02*
X032100Y029693D01*
X032023Y029770D02*
X031905Y029770D01*
X031780Y029687D02*
X031780Y029354D01*
X032024Y029450D02*
X031350Y029450D01*
X031460Y029354D02*
X031460Y029692D01*
X031440Y029701D02*
X031511Y029671D01*
X031588Y029656D01*
X031608Y029656D01*
X031608Y030032D01*
X031232Y030032D01*
X031232Y030012D01*
X031247Y029935D01*
X031277Y029864D01*
X031320Y029799D01*
X031375Y029744D01*
X031440Y029701D01*
X031349Y029770D02*
X031210Y029770D01*
X031460Y030032D02*
X031460Y030070D01*
X031608Y030090D02*
X031646Y030090D01*
X031780Y030070D02*
X031780Y030032D01*
X031646Y029770D02*
X031608Y029770D01*
X031608Y030410D02*
X031646Y030410D01*
X032420Y029576D02*
X032420Y029301D01*
X034020Y029480D02*
X034020Y029576D01*
X035710Y028810D02*
X041170Y028810D01*
X041170Y028490D02*
X035710Y028490D01*
X035710Y028170D02*
X041170Y028170D01*
X041170Y027850D02*
X035710Y027850D01*
X035710Y027530D02*
X041170Y027530D01*
X041170Y027210D02*
X035710Y027210D01*
X035770Y026890D02*
X041170Y026890D01*
X041170Y026570D02*
X035779Y026570D01*
X035620Y026382D02*
X035620Y023430D01*
X035680Y023370D02*
X041170Y023370D01*
X041170Y023050D02*
X036000Y023050D01*
X035940Y023110D02*
X035940Y028930D01*
X036260Y028930D02*
X036260Y022853D01*
X036460Y022730D02*
X041170Y022730D01*
X041170Y022410D02*
X036559Y022410D01*
X036580Y021809D02*
X036580Y028930D01*
X036900Y028930D02*
X036900Y021805D01*
X036847Y021770D02*
X036642Y021770D01*
X037220Y021864D02*
X037220Y028930D01*
X037540Y028930D02*
X037540Y021675D01*
X037635Y021770D02*
X037430Y021770D01*
X037860Y021864D02*
X037860Y028930D01*
X038180Y028930D02*
X038180Y021798D01*
X038217Y021770D02*
X038422Y021770D01*
X038500Y021815D02*
X038500Y028930D01*
X038180Y030978D02*
X038180Y031670D01*
X038120Y031670D02*
X038120Y031290D01*
X037992Y031290D01*
X037740Y031542D01*
X037740Y031670D01*
X038120Y031670D01*
X038120Y031690D02*
X037680Y031690D01*
X037860Y031670D02*
X037860Y031770D01*
X037852Y032010D02*
X037601Y032010D01*
X037540Y032071D02*
X037540Y032369D01*
X037501Y032330D02*
X037952Y032330D01*
X037992Y032290D02*
X037740Y032542D01*
X037740Y032670D01*
X038120Y032670D01*
X038120Y032290D01*
X037992Y032290D01*
X038120Y032330D02*
X038220Y032330D01*
X038388Y032330D02*
X038950Y032330D01*
X039054Y032010D02*
X038488Y032010D01*
X038220Y032010D02*
X038120Y032010D01*
X037860Y032018D02*
X037860Y032422D01*
X037860Y032670D02*
X037860Y032770D01*
X037740Y032650D02*
X037680Y032650D01*
X037641Y032970D02*
X037812Y032970D01*
X037860Y033018D02*
X037860Y033720D01*
X037540Y033720D02*
X037540Y033071D01*
X037220Y033230D02*
X037220Y033720D01*
X036900Y033720D02*
X036900Y033171D01*
X038120Y032970D02*
X038220Y032970D01*
X038220Y032650D02*
X038120Y032650D01*
X038500Y032670D02*
X038500Y032770D01*
X039140Y033079D02*
X039140Y033720D01*
X038820Y033720D02*
X038820Y031329D01*
X039058Y031050D02*
X041170Y031050D01*
X040100Y031493D02*
X040100Y019470D01*
X039780Y019470D02*
X039780Y031490D01*
X039158Y031830D02*
X039158Y031830D01*
X039140Y031861D02*
X039140Y030910D01*
X038282Y031050D02*
X037250Y031050D01*
X037220Y031080D02*
X037220Y031210D01*
X037540Y031369D02*
X037540Y031010D01*
X037860Y031010D02*
X037860Y031422D01*
X037912Y031370D02*
X037541Y031370D01*
X038120Y031370D02*
X038220Y031370D01*
X039158Y033110D02*
X039158Y033110D01*
X040855Y032130D02*
X040855Y032130D01*
X035300Y026349D02*
X035300Y023750D01*
X035360Y023690D02*
X041170Y023690D01*
X041170Y024010D02*
X035066Y024010D01*
X035066Y024330D02*
X041170Y024330D01*
X041170Y024650D02*
X035066Y024650D01*
X035066Y024970D02*
X041170Y024970D01*
X041170Y025290D02*
X035066Y025290D01*
X035066Y025610D02*
X041170Y025610D01*
X041170Y025930D02*
X035066Y025930D01*
X035066Y026250D02*
X041170Y026250D01*
X035500Y022730D02*
X029070Y022730D01*
X029220Y022580D02*
X029220Y023555D01*
X025345Y023555D02*
X025174Y023384D01*
X025130Y023278D01*
X025130Y023110D01*
X025010Y023160D01*
X024830Y023160D01*
X024665Y023091D01*
X024539Y022965D01*
X024470Y022800D01*
X024470Y022140D01*
X024539Y021975D01*
X024553Y021961D01*
X024497Y021984D01*
X024343Y021984D01*
X024287Y021961D01*
X024301Y021975D01*
X024370Y022140D01*
X024370Y022800D01*
X024301Y022965D01*
X024175Y023091D01*
X024010Y023160D01*
X023830Y023160D01*
X023665Y023091D01*
X023539Y022965D01*
X023470Y022800D01*
X023470Y022140D01*
X023539Y021975D01*
X023630Y021884D01*
X023630Y021170D01*
X023210Y021590D01*
X023210Y021884D01*
X023301Y021975D01*
X023370Y022140D01*
X023370Y022800D01*
X023301Y022965D01*
X023175Y023091D01*
X023010Y023160D01*
X022830Y023160D01*
X022665Y023091D01*
X022539Y022965D01*
X022470Y022800D01*
X022470Y022140D01*
X022539Y021975D01*
X022630Y021884D01*
X022630Y021412D01*
X022674Y021306D01*
X022756Y021224D01*
X023130Y020850D01*
X023130Y020816D01*
X023039Y020725D01*
X022970Y020560D01*
X022970Y020380D01*
X023039Y020215D01*
X023165Y020089D01*
X023330Y020020D01*
X023510Y020020D01*
X023630Y020070D01*
X023630Y019554D01*
X023497Y019609D01*
X023343Y019609D01*
X023200Y019550D01*
X023160Y019510D01*
X021430Y019510D01*
X021390Y019550D01*
X021247Y019609D01*
X021093Y019609D01*
X020950Y019550D01*
X020870Y019470D01*
X020710Y019470D01*
X020710Y021335D01*
X020750Y021375D01*
X020809Y021518D01*
X020809Y021672D01*
X020750Y021815D01*
X020640Y021925D01*
X020497Y021984D01*
X020343Y021984D01*
X020287Y021961D01*
X020301Y021975D01*
X020370Y022140D01*
X020370Y022800D01*
X020301Y022965D01*
X020175Y023091D01*
X020010Y023160D01*
X019830Y023160D01*
X019665Y023091D01*
X019539Y022965D01*
X019470Y022800D01*
X019470Y022140D01*
X019539Y021975D01*
X019630Y021884D01*
X019630Y019840D01*
X019260Y019470D01*
X019210Y019470D01*
X019210Y021884D01*
X019301Y021975D01*
X019370Y022140D01*
X019370Y022800D01*
X019301Y022965D01*
X019175Y023091D01*
X019010Y023160D01*
X018830Y023160D01*
X018665Y023091D01*
X018539Y022965D01*
X018470Y022800D01*
X018470Y022140D01*
X018539Y021975D01*
X018630Y021884D01*
X018630Y019470D01*
X018210Y019470D01*
X018210Y021884D01*
X018301Y021975D01*
X018370Y022140D01*
X018370Y022800D01*
X018301Y022965D01*
X018175Y023091D01*
X018010Y023160D01*
X017830Y023160D01*
X017665Y023091D01*
X017539Y022965D01*
X017470Y022800D01*
X017470Y022140D01*
X017539Y021975D01*
X017630Y021884D01*
X017630Y019470D01*
X017210Y019470D01*
X017210Y021884D01*
X017301Y021975D01*
X017370Y022140D01*
X017370Y022800D01*
X017301Y022965D01*
X017175Y023091D01*
X017039Y023148D01*
X017446Y023555D01*
X025345Y023555D01*
X025168Y023370D02*
X017261Y023370D01*
X017380Y023489D02*
X017380Y019470D01*
X017210Y019530D02*
X017630Y019530D01*
X017630Y019850D02*
X017210Y019850D01*
X017210Y020170D02*
X017630Y020170D01*
X017630Y020490D02*
X017210Y020490D01*
X017210Y020810D02*
X017630Y020810D01*
X017630Y021130D02*
X017210Y021130D01*
X017210Y021450D02*
X017630Y021450D01*
X017630Y021770D02*
X017210Y021770D01*
X017349Y022090D02*
X017491Y022090D01*
X017470Y022410D02*
X017370Y022410D01*
X017370Y022730D02*
X017470Y022730D01*
X017624Y023050D02*
X017216Y023050D01*
X017060Y023139D02*
X017060Y023169D01*
X017700Y023106D02*
X017700Y023555D01*
X018020Y023555D02*
X018020Y023156D01*
X018216Y023050D02*
X018624Y023050D01*
X018660Y023086D02*
X018660Y023555D01*
X018340Y023555D02*
X018340Y022872D01*
X018370Y022730D02*
X018470Y022730D01*
X018470Y022410D02*
X018370Y022410D01*
X018349Y022090D02*
X018491Y022090D01*
X018340Y022068D02*
X018340Y019470D01*
X018210Y019530D02*
X018630Y019530D01*
X018630Y019850D02*
X018210Y019850D01*
X018210Y020170D02*
X018630Y020170D01*
X018630Y020490D02*
X018210Y020490D01*
X018210Y020810D02*
X018630Y020810D01*
X018630Y021130D02*
X018210Y021130D01*
X018210Y021450D02*
X018630Y021450D01*
X018630Y021770D02*
X018210Y021770D01*
X019210Y021770D02*
X019630Y021770D01*
X019620Y021894D02*
X019620Y019830D01*
X019630Y019850D02*
X019210Y019850D01*
X019210Y019530D02*
X019320Y019530D01*
X019300Y019510D02*
X019300Y021974D01*
X019349Y022090D02*
X019491Y022090D01*
X019470Y022410D02*
X019370Y022410D01*
X019370Y022730D02*
X019470Y022730D01*
X019300Y022966D02*
X019300Y023555D01*
X019620Y023555D02*
X019620Y023046D01*
X019624Y023050D02*
X019216Y023050D01*
X018980Y023160D02*
X018980Y023555D01*
X019940Y023555D02*
X019940Y023160D01*
X020216Y023050D02*
X020774Y023050D01*
X020745Y023038D02*
X020684Y022997D01*
X020633Y022946D01*
X020592Y022885D01*
X020564Y022818D01*
X020550Y022746D01*
X020550Y022500D01*
X020890Y022500D01*
X020890Y023080D01*
X020884Y023080D01*
X020812Y023066D01*
X020745Y023038D01*
X020890Y023050D02*
X020950Y023050D01*
X020950Y023080D02*
X020950Y022500D01*
X021290Y022500D01*
X021290Y022746D01*
X021276Y022818D01*
X021248Y022885D01*
X021207Y022946D01*
X021156Y022997D01*
X021095Y023038D01*
X021028Y023066D01*
X020956Y023080D01*
X020950Y023080D01*
X021066Y023050D02*
X021624Y023050D01*
X021665Y023091D02*
X021539Y022965D01*
X021470Y022800D01*
X021470Y022140D01*
X021539Y021975D01*
X021630Y021884D01*
X021630Y021590D01*
X021174Y021134D01*
X021130Y021028D01*
X021130Y020816D01*
X021039Y020725D01*
X020970Y020560D01*
X020970Y020380D01*
X021039Y020215D01*
X021165Y020089D01*
X021330Y020020D01*
X021510Y020020D01*
X021675Y020089D01*
X021801Y020215D01*
X021870Y020380D01*
X021870Y020560D01*
X021801Y020725D01*
X021710Y020816D01*
X021710Y020850D01*
X022084Y021224D01*
X022166Y021306D01*
X022210Y021412D01*
X022210Y021884D01*
X022301Y021975D01*
X022370Y022140D01*
X022370Y022800D01*
X022301Y022965D01*
X022175Y023091D01*
X022010Y023160D01*
X021830Y023160D01*
X021665Y023091D01*
X021540Y022966D02*
X021540Y023555D01*
X021220Y023555D02*
X021220Y022927D01*
X021290Y022730D02*
X021470Y022730D01*
X021470Y022410D02*
X021290Y022410D01*
X021290Y022440D02*
X020950Y022440D01*
X020950Y022500D01*
X020890Y022500D01*
X020890Y022440D01*
X020950Y022440D01*
X020950Y021860D01*
X020956Y021860D01*
X021028Y021874D01*
X021095Y021902D01*
X021156Y021943D01*
X021207Y021994D01*
X021248Y022055D01*
X021276Y022122D01*
X021290Y022194D01*
X021290Y022440D01*
X021220Y022440D02*
X021220Y022500D01*
X020950Y022410D02*
X020890Y022410D01*
X020890Y022440D02*
X020890Y021860D01*
X020884Y021860D01*
X020812Y021874D01*
X020745Y021902D01*
X020684Y021943D01*
X020633Y021994D01*
X020592Y022055D01*
X020564Y022122D01*
X020550Y022194D01*
X020550Y022440D01*
X020890Y022440D01*
X020900Y022440D02*
X020900Y019500D01*
X020930Y019530D02*
X020710Y019530D01*
X020710Y019850D02*
X023630Y019850D01*
X023460Y020020D02*
X023460Y019609D01*
X023180Y019530D02*
X021410Y019530D01*
X021540Y019510D02*
X021540Y020033D01*
X021756Y020170D02*
X023084Y020170D01*
X023140Y020114D02*
X023140Y019510D01*
X022820Y019510D02*
X022820Y021160D01*
X022850Y021130D02*
X021990Y021130D01*
X021860Y021000D02*
X021860Y020584D01*
X021870Y020490D02*
X022970Y020490D01*
X023124Y020810D02*
X021716Y020810D01*
X021124Y020810D02*
X020710Y020810D01*
X020710Y020490D02*
X020970Y020490D01*
X021084Y020170D02*
X020710Y020170D01*
X021220Y020066D02*
X021220Y019609D01*
X021860Y019510D02*
X021860Y020356D01*
X022180Y019510D02*
X022180Y021340D01*
X022210Y021450D02*
X022630Y021450D01*
X022630Y021770D02*
X022210Y021770D01*
X022349Y022090D02*
X022491Y022090D01*
X022500Y022068D02*
X022500Y019510D01*
X022500Y018930D02*
X022500Y018910D01*
X022510Y018910D02*
X022330Y018910D01*
X022165Y018841D01*
X022039Y018715D01*
X021970Y018550D01*
X021970Y017890D01*
X022024Y017760D01*
X021718Y017760D01*
X021748Y017805D01*
X021776Y017872D01*
X021790Y017944D01*
X021790Y018190D01*
X021450Y018190D01*
X021450Y018250D01*
X021390Y018250D01*
X021390Y018830D01*
X021384Y018830D01*
X021312Y018816D01*
X021245Y018788D01*
X021184Y018747D01*
X021133Y018696D01*
X021092Y018635D01*
X021064Y018568D01*
X021050Y018496D01*
X021050Y018250D01*
X020870Y018250D01*
X021050Y018250D02*
X021390Y018250D01*
X021390Y018190D01*
X021050Y018190D01*
X021050Y017944D01*
X021064Y017872D01*
X021092Y017805D01*
X021122Y017760D01*
X020816Y017760D01*
X020870Y017890D01*
X020870Y018550D01*
X020801Y018715D01*
X020675Y018841D01*
X020510Y018910D01*
X020330Y018910D01*
X020165Y018841D01*
X020039Y018715D01*
X019970Y018550D01*
X019970Y017890D01*
X020039Y017725D01*
X020165Y017599D01*
X020323Y017533D01*
X019210Y016420D01*
X019210Y017580D01*
X019330Y017530D01*
X019510Y017530D01*
X019675Y017599D01*
X019801Y017725D01*
X019870Y017890D01*
X019870Y018550D01*
X019801Y018715D01*
X019710Y018806D01*
X019710Y018970D01*
X020870Y018970D01*
X020950Y018890D01*
X021093Y018831D01*
X021247Y018831D01*
X021390Y018890D01*
X021430Y018930D01*
X023160Y018930D01*
X023200Y018890D01*
X023242Y018873D01*
X023165Y018841D01*
X023039Y018715D01*
X022970Y018550D01*
X022970Y017890D01*
X023024Y017760D01*
X022816Y017760D01*
X022870Y017890D01*
X022870Y018550D01*
X022801Y018715D01*
X022675Y018841D01*
X022510Y018910D01*
X022558Y018890D02*
X023201Y018890D01*
X023140Y018930D02*
X023140Y018816D01*
X022978Y018570D02*
X022862Y018570D01*
X022820Y018670D02*
X022820Y018930D01*
X022282Y018890D02*
X021389Y018890D01*
X021450Y018830D02*
X021450Y018250D01*
X021790Y018250D01*
X021970Y018250D01*
X021790Y018250D02*
X021790Y018496D01*
X021776Y018568D01*
X021748Y018635D01*
X021707Y018696D01*
X021656Y018747D01*
X021595Y018788D01*
X021528Y018816D01*
X021456Y018830D01*
X021450Y018830D01*
X021540Y018811D02*
X021540Y018930D01*
X021860Y018930D02*
X021860Y017760D01*
X021787Y017930D02*
X021970Y017930D01*
X021540Y018190D02*
X021540Y018250D01*
X021220Y018250D02*
X021220Y018190D01*
X021053Y017930D02*
X020870Y017930D01*
X020900Y017760D02*
X020900Y018940D01*
X020951Y018890D02*
X020558Y018890D01*
X020580Y018881D02*
X020580Y018970D01*
X020282Y018890D02*
X019710Y018890D01*
X019940Y018970D02*
X019940Y017150D01*
X020080Y017290D02*
X019210Y017290D01*
X019300Y017543D02*
X019300Y016510D01*
X019210Y016650D02*
X019440Y016650D01*
X019620Y016830D02*
X019620Y017576D01*
X019686Y017610D02*
X020154Y017610D01*
X020260Y017559D02*
X020260Y017470D01*
X019970Y017930D02*
X019870Y017930D01*
X019870Y018250D02*
X019970Y018250D01*
X019978Y018570D02*
X019862Y018570D01*
X020260Y018881D02*
X020260Y018970D01*
X020862Y018570D02*
X021065Y018570D01*
X021220Y018771D02*
X021220Y018831D01*
X021390Y018570D02*
X021450Y018570D01*
X021775Y018570D02*
X021978Y018570D01*
X022180Y018848D02*
X022180Y018930D01*
X022870Y018250D02*
X022970Y018250D01*
X022970Y017930D02*
X022870Y017930D01*
X022820Y017770D02*
X022820Y017760D01*
X025190Y016330D02*
X025870Y016330D01*
X025700Y016260D02*
X025700Y016840D01*
X025830Y016970D02*
X027260Y016970D01*
X027300Y016930D02*
X027300Y014750D01*
X027320Y014730D02*
X028380Y014730D01*
X028380Y014410D02*
X027460Y014410D01*
X027460Y014090D02*
X028380Y014090D01*
X028380Y013770D02*
X027460Y013770D01*
X027460Y013450D02*
X028380Y013450D01*
X028380Y013130D02*
X027460Y013130D01*
X027460Y012810D02*
X028380Y012810D01*
X028380Y012490D02*
X027460Y012490D01*
X027460Y012170D02*
X028380Y012170D01*
X028380Y011850D02*
X027460Y011850D01*
X027460Y011530D02*
X028380Y011530D01*
X028260Y011211D02*
X028260Y015970D01*
X028220Y016010D02*
X026370Y016010D01*
X026340Y015980D02*
X026340Y015910D01*
X026660Y015848D02*
X026660Y016160D01*
X026783Y016330D02*
X027900Y016330D01*
X027940Y016290D02*
X027940Y011351D01*
X028081Y011210D02*
X028259Y011210D01*
X028210Y010890D02*
X028130Y010890D01*
X028260Y010729D02*
X028260Y009760D01*
X028580Y009760D02*
X028580Y010510D01*
X028419Y010570D02*
X027921Y010570D01*
X027940Y010589D02*
X027940Y009760D01*
X028900Y009760D02*
X028900Y010549D01*
X028921Y010570D02*
X029419Y010570D01*
X029540Y010510D02*
X029540Y009760D01*
X029220Y009760D02*
X029220Y010769D01*
X029210Y010890D02*
X029130Y010890D01*
X029220Y011171D02*
X029220Y018970D01*
X029380Y018890D02*
X026558Y018890D01*
X026660Y018848D02*
X026660Y018970D01*
X026340Y018970D02*
X026340Y018910D01*
X026282Y018890D02*
X026210Y018890D01*
X026862Y018570D02*
X029380Y018570D01*
X029380Y018250D02*
X026870Y018250D01*
X026980Y018070D02*
X026980Y018970D01*
X027300Y018970D02*
X027300Y017750D01*
X027440Y017610D02*
X029380Y017610D01*
X029380Y017290D02*
X027760Y017290D01*
X027620Y017430D02*
X027620Y018970D01*
X027940Y018970D02*
X027940Y017110D01*
X028080Y016970D02*
X029380Y016970D01*
X029380Y016650D02*
X028400Y016650D01*
X028260Y016790D02*
X028260Y018970D01*
X028580Y018970D02*
X028580Y016470D01*
X028720Y016330D02*
X029380Y016330D01*
X029380Y016010D02*
X028960Y016010D01*
X028900Y016150D02*
X028900Y018970D01*
X029380Y017930D02*
X027120Y017930D01*
X026660Y017570D02*
X026660Y016780D01*
X026766Y016650D02*
X027580Y016650D01*
X027620Y016610D02*
X027620Y011430D01*
X028960Y011530D02*
X029380Y011530D01*
X029380Y011850D02*
X028960Y011850D01*
X028960Y012170D02*
X029380Y012170D01*
X029380Y012490D02*
X028960Y012490D01*
X028960Y012810D02*
X029380Y012810D01*
X029380Y013130D02*
X028960Y013130D01*
X028960Y013450D02*
X029380Y013450D01*
X029380Y013770D02*
X028960Y013770D01*
X028960Y014090D02*
X029380Y014090D01*
X029380Y014410D02*
X028960Y014410D01*
X028960Y014730D02*
X029380Y014730D01*
X029380Y015050D02*
X028960Y015050D01*
X028960Y015370D02*
X029380Y015370D01*
X029380Y015690D02*
X028960Y015690D01*
X028380Y015690D02*
X026812Y015690D01*
X026870Y015370D02*
X028380Y015370D01*
X028380Y015050D02*
X027000Y015050D01*
X026980Y015070D02*
X026980Y017250D01*
X026940Y017290D02*
X026150Y017290D01*
X026020Y017160D02*
X026020Y016480D01*
X026074Y016650D02*
X025510Y016650D01*
X025380Y016520D02*
X025380Y016260D01*
X026340Y016858D02*
X026340Y017530D01*
X023630Y021450D02*
X023350Y021450D01*
X023460Y021340D02*
X023460Y023555D01*
X023140Y023555D02*
X023140Y023106D01*
X023216Y023050D02*
X023624Y023050D01*
X023780Y023139D02*
X023780Y023555D01*
X024100Y023555D02*
X024100Y023123D01*
X024216Y023050D02*
X024624Y023050D01*
X024740Y023123D02*
X024740Y023555D01*
X024420Y023555D02*
X024420Y021984D01*
X024349Y022090D02*
X024491Y022090D01*
X024470Y022410D02*
X024370Y022410D01*
X024370Y022730D02*
X024470Y022730D01*
X025060Y023139D02*
X025060Y023555D01*
X023470Y022730D02*
X023370Y022730D01*
X023370Y022410D02*
X023470Y022410D01*
X023491Y022090D02*
X023349Y022090D01*
X023210Y021770D02*
X023630Y021770D01*
X022470Y022410D02*
X022370Y022410D01*
X022370Y022730D02*
X022470Y022730D01*
X022500Y022872D02*
X022500Y023555D01*
X022180Y023555D02*
X022180Y023086D01*
X022216Y023050D02*
X022624Y023050D01*
X022820Y023156D02*
X022820Y023555D01*
X021860Y023555D02*
X021860Y023160D01*
X020950Y022730D02*
X020890Y022730D01*
X020900Y022500D02*
X020900Y023555D01*
X020580Y023555D02*
X020580Y022856D01*
X020550Y022730D02*
X020370Y022730D01*
X020260Y023006D02*
X020260Y023555D01*
X020580Y022500D02*
X020580Y022440D01*
X020550Y022410D02*
X020370Y022410D01*
X020349Y022090D02*
X020578Y022090D01*
X020580Y022084D02*
X020580Y021949D01*
X020768Y021770D02*
X021630Y021770D01*
X021540Y021974D02*
X021540Y021500D01*
X021490Y021450D02*
X020781Y021450D01*
X020710Y021130D02*
X021172Y021130D01*
X021220Y021180D02*
X021220Y022013D01*
X021262Y022090D02*
X021491Y022090D01*
X020950Y022090D02*
X020890Y022090D01*
X019630Y021450D02*
X019210Y021450D01*
X019210Y021130D02*
X019630Y021130D01*
X019630Y020810D02*
X019210Y020810D01*
X019210Y020490D02*
X019630Y020490D01*
X019630Y020170D02*
X019210Y020170D01*
X017630Y018970D02*
X017630Y018912D01*
X017674Y018806D01*
X018130Y018350D01*
X018130Y016590D01*
X017399Y015859D01*
X017343Y015859D01*
X017200Y015800D01*
X017090Y015690D01*
X016710Y015690D01*
X016710Y015370D02*
X017041Y015370D01*
X017031Y015393D02*
X017090Y015250D01*
X017130Y015210D01*
X017130Y011590D01*
X016970Y011430D01*
X016729Y011430D01*
X016710Y011411D01*
X016710Y016850D01*
X016965Y017104D01*
X016972Y017097D01*
X017028Y017074D01*
X016992Y017050D01*
X016942Y016999D01*
X016902Y016941D01*
X016875Y016875D01*
X016861Y016805D01*
X016861Y016795D01*
X017426Y016795D01*
X017426Y016745D01*
X016861Y016745D01*
X016861Y016735D01*
X016875Y016665D01*
X016902Y016599D01*
X016942Y016541D01*
X016992Y016490D01*
X017051Y016451D01*
X017116Y016424D01*
X017186Y016410D01*
X017426Y016410D01*
X017426Y016745D01*
X017476Y016745D01*
X017476Y016410D01*
X017717Y016410D01*
X017786Y016424D01*
X017852Y016451D01*
X017911Y016490D01*
X017961Y016541D01*
X018000Y016599D01*
X018027Y016665D01*
X018041Y016735D01*
X018041Y016745D01*
X017476Y016745D01*
X017476Y016795D01*
X018041Y016795D01*
X018041Y016805D01*
X018027Y016875D01*
X018000Y016941D01*
X017961Y016999D01*
X017911Y017050D01*
X017875Y017074D01*
X017930Y017097D01*
X018054Y017221D01*
X018121Y017382D01*
X018121Y017558D01*
X018054Y017719D01*
X017954Y017820D01*
X018054Y017921D01*
X018121Y018082D01*
X018121Y018258D01*
X018054Y018419D01*
X017930Y018543D01*
X017769Y018610D01*
X017188Y018610D01*
X017210Y018662D01*
X017210Y018970D01*
X017630Y018970D01*
X017639Y018890D02*
X017210Y018890D01*
X017380Y018970D02*
X017380Y018610D01*
X017700Y018610D02*
X017700Y018780D01*
X017865Y018570D02*
X017910Y018570D01*
X018020Y018460D02*
X018020Y018454D01*
X018121Y018250D02*
X018130Y018250D01*
X018130Y017930D02*
X018058Y017930D01*
X018020Y017886D02*
X018020Y017754D01*
X018100Y017610D02*
X018130Y017610D01*
X018130Y017290D02*
X018083Y017290D01*
X018020Y017186D02*
X018020Y016893D01*
X017981Y016970D02*
X018130Y016970D01*
X018020Y016795D02*
X018020Y016745D01*
X018021Y016650D02*
X018130Y016650D01*
X018020Y016647D02*
X018020Y016480D01*
X017870Y016330D02*
X016710Y016330D01*
X016710Y016010D02*
X017550Y016010D01*
X017700Y016160D02*
X017700Y016410D01*
X017380Y016410D02*
X017380Y015859D01*
X017090Y015690D02*
X017031Y015547D01*
X017031Y015393D01*
X017060Y015323D02*
X017060Y011520D01*
X017070Y011530D02*
X016710Y011530D01*
X016740Y011430D02*
X016740Y016880D01*
X016830Y016970D02*
X016922Y016970D01*
X017060Y016795D02*
X017060Y016745D01*
X016881Y016650D02*
X016710Y016650D01*
X017060Y016447D02*
X017060Y015617D01*
X017130Y015050D02*
X016710Y015050D01*
X016710Y014730D02*
X017130Y014730D01*
X017130Y014410D02*
X016710Y014410D01*
X016710Y014090D02*
X017130Y014090D01*
X017130Y013770D02*
X016710Y013770D01*
X016710Y013450D02*
X017130Y013450D01*
X017130Y013130D02*
X016710Y013130D01*
X016710Y012810D02*
X017130Y012810D01*
X017130Y012490D02*
X016710Y012490D01*
X016710Y012170D02*
X017130Y012170D01*
X017130Y011850D02*
X016710Y011850D01*
X018340Y007680D02*
X018340Y005636D01*
X018374Y005718D02*
X018276Y005482D01*
X018276Y005226D01*
X018374Y004989D01*
X018555Y004808D01*
X018792Y004710D01*
X019048Y004710D01*
X019285Y004808D01*
X019466Y004989D01*
X019564Y005226D01*
X019564Y005482D01*
X019466Y005718D01*
X019285Y005900D01*
X019048Y005998D01*
X018792Y005998D01*
X018555Y005900D01*
X018374Y005718D01*
X018426Y005770D02*
X014414Y005770D01*
X014466Y005718D02*
X014285Y005900D01*
X014048Y005998D01*
X013792Y005998D01*
X013555Y005900D01*
X013374Y005718D01*
X013276Y005482D01*
X013276Y005226D01*
X013374Y004989D01*
X013555Y004808D01*
X013792Y004710D01*
X014048Y004710D01*
X014285Y004808D01*
X014466Y004989D01*
X014564Y005226D01*
X014564Y005482D01*
X014466Y005718D01*
X014500Y005636D02*
X014500Y007180D01*
X014180Y007180D02*
X014180Y005943D01*
X013860Y005998D02*
X013860Y007370D01*
X009980Y007370D01*
X010020Y007410D02*
X010020Y001220D01*
X009700Y001220D02*
X009700Y007180D01*
X009380Y007180D02*
X009380Y005804D01*
X009414Y005770D02*
X013426Y005770D01*
X013540Y005884D02*
X013540Y007680D01*
X013220Y007680D02*
X013220Y001220D01*
X012900Y001220D02*
X012900Y007680D01*
X012580Y007680D02*
X012580Y001220D01*
X012260Y001220D02*
X012260Y007680D01*
X011940Y007680D02*
X011940Y001220D01*
X011620Y001220D02*
X011620Y007632D01*
X011300Y007599D02*
X011300Y001220D01*
X010980Y001220D02*
X010980Y007680D01*
X010660Y007680D02*
X010660Y001220D01*
X010340Y001220D02*
X010340Y007680D01*
X009130Y008970D02*
X004710Y008970D01*
X004710Y009290D02*
X009130Y009290D01*
X009130Y009610D02*
X004710Y009610D01*
X006682Y010580D02*
X006682Y010580D01*
X006913Y011210D02*
X007520Y011210D01*
X007460Y011270D02*
X007460Y008260D01*
X009564Y005450D02*
X013276Y005450D01*
X013316Y005130D02*
X009524Y005130D01*
X009380Y004904D02*
X009380Y003048D01*
X009496Y002890D02*
X013344Y002890D01*
X013540Y003128D02*
X013540Y004824D01*
X013554Y004810D02*
X009286Y004810D01*
X009060Y004715D02*
X009060Y003237D01*
X009124Y003210D02*
X013716Y003210D01*
X013860Y003242D02*
X013860Y004710D01*
X014180Y004765D02*
X014180Y003187D01*
X014124Y003210D02*
X018716Y003210D01*
X018660Y003187D02*
X018660Y004765D01*
X018554Y004810D02*
X014286Y004810D01*
X014500Y005072D02*
X014500Y002880D01*
X014496Y002890D02*
X018344Y002890D01*
X018340Y002880D02*
X018340Y005072D01*
X018316Y005130D02*
X014524Y005130D01*
X014564Y005450D02*
X018276Y005450D01*
X018660Y005943D02*
X018660Y007570D01*
X018860Y007370D02*
X014980Y007370D01*
X014820Y007218D02*
X014820Y001220D01*
X015140Y001220D02*
X015140Y007530D01*
X018980Y007250D02*
X018980Y005998D01*
X019300Y005884D02*
X019300Y007180D01*
X019620Y007180D02*
X019620Y001220D01*
X019300Y001220D02*
X019300Y002068D01*
X019285Y002052D02*
X019466Y002233D01*
X019564Y002470D01*
X019564Y002726D01*
X019466Y002963D01*
X019285Y003144D01*
X019048Y003242D01*
X018792Y003242D01*
X018555Y003144D01*
X018374Y002963D01*
X018276Y002726D01*
X018276Y002470D01*
X018374Y002233D01*
X018555Y002052D01*
X018792Y001954D01*
X019048Y001954D01*
X019285Y002052D01*
X019473Y002250D02*
X023367Y002250D01*
X023374Y002233D02*
X023555Y002052D01*
X023792Y001954D01*
X024048Y001954D01*
X024285Y002052D01*
X024466Y002233D01*
X024564Y002470D01*
X024564Y002726D01*
X024466Y002963D01*
X024285Y003144D01*
X024048Y003242D01*
X023792Y003242D01*
X023555Y003144D01*
X023374Y002963D01*
X023276Y002726D01*
X023276Y002470D01*
X023374Y002233D01*
X023460Y002148D02*
X023460Y001220D01*
X023140Y001220D02*
X023140Y007680D01*
X023460Y007680D02*
X023460Y005804D01*
X023426Y005770D02*
X019414Y005770D01*
X019564Y005450D02*
X023276Y005450D01*
X023276Y005482D02*
X023276Y005226D01*
X023374Y004989D01*
X023555Y004808D01*
X023792Y004710D01*
X024048Y004710D01*
X024285Y004808D01*
X024466Y004989D01*
X024564Y005226D01*
X024564Y005482D01*
X024466Y005718D01*
X024285Y005900D01*
X024048Y005998D01*
X023792Y005998D01*
X023555Y005900D01*
X023374Y005718D01*
X023276Y005482D01*
X023316Y005130D02*
X019524Y005130D01*
X019300Y004824D02*
X019300Y003128D01*
X019124Y003210D02*
X023716Y003210D01*
X023780Y003237D02*
X023780Y004715D01*
X023554Y004810D02*
X019286Y004810D01*
X018980Y004710D02*
X018980Y003242D01*
X019496Y002890D02*
X023344Y002890D01*
X023460Y003048D02*
X023460Y004904D01*
X024100Y004732D02*
X024100Y003220D01*
X024124Y003210D02*
X028716Y003210D01*
X028792Y003242D02*
X028555Y003144D01*
X028374Y002963D01*
X028276Y002726D01*
X028276Y002470D01*
X028374Y002233D01*
X028555Y002052D01*
X028792Y001954D01*
X029048Y001954D01*
X029285Y002052D01*
X029466Y002233D01*
X029564Y002470D01*
X029564Y002726D01*
X029466Y002963D01*
X029285Y003144D01*
X029048Y003242D01*
X028792Y003242D01*
X028900Y003242D02*
X028900Y004710D01*
X028792Y004710D02*
X029048Y004710D01*
X029285Y004808D01*
X029466Y004989D01*
X029564Y005226D01*
X029564Y005482D01*
X029466Y005718D01*
X029285Y005900D01*
X029048Y005998D01*
X028792Y005998D01*
X028555Y005900D01*
X028374Y005718D01*
X028276Y005482D01*
X028276Y005226D01*
X028374Y004989D01*
X028555Y004808D01*
X028792Y004710D01*
X028580Y004798D02*
X028580Y003154D01*
X028344Y002890D02*
X024496Y002890D01*
X024420Y003008D02*
X024420Y004944D01*
X024286Y004810D02*
X028554Y004810D01*
X028316Y005130D02*
X024524Y005130D01*
X024564Y005450D02*
X028276Y005450D01*
X028426Y005770D02*
X024414Y005770D01*
X024420Y005764D02*
X024420Y007180D01*
X024740Y007185D02*
X024740Y001220D01*
X024420Y001220D02*
X024420Y002188D01*
X024473Y002250D02*
X028367Y002250D01*
X028580Y002042D02*
X028580Y001220D01*
X028260Y001220D02*
X028260Y007680D01*
X027940Y007680D02*
X027940Y001220D01*
X027620Y001220D02*
X027620Y007680D01*
X027300Y007680D02*
X027300Y001220D01*
X026980Y001220D02*
X026980Y007680D01*
X026660Y007660D02*
X026660Y001220D01*
X026340Y001220D02*
X026340Y007582D01*
X026020Y007680D02*
X026020Y001220D01*
X025700Y001220D02*
X025700Y007680D01*
X025380Y007680D02*
X025380Y001220D01*
X025060Y001220D02*
X025060Y007450D01*
X024980Y007370D02*
X028860Y007370D01*
X028900Y007330D02*
X028900Y005998D01*
X029220Y005926D02*
X029220Y007180D01*
X029540Y007180D02*
X029540Y005539D01*
X029564Y005450D02*
X033276Y005450D01*
X033380Y005724D02*
X033380Y007680D01*
X033060Y007680D02*
X033060Y001220D01*
X032740Y001220D02*
X032740Y007680D01*
X032420Y007680D02*
X032420Y001220D01*
X032100Y001220D02*
X032100Y007680D01*
X031780Y007680D02*
X031780Y001220D01*
X031460Y001220D02*
X031460Y007581D01*
X031140Y007680D02*
X031140Y001220D01*
X030820Y001220D02*
X030820Y007680D01*
X030500Y007680D02*
X030500Y001220D01*
X030180Y001220D02*
X030180Y007570D01*
X029980Y007370D02*
X033860Y007370D01*
X034020Y007218D02*
X034020Y005998D01*
X033700Y005959D02*
X033700Y007530D01*
X034340Y007180D02*
X034340Y005844D01*
X033426Y005770D02*
X029414Y005770D01*
X029540Y005169D02*
X029540Y002783D01*
X029496Y002890D02*
X033344Y002890D01*
X033380Y002968D02*
X033380Y004984D01*
X033316Y005130D02*
X029524Y005130D01*
X029286Y004810D02*
X033554Y004810D01*
X033700Y004748D02*
X033700Y003204D01*
X033716Y003210D02*
X029124Y003210D01*
X029220Y003170D02*
X029220Y004781D01*
X028580Y005910D02*
X028580Y007650D01*
X029860Y007250D02*
X029860Y001220D01*
X029540Y001220D02*
X029540Y002413D01*
X029564Y002570D02*
X033276Y002570D01*
X033367Y002250D02*
X029473Y002250D01*
X029220Y002025D02*
X029220Y001220D01*
X028900Y001220D02*
X028900Y001954D01*
X028276Y002570D02*
X024564Y002570D01*
X024100Y001976D02*
X024100Y001220D01*
X023780Y001220D02*
X023780Y001959D01*
X023276Y002570D02*
X019564Y002570D01*
X018980Y001954D02*
X018980Y001220D01*
X018660Y001220D02*
X018660Y002009D01*
X018276Y002570D02*
X014564Y002570D01*
X013276Y002570D02*
X009564Y002570D01*
X008740Y003220D02*
X008740Y004732D01*
X002340Y008260D02*
X002340Y010598D01*
X002020Y010589D02*
X002020Y008260D01*
X002660Y011635D02*
X002660Y011805D01*
X002705Y011850D02*
X003303Y011850D01*
X003620Y012137D02*
X003620Y014260D01*
X005540Y014970D02*
X005540Y015180D01*
X006180Y016010D02*
X006180Y016820D01*
X006330Y016970D02*
X009510Y016970D01*
X009380Y016840D02*
X009380Y025270D01*
X008740Y025450D02*
X008740Y033720D01*
X014180Y033720D02*
X014180Y031760D01*
X014500Y031760D02*
X014500Y033720D01*
X014820Y033720D02*
X014820Y031760D01*
X015140Y031760D02*
X015140Y033720D01*
X015460Y033720D02*
X015460Y031760D01*
X015780Y031760D02*
X015780Y033720D01*
X016100Y033720D02*
X016100Y031760D01*
X016420Y031760D02*
X016420Y033720D01*
X016740Y033720D02*
X016740Y031760D01*
X017060Y031770D02*
X017060Y033720D01*
X021170Y032720D02*
X021670Y032220D01*
X021670Y030970D01*
X021420Y030816D02*
X021424Y030806D01*
X021880Y030350D01*
X021763Y030350D01*
X021540Y030127D01*
X021540Y030690D01*
X021500Y030730D02*
X021340Y030730D01*
X021416Y030806D02*
X021420Y030816D01*
X021416Y030806D02*
X021040Y030430D01*
X021111Y030430D01*
X021380Y030161D01*
X021380Y029779D01*
X021111Y029510D01*
X020729Y029510D01*
X020710Y029529D01*
X020710Y027840D01*
X020790Y027760D01*
X022470Y027760D01*
X021756Y028474D01*
X021674Y028556D01*
X021630Y028662D01*
X021630Y029278D01*
X021674Y029384D01*
X021756Y029466D01*
X021880Y029590D01*
X021763Y029590D01*
X021540Y029813D01*
X021540Y027760D01*
X021860Y027760D02*
X021860Y028370D01*
X021740Y028490D02*
X020710Y028490D01*
X020710Y028170D02*
X022060Y028170D01*
X022180Y028050D02*
X022180Y027760D01*
X022380Y027850D02*
X020710Y027850D01*
X020900Y027760D02*
X020900Y029510D01*
X020710Y029450D02*
X021740Y029450D01*
X021860Y029570D02*
X021860Y029590D01*
X021583Y029770D02*
X021371Y029770D01*
X021540Y029813D02*
X021540Y029941D01*
X021540Y029999D01*
X021891Y029999D01*
X021891Y029941D01*
X021540Y029941D01*
X021540Y029999D02*
X021540Y030127D01*
X021540Y030090D02*
X021380Y030090D01*
X021220Y030321D02*
X021220Y030610D01*
X021131Y030410D02*
X021820Y030410D01*
X021860Y030370D02*
X021860Y030350D01*
X021860Y029999D02*
X021860Y029941D01*
X022560Y029450D02*
X023630Y029450D01*
X023630Y029609D02*
X023630Y028480D01*
X023590Y028440D01*
X023531Y028297D01*
X023531Y028143D01*
X023590Y028000D01*
X023700Y027890D01*
X023843Y027831D01*
X023997Y027831D01*
X024130Y027886D01*
X024130Y026920D01*
X022210Y028840D01*
X022210Y029100D01*
X022666Y029556D01*
X022704Y029648D01*
X022763Y029590D01*
X022891Y029590D01*
X022891Y029941D01*
X022949Y029941D01*
X022949Y029999D01*
X022891Y029999D01*
X022891Y030350D01*
X022763Y030350D01*
X022704Y030292D01*
X022666Y030384D01*
X022584Y030466D01*
X021930Y031120D01*
X021930Y031168D01*
X021938Y031160D01*
X022402Y031160D01*
X022730Y031488D01*
X022730Y031952D01*
X022405Y032277D01*
X022650Y032521D01*
X022650Y032681D01*
X022209Y032681D01*
X022209Y032759D01*
X022650Y032759D01*
X022650Y032919D01*
X022514Y033055D01*
X022550Y033055D01*
X022880Y032725D01*
X022880Y031662D01*
X022924Y031556D01*
X024050Y030430D01*
X023729Y030430D01*
X023460Y030161D01*
X023460Y031020D01*
X023430Y031050D02*
X022000Y031050D01*
X022180Y031160D02*
X022180Y030870D01*
X022320Y030730D02*
X023750Y030730D01*
X023780Y030700D02*
X023780Y030430D01*
X023709Y030410D02*
X022640Y030410D01*
X022820Y030350D02*
X022820Y032785D01*
X022880Y032650D02*
X022650Y032650D01*
X022500Y032681D02*
X022500Y032759D01*
X022599Y032970D02*
X022635Y032970D01*
X022500Y032371D02*
X022500Y032182D01*
X022459Y032330D02*
X022880Y032330D01*
X022880Y032010D02*
X022672Y032010D01*
X022730Y031690D02*
X022880Y031690D01*
X023110Y031370D02*
X022612Y031370D01*
X022500Y031258D02*
X022500Y030550D01*
X022949Y030350D02*
X022949Y029999D01*
X023300Y029999D01*
X023300Y030127D01*
X023077Y030350D01*
X022949Y030350D01*
X023140Y030287D02*
X023140Y031340D01*
X024090Y031210D02*
X024381Y031210D01*
X024670Y031499D01*
X024959Y031210D01*
X025381Y031210D01*
X025670Y031499D01*
X025959Y031210D01*
X026270Y031210D01*
X027006Y030474D01*
X027112Y030430D01*
X027910Y030430D01*
X027950Y030390D01*
X028093Y030331D01*
X028247Y030331D01*
X028390Y030390D01*
X028500Y030500D01*
X028559Y030643D01*
X028559Y030797D01*
X028500Y030940D01*
X028390Y031050D01*
X028247Y031109D01*
X028093Y031109D01*
X027950Y031050D01*
X027910Y031010D01*
X027290Y031010D01*
X027090Y031210D01*
X027381Y031210D01*
X027670Y031499D01*
X027959Y031210D01*
X028381Y031210D01*
X028680Y031509D01*
X028680Y031931D01*
X028391Y032220D01*
X028680Y032509D01*
X028680Y032931D01*
X028431Y033180D01*
X029909Y033180D01*
X029660Y032931D01*
X029660Y032509D01*
X029949Y032220D01*
X029660Y031931D01*
X029660Y031620D01*
X029600Y031560D01*
X029600Y031670D01*
X029220Y031670D01*
X029220Y031770D01*
X029120Y031770D01*
X029120Y032150D01*
X028992Y032150D01*
X028740Y031898D01*
X028740Y031770D01*
X029120Y031770D01*
X029120Y031670D01*
X029220Y031670D01*
X029220Y031290D01*
X029220Y029010D01*
X029540Y029010D02*
X029540Y029353D01*
X029593Y029331D02*
X029747Y029331D01*
X029880Y029386D01*
X029880Y029090D01*
X029800Y029010D01*
X025180Y029010D01*
X025140Y029050D01*
X024997Y029109D01*
X024843Y029109D01*
X024710Y029054D01*
X024710Y029529D01*
X024729Y029510D01*
X025111Y029510D01*
X025380Y029779D01*
X025380Y030161D01*
X025111Y030430D01*
X024729Y030430D01*
X024710Y030411D01*
X024710Y030528D01*
X024666Y030634D01*
X024584Y030716D01*
X024090Y031210D01*
X024100Y031210D02*
X024100Y031200D01*
X024250Y031050D02*
X026430Y031050D01*
X026340Y031140D02*
X026340Y030201D01*
X026380Y030161D02*
X026111Y030430D01*
X025729Y030430D01*
X025460Y030161D01*
X025460Y029779D01*
X025729Y029510D01*
X026111Y029510D01*
X026380Y029779D01*
X026380Y030161D01*
X026380Y030090D02*
X029380Y030090D01*
X029380Y029980D02*
X029340Y029940D01*
X029281Y029797D01*
X029281Y029643D01*
X029340Y029500D01*
X029450Y029390D01*
X029593Y029331D01*
X029390Y029450D02*
X024710Y029450D01*
X024740Y029510D02*
X024740Y029066D01*
X024710Y029130D02*
X029880Y029130D01*
X029860Y029070D02*
X029860Y029378D01*
X029281Y029770D02*
X026371Y029770D01*
X026340Y029739D02*
X026340Y029010D01*
X026020Y029010D02*
X026020Y029510D01*
X025700Y029539D02*
X025700Y029010D01*
X025380Y029010D02*
X025380Y031210D01*
X025541Y031370D02*
X025799Y031370D01*
X025700Y031469D02*
X025700Y030401D01*
X025709Y030410D02*
X025131Y030410D01*
X025060Y030430D02*
X025060Y031210D01*
X024799Y031370D02*
X024541Y031370D01*
X024420Y031249D02*
X024420Y030880D01*
X024570Y030730D02*
X026750Y030730D01*
X026660Y030820D02*
X026660Y029010D01*
X026980Y029010D02*
X026980Y030500D01*
X027300Y030430D02*
X027300Y029010D01*
X027620Y029010D02*
X027620Y030430D01*
X027930Y030410D02*
X026131Y030410D01*
X026020Y030430D02*
X026020Y031210D01*
X025670Y031941D02*
X025381Y032230D01*
X024959Y032230D01*
X024670Y031941D01*
X024391Y032220D01*
X024680Y032509D01*
X024680Y032931D01*
X024431Y033180D01*
X026909Y033180D01*
X026660Y032931D01*
X026660Y033180D01*
X026699Y032970D02*
X026528Y032970D01*
X026600Y032898D02*
X026348Y033150D01*
X026220Y033150D01*
X026220Y032770D01*
X026600Y032770D01*
X026600Y032898D01*
X026660Y032931D02*
X026660Y032509D01*
X026660Y031951D01*
X026670Y031941D02*
X026381Y032230D01*
X025959Y032230D01*
X025670Y031941D01*
X025700Y031971D02*
X025700Y033180D01*
X025812Y032970D02*
X025528Y032970D01*
X025600Y032898D02*
X025348Y033150D01*
X025220Y033150D01*
X025220Y032770D01*
X025600Y032770D01*
X025600Y032898D01*
X025740Y032898D02*
X025740Y032770D01*
X026120Y032770D01*
X026120Y033150D01*
X025992Y033150D01*
X025740Y032898D01*
X025740Y032670D02*
X025740Y032542D01*
X025992Y032290D01*
X026120Y032290D01*
X026120Y032670D01*
X026220Y032670D01*
X026220Y032770D01*
X026120Y032770D01*
X026120Y032670D01*
X025740Y032670D01*
X025740Y032650D02*
X025600Y032650D01*
X025600Y032670D02*
X025220Y032670D01*
X025220Y032770D01*
X025120Y032770D01*
X025120Y033150D01*
X024992Y033150D01*
X024740Y032898D01*
X024740Y033180D01*
X024812Y032970D02*
X024641Y032970D01*
X024740Y032898D02*
X024740Y032770D01*
X024740Y032670D01*
X024740Y032542D01*
X024740Y032011D01*
X024739Y032010D02*
X024601Y032010D01*
X024420Y032191D02*
X024420Y032249D01*
X024501Y032330D02*
X024952Y032330D01*
X024992Y032290D02*
X025120Y032290D01*
X025120Y032670D01*
X025220Y032670D01*
X025220Y032290D01*
X025348Y032290D01*
X025600Y032542D01*
X025600Y032670D01*
X025380Y032670D02*
X025380Y032770D01*
X025220Y032650D02*
X025120Y032650D01*
X025120Y032670D02*
X024740Y032670D01*
X024740Y032650D02*
X024680Y032650D01*
X024740Y032542D02*
X024992Y032290D01*
X025060Y032290D02*
X025060Y032230D01*
X025120Y032330D02*
X025220Y032330D01*
X025380Y032322D02*
X025380Y032230D01*
X025388Y032330D02*
X025952Y032330D01*
X026020Y032290D02*
X026020Y032230D01*
X026120Y032330D02*
X026220Y032330D01*
X026220Y032290D02*
X026348Y032290D01*
X026600Y032542D01*
X026600Y032670D01*
X026220Y032670D01*
X026220Y032290D01*
X026340Y032290D02*
X026340Y032230D01*
X026388Y032330D02*
X026839Y032330D01*
X026949Y032220D02*
X026660Y032509D01*
X026660Y032650D02*
X026600Y032650D01*
X026340Y032670D02*
X026340Y032770D01*
X026220Y032650D02*
X026120Y032650D01*
X026020Y032670D02*
X026020Y032770D01*
X026120Y032970D02*
X026220Y032970D01*
X026340Y033150D02*
X026340Y033180D01*
X026020Y033180D02*
X026020Y033150D01*
X025380Y033118D02*
X025380Y033180D01*
X025220Y032970D02*
X025120Y032970D01*
X025060Y033150D02*
X025060Y033180D01*
X025060Y032770D02*
X025060Y032670D01*
X025120Y032670D02*
X025120Y032770D01*
X024740Y032770D01*
X025601Y032010D02*
X025739Y032010D01*
X026601Y032010D02*
X026739Y032010D01*
X026670Y031941D02*
X026949Y032220D01*
X027620Y031449D02*
X027620Y031010D01*
X027300Y031010D02*
X027300Y031210D01*
X027250Y031050D02*
X027951Y031050D01*
X027940Y031040D02*
X027940Y031229D01*
X027799Y031370D02*
X027541Y031370D01*
X028260Y031210D02*
X028260Y031103D01*
X028389Y031050D02*
X029380Y031050D01*
X029380Y031278D02*
X029380Y029980D01*
X029380Y030410D02*
X028410Y030410D01*
X028260Y030337D02*
X028260Y029010D01*
X028580Y029010D02*
X028580Y031409D01*
X028541Y031370D02*
X028912Y031370D01*
X028900Y031382D02*
X028900Y029010D01*
X027940Y029010D02*
X027940Y030400D01*
X028559Y030730D02*
X029380Y030730D01*
X029380Y031278D02*
X029411Y031353D01*
X029348Y031290D01*
X029220Y031290D01*
X029220Y031370D02*
X029120Y031370D01*
X029120Y031290D02*
X029120Y031670D01*
X028740Y031670D01*
X028740Y031542D01*
X028992Y031290D01*
X029120Y031290D01*
X029120Y031690D02*
X028680Y031690D01*
X028900Y031670D02*
X028900Y031770D01*
X028852Y032010D02*
X028601Y032010D01*
X028580Y032031D02*
X028580Y032409D01*
X028501Y032330D02*
X028952Y032330D01*
X028992Y032290D02*
X029120Y032290D01*
X029120Y032670D01*
X029220Y032670D01*
X029220Y032770D01*
X029600Y032770D01*
X029600Y032898D01*
X029348Y033150D01*
X029220Y033150D01*
X029220Y033180D01*
X029220Y033150D02*
X029220Y032770D01*
X029120Y032770D01*
X029120Y033150D01*
X028992Y033150D01*
X028740Y032898D01*
X028740Y032770D01*
X029120Y032770D01*
X029120Y032670D01*
X028740Y032670D01*
X028740Y032542D01*
X028992Y032290D01*
X028900Y032382D02*
X028900Y032058D01*
X029120Y032010D02*
X029220Y032010D01*
X029220Y032150D02*
X029220Y031770D01*
X029600Y031770D01*
X029600Y031898D01*
X029348Y032150D01*
X029220Y032150D01*
X029220Y032290D01*
X029348Y032290D01*
X029600Y032542D01*
X029600Y032670D01*
X029220Y032670D01*
X029220Y032290D01*
X029220Y032330D02*
X029120Y032330D01*
X029388Y032330D02*
X029839Y032330D01*
X029860Y032309D02*
X029860Y032131D01*
X029739Y032010D02*
X029488Y032010D01*
X029540Y031958D02*
X029540Y032482D01*
X029600Y032650D02*
X029660Y032650D01*
X029540Y032670D02*
X029540Y032770D01*
X029540Y032958D02*
X029540Y033180D01*
X029528Y032970D02*
X029699Y032970D01*
X029860Y033131D02*
X029860Y033180D01*
X029220Y032970D02*
X029120Y032970D01*
X028900Y033058D02*
X028900Y033180D01*
X028812Y032970D02*
X028641Y032970D01*
X028580Y033031D02*
X028580Y033180D01*
X028900Y032770D02*
X028900Y032670D01*
X028740Y032650D02*
X028680Y032650D01*
X029120Y032650D02*
X029220Y032650D01*
X029540Y031770D02*
X029540Y031670D01*
X029660Y031690D02*
X029220Y031690D01*
X025460Y030090D02*
X025380Y030090D01*
X025371Y029770D02*
X025469Y029770D01*
X025060Y029510D02*
X025060Y029083D01*
X023630Y029130D02*
X022240Y029130D01*
X022240Y028810D02*
X023630Y028810D01*
X023630Y028490D02*
X022560Y028490D01*
X022500Y028550D02*
X022500Y029390D01*
X022820Y029590D02*
X022820Y028230D01*
X022880Y028170D02*
X023531Y028170D01*
X023780Y027857D02*
X023780Y027270D01*
X023840Y027210D02*
X024130Y027210D01*
X024100Y026950D02*
X024100Y027874D01*
X024130Y027850D02*
X024043Y027850D01*
X023797Y027850D02*
X023200Y027850D01*
X023140Y027910D02*
X023140Y029653D01*
X023077Y029590D02*
X023300Y029813D01*
X023300Y029941D01*
X022949Y029941D01*
X022949Y029590D01*
X023077Y029590D01*
X022949Y029770D02*
X022891Y029770D01*
X023140Y029941D02*
X023140Y029999D01*
X023300Y030090D02*
X023460Y030090D01*
X023460Y030161D02*
X023460Y029779D01*
X023460Y027590D01*
X023520Y027530D02*
X024130Y027530D01*
X023630Y029609D02*
X023460Y029779D01*
X023469Y029770D02*
X023257Y029770D01*
X022949Y030090D02*
X022891Y030090D01*
X021630Y029130D02*
X020710Y029130D01*
X020710Y028810D02*
X021630Y028810D01*
X021220Y029619D02*
X021220Y027760D01*
X024740Y030430D02*
X024740Y031429D01*
X024584Y030716D02*
X024584Y030716D01*
X035620Y020914D02*
X035620Y019470D01*
X035940Y019470D02*
X035940Y021094D01*
X036260Y020914D02*
X036260Y019470D01*
X036580Y019470D02*
X036580Y020970D01*
X036900Y020974D02*
X036900Y019470D01*
X037220Y019470D02*
X037220Y020914D01*
X037540Y021103D02*
X037540Y019470D01*
X037860Y019470D02*
X037860Y020914D01*
X038180Y020980D02*
X038180Y019470D01*
X038500Y019470D02*
X038500Y020964D01*
X038820Y020919D02*
X038820Y019470D01*
X038820Y018970D02*
X038820Y008980D01*
X038830Y008970D02*
X041170Y008970D01*
X041170Y009290D02*
X038510Y009290D01*
X038500Y009300D02*
X038500Y018970D01*
X039140Y018970D02*
X039140Y011829D01*
X039152Y011850D02*
X029960Y011850D01*
X029960Y011530D02*
X038980Y011530D01*
X038985Y011560D02*
X038985Y011560D01*
X038925Y011220D02*
X038925Y011220D01*
X038927Y011210D02*
X030081Y011210D01*
X030130Y010890D02*
X038983Y010890D01*
X039158Y011860D02*
X039158Y011860D01*
X039422Y012082D02*
X039422Y012082D01*
X039460Y012095D02*
X039460Y018970D01*
X039780Y018970D02*
X039780Y012200D01*
X039747Y012200D02*
X039747Y012200D01*
X039665Y012170D02*
X029960Y012170D01*
X029259Y011210D02*
X029081Y011210D01*
X024100Y007185D02*
X024100Y005976D01*
X023780Y005993D02*
X023780Y007450D01*
X023860Y007370D02*
X019980Y007370D01*
X019940Y007330D02*
X019940Y001220D01*
X020260Y001220D02*
X020260Y007650D01*
X020580Y007680D02*
X020580Y001220D01*
X020900Y001220D02*
X020900Y007680D01*
X021220Y007632D02*
X021220Y001220D01*
X021540Y001220D02*
X021540Y007599D01*
X021860Y007680D02*
X021860Y001220D01*
X022180Y001220D02*
X022180Y007680D01*
X022500Y007680D02*
X022500Y001220D01*
X022820Y001220D02*
X022820Y007680D01*
X033380Y002228D02*
X033380Y001220D01*
X033700Y001220D02*
X033700Y001992D01*
X034020Y001954D02*
X034020Y001220D01*
X034340Y001220D02*
X034340Y002108D01*
X034473Y002250D02*
X038367Y002250D01*
X038500Y002108D02*
X038500Y001220D01*
X038820Y001220D02*
X038820Y001954D01*
X039140Y001992D02*
X039140Y001220D01*
X039460Y001220D02*
X039460Y002228D01*
X039473Y002250D02*
X041144Y002250D01*
X041060Y001966D02*
X041060Y018970D01*
X040100Y018970D02*
X040100Y012197D01*
X040420Y010360D02*
X040420Y001328D01*
X039780Y001220D02*
X039780Y007823D01*
X039150Y007690D02*
X036690Y007690D01*
X036580Y007616D02*
X036580Y001220D01*
X036260Y001220D02*
X036260Y007616D01*
X036809Y008010D02*
X038970Y008010D01*
X038820Y008160D02*
X038820Y005998D01*
X039140Y005959D02*
X039140Y007700D01*
X037540Y009180D02*
X037540Y001220D01*
X037220Y001220D02*
X037220Y009180D01*
X036900Y009180D02*
X036900Y001220D01*
X038276Y002570D02*
X034564Y002570D01*
X034660Y001220D02*
X034660Y007180D01*
X039286Y004810D02*
X041170Y004810D01*
X041170Y004490D02*
X000670Y004490D01*
X000670Y004170D02*
X041170Y004170D01*
X041170Y003850D02*
X000670Y003850D01*
X000801Y001930D02*
X041039Y001930D01*
X041170Y002570D02*
X039564Y002570D01*
X039496Y002890D02*
X041170Y002890D01*
X039460Y002968D02*
X039460Y004984D01*
X039524Y005130D02*
X041170Y005130D01*
X041170Y005450D02*
X039564Y005450D01*
X040120Y010250D02*
X041170Y010250D01*
X040418Y010358D02*
X040418Y010358D01*
X019760Y016970D02*
X019210Y016970D01*
X017700Y016795D02*
X017700Y016745D01*
X017476Y016650D02*
X017426Y016650D01*
X017380Y016745D02*
X017380Y016795D01*
X014031Y016650D02*
X010010Y016650D01*
X006820Y014470D02*
X006820Y012730D01*
X005540Y012430D02*
X005540Y012125D01*
X005422Y012082D02*
X005422Y012082D01*
X006915Y011220D02*
X006915Y011220D01*
X003645Y012170D02*
X002810Y012170D01*
X000670Y016650D02*
X005190Y016650D01*
X005220Y016680D02*
X005220Y017519D01*
X001568Y018250D02*
X000670Y018250D01*
X000670Y018570D02*
X001530Y018570D01*
X001685Y018890D02*
X000670Y018890D01*
X000670Y019210D02*
X001585Y019210D01*
X001700Y019035D02*
X001700Y018905D01*
X001530Y019530D02*
X000670Y019530D01*
X000670Y019850D02*
X001645Y019850D01*
X001700Y019905D02*
X001700Y020035D01*
X001602Y020170D02*
X000670Y020170D01*
X000670Y020490D02*
X001530Y020490D01*
X001618Y020810D02*
X000670Y020810D01*
X000670Y021130D02*
X001618Y021130D01*
X001700Y021035D02*
X001700Y020905D01*
X001530Y021450D02*
X000670Y021450D01*
X000670Y021770D02*
X001602Y021770D01*
X001700Y021905D02*
X001700Y022035D01*
X001645Y022090D02*
X000670Y022090D01*
X000670Y022410D02*
X001530Y022410D01*
X001585Y022730D02*
X000670Y022730D01*
X000670Y023050D02*
X001685Y023050D01*
X001700Y023035D02*
X001700Y022905D01*
X001530Y023370D02*
X000670Y023370D01*
X000670Y023690D02*
X001568Y023690D01*
X002020Y024101D02*
X002020Y031490D01*
X002340Y031490D02*
X002340Y024092D01*
X002660Y023055D02*
X002660Y022885D01*
X002655Y023050D02*
X008130Y023050D01*
X008130Y022730D02*
X002755Y022730D01*
X002810Y022410D02*
X008130Y022410D01*
X005466Y026250D02*
X004188Y026250D01*
X004194Y026570D02*
X005466Y026570D01*
X005466Y026890D02*
X004194Y026890D01*
X004185Y027210D02*
X005466Y027210D01*
X011940Y027144D02*
X011940Y026040D01*
X001200Y032330D02*
X000670Y032330D01*
X000685Y032650D02*
X001207Y032650D01*
D22*
X007920Y024220D03*
X008420Y023470D03*
X009670Y023470D03*
X010733Y022220D03*
X009795Y020970D03*
X011420Y020220D03*
X011420Y018126D03*
X010420Y017470D03*
X014420Y016720D03*
X017420Y015470D03*
X020170Y015970D03*
X020920Y015970D03*
X022920Y015970D03*
X025670Y014220D03*
X025670Y013595D03*
X025170Y012470D03*
X025670Y011970D03*
X021420Y011720D03*
X021420Y007970D03*
X019420Y007970D03*
X016420Y007970D03*
X016420Y007220D03*
X014420Y007970D03*
X014420Y010220D03*
X013420Y011720D03*
X015420Y012220D03*
X016920Y012220D03*
X011420Y007970D03*
X009420Y007970D03*
X009420Y010470D03*
X006420Y007970D03*
X004420Y007970D03*
X004420Y010470D03*
X003670Y011720D03*
X000920Y009970D03*
X001420Y007970D03*
X004670Y015720D03*
X005670Y015720D03*
X005264Y017908D03*
X006170Y017908D03*
X006170Y019095D03*
X005670Y020220D03*
X005920Y021595D03*
X012170Y025720D03*
X011920Y027533D03*
X015420Y030970D03*
X015670Y031970D03*
X019670Y030470D03*
X022420Y030845D03*
X022545Y028970D03*
X023920Y028220D03*
X023920Y027470D03*
X024858Y027939D03*
X024920Y028720D03*
X026670Y027470D03*
X027420Y027470D03*
X028170Y027470D03*
X028670Y026220D03*
X029420Y026220D03*
X030170Y026220D03*
X028733Y024908D03*
X029170Y024470D03*
X028670Y023345D03*
X027920Y023470D03*
X027920Y022720D03*
X029670Y021720D03*
X031170Y019720D03*
X036170Y022470D03*
X033920Y025720D03*
X034170Y027220D03*
X035420Y026720D03*
X032420Y028033D03*
X032108Y029064D03*
X033170Y030720D03*
X034389Y030689D03*
X038670Y030970D03*
X029951Y027939D03*
X029670Y029720D03*
X029170Y030220D03*
X028170Y030720D03*
X022420Y026970D03*
X019420Y024720D03*
X016420Y024720D03*
X018420Y021720D03*
X020420Y021595D03*
X021170Y019220D03*
X023420Y019220D03*
X024420Y021595D03*
X026170Y024470D03*
X026420Y016470D03*
X026420Y007970D03*
X024420Y007970D03*
X029420Y007970D03*
X031420Y007970D03*
X034420Y007970D03*
X036420Y007970D03*
X039420Y007970D03*
X012420Y023470D03*
D23*
X012170Y023720D01*
X012170Y025720D01*
X009420Y025720D01*
X007920Y024220D01*
X008420Y023470D02*
X008420Y019470D01*
X004670Y015720D01*
X004920Y014970D02*
X003920Y014970D01*
X002170Y013220D01*
X000920Y011970D01*
X000920Y009970D01*
X001420Y007970D02*
X003670Y007970D01*
X004170Y007470D01*
X004670Y007470D01*
X005170Y007970D01*
X006420Y007970D01*
X008670Y007970D01*
X009170Y007470D01*
X009670Y007470D01*
X010170Y007970D01*
X011420Y007970D01*
X013670Y007970D01*
X014170Y007470D01*
X014670Y007470D01*
X015170Y007970D01*
X016420Y007970D01*
X016420Y016970D01*
X016920Y017470D01*
X017451Y017470D01*
X016920Y018720D02*
X015920Y017720D01*
X015920Y010970D01*
X016920Y010970D02*
X017420Y011470D01*
X017420Y015470D01*
X018420Y016470D01*
X018420Y018470D01*
X017920Y018970D01*
X017920Y022470D01*
X018920Y022470D02*
X018920Y016314D01*
X017920Y015314D01*
X017920Y010970D01*
X018920Y010970D02*
X018920Y015720D01*
X020670Y017470D01*
X023670Y017470D01*
X023920Y017720D01*
X023920Y022470D01*
X024920Y022470D02*
X024920Y017470D01*
X024420Y016970D01*
X021170Y016970D01*
X020170Y015970D01*
X019920Y015720D01*
X019920Y010970D01*
X020920Y010970D02*
X020920Y015970D01*
X021420Y016470D01*
X024920Y016470D01*
X025920Y017470D01*
X025920Y022470D01*
X025420Y023220D02*
X025670Y023470D01*
X027920Y023470D01*
X029670Y021720D01*
X029670Y020970D02*
X029670Y010970D01*
X028670Y010970D02*
X028670Y015970D01*
X026420Y018220D01*
X025420Y018220D02*
X025420Y023220D01*
X026170Y024470D02*
X021920Y024470D01*
X020920Y025470D01*
X021170Y026220D02*
X021920Y025470D01*
X022920Y025470D02*
X022920Y027220D01*
X022670Y027470D01*
X021920Y027470D01*
X021670Y027470D01*
X020670Y027470D01*
X020420Y027720D01*
X020420Y030220D01*
X021170Y030970D01*
X021170Y031720D01*
X021670Y030970D02*
X022420Y030220D01*
X022420Y029720D01*
X021920Y029220D01*
X021920Y028720D01*
X024920Y025720D01*
X024920Y025470D01*
X024920Y026470D02*
X024420Y026970D01*
X024420Y030470D01*
X023170Y031720D01*
X023170Y032845D01*
X022670Y033345D01*
X019795Y033345D01*
X017420Y030970D01*
X015420Y030970D01*
X014920Y029970D02*
X014920Y025470D01*
X014670Y024720D02*
X014420Y024470D01*
X014420Y021970D01*
X014170Y021720D01*
X012670Y021720D01*
X012420Y021970D01*
X012420Y023470D01*
X013420Y024720D02*
X013920Y024220D01*
X013920Y022470D01*
X014920Y022470D02*
X014920Y013470D01*
X013920Y012470D01*
X013920Y010970D01*
X013420Y011720D02*
X013420Y012720D01*
X014420Y013720D01*
X014420Y016720D01*
X015420Y017970D02*
X015420Y013220D01*
X014920Y012720D01*
X014920Y010970D01*
X014420Y010220D02*
X010420Y010220D01*
X009670Y010970D01*
X008170Y010970D01*
X006420Y012720D01*
X004420Y012720D01*
X003670Y011720D01*
X004420Y010470D02*
X004420Y007970D01*
X009420Y007970D02*
X009420Y010470D01*
X014420Y007970D02*
X015420Y008970D01*
X015420Y012220D01*
X019420Y008720D02*
X022420Y011720D01*
X022420Y015220D01*
X021920Y015720D02*
X021920Y012220D01*
X021420Y011720D01*
X023420Y012220D02*
X024170Y011470D01*
X024170Y008220D01*
X024420Y007970D01*
X024170Y007470D02*
X024670Y007470D01*
X025170Y007970D01*
X026420Y007970D01*
X028670Y007970D01*
X029170Y007470D01*
X029670Y007470D01*
X030170Y007970D01*
X031420Y007970D01*
X030670Y007970D01*
X031420Y007970D02*
X033670Y007970D01*
X034170Y007470D01*
X034670Y007470D01*
X035170Y007970D01*
X036420Y007970D01*
X037920Y009470D02*
X039420Y007970D01*
X037920Y009470D02*
X027670Y009470D01*
X027170Y009970D01*
X027170Y014470D01*
X026420Y015220D01*
X026170Y014470D02*
X026170Y009470D01*
X026670Y008970D01*
X033420Y008970D01*
X034420Y007970D01*
X029420Y007970D02*
X028920Y008470D01*
X025670Y008470D01*
X025170Y008970D01*
X025170Y011470D01*
X024420Y012220D01*
X024420Y015220D01*
X025420Y015220D02*
X026170Y014470D01*
X025670Y014220D02*
X025170Y013720D01*
X025170Y012470D01*
X025670Y011970D02*
X025670Y013595D01*
X023420Y012220D02*
X023420Y015220D01*
X022920Y015970D02*
X022170Y015970D01*
X021920Y015720D01*
X022920Y015970D02*
X025920Y015970D01*
X026420Y016470D01*
X024420Y018220D02*
X024420Y021595D01*
X023420Y020970D02*
X023420Y020470D01*
X023420Y020970D02*
X022920Y021470D01*
X022920Y022470D01*
X021920Y022470D02*
X021920Y021470D01*
X021420Y020970D01*
X021420Y020470D01*
X020420Y021595D02*
X020420Y018970D01*
X021170Y019220D02*
X023420Y019220D01*
X019920Y019720D02*
X019420Y019220D01*
X019420Y018220D01*
X019920Y019720D02*
X019920Y022470D01*
X017326Y023845D02*
X029795Y023845D01*
X033045Y027095D01*
X033045Y028126D01*
X032108Y029064D01*
X031326Y029064D01*
X030920Y029470D01*
X030920Y030220D01*
X031420Y030720D01*
X033170Y030720D01*
X033170Y031720D02*
X033170Y032720D01*
X034170Y032720D02*
X034170Y031720D01*
X035545Y031095D02*
X036170Y031720D01*
X036670Y031220D02*
X037170Y030720D01*
X038044Y030720D01*
X038713Y030051D01*
X039420Y030220D02*
X039420Y029470D01*
X039170Y029220D01*
X035670Y029220D01*
X035420Y028970D01*
X035420Y026720D01*
X034170Y027220D02*
X034170Y029220D01*
X034389Y029439D01*
X034776Y030051D02*
X034776Y023864D01*
X036170Y022470D01*
X032420Y027095D02*
X029420Y024095D01*
X016545Y024095D01*
X014920Y022470D01*
X015920Y022470D02*
X015951Y022470D01*
X017326Y023845D01*
X016420Y024720D02*
X014670Y024720D01*
X013920Y025470D02*
X013920Y029970D01*
X013420Y030220D02*
X013670Y030470D01*
X019670Y030470D01*
X018920Y029970D02*
X018920Y025470D01*
X018420Y025970D02*
X017920Y025470D01*
X018420Y025970D02*
X018420Y029470D01*
X017920Y029970D01*
X016920Y029970D02*
X016920Y025470D01*
X016420Y024720D02*
X019420Y024720D01*
X019420Y025970D01*
X019670Y026220D01*
X021170Y026220D01*
X020670Y026970D02*
X020170Y027470D01*
X020170Y031720D01*
X019295Y033595D02*
X017170Y031470D01*
X014170Y031470D01*
X012920Y030220D01*
X012920Y028533D01*
X011920Y027533D01*
X013420Y030220D02*
X013420Y024720D01*
X015920Y025470D02*
X015920Y029970D01*
X019295Y033595D02*
X022920Y033595D01*
X023608Y032908D01*
X023608Y032283D01*
X024170Y031720D01*
X023608Y032908D02*
X024170Y033470D01*
X030420Y033470D01*
X031170Y032720D01*
X031920Y033470D01*
X031170Y031720D02*
X030170Y030720D01*
X030170Y028970D01*
X029920Y028720D01*
X024920Y028720D01*
X024858Y027939D02*
X029951Y027939D01*
X030545Y028533D01*
X030545Y030345D01*
X031295Y031095D01*
X035545Y031095D01*
X038670Y030970D02*
X039420Y030220D01*
X032420Y028033D02*
X032420Y027095D01*
X030170Y026220D02*
X029670Y025720D01*
X028420Y025720D01*
X026670Y027470D01*
X027420Y027470D02*
X028670Y026220D01*
X029420Y026220D02*
X028170Y027470D01*
X027170Y026470D02*
X028733Y024908D01*
X029170Y024470D02*
X027920Y024470D01*
X026920Y025470D01*
X027170Y026470D02*
X024920Y026470D01*
X023920Y028220D02*
X023920Y029970D01*
X026170Y031720D02*
X027170Y030720D01*
X028170Y030720D01*
X029670Y031220D02*
X029670Y029720D01*
X029670Y031220D02*
X030170Y031720D01*
X022420Y026970D02*
X020670Y026970D01*
X016920Y022470D02*
X016920Y018720D01*
X015920Y018470D02*
X015920Y022470D01*
X015920Y018470D02*
X015420Y017970D01*
X011420Y018126D02*
X011420Y020220D01*
X009795Y020970D02*
X009795Y018095D01*
X010420Y017470D01*
X008670Y015720D01*
X005670Y015720D01*
X004920Y014970D01*
X005264Y017908D02*
X002733Y017908D01*
X002170Y018470D01*
X002920Y019220D01*
X002920Y019720D01*
X002170Y020470D01*
X002920Y021220D01*
X002920Y021720D01*
X002170Y022470D01*
X005264Y019814D02*
X005670Y020220D01*
X005264Y019814D02*
X005264Y017908D01*
X016420Y007970D02*
X018670Y007970D01*
X019170Y007470D01*
X019670Y007470D01*
X020170Y007970D01*
X021420Y007970D01*
X023670Y007970D01*
X024170Y007470D01*
X019420Y007970D02*
X019420Y008720D01*
X029670Y020970D02*
X027920Y022720D01*
D24*
X034389Y029439D02*
X034389Y030689D01*
D25*
X036670Y031220D02*
X036670Y032970D01*
X036170Y033470D01*
X031920Y033470D01*
M02*
