G75*
G70*
%OFA0B0*%
%FSLAX24Y24*%
%IPPOS*%
%LPD*%
%AMOC8*
5,1,8,0,0,1.08239X$1,22.5*
%
%ADD10C,0.0000*%
D10*
X039593Y014474D02*
X039593Y015340D01*
X039595Y015366D01*
X039600Y015391D01*
X039608Y015415D01*
X039619Y015439D01*
X039634Y015460D01*
X039651Y015479D01*
X039670Y015496D01*
X039691Y015511D01*
X039715Y015522D01*
X039739Y015530D01*
X039764Y015535D01*
X039790Y015537D01*
X039816Y015535D01*
X039841Y015530D01*
X039865Y015522D01*
X039889Y015511D01*
X039910Y015496D01*
X039929Y015479D01*
X039946Y015460D01*
X039961Y015438D01*
X039972Y015415D01*
X039980Y015391D01*
X039985Y015366D01*
X039987Y015340D01*
X039987Y014474D01*
X039790Y014277D02*
X039764Y014279D01*
X039739Y014284D01*
X039715Y014292D01*
X039691Y014303D01*
X039670Y014318D01*
X039651Y014335D01*
X039634Y014354D01*
X039619Y014376D01*
X039608Y014399D01*
X039600Y014423D01*
X039595Y014448D01*
X039593Y014474D01*
X039790Y014277D02*
X039816Y014279D01*
X039841Y014284D01*
X039865Y014292D01*
X039888Y014303D01*
X039910Y014318D01*
X039929Y014335D01*
X039946Y014354D01*
X039961Y014375D01*
X039972Y014399D01*
X039980Y014423D01*
X039985Y014448D01*
X039987Y014474D01*
X040569Y013210D02*
X041435Y013210D01*
X041461Y013208D01*
X041486Y013203D01*
X041510Y013195D01*
X041534Y013184D01*
X041555Y013169D01*
X041574Y013152D01*
X041591Y013133D01*
X041606Y013111D01*
X041617Y013088D01*
X041625Y013064D01*
X041630Y013039D01*
X041632Y013013D01*
X041630Y012987D01*
X041625Y012962D01*
X041617Y012938D01*
X041606Y012914D01*
X041591Y012893D01*
X041574Y012874D01*
X041555Y012857D01*
X041533Y012842D01*
X041510Y012831D01*
X041486Y012823D01*
X041461Y012818D01*
X041435Y012816D01*
X040569Y012816D01*
X040372Y013013D02*
X040374Y013039D01*
X040379Y013064D01*
X040387Y013088D01*
X040398Y013112D01*
X040413Y013133D01*
X040430Y013152D01*
X040449Y013169D01*
X040470Y013184D01*
X040494Y013195D01*
X040518Y013203D01*
X040543Y013208D01*
X040569Y013210D01*
X040372Y013013D02*
X040374Y012987D01*
X040379Y012962D01*
X040387Y012938D01*
X040398Y012915D01*
X040413Y012893D01*
X040430Y012874D01*
X040449Y012857D01*
X040470Y012842D01*
X040494Y012831D01*
X040518Y012823D01*
X040543Y012818D01*
X040569Y012816D01*
X042196Y014277D02*
X042196Y015537D01*
X042170Y015535D01*
X042145Y015530D01*
X042121Y015522D01*
X042097Y015511D01*
X042076Y015496D01*
X042057Y015479D01*
X042040Y015460D01*
X042025Y015439D01*
X042014Y015415D01*
X042006Y015391D01*
X042001Y015366D01*
X041999Y015340D01*
X041999Y014474D01*
X042001Y014448D01*
X042006Y014423D01*
X042014Y014399D01*
X042025Y014376D01*
X042040Y014354D01*
X042057Y014335D01*
X042076Y014318D01*
X042097Y014303D01*
X042121Y014292D01*
X042145Y014284D01*
X042170Y014279D01*
X042196Y014277D01*
X042222Y014279D01*
X042247Y014284D01*
X042271Y014292D01*
X042294Y014303D01*
X042316Y014318D01*
X042335Y014335D01*
X042352Y014354D01*
X042367Y014375D01*
X042378Y014399D01*
X042386Y014423D01*
X042391Y014448D01*
X042393Y014474D01*
X042392Y014474D02*
X042392Y015340D01*
X042393Y015340D02*
X042391Y015366D01*
X042386Y015391D01*
X042378Y015415D01*
X042367Y015438D01*
X042352Y015460D01*
X042335Y015479D01*
X042316Y015496D01*
X042295Y015511D01*
X042271Y015522D01*
X042247Y015530D01*
X042222Y015535D01*
X042196Y015537D01*
M02*
