G75*
G70*
%OFA0B0*%
%FSLAX24Y24*%
%IPPOS*%
%LPD*%
%AMOC8*
5,1,8,0,0,1.08239X$1,22.5*
%
%ADD10C,0.0000*%
D10*
X039476Y014474D02*
X039476Y015340D01*
X039478Y015366D01*
X039483Y015391D01*
X039491Y015415D01*
X039502Y015439D01*
X039517Y015460D01*
X039534Y015479D01*
X039553Y015496D01*
X039574Y015511D01*
X039598Y015522D01*
X039622Y015530D01*
X039647Y015535D01*
X039673Y015537D01*
X039699Y015535D01*
X039724Y015530D01*
X039748Y015522D01*
X039772Y015511D01*
X039793Y015496D01*
X039812Y015479D01*
X039829Y015460D01*
X039844Y015438D01*
X039855Y015415D01*
X039863Y015391D01*
X039868Y015366D01*
X039870Y015340D01*
X039870Y014474D01*
X039673Y014277D02*
X039647Y014279D01*
X039622Y014284D01*
X039598Y014292D01*
X039574Y014303D01*
X039553Y014318D01*
X039534Y014335D01*
X039517Y014354D01*
X039502Y014376D01*
X039491Y014399D01*
X039483Y014423D01*
X039478Y014448D01*
X039476Y014474D01*
X039673Y014277D02*
X039699Y014279D01*
X039724Y014284D01*
X039748Y014292D01*
X039771Y014303D01*
X039793Y014318D01*
X039812Y014335D01*
X039829Y014354D01*
X039844Y014375D01*
X039855Y014399D01*
X039863Y014423D01*
X039868Y014448D01*
X039870Y014474D01*
X040451Y013210D02*
X041318Y013210D01*
X041344Y013208D01*
X041369Y013203D01*
X041393Y013195D01*
X041417Y013184D01*
X041438Y013169D01*
X041457Y013152D01*
X041474Y013133D01*
X041489Y013111D01*
X041500Y013088D01*
X041508Y013064D01*
X041513Y013039D01*
X041515Y013013D01*
X041513Y012987D01*
X041508Y012962D01*
X041500Y012938D01*
X041489Y012914D01*
X041474Y012893D01*
X041457Y012874D01*
X041438Y012857D01*
X041416Y012842D01*
X041393Y012831D01*
X041369Y012823D01*
X041344Y012818D01*
X041318Y012816D01*
X040451Y012816D01*
X040254Y013013D02*
X040256Y013039D01*
X040261Y013064D01*
X040269Y013088D01*
X040280Y013112D01*
X040295Y013133D01*
X040312Y013152D01*
X040331Y013169D01*
X040352Y013184D01*
X040376Y013195D01*
X040400Y013203D01*
X040425Y013208D01*
X040451Y013210D01*
X040254Y013013D02*
X040256Y012987D01*
X040261Y012962D01*
X040269Y012938D01*
X040280Y012915D01*
X040295Y012893D01*
X040312Y012874D01*
X040331Y012857D01*
X040352Y012842D01*
X040376Y012831D01*
X040400Y012823D01*
X040425Y012818D01*
X040451Y012816D01*
X042078Y014277D02*
X042078Y015537D01*
X042052Y015535D01*
X042027Y015530D01*
X042003Y015522D01*
X041979Y015511D01*
X041958Y015496D01*
X041939Y015479D01*
X041922Y015460D01*
X041907Y015439D01*
X041896Y015415D01*
X041888Y015391D01*
X041883Y015366D01*
X041881Y015340D01*
X041881Y014474D01*
X041883Y014448D01*
X041888Y014423D01*
X041896Y014399D01*
X041907Y014376D01*
X041922Y014354D01*
X041939Y014335D01*
X041958Y014318D01*
X041979Y014303D01*
X042003Y014292D01*
X042027Y014284D01*
X042052Y014279D01*
X042078Y014277D01*
X042104Y014279D01*
X042129Y014284D01*
X042153Y014292D01*
X042176Y014303D01*
X042198Y014318D01*
X042217Y014335D01*
X042234Y014354D01*
X042249Y014375D01*
X042260Y014399D01*
X042268Y014423D01*
X042273Y014448D01*
X042275Y014474D01*
X042275Y015340D01*
X042273Y015366D01*
X042268Y015391D01*
X042260Y015415D01*
X042249Y015438D01*
X042234Y015460D01*
X042217Y015479D01*
X042198Y015496D01*
X042177Y015511D01*
X042153Y015522D01*
X042129Y015530D01*
X042104Y015535D01*
X042078Y015537D01*
M02*
