G75*
G70*
%OFA0B0*%
%FSLAX24Y24*%
%IPPOS*%
%LPD*%
%AMOC8*
5,1,8,0,0,1.08239X$1,22.5*
%
%ADD10R,0.0748X0.0551*%
%ADD11R,0.0551X0.0709*%
%ADD12R,0.0591X0.0276*%
%ADD13R,0.0600X0.0300*%
%ADD14R,0.0472X0.0315*%
%ADD15R,0.0630X0.0460*%
%ADD16R,0.0315X0.0472*%
%ADD17R,0.0354X0.0315*%
%ADD18R,0.0327X0.0248*%
%ADD19R,0.0460X0.0630*%
%ADD20R,0.0984X0.0787*%
%ADD21R,0.0787X0.0984*%
%ADD22R,0.0984X0.0472*%
%ADD23R,0.0590X0.0790*%
%ADD24R,0.1500X0.0790*%
%ADD25R,0.0240X0.0870*%
%ADD26R,0.1560X0.1560*%
%ADD27R,0.1250X0.1250*%
%ADD28R,0.0300X0.0600*%
%ADD29R,0.0248X0.0327*%
%ADD30R,0.0748X0.0433*%
%ADD31R,0.0984X0.0394*%
%ADD32R,0.2362X0.0984*%
D10*
X042001Y023317D03*
X042355Y028514D03*
D11*
X036843Y026310D03*
X036843Y023947D03*
D12*
X040701Y026270D03*
X040859Y025837D03*
X041016Y025404D03*
X040859Y024971D03*
X041016Y024538D03*
X040859Y024105D03*
X040859Y023672D03*
X040859Y026703D03*
D13*
X021170Y031660D03*
X021170Y033160D03*
X019170Y033160D03*
X019170Y031660D03*
D14*
X012045Y026014D03*
X012045Y025306D03*
X009545Y025306D03*
X009545Y026014D03*
X007670Y026056D03*
X007670Y026764D03*
X006670Y026764D03*
X006670Y026056D03*
X005670Y026056D03*
X005670Y026764D03*
X006920Y023514D03*
X006920Y022806D03*
X007920Y022806D03*
X007920Y023514D03*
X007920Y021514D03*
X007920Y020806D03*
X006920Y020806D03*
X006920Y021514D03*
X006920Y019514D03*
X006920Y018806D03*
X007920Y018806D03*
X007920Y019514D03*
X005420Y017264D03*
X005420Y016556D03*
X004170Y016556D03*
X004170Y017264D03*
X004170Y015514D03*
X004170Y014806D03*
X005420Y014806D03*
X005420Y015514D03*
X005920Y013264D03*
X005920Y012556D03*
X005670Y009514D03*
X005670Y008806D03*
X004670Y008806D03*
X004670Y009514D03*
X003670Y009514D03*
X003670Y008806D03*
X006670Y008806D03*
X006670Y009514D03*
X007670Y009514D03*
X007670Y008806D03*
X008670Y008806D03*
X008670Y009514D03*
X009670Y009514D03*
X009670Y008806D03*
X010670Y008806D03*
X010670Y009514D03*
X011670Y009514D03*
X011670Y008806D03*
X012670Y008806D03*
X012670Y009514D03*
X013670Y009514D03*
X013670Y008806D03*
X014670Y008806D03*
X014670Y009514D03*
X015670Y009514D03*
X015670Y008806D03*
X016670Y008806D03*
X016670Y009514D03*
X017670Y009514D03*
X017670Y008806D03*
X018670Y008806D03*
X018670Y009514D03*
X019670Y009514D03*
X019670Y008806D03*
X020670Y008806D03*
X020670Y009514D03*
X021670Y009514D03*
X021670Y008806D03*
X022670Y008806D03*
X022670Y009514D03*
X023670Y009514D03*
X023670Y008806D03*
X024670Y008806D03*
X024670Y009514D03*
X025670Y009514D03*
X025670Y008806D03*
X026670Y008806D03*
X026670Y009514D03*
X027670Y009514D03*
X027670Y008806D03*
X028670Y008806D03*
X028670Y009514D03*
X029670Y009514D03*
X029670Y008806D03*
X030670Y008806D03*
X030670Y009514D03*
X031670Y009514D03*
X031670Y008806D03*
X032670Y008806D03*
X032670Y009514D03*
X033670Y009514D03*
X033670Y008806D03*
X034670Y008806D03*
X034670Y009514D03*
X035670Y009514D03*
X035670Y008806D03*
X036670Y008806D03*
X036670Y009514D03*
X037670Y009514D03*
X037670Y008806D03*
X038670Y008806D03*
X038670Y009514D03*
X039670Y009514D03*
X039670Y008806D03*
X040670Y008806D03*
X040670Y009514D03*
X041670Y009514D03*
X041670Y008806D03*
X042670Y008806D03*
X042670Y009514D03*
X042670Y018056D03*
X042670Y018764D03*
X041670Y018764D03*
X041670Y018056D03*
X042670Y019806D03*
X042670Y020514D03*
X042670Y021306D03*
X042670Y022014D03*
X035670Y027056D03*
X035670Y027764D03*
X034670Y027764D03*
X034670Y027056D03*
X033670Y027056D03*
X033670Y027764D03*
X033670Y028556D03*
X033670Y029264D03*
X032670Y029264D03*
X032670Y028556D03*
X032670Y027764D03*
X032670Y027056D03*
X031670Y027056D03*
X031670Y027764D03*
X031670Y028556D03*
X031670Y029264D03*
X012295Y023014D03*
X012295Y022306D03*
X011420Y022306D03*
X011420Y023014D03*
X011420Y021014D03*
X011420Y020306D03*
X012295Y020306D03*
X012295Y021014D03*
X012295Y019014D03*
X012295Y018306D03*
X011420Y018306D03*
X011420Y019014D03*
D15*
X019420Y019360D03*
X019420Y019960D03*
X003670Y007460D03*
X003670Y006860D03*
D16*
X017566Y017660D03*
X018274Y017660D03*
X018274Y018535D03*
X017566Y018535D03*
X021191Y019660D03*
X021899Y019660D03*
X021899Y020535D03*
X021191Y020535D03*
X021191Y021410D03*
X021899Y021410D03*
X027441Y020660D03*
X028149Y020660D03*
X028149Y019660D03*
X027441Y019660D03*
X023024Y026910D03*
X022316Y026910D03*
X020024Y026910D03*
X019316Y026910D03*
X016024Y027410D03*
X015316Y027410D03*
X015316Y028410D03*
X016024Y028410D03*
X013774Y025910D03*
X013066Y025910D03*
D17*
X010564Y023034D03*
X009737Y022660D03*
X010564Y022286D03*
X010564Y021034D03*
X009737Y020660D03*
X010564Y020286D03*
X010564Y019034D03*
X009737Y018660D03*
X010564Y018286D03*
D18*
X008920Y018707D03*
X008920Y019613D03*
X008920Y020707D03*
X008920Y021613D03*
X008920Y022707D03*
X008920Y023613D03*
D19*
X010620Y025660D03*
X011220Y025660D03*
X008114Y016660D03*
X007514Y016660D03*
X006914Y016660D03*
D20*
X007528Y006016D03*
X009812Y003103D03*
X007528Y002394D03*
X004812Y003103D03*
X012528Y002394D03*
X014812Y003103D03*
X017528Y002394D03*
X019812Y003103D03*
X022528Y002394D03*
X024812Y003103D03*
X027528Y002394D03*
X029812Y003103D03*
X032528Y002394D03*
X034812Y003103D03*
X037528Y002394D03*
X039812Y003103D03*
X042528Y002394D03*
X042528Y006016D03*
X037528Y006016D03*
X032528Y006016D03*
X027528Y006016D03*
X022528Y006016D03*
X017528Y006016D03*
X012528Y006016D03*
D21*
X010875Y007611D03*
X015875Y007611D03*
X020875Y007611D03*
X025875Y007611D03*
X030875Y007611D03*
X035875Y007611D03*
X040875Y007611D03*
X005875Y007611D03*
D22*
X004812Y002001D03*
X009812Y002001D03*
X014812Y002001D03*
X019812Y002001D03*
X024812Y002001D03*
X029812Y002001D03*
X034812Y002001D03*
X039812Y002001D03*
D23*
X014330Y026920D03*
X013430Y026920D03*
X012530Y026920D03*
X011330Y026920D03*
X010430Y026920D03*
X009530Y026920D03*
D24*
X010420Y029400D03*
X013420Y029400D03*
D25*
X017170Y028940D03*
X017670Y028940D03*
X018170Y028940D03*
X018670Y028940D03*
X018670Y026880D03*
X018170Y026880D03*
X017670Y026880D03*
X017170Y026880D03*
D26*
X033420Y018160D03*
D27*
X036520Y018160D03*
X030320Y018160D03*
D28*
X014670Y018660D03*
X014670Y019660D03*
X013170Y019660D03*
X013170Y018660D03*
X013170Y016660D03*
X014670Y016660D03*
X014670Y021660D03*
X014670Y022660D03*
X013170Y022660D03*
X013170Y021660D03*
X013170Y024660D03*
X014670Y024660D03*
D29*
X039342Y022629D03*
X040248Y022629D03*
D30*
X025398Y021113D03*
X025398Y020207D03*
X023942Y020207D03*
X023942Y021113D03*
D31*
X019920Y027910D03*
X019920Y028910D03*
D32*
X021920Y028410D03*
M02*
