%
M48
M72
T01C0.0157
T02C0.0236
T03C0.0276
T04C0.0300
T05C0.0315
T06C0.0320
T07C0.0354
T08C0.0394
T09C0.0400
T10C0.0472
T11C0.0787
T12C0.1300
%
T01
X3787Y8160
X3287Y10160
X6037Y11910
X6787Y10660
X6787Y8160
X8787Y8160
X11787Y8160
X13787Y8160
X11787Y10660
X15787Y11910
X16787Y10410
X17787Y12410
X19287Y12410
X19787Y15660
X22537Y16160
X23287Y16160
X25287Y16160
X28037Y14410
X28037Y13785
X27537Y12660
X28037Y12160
X28787Y8160
X26787Y8160
X23787Y8160
X21787Y8160
X18787Y8160
X18787Y7410
X16787Y8160
X16287Y16035
X16787Y19160
X15412Y19660
X14037Y19910
X14037Y22160
X15412Y21910
X12412Y19723
X13287Y17410
X8037Y15910
X7037Y15910
X7631Y17348
X10787Y23660
X14287Y27723
X14537Y25910
X18787Y24910
X20787Y21910
X22787Y21785
X23537Y19410
X25787Y19410
X26787Y21785
X28537Y24660
X30287Y23660
X30287Y22910
X31037Y23535
X31537Y24660
X31100Y25098
X31037Y26410
X31787Y26410
X32537Y26410
X32319Y28129
X32037Y29910
X31537Y30410
X30537Y30910
X30537Y27660
X29787Y27660
X29037Y27660
X27225Y28129
X27287Y28910
X26287Y28410
X26287Y27660
X24787Y27160
X24912Y29160
X24787Y31035
X22037Y30660
X18037Y32160
X17787Y31160
X21787Y24910
X28787Y16660
X32037Y21910
X33537Y19910
X36287Y25910
X36537Y27410
X37787Y26910
X36756Y30879
X35537Y30910
X34475Y29254
X34787Y28223
X41037Y31160
X41912Y31160
X41933Y22014
X41787Y8160
X38787Y8160
X36787Y8160
X33787Y8160
X31787Y8160
X23787Y11910
X7037Y25410
T02
X5787Y25410
X4287Y25410
X4287Y24660
X9079Y26014
X9787Y24160
X9662Y21660
X9037Y20160
X14037Y24160
X33037Y21660
T03
X33994Y21579
X34782Y21579
X35569Y21579
X36356Y21579
X37144Y21579
X37931Y21579
X38719Y21579
X39506Y21579
X40293Y21579
X41081Y21579
X41081Y30241
X40293Y30241
X39506Y30241
X38719Y30241
X37931Y30241
X37144Y30241
X36356Y30241
X35569Y30241
X34782Y30241
X33994Y30241
T04
X19819Y18360
X19819Y17660
X19819Y16960
T05
X20287Y11160
X19287Y11160
X18287Y11160
X17287Y11160
X16287Y11160
X21287Y11160
X22287Y11160
X23287Y11160
X25037Y11160
X26037Y11160
X27037Y11160
X28037Y11160
X29037Y11160
X30037Y11160
X31037Y11160
X32037Y11160
X28287Y30160
X27287Y30160
X26287Y30160
X25287Y30160
X24287Y30160
X23287Y30160
X21287Y30160
X20287Y30160
X19287Y30160
X18287Y30160
X17287Y30160
X16287Y30160
T06
X20037Y28910
X20037Y27910
X20287Y25660
X19287Y25660
X18287Y25660
X17287Y25660
X16287Y25660
X16287Y22660
X17287Y22660
X18287Y22660
X19287Y22660
X20287Y22660
X21287Y22660
X22287Y22660
X23287Y22660
X24287Y22660
X25287Y22660
X26287Y22660
X27287Y22660
X28287Y22660
X29287Y22660
X29287Y25660
X28287Y25660
X27287Y25660
X26287Y25660
X25287Y25660
X24287Y25660
X23287Y25660
X22287Y25660
X21287Y25660
X23787Y20660
X25787Y20660
X25787Y18410
X24787Y18410
X23787Y18410
X22787Y18410
X21787Y18410
X21787Y15410
X22787Y15410
X23787Y15410
X24787Y15410
X25787Y15410
X26787Y15410
X27787Y15410
X28787Y15410
X28787Y18410
X27787Y18410
X26787Y18410
T07
X24537Y31910
X23537Y31910
X22537Y31910
X22537Y32910
X23537Y32910
X24537Y32910
T08
X38087Y16560
X36887Y14660
X39287Y14660
T09
X39537Y31910
X39537Y32910
X40537Y32910
X40537Y31910
X38537Y31910
X37537Y31910
X36537Y31910
X35537Y31910
X35537Y32910
X36537Y32910
X37537Y32910
X38537Y32910
X33537Y32910
X32537Y32910
X32537Y31910
X33537Y31910
X31537Y31910
X30537Y31910
X29537Y31910
X28537Y31910
X27537Y31910
X26537Y31910
X26537Y32910
X27537Y32910
X28537Y32910
X29537Y32910
X30537Y32910
X31537Y32910
T10
X5787Y23660
X5787Y22660
X5787Y21660
X5787Y20660
X5787Y19660
X5787Y18660
X4287Y18660
X4287Y19660
X4287Y20660
X4287Y21660
X4287Y22660
X4287Y23660
X2787Y23660
X2787Y22660
X2787Y21660
X2787Y20660
X2787Y19660
X2787Y18660
X4537Y13410
X4537Y12410
X4537Y11410
T11
X6287Y2788
X6287Y5544
X11287Y5544
X11287Y2788
X16287Y2788
X16287Y5544
X21287Y5544
X21287Y2788
X26287Y2788
X26287Y5544
X31287Y5544
X31287Y2788
X36287Y2788
X36287Y5544
X41287Y5544
X41287Y2788
T12
X42287Y11410
X42787Y32660
X8287Y11410
X4037Y32660
M30
