%
M48
M72
T01C0.0157
T02C0.0276
T03C0.0300
T04C0.0315
T05C0.0320
T06C0.0354
T07C0.0394
T08C0.0400
T09C0.0472
T10C0.0787
T11C0.1300
%
T01
X3670Y8160
X3170Y10160
X5920Y11910
X6670Y10660
X6670Y8160
X8670Y8160
X11670Y8160
X13670Y8160
X16670Y8160
X18670Y8160
X18670Y7410
X21670Y8160
X23670Y8160
X26670Y8160
X28670Y8160
X31670Y8160
X33670Y8160
X36670Y8160
X38670Y8160
X41670Y8160
X28670Y16660
X27920Y14410
X27920Y13785
X27420Y12660
X27920Y12160
X23670Y11910
X19170Y12410
X17670Y12410
X15670Y11910
X16670Y10410
X11670Y10660
X7920Y15910
X6920Y15910
X7514Y17348
X8920Y20160
X9545Y21660
X10670Y23660
X9670Y24160
X8962Y26014
X6920Y25410
X5670Y25410
X4170Y25410
X4170Y24660
X12295Y19723
X13920Y19910
X15295Y19660
X16670Y19160
X15295Y21910
X13920Y22160
X13920Y24160
X14420Y25910
X14170Y27723
X17670Y31160
X17920Y32160
X21920Y30660
X24670Y31035
X24795Y29160
X26170Y28410
X26170Y27660
X27108Y28129
X27170Y28910
X28920Y27660
X29670Y27660
X30420Y27660
X30920Y26410
X31670Y26410
X32420Y26410
X30983Y25098
X31420Y24660
X30920Y23535
X30170Y23660
X30170Y22910
X31920Y21910
X32920Y21660
X33420Y19910
X28420Y24660
X25670Y23410
X24670Y23410
X26670Y21785
X22670Y21785
X20670Y21910
X21670Y24910
X18670Y24910
X24670Y27160
X30420Y30910
X31420Y30410
X31920Y29910
X32201Y28129
X34358Y29254
X34670Y28223
X36420Y27410
X37670Y26910
X36170Y25910
X41816Y22014
X36639Y30879
X35420Y30910
X40920Y31160
X41795Y31160
X25170Y16160
X23170Y16160
X22170Y16160
X19670Y15660
X16170Y16035
X13170Y17410
T02
X33877Y21579
X34664Y21579
X35451Y21579
X36239Y21579
X37026Y21579
X37814Y21579
X38601Y21579
X39389Y21579
X40176Y21579
X40963Y21579
X40963Y30241
X40176Y30241
X39389Y30241
X38601Y30241
X37814Y30241
X37026Y30241
X36239Y30241
X35451Y30241
X34664Y30241
X33877Y30241
T03
X19701Y18360
X19701Y17660
X19701Y16960
T04
X20170Y11160
X19170Y11160
X18170Y11160
X17170Y11160
X16170Y11160
X21170Y11160
X22170Y11160
X23170Y11160
X24920Y11160
X25920Y11160
X26920Y11160
X27920Y11160
X28920Y11160
X29920Y11160
X30920Y11160
X31920Y11160
X28170Y30160
X27170Y30160
X26170Y30160
X25170Y30160
X24170Y30160
X23170Y30160
X21170Y30160
X20170Y30160
X19170Y30160
X18170Y30160
X17170Y30160
X16170Y30160
T05
X16170Y25660
X17170Y25660
X18170Y25660
X19170Y25660
X20170Y25660
X21170Y25660
X22170Y25660
X23170Y25660
X24170Y25660
X25170Y25660
X26170Y25660
X27170Y25660
X28170Y25660
X29170Y25660
X29170Y22660
X28170Y22660
X27170Y22660
X26170Y22660
X25170Y22660
X24170Y22660
X23170Y22660
X22170Y22660
X21170Y22660
X20170Y22660
X19170Y22660
X18170Y22660
X17170Y22660
X16170Y22660
X21670Y18410
X22670Y18410
X23670Y18410
X24670Y18410
X25670Y18410
X26670Y18410
X27670Y18410
X28670Y18410
X28670Y15410
X27670Y15410
X26670Y15410
X25670Y15410
X24670Y15410
X23670Y15410
X22670Y15410
X21670Y15410
T06
X22420Y31910
X23420Y31910
X24420Y31910
X24420Y32910
X23420Y32910
X22420Y32910
T07
X39670Y14910
X42070Y14910
X40870Y13010
T08
X40420Y31910
X39420Y31910
X39420Y32910
X40420Y32910
X38420Y32910
X37420Y32910
X36420Y32910
X35420Y32910
X35420Y31910
X36420Y31910
X37420Y31910
X38420Y31910
X33420Y31910
X33420Y32910
X32420Y32910
X31420Y32910
X30420Y32910
X29420Y32910
X28420Y32910
X27420Y32910
X26420Y32910
X26420Y31910
X27420Y31910
X28420Y31910
X29420Y31910
X30420Y31910
X31420Y31910
X32420Y31910
T09
X5670Y23660
X5670Y22660
X5670Y21660
X5670Y20660
X5670Y19660
X5670Y18660
X4170Y18660
X4170Y19660
X4170Y20660
X4170Y21660
X4170Y22660
X4170Y23660
X2670Y23660
X2670Y22660
X2670Y21660
X2670Y20660
X2670Y19660
X2670Y18660
X4420Y13410
X4420Y12410
X4420Y11410
T10
X6170Y5544
X6170Y2788
X11170Y2788
X11170Y5544
X16170Y5544
X16170Y2788
X21170Y2788
X21170Y5544
X26170Y5544
X26170Y2788
X31170Y2788
X31170Y5544
X36170Y5544
X36170Y2788
X41170Y2788
X41170Y5544
T11
X2170Y1785
X2170Y33410
X44170Y33410
X44170Y1910
M30
