G75*
G70*
%OFA0B0*%
%FSLAX24Y24*%
%IPPOS*%
%LPD*%
%AMOC8*
5,1,8,0,0,1.08239X$1,22.5*
%
%ADD10C,0.1360*%
%ADD11C,0.0540*%
%ADD12R,0.0760X0.0760*%
%ADD13OC8,0.0760*%
%ADD14C,0.0820*%
%ADD15C,0.0920*%
%ADD16OC8,0.0660*%
%ADD17OC8,0.0560*%
%ADD18C,0.0520*%
%ADD19C,0.0540*%
%ADD20C,0.0847*%
%ADD21C,0.0847*%
%ADD22C,0.0590*%
%ADD23C,0.0720*%
D10*
X008287Y011410D03*
X004037Y032660D03*
X042287Y011410D03*
X042787Y032660D03*
D11*
X029287Y025900D02*
X029287Y025420D01*
X028287Y025420D02*
X028287Y025900D01*
X027287Y025900D02*
X027287Y025420D01*
X026287Y025420D02*
X026287Y025900D01*
X025287Y025900D02*
X025287Y025420D01*
X024287Y025420D02*
X024287Y025900D01*
X023287Y025900D02*
X023287Y025420D01*
X022287Y025420D02*
X022287Y025900D01*
X021287Y025900D02*
X021287Y025420D01*
X020287Y025420D02*
X020287Y025900D01*
X019287Y025900D02*
X019287Y025420D01*
X018287Y025420D02*
X018287Y025900D01*
X017287Y025900D02*
X017287Y025420D01*
X016287Y025420D02*
X016287Y025900D01*
X016287Y022900D02*
X016287Y022420D01*
X017287Y022420D02*
X017287Y022900D01*
X018287Y022900D02*
X018287Y022420D01*
X019287Y022420D02*
X019287Y022900D01*
X020287Y022900D02*
X020287Y022420D01*
X021287Y022420D02*
X021287Y022900D01*
X022287Y022900D02*
X022287Y022420D01*
X023287Y022420D02*
X023287Y022900D01*
X024287Y022900D02*
X024287Y022420D01*
X025287Y022420D02*
X025287Y022900D01*
X026287Y022900D02*
X026287Y022420D01*
X027287Y022420D02*
X027287Y022900D01*
X028287Y022900D02*
X028287Y022420D01*
X029287Y022420D02*
X029287Y022900D01*
X028787Y018650D02*
X028787Y018170D01*
X027787Y018170D02*
X027787Y018650D01*
X026787Y018650D02*
X026787Y018170D01*
X025787Y018170D02*
X025787Y018650D01*
X024787Y018650D02*
X024787Y018170D01*
X023787Y018170D02*
X023787Y018650D01*
X022787Y018650D02*
X022787Y018170D01*
X021787Y018170D02*
X021787Y018650D01*
X021787Y015650D02*
X021787Y015170D01*
X022787Y015170D02*
X022787Y015650D01*
X023787Y015650D02*
X023787Y015170D01*
X024787Y015170D02*
X024787Y015650D01*
X025787Y015650D02*
X025787Y015170D01*
X026787Y015170D02*
X026787Y015650D01*
X027787Y015650D02*
X027787Y015170D01*
X028787Y015170D02*
X028787Y015650D01*
D12*
X022537Y031910D03*
D13*
X022537Y032910D03*
X023537Y032910D03*
X023537Y031910D03*
X024537Y031910D03*
X024537Y032910D03*
D14*
X005787Y023660D03*
X005787Y022660D03*
X005787Y021660D03*
X005787Y020660D03*
X005787Y019660D03*
X005787Y018660D03*
X004287Y018660D03*
X004287Y019660D03*
X004287Y020660D03*
X004287Y021660D03*
X004287Y022660D03*
X004287Y023660D03*
X002787Y023660D03*
X002787Y022660D03*
X002787Y021660D03*
X002787Y020660D03*
X002787Y019660D03*
X002787Y018660D03*
D15*
X004537Y013410D03*
X004537Y012410D03*
X004537Y011410D03*
D16*
X026537Y031910D03*
X026537Y032910D03*
X027537Y032910D03*
X027537Y031910D03*
X028537Y031910D03*
X028537Y032910D03*
X029537Y032910D03*
X029537Y031910D03*
X030537Y031910D03*
X030537Y032910D03*
X031537Y032910D03*
X031537Y031910D03*
X032537Y031910D03*
X032537Y032910D03*
X033537Y032910D03*
X033537Y031910D03*
X035537Y031910D03*
X035537Y032910D03*
X036537Y032910D03*
X036537Y031910D03*
X037537Y031910D03*
X037537Y032910D03*
X038537Y032910D03*
X038537Y031910D03*
X039537Y031910D03*
X039537Y032910D03*
X040537Y032910D03*
X040537Y031910D03*
D17*
X028287Y030160D03*
X027287Y030160D03*
X026287Y030160D03*
X025287Y030160D03*
X024287Y030160D03*
X023287Y030160D03*
X021287Y030160D03*
X020287Y030160D03*
X019287Y030160D03*
X018287Y030160D03*
X017287Y030160D03*
X016287Y030160D03*
X016287Y011160D03*
X017287Y011160D03*
X018287Y011160D03*
X019287Y011160D03*
X020287Y011160D03*
X021287Y011160D03*
X022287Y011160D03*
X023287Y011160D03*
X025037Y011160D03*
X026037Y011160D03*
X027037Y011160D03*
X028037Y011160D03*
X029037Y011160D03*
X030037Y011160D03*
X031037Y011160D03*
X032037Y011160D03*
D18*
X020049Y016960D02*
X019589Y016960D01*
X019589Y017660D02*
X020049Y017660D01*
X020049Y018360D02*
X019589Y018360D01*
D19*
X023787Y020660D03*
X025787Y020660D03*
D20*
X006287Y002788D03*
X006287Y005544D03*
X011287Y005544D03*
X011287Y002788D03*
X016287Y002788D03*
X016287Y005544D03*
X021287Y005544D03*
X021287Y002788D03*
X026287Y002788D03*
X026287Y005544D03*
X031287Y005544D03*
X031287Y002788D03*
X036287Y002788D03*
X036287Y005544D03*
X041287Y005544D03*
X041287Y002788D03*
D21*
X039287Y014266D02*
X039287Y015054D01*
X038481Y016560D02*
X037694Y016560D01*
X036887Y015054D02*
X036887Y014266D01*
D22*
X037144Y021579D03*
X036356Y021579D03*
X035569Y021579D03*
X034782Y021579D03*
X033994Y021579D03*
X037931Y021579D03*
X038719Y021579D03*
X039506Y021579D03*
X040293Y021579D03*
X041081Y021579D03*
X041081Y030241D03*
X040293Y030241D03*
X039506Y030241D03*
X038719Y030241D03*
X037931Y030241D03*
X037144Y030241D03*
X036356Y030241D03*
X035569Y030241D03*
X034782Y030241D03*
X033994Y030241D03*
D23*
X020037Y028910D03*
X020037Y027910D03*
M02*
