G75*
G70*
%OFA0B0*%
%FSLAX24Y24*%
%IPPOS*%
%LPD*%
%AMOC8*
5,1,8,0,0,1.08239X$1,22.5*
%
%ADD10C,0.0000*%
D10*
X036683Y014230D02*
X036683Y015096D01*
X036879Y015293D02*
X036905Y015291D01*
X036930Y015286D01*
X036954Y015278D01*
X036978Y015267D01*
X036999Y015252D01*
X037018Y015235D01*
X037035Y015216D01*
X037050Y015194D01*
X037061Y015171D01*
X037069Y015147D01*
X037074Y015122D01*
X037076Y015096D01*
X037076Y014230D01*
X037074Y014204D01*
X037069Y014179D01*
X037061Y014155D01*
X037050Y014131D01*
X037035Y014110D01*
X037018Y014091D01*
X036999Y014074D01*
X036977Y014059D01*
X036954Y014048D01*
X036930Y014040D01*
X036905Y014035D01*
X036879Y014033D01*
X036879Y015293D01*
X036853Y015291D01*
X036828Y015286D01*
X036804Y015278D01*
X036780Y015267D01*
X036759Y015252D01*
X036740Y015235D01*
X036723Y015216D01*
X036708Y015195D01*
X036697Y015171D01*
X036689Y015147D01*
X036684Y015122D01*
X036682Y015096D01*
X036682Y014230D02*
X036684Y014204D01*
X036689Y014179D01*
X036697Y014155D01*
X036708Y014132D01*
X036723Y014110D01*
X036740Y014091D01*
X036759Y014074D01*
X036780Y014059D01*
X036804Y014048D01*
X036828Y014040D01*
X036853Y014035D01*
X036879Y014033D01*
X037640Y016360D02*
X038506Y016360D01*
X038532Y016362D01*
X038557Y016367D01*
X038581Y016375D01*
X038604Y016386D01*
X038626Y016401D01*
X038645Y016418D01*
X038662Y016437D01*
X038677Y016458D01*
X038688Y016482D01*
X038696Y016506D01*
X038701Y016531D01*
X038703Y016557D01*
X038701Y016583D01*
X038696Y016608D01*
X038688Y016632D01*
X038677Y016655D01*
X038662Y016677D01*
X038645Y016696D01*
X038626Y016713D01*
X038605Y016728D01*
X038581Y016739D01*
X038557Y016747D01*
X038532Y016752D01*
X038506Y016754D01*
X037640Y016754D01*
X037443Y016557D02*
X037445Y016531D01*
X037450Y016506D01*
X037458Y016482D01*
X037469Y016459D01*
X037484Y016437D01*
X037501Y016418D01*
X037520Y016401D01*
X037541Y016386D01*
X037565Y016375D01*
X037589Y016367D01*
X037614Y016362D01*
X037640Y016360D01*
X037443Y016557D02*
X037445Y016583D01*
X037450Y016608D01*
X037458Y016632D01*
X037469Y016656D01*
X037484Y016677D01*
X037501Y016696D01*
X037520Y016713D01*
X037541Y016728D01*
X037565Y016739D01*
X037589Y016747D01*
X037614Y016752D01*
X037640Y016754D01*
X039088Y015096D02*
X039088Y014230D01*
X039285Y014033D02*
X039311Y014035D01*
X039336Y014040D01*
X039360Y014048D01*
X039383Y014059D01*
X039405Y014074D01*
X039424Y014091D01*
X039441Y014110D01*
X039456Y014131D01*
X039467Y014155D01*
X039475Y014179D01*
X039480Y014204D01*
X039482Y014230D01*
X039482Y015096D01*
X039480Y015122D01*
X039475Y015147D01*
X039467Y015171D01*
X039456Y015194D01*
X039441Y015216D01*
X039424Y015235D01*
X039405Y015252D01*
X039384Y015267D01*
X039360Y015278D01*
X039336Y015286D01*
X039311Y015291D01*
X039285Y015293D01*
X039259Y015291D01*
X039234Y015286D01*
X039210Y015278D01*
X039186Y015267D01*
X039165Y015252D01*
X039146Y015235D01*
X039129Y015216D01*
X039114Y015195D01*
X039103Y015171D01*
X039095Y015147D01*
X039090Y015122D01*
X039088Y015096D01*
X039088Y014230D02*
X039090Y014204D01*
X039095Y014179D01*
X039103Y014155D01*
X039114Y014132D01*
X039129Y014110D01*
X039146Y014091D01*
X039165Y014074D01*
X039186Y014059D01*
X039210Y014048D01*
X039234Y014040D01*
X039259Y014035D01*
X039285Y014033D01*
M02*
