G75*
G70*
%OFA0B0*%
%FSLAX24Y24*%
%IPPOS*%
%LPD*%
%AMOC8*
5,1,8,0,0,1.08239X$1,22.5*
%
%ADD10C,0.1360*%
%ADD11C,0.0540*%
%ADD12R,0.0760X0.0760*%
%ADD13OC8,0.0760*%
%ADD14C,0.0920*%
%ADD15OC8,0.0660*%
%ADD16OC8,0.0560*%
%ADD17C,0.0500*%
%ADD18C,0.0651*%
%ADD19R,0.0808X0.0611*%
%ADD20R,0.0611X0.0769*%
%ADD21R,0.0651X0.0336*%
%ADD22R,0.0660X0.0360*%
%ADD23R,0.0532X0.0375*%
%ADD24R,0.0690X0.0520*%
%ADD25R,0.0720X0.0060*%
%ADD26R,0.0375X0.0532*%
%ADD27C,0.0520*%
%ADD28R,0.0414X0.0375*%
%ADD29R,0.0308X0.0387*%
%ADD30R,0.0520X0.0690*%
%ADD31C,0.0540*%
%ADD32R,0.1044X0.0847*%
%ADD33R,0.0847X0.1044*%
%ADD34R,0.1044X0.0532*%
%ADD35C,0.0847*%
%ADD36C,0.0847*%
%ADD37R,0.0650X0.0850*%
%ADD38R,0.1560X0.0850*%
%ADD39C,0.0590*%
%ADD40R,0.0060X0.0720*%
%ADD41R,0.0300X0.0930*%
%ADD42R,0.1620X0.1620*%
%ADD43R,0.1310X0.1310*%
%ADD44C,0.0720*%
D10*
X005920Y011220D03*
X002170Y032470D03*
X039920Y032470D03*
X039920Y011220D03*
D11*
X026420Y014980D02*
X026420Y015460D01*
X025420Y015460D02*
X025420Y014980D01*
X024420Y014980D02*
X024420Y015460D01*
X023420Y015460D02*
X023420Y014980D01*
X022420Y014980D02*
X022420Y015460D01*
X021420Y015460D02*
X021420Y014980D01*
X020420Y014980D02*
X020420Y015460D01*
X019420Y015460D02*
X019420Y014980D01*
X019420Y017980D02*
X019420Y018460D01*
X020420Y018460D02*
X020420Y017980D01*
X021420Y017980D02*
X021420Y018460D01*
X022420Y018460D02*
X022420Y017980D01*
X023420Y017980D02*
X023420Y018460D01*
X024420Y018460D02*
X024420Y017980D01*
X025420Y017980D02*
X025420Y018460D01*
X026420Y018460D02*
X026420Y017980D01*
X025920Y022230D02*
X025920Y022710D01*
X024920Y022710D02*
X024920Y022230D01*
X023920Y022230D02*
X023920Y022710D01*
X022920Y022710D02*
X022920Y022230D01*
X021920Y022230D02*
X021920Y022710D01*
X020920Y022710D02*
X020920Y022230D01*
X019920Y022230D02*
X019920Y022710D01*
X018920Y022710D02*
X018920Y022230D01*
X017920Y022230D02*
X017920Y022710D01*
X016920Y022710D02*
X016920Y022230D01*
X015920Y022230D02*
X015920Y022710D01*
X014920Y022710D02*
X014920Y022230D01*
X013920Y022230D02*
X013920Y022710D01*
X013920Y025230D02*
X013920Y025710D01*
X014920Y025710D02*
X014920Y025230D01*
X015920Y025230D02*
X015920Y025710D01*
X016920Y025710D02*
X016920Y025230D01*
X017920Y025230D02*
X017920Y025710D01*
X018920Y025710D02*
X018920Y025230D01*
X019920Y025230D02*
X019920Y025710D01*
X020920Y025710D02*
X020920Y025230D01*
X021920Y025230D02*
X021920Y025710D01*
X022920Y025710D02*
X022920Y025230D01*
X023920Y025230D02*
X023920Y025710D01*
X024920Y025710D02*
X024920Y025230D01*
X025920Y025230D02*
X025920Y025710D01*
X026920Y025710D02*
X026920Y025230D01*
X026920Y022710D02*
X026920Y022230D01*
D12*
X020170Y031720D03*
D13*
X021170Y031720D03*
X022170Y031720D03*
X022170Y032720D03*
X021170Y032720D03*
X020170Y032720D03*
D14*
X002170Y023470D03*
X002170Y022470D03*
X002170Y021470D03*
X002170Y020470D03*
X002170Y019470D03*
X002170Y018470D03*
X002170Y013220D03*
X002170Y012220D03*
X002170Y011220D03*
D15*
X024170Y031720D03*
X024170Y032720D03*
X025170Y032720D03*
X026170Y032720D03*
X027170Y032720D03*
X027170Y031720D03*
X026170Y031720D03*
X025170Y031720D03*
X028170Y031720D03*
X029170Y031720D03*
X030170Y031720D03*
X030170Y032720D03*
X029170Y032720D03*
X028170Y032720D03*
X031170Y032720D03*
X031170Y031720D03*
X033170Y031720D03*
X033170Y032720D03*
X034170Y032720D03*
X035170Y032720D03*
X036170Y032720D03*
X036170Y031720D03*
X035170Y031720D03*
X034170Y031720D03*
X037170Y031720D03*
X038170Y031720D03*
X038170Y032720D03*
X037170Y032720D03*
D16*
X025920Y029970D03*
X024920Y029970D03*
X023920Y029970D03*
X022920Y029970D03*
X021920Y029970D03*
X020920Y029970D03*
X018920Y029970D03*
X017920Y029970D03*
X016920Y029970D03*
X015920Y029970D03*
X014920Y029970D03*
X013920Y029970D03*
X013920Y010970D03*
X014920Y010970D03*
X015920Y010970D03*
X016920Y010970D03*
X017920Y010970D03*
X018920Y010970D03*
X019920Y010970D03*
X020920Y010970D03*
X022670Y010970D03*
X023670Y010970D03*
X024670Y010970D03*
X025670Y010970D03*
X026670Y010970D03*
X027670Y010970D03*
X028670Y010970D03*
X029670Y010970D03*
D17*
X039564Y014220D02*
X039566Y014257D01*
X039572Y014294D01*
X039581Y014330D01*
X039595Y014365D01*
X039612Y014398D01*
X039632Y014429D01*
X039655Y014458D01*
X039682Y014485D01*
X039711Y014508D01*
X039742Y014528D01*
X039775Y014545D01*
X039810Y014559D01*
X039846Y014568D01*
X039883Y014574D01*
X039920Y014576D01*
X039957Y014574D01*
X039994Y014568D01*
X040030Y014559D01*
X040065Y014545D01*
X040098Y014528D01*
X040129Y014508D01*
X040158Y014485D01*
X040185Y014458D01*
X040208Y014429D01*
X040228Y014398D01*
X040245Y014365D01*
X040259Y014330D01*
X040268Y014294D01*
X040274Y014257D01*
X040276Y014220D01*
X040274Y014183D01*
X040268Y014146D01*
X040259Y014110D01*
X040245Y014075D01*
X040228Y014042D01*
X040208Y014011D01*
X040185Y013982D01*
X040158Y013955D01*
X040129Y013932D01*
X040098Y013912D01*
X040065Y013895D01*
X040030Y013881D01*
X039994Y013872D01*
X039957Y013866D01*
X039920Y013864D01*
X039883Y013866D01*
X039846Y013872D01*
X039810Y013881D01*
X039775Y013895D01*
X039742Y013912D01*
X039711Y013932D01*
X039682Y013955D01*
X039655Y013982D01*
X039632Y014011D01*
X039612Y014042D01*
X039595Y014075D01*
X039581Y014110D01*
X039572Y014146D01*
X039566Y014183D01*
X039564Y014220D01*
X033064Y023470D02*
X033066Y023507D01*
X033072Y023544D01*
X033081Y023580D01*
X033095Y023615D01*
X033112Y023648D01*
X033132Y023679D01*
X033155Y023708D01*
X033182Y023735D01*
X033211Y023758D01*
X033242Y023778D01*
X033275Y023795D01*
X033310Y023809D01*
X033346Y023818D01*
X033383Y023824D01*
X033420Y023826D01*
X033457Y023824D01*
X033494Y023818D01*
X033530Y023809D01*
X033565Y023795D01*
X033598Y023778D01*
X033629Y023758D01*
X033658Y023735D01*
X033685Y023708D01*
X033708Y023679D01*
X033728Y023648D01*
X033745Y023615D01*
X033759Y023580D01*
X033768Y023544D01*
X033774Y023507D01*
X033776Y023470D01*
X033774Y023433D01*
X033768Y023396D01*
X033759Y023360D01*
X033745Y023325D01*
X033728Y023292D01*
X033708Y023261D01*
X033685Y023232D01*
X033658Y023205D01*
X033629Y023182D01*
X033598Y023162D01*
X033565Y023145D01*
X033530Y023131D01*
X033494Y023122D01*
X033457Y023116D01*
X033420Y023114D01*
X033383Y023116D01*
X033346Y023122D01*
X033310Y023131D01*
X033275Y023145D01*
X033242Y023162D01*
X033211Y023182D01*
X033182Y023205D01*
X033155Y023232D01*
X033132Y023261D01*
X033112Y023292D01*
X033095Y023325D01*
X033081Y023360D01*
X033072Y023396D01*
X033066Y023433D01*
X033064Y023470D01*
X001814Y030720D02*
X001816Y030757D01*
X001822Y030794D01*
X001831Y030830D01*
X001845Y030865D01*
X001862Y030898D01*
X001882Y030929D01*
X001905Y030958D01*
X001932Y030985D01*
X001961Y031008D01*
X001992Y031028D01*
X002025Y031045D01*
X002060Y031059D01*
X002096Y031068D01*
X002133Y031074D01*
X002170Y031076D01*
X002207Y031074D01*
X002244Y031068D01*
X002280Y031059D01*
X002315Y031045D01*
X002348Y031028D01*
X002379Y031008D01*
X002408Y030985D01*
X002435Y030958D01*
X002458Y030929D01*
X002478Y030898D01*
X002495Y030865D01*
X002509Y030830D01*
X002518Y030794D01*
X002524Y030757D01*
X002526Y030720D01*
X002524Y030683D01*
X002518Y030646D01*
X002509Y030610D01*
X002495Y030575D01*
X002478Y030542D01*
X002458Y030511D01*
X002435Y030482D01*
X002408Y030455D01*
X002379Y030432D01*
X002348Y030412D01*
X002315Y030395D01*
X002280Y030381D01*
X002244Y030372D01*
X002207Y030366D01*
X002170Y030364D01*
X002133Y030366D01*
X002096Y030372D01*
X002060Y030381D01*
X002025Y030395D01*
X001992Y030412D01*
X001961Y030432D01*
X001932Y030455D01*
X001905Y030482D01*
X001882Y030511D01*
X001862Y030542D01*
X001845Y030575D01*
X001831Y030610D01*
X001822Y030646D01*
X001816Y030683D01*
X001814Y030720D01*
D18*
X002170Y030720D03*
X033420Y023470D03*
X039920Y014220D03*
D19*
X039751Y023127D03*
X040105Y028324D03*
D20*
X034593Y026120D03*
X034593Y023757D03*
D21*
X038609Y023915D03*
X038766Y024348D03*
X038609Y024781D03*
X038766Y025214D03*
X038609Y025647D03*
X038451Y026080D03*
X038609Y026513D03*
X038609Y023482D03*
D22*
X018920Y031470D03*
X018920Y032970D03*
X016920Y032970D03*
X016920Y031470D03*
X010420Y022970D03*
X010420Y021470D03*
X010420Y020470D03*
X010420Y018970D03*
X010420Y017970D03*
X010420Y016470D03*
X008420Y016470D03*
X008420Y017970D03*
X008420Y018970D03*
X008420Y020470D03*
X008420Y021470D03*
X008420Y022970D03*
D23*
X007420Y022199D03*
X007420Y021491D03*
X007420Y019699D03*
X007420Y018991D03*
X007420Y017324D03*
X007420Y016616D03*
X011420Y016459D03*
X011420Y017168D03*
X011420Y020772D03*
X011420Y021481D03*
X011420Y022366D03*
X011420Y023074D03*
X011170Y025116D03*
X011170Y025824D03*
X009795Y025824D03*
X009795Y025116D03*
X007295Y025116D03*
X007295Y025824D03*
X003670Y023324D03*
X003670Y022616D03*
X003670Y021324D03*
X003670Y020616D03*
X003670Y019324D03*
X003670Y018616D03*
X003170Y017074D03*
X003170Y016366D03*
X003170Y015324D03*
X003170Y014616D03*
X001920Y014616D03*
X001920Y015324D03*
X001920Y016366D03*
X001920Y017074D03*
X003670Y013074D03*
X003670Y012366D03*
X003420Y009324D03*
X003420Y008616D03*
X004420Y008616D03*
X004420Y009324D03*
X005420Y009324D03*
X005420Y008616D03*
X006420Y008616D03*
X006420Y009324D03*
X007420Y009324D03*
X007420Y008616D03*
X008420Y008616D03*
X008420Y009324D03*
X009420Y009324D03*
X009420Y008616D03*
X010420Y008616D03*
X010420Y009324D03*
X011420Y009324D03*
X011420Y008616D03*
X012420Y008616D03*
X012420Y009324D03*
X013420Y009324D03*
X013420Y008616D03*
X014420Y008616D03*
X014420Y009324D03*
X015420Y009324D03*
X015420Y008616D03*
X016420Y008616D03*
X016420Y009324D03*
X017420Y009324D03*
X017420Y008616D03*
X018420Y008616D03*
X018420Y009324D03*
X019420Y009324D03*
X019420Y008616D03*
X020420Y008616D03*
X020420Y009324D03*
X021420Y009324D03*
X021420Y008616D03*
X022420Y008616D03*
X022420Y009324D03*
X023420Y009324D03*
X023420Y008616D03*
X024420Y008616D03*
X024420Y009324D03*
X025420Y009324D03*
X025420Y008616D03*
X026420Y008616D03*
X026420Y009324D03*
X027420Y009324D03*
X027420Y008616D03*
X028420Y008616D03*
X028420Y009324D03*
X029420Y009324D03*
X029420Y008616D03*
X030420Y008616D03*
X030420Y009324D03*
X031420Y009324D03*
X031420Y008616D03*
X032420Y008616D03*
X032420Y009324D03*
X033420Y009324D03*
X033420Y008616D03*
X034420Y008616D03*
X034420Y009324D03*
X035420Y009324D03*
X035420Y008616D03*
X036420Y008616D03*
X036420Y009324D03*
X037420Y009324D03*
X037420Y008616D03*
X038420Y008616D03*
X038420Y009324D03*
X039420Y009324D03*
X039420Y008616D03*
X040420Y008616D03*
X040420Y009324D03*
X040420Y017866D03*
X040420Y018574D03*
X039420Y018574D03*
X039420Y017866D03*
X039420Y019616D03*
X039420Y020324D03*
X040420Y020324D03*
X040420Y019616D03*
X033420Y026866D03*
X033420Y027574D03*
X032420Y027574D03*
X032420Y026866D03*
X031420Y026866D03*
X031420Y027574D03*
X031420Y028366D03*
X031420Y029074D03*
X030420Y029074D03*
X030420Y028366D03*
X030420Y027574D03*
X030420Y026866D03*
X029420Y026866D03*
X029420Y027574D03*
X029420Y028366D03*
X029420Y029074D03*
X002420Y009324D03*
X002420Y008616D03*
X001420Y008616D03*
X001420Y009324D03*
D24*
X001420Y007270D03*
X001420Y006670D03*
X016670Y018920D03*
X016670Y019520D03*
D25*
X016670Y019220D03*
X001420Y006970D03*
D26*
X006066Y017220D03*
X006774Y017220D03*
X005274Y017376D03*
X004566Y017376D03*
X004566Y019720D03*
X005274Y019720D03*
X006066Y019720D03*
X006774Y019720D03*
X006774Y022220D03*
X006066Y022220D03*
X005274Y022220D03*
X004566Y022220D03*
X013066Y027220D03*
X013774Y027220D03*
X013774Y028220D03*
X013066Y028220D03*
X017066Y026720D03*
X017774Y026720D03*
X020066Y026720D03*
X020774Y026720D03*
X019649Y021220D03*
X018941Y021220D03*
X018941Y020345D03*
X019649Y020345D03*
X019649Y019470D03*
X018941Y019470D03*
X016024Y018345D03*
X015316Y018345D03*
X015316Y017470D03*
X016024Y017470D03*
X025191Y019470D03*
X025899Y019470D03*
X025899Y020470D03*
X025191Y020470D03*
D27*
X017681Y018170D02*
X017221Y018170D01*
X017221Y017470D02*
X017681Y017470D01*
X017681Y016770D02*
X017221Y016770D01*
D28*
X006814Y018096D03*
X005987Y018470D03*
X006814Y018844D03*
X006814Y020596D03*
X005987Y020970D03*
X006814Y021344D03*
X006814Y023096D03*
X005987Y023470D03*
X006814Y023844D03*
D29*
X005373Y023470D03*
X004467Y023470D03*
X004467Y020970D03*
X005373Y020970D03*
X005373Y018470D03*
X004467Y018470D03*
D30*
X004664Y016470D03*
X005264Y016470D03*
X005864Y016470D03*
X008370Y025470D03*
X008970Y025470D03*
D31*
X021420Y020470D03*
X023420Y020470D03*
D32*
X025278Y005826D03*
X027562Y002913D03*
X025278Y002204D03*
X022562Y002913D03*
X020278Y002204D03*
X017562Y002913D03*
X015278Y002204D03*
X012562Y002913D03*
X010278Y002204D03*
X007562Y002913D03*
X005278Y002204D03*
X002562Y002913D03*
X005278Y005826D03*
X010278Y005826D03*
X015278Y005826D03*
X020278Y005826D03*
X030278Y005826D03*
X032562Y002913D03*
X030278Y002204D03*
X035278Y002204D03*
X037562Y002913D03*
X040278Y002204D03*
X040278Y005826D03*
X035278Y005826D03*
D33*
X033625Y007421D03*
X028625Y007421D03*
X023625Y007421D03*
X018625Y007421D03*
X013625Y007421D03*
X008625Y007421D03*
X003625Y007421D03*
X038625Y007421D03*
D34*
X002562Y001811D03*
X007562Y001811D03*
X012562Y001811D03*
X017562Y001811D03*
X022562Y001811D03*
X027562Y001811D03*
X032562Y001811D03*
X037562Y001811D03*
D35*
X038920Y002598D03*
X038920Y005354D03*
X033920Y005354D03*
X033920Y002598D03*
X028920Y002598D03*
X028920Y005354D03*
X023920Y005354D03*
X023920Y002598D03*
X018920Y002598D03*
X018920Y005354D03*
X013920Y005354D03*
X013920Y002598D03*
X008920Y002598D03*
X008920Y005354D03*
X003920Y005354D03*
X003920Y002598D03*
D36*
X004476Y024820D02*
X005264Y024820D01*
X006070Y026326D02*
X006070Y027114D01*
X003670Y027114D02*
X003670Y026326D01*
D37*
X007280Y026730D03*
X008180Y026730D03*
X009080Y026730D03*
X010280Y026730D03*
X011180Y026730D03*
X012080Y026730D03*
D38*
X011170Y029210D03*
X008170Y029210D03*
D39*
X031627Y030051D03*
X032414Y030051D03*
X033201Y030051D03*
X033989Y030051D03*
X034776Y030051D03*
X035564Y030051D03*
X036351Y030051D03*
X037139Y030051D03*
X037926Y030051D03*
X038713Y030051D03*
X038713Y021389D03*
X037926Y021389D03*
X037139Y021389D03*
X036351Y021389D03*
X035564Y021389D03*
X034776Y021389D03*
X033989Y021389D03*
X033201Y021389D03*
X032414Y021389D03*
X031627Y021389D03*
D40*
X008670Y025470D03*
D41*
X014920Y026690D03*
X015420Y026690D03*
X015920Y026690D03*
X016420Y026690D03*
X016420Y028750D03*
X015920Y028750D03*
X015420Y028750D03*
X014920Y028750D03*
D42*
X031170Y017970D03*
D43*
X034270Y017970D03*
X028070Y017970D03*
D44*
X017670Y027720D03*
X017670Y028720D03*
M02*
