%
M48
M72
T01C0.0157
T02C0.0276
T03C0.0300
T04C0.0315
T05C0.0320
T06C0.0354
T07C0.0394
T08C0.0400
T09C0.0472
T10C0.0787
T11C0.1300
%
T01
X1420Y7970
X920Y9970
X3670Y11720
X4420Y10470
X4420Y7970
X6420Y7970
X9420Y7970
X11420Y7970
X14420Y7970
X16420Y7970
X16420Y7220
X19420Y7970
X21420Y7970
X24420Y7970
X26420Y7970
X29420Y7970
X31420Y7970
X34420Y7970
X36420Y7970
X39420Y7970
X26420Y16470
X25670Y14220
X25670Y13595
X25170Y12470
X25670Y11970
X21420Y11720
X16920Y12220
X15420Y12220
X13420Y11720
X14420Y10220
X9420Y10470
X5670Y15720
X4670Y15720
X5264Y17908
X6170Y17908
X6170Y19095
X5670Y20220
X5920Y21595
X8420Y23470
X7920Y24220
X9670Y23470
X10733Y22220
X9795Y20970
X11420Y20220
X11420Y18126
X10420Y17470
X14420Y16720
X17420Y15470
X20170Y15970
X20920Y15970
X22920Y15970
X23420Y19220
X21170Y19220
X20420Y21595
X18420Y21720
X19420Y24720
X16420Y24720
X12420Y23470
X12170Y25720
X11920Y27533
X15420Y30970
X15670Y31970
X19670Y30470
X22420Y30845
X22545Y28970
X23920Y28220
X23920Y27470
X24858Y27939
X24920Y28720
X26670Y27470
X27420Y27470
X28170Y27470
X28670Y26220
X29420Y26220
X30170Y26220
X28733Y24908
X29170Y24470
X28670Y23345
X27920Y23470
X27920Y22720
X29670Y21720
X31170Y19720
X36170Y22470
X33920Y25720
X34170Y27220
X35420Y26720
X32420Y28033
X32108Y29064
X33170Y30720
X34389Y30689
X38670Y30970
X29951Y27939
X29670Y29720
X29170Y30220
X28170Y30720
X22420Y26970
X26170Y24470
X24420Y21595
T02
X31627Y21389
X32414Y21389
X33201Y21389
X33989Y21389
X34776Y21389
X35564Y21389
X36351Y21389
X37139Y21389
X37926Y21389
X38713Y21389
X38713Y30051
X37926Y30051
X37139Y30051
X36351Y30051
X35564Y30051
X34776Y30051
X33989Y30051
X33201Y30051
X32414Y30051
X31627Y30051
T03
X17451Y18170
X17451Y17470
X17451Y16770
T04
X17920Y10970
X18920Y10970
X19920Y10970
X20920Y10970
X22670Y10970
X23670Y10970
X24670Y10970
X25670Y10970
X26670Y10970
X27670Y10970
X28670Y10970
X29670Y10970
X16920Y10970
X15920Y10970
X14920Y10970
X13920Y10970
X13920Y29970
X14920Y29970
X15920Y29970
X16920Y29970
X17920Y29970
X18920Y29970
X20920Y29970
X21920Y29970
X22920Y29970
X23920Y29970
X24920Y29970
X25920Y29970
T05
X25920Y25470
X24920Y25470
X23920Y25470
X22920Y25470
X21920Y25470
X20920Y25470
X19920Y25470
X18920Y25470
X17920Y25470
X16920Y25470
X15920Y25470
X14920Y25470
X13920Y25470
X13920Y22470
X14920Y22470
X15920Y22470
X16920Y22470
X17920Y22470
X18920Y22470
X19920Y22470
X20920Y22470
X21920Y22470
X22920Y22470
X23920Y22470
X24920Y22470
X25920Y22470
X26920Y22470
X26920Y25470
X23420Y20470
X21420Y20470
X21420Y18220
X22420Y18220
X23420Y18220
X24420Y18220
X25420Y18220
X26420Y18220
X26420Y15220
X25420Y15220
X24420Y15220
X23420Y15220
X22420Y15220
X21420Y15220
X20420Y15220
X19420Y15220
X19420Y18220
X20420Y18220
X17670Y27720
X17670Y28720
T06
X20170Y31720
X21170Y31720
X22170Y31720
X22170Y32720
X21170Y32720
X20170Y32720
T07
X6070Y26720
X4870Y24820
X3670Y26720
T08
X24170Y31720
X24170Y32720
X25170Y32720
X26170Y32720
X27170Y32720
X27170Y31720
X26170Y31720
X25170Y31720
X28170Y31720
X29170Y31720
X30170Y31720
X30170Y32720
X29170Y32720
X28170Y32720
X31170Y32720
X31170Y31720
X33170Y31720
X33170Y32720
X34170Y32720
X35170Y32720
X36170Y32720
X36170Y31720
X35170Y31720
X34170Y31720
X37170Y31720
X38170Y31720
X38170Y32720
X37170Y32720
T09
X2170Y23470
X2170Y22470
X2170Y21470
X2170Y20470
X2170Y19470
X2170Y18470
X2170Y13220
X2170Y12220
X2170Y11220
T10
X3920Y2598
X3920Y5354
X8920Y5354
X8920Y2598
X13920Y2598
X13920Y5354
X18920Y5354
X18920Y2598
X23920Y2598
X23920Y5354
X28920Y5354
X28920Y2598
X33920Y2598
X33920Y5354
X38920Y5354
X38920Y2598
T11
X39920Y11220
X39920Y32470
X5920Y11220
X2170Y32470
M30
