G75*
G70*
%OFA0B0*%
%FSLAX24Y24*%
%IPPOS*%
%LPD*%
%AMOC8*
5,1,8,0,0,1.08239X$1,22.5*
%
%ADD10C,0.0480*%
%ADD11R,0.0700X0.0700*%
%ADD12OC8,0.0700*%
%ADD13C,0.0760*%
%ADD14C,0.0860*%
%ADD15OC8,0.0600*%
%ADD16OC8,0.0500*%
%ADD17C,0.0460*%
%ADD18C,0.0480*%
%ADD19C,0.0787*%
%ADD20C,0.0530*%
%ADD21C,0.0660*%
%ADD22C,0.0100*%
%ADD23C,0.0357*%
%ADD24C,0.0160*%
%ADD25C,0.0436*%
%ADD26C,0.0080*%
%ADD27C,0.0120*%
%ADD28C,0.0240*%
D10*
X016287Y022420D02*
X016287Y022900D01*
X017287Y022900D02*
X017287Y022420D01*
X018287Y022420D02*
X018287Y022900D01*
X019287Y022900D02*
X019287Y022420D01*
X020287Y022420D02*
X020287Y022900D01*
X021287Y022900D02*
X021287Y022420D01*
X022287Y022420D02*
X022287Y022900D01*
X023287Y022900D02*
X023287Y022420D01*
X024287Y022420D02*
X024287Y022900D01*
X025287Y022900D02*
X025287Y022420D01*
X026287Y022420D02*
X026287Y022900D01*
X027287Y022900D02*
X027287Y022420D01*
X028287Y022420D02*
X028287Y022900D01*
X029287Y022900D02*
X029287Y022420D01*
X029287Y025420D02*
X029287Y025900D01*
X028287Y025900D02*
X028287Y025420D01*
X027287Y025420D02*
X027287Y025900D01*
X026287Y025900D02*
X026287Y025420D01*
X025287Y025420D02*
X025287Y025900D01*
X024287Y025900D02*
X024287Y025420D01*
X023287Y025420D02*
X023287Y025900D01*
X022287Y025900D02*
X022287Y025420D01*
X021287Y025420D02*
X021287Y025900D01*
X020287Y025900D02*
X020287Y025420D01*
X019287Y025420D02*
X019287Y025900D01*
X018287Y025900D02*
X018287Y025420D01*
X017287Y025420D02*
X017287Y025900D01*
X016287Y025900D02*
X016287Y025420D01*
X021787Y018650D02*
X021787Y018170D01*
X022787Y018170D02*
X022787Y018650D01*
X023787Y018650D02*
X023787Y018170D01*
X024787Y018170D02*
X024787Y018650D01*
X025787Y018650D02*
X025787Y018170D01*
X026787Y018170D02*
X026787Y018650D01*
X027787Y018650D02*
X027787Y018170D01*
X028787Y018170D02*
X028787Y018650D01*
X028787Y015650D02*
X028787Y015170D01*
X027787Y015170D02*
X027787Y015650D01*
X026787Y015650D02*
X026787Y015170D01*
X025787Y015170D02*
X025787Y015650D01*
X024787Y015650D02*
X024787Y015170D01*
X023787Y015170D02*
X023787Y015650D01*
X022787Y015650D02*
X022787Y015170D01*
X021787Y015170D02*
X021787Y015650D01*
D11*
X022537Y031910D03*
D12*
X022537Y032910D03*
X023537Y032910D03*
X023537Y031910D03*
X024537Y031910D03*
X024537Y032910D03*
D13*
X005787Y023660D03*
X005787Y022660D03*
X005787Y021660D03*
X005787Y020660D03*
X005787Y019660D03*
X005787Y018660D03*
X004287Y018660D03*
X004287Y019660D03*
X004287Y020660D03*
X004287Y021660D03*
X004287Y022660D03*
X004287Y023660D03*
X002787Y023660D03*
X002787Y022660D03*
X002787Y021660D03*
X002787Y020660D03*
X002787Y019660D03*
X002787Y018660D03*
D14*
X004537Y013410D03*
X004537Y012410D03*
X004537Y011410D03*
D15*
X026537Y031910D03*
X026537Y032910D03*
X027537Y032910D03*
X027537Y031910D03*
X028537Y031910D03*
X028537Y032910D03*
X029537Y032910D03*
X029537Y031910D03*
X030537Y031910D03*
X030537Y032910D03*
X031537Y032910D03*
X031537Y031910D03*
X032537Y031910D03*
X032537Y032910D03*
X033537Y032910D03*
X033537Y031910D03*
X035537Y031910D03*
X035537Y032910D03*
X036537Y032910D03*
X036537Y031910D03*
X037537Y031910D03*
X037537Y032910D03*
X038537Y032910D03*
X038537Y031910D03*
X039537Y031910D03*
X039537Y032910D03*
X040537Y032910D03*
X040537Y031910D03*
D16*
X028287Y030160D03*
X027287Y030160D03*
X026287Y030160D03*
X025287Y030160D03*
X024287Y030160D03*
X023287Y030160D03*
X021287Y030160D03*
X020287Y030160D03*
X019287Y030160D03*
X018287Y030160D03*
X017287Y030160D03*
X016287Y030160D03*
X016287Y011160D03*
X017287Y011160D03*
X018287Y011160D03*
X019287Y011160D03*
X020287Y011160D03*
X021287Y011160D03*
X022287Y011160D03*
X023287Y011160D03*
X025037Y011160D03*
X026037Y011160D03*
X027037Y011160D03*
X028037Y011160D03*
X029037Y011160D03*
X030037Y011160D03*
X031037Y011160D03*
X032037Y011160D03*
D17*
X020049Y016960D02*
X019589Y016960D01*
X019589Y017660D02*
X020049Y017660D01*
X020049Y018360D02*
X019589Y018360D01*
D18*
X023787Y020660D03*
X025787Y020660D03*
D19*
X036887Y015054D02*
X036887Y014266D01*
X037694Y016560D02*
X038481Y016560D01*
X039287Y015054D02*
X039287Y014266D01*
D20*
X039506Y021579D03*
X040293Y021579D03*
X041081Y021579D03*
X038719Y021579D03*
X037931Y021579D03*
X037144Y021579D03*
X036356Y021579D03*
X035569Y021579D03*
X034782Y021579D03*
X033994Y021579D03*
X033994Y030241D03*
X034782Y030241D03*
X035569Y030241D03*
X036356Y030241D03*
X037144Y030241D03*
X037931Y030241D03*
X038719Y030241D03*
X039506Y030241D03*
X040293Y030241D03*
X041081Y030241D03*
D21*
X020037Y028910D03*
X020037Y027910D03*
D22*
X001133Y001432D02*
X001296Y001149D01*
X001527Y000918D01*
X001809Y000755D01*
X001809Y000755D01*
X002124Y000671D01*
X002287Y000660D01*
X044287Y000660D01*
X044451Y000671D01*
X044766Y000755D01*
X045048Y000918D01*
X045279Y001149D01*
X045442Y001432D01*
X045527Y001747D01*
X045537Y001910D01*
X045537Y012160D01*
X045531Y012238D01*
X045483Y012387D01*
X045391Y012514D01*
X045264Y012606D01*
X045116Y012654D01*
X045037Y012660D01*
X043879Y012660D01*
X043578Y012758D01*
X043578Y012758D01*
X043322Y012944D01*
X043322Y012944D01*
X043322Y012944D01*
X043135Y013200D01*
X043135Y013200D01*
X043037Y013502D01*
X043037Y016568D01*
X043135Y016870D01*
X043135Y016870D01*
X043322Y017126D01*
X043322Y017126D01*
X043578Y017312D01*
X043578Y017312D01*
X043879Y017410D01*
X045037Y017410D01*
X045116Y017416D01*
X045264Y017464D01*
X045391Y017556D01*
X045483Y017683D01*
X045531Y017832D01*
X045537Y017910D01*
X045537Y019160D01*
X039577Y019160D01*
X039577Y015587D01*
X039629Y015565D01*
X039799Y015396D01*
X039891Y015174D01*
X039891Y014146D01*
X039799Y013924D01*
X039629Y013755D01*
X039408Y013663D01*
X039167Y013663D01*
X038946Y013755D01*
X038776Y013924D01*
X038684Y014146D01*
X038684Y015174D01*
X038776Y015396D01*
X038946Y015565D01*
X038997Y015587D01*
X038997Y016229D01*
X038993Y016218D01*
X038823Y016048D01*
X038601Y015956D01*
X037574Y015956D01*
X037352Y016048D01*
X037182Y016218D01*
X037177Y016229D01*
X037177Y015587D01*
X037229Y015565D01*
X037399Y015396D01*
X037491Y015174D01*
X037491Y014146D01*
X037399Y013924D01*
X037229Y013755D01*
X037008Y013663D01*
X036767Y013663D01*
X036546Y013755D01*
X036376Y013924D01*
X036284Y014146D01*
X036284Y015174D01*
X036376Y015396D01*
X036546Y015565D01*
X036597Y015587D01*
X036597Y017690D01*
X035127Y019160D01*
X032327Y019160D01*
X032327Y011521D01*
X032497Y011351D01*
X032497Y010969D01*
X032228Y010700D01*
X031847Y010700D01*
X031577Y010969D01*
X031577Y011351D01*
X031747Y011521D01*
X031747Y019160D01*
X028577Y019160D01*
X028577Y019050D01*
X028698Y019100D01*
X028877Y019100D01*
X029042Y019031D01*
X029169Y018905D01*
X029237Y018740D01*
X029237Y018370D01*
X031283Y016324D01*
X031327Y016218D01*
X031327Y011521D01*
X031497Y011351D01*
X031497Y010969D01*
X031228Y010700D01*
X030847Y010700D01*
X030577Y010969D01*
X030577Y011351D01*
X030747Y011521D01*
X030747Y016040D01*
X029012Y017776D01*
X028877Y017720D01*
X028698Y017720D01*
X028577Y017770D01*
X028577Y017602D01*
X028533Y017496D01*
X027488Y016450D01*
X028167Y016450D01*
X028399Y016681D01*
X028399Y016737D01*
X028458Y016880D01*
X028567Y016990D01*
X028710Y017049D01*
X028865Y017049D01*
X029008Y016990D01*
X029117Y016880D01*
X029176Y016737D01*
X029176Y016583D01*
X029117Y016440D01*
X029008Y016330D01*
X028865Y016271D01*
X028809Y016271D01*
X028595Y016057D01*
X028698Y016100D01*
X028877Y016100D01*
X029042Y016031D01*
X029169Y015905D01*
X029237Y015740D01*
X029237Y015370D01*
X029702Y014906D01*
X029783Y014824D01*
X029827Y014718D01*
X029827Y011601D01*
X029847Y011620D01*
X030228Y011620D01*
X030497Y011351D01*
X030497Y010969D01*
X030228Y010700D01*
X029847Y010700D01*
X029827Y010719D01*
X029827Y010280D01*
X030158Y009950D01*
X040345Y009950D01*
X040452Y009906D01*
X041809Y008549D01*
X041865Y008549D01*
X042008Y008490D01*
X042117Y008380D01*
X042176Y008237D01*
X042176Y008083D01*
X042117Y007940D01*
X042008Y007830D01*
X041865Y007771D01*
X041710Y007771D01*
X041567Y007830D01*
X041458Y007940D01*
X041399Y008083D01*
X041399Y008139D01*
X040167Y009370D01*
X035988Y009370D01*
X036809Y008549D01*
X036865Y008549D01*
X037008Y008490D01*
X037117Y008380D01*
X037176Y008237D01*
X037176Y008209D01*
X037373Y008406D01*
X037480Y008450D01*
X038528Y008450D01*
X038567Y008490D01*
X038710Y008549D01*
X038865Y008549D01*
X039008Y008490D01*
X039117Y008380D01*
X039176Y008237D01*
X039176Y008083D01*
X039117Y007940D01*
X039008Y007830D01*
X038865Y007771D01*
X038710Y007771D01*
X038567Y007830D01*
X038528Y007870D01*
X037658Y007870D01*
X037202Y007414D01*
X037095Y007370D01*
X036480Y007370D01*
X036373Y007414D01*
X035917Y007870D01*
X034047Y007870D01*
X034008Y007830D01*
X033865Y007771D01*
X033710Y007771D01*
X033567Y007830D01*
X033528Y007870D01*
X032658Y007870D01*
X032283Y007496D01*
X032202Y007414D01*
X032095Y007370D01*
X031480Y007370D01*
X031373Y007414D01*
X030917Y007870D01*
X029047Y007870D01*
X029008Y007830D01*
X028865Y007771D01*
X028710Y007771D01*
X028567Y007830D01*
X028528Y007870D01*
X027658Y007870D01*
X027202Y007414D01*
X027095Y007370D01*
X026480Y007370D01*
X026373Y007414D01*
X026292Y007496D01*
X025917Y007870D01*
X024047Y007870D01*
X024008Y007830D01*
X023865Y007771D01*
X023710Y007771D01*
X023567Y007830D01*
X023528Y007870D01*
X022658Y007870D01*
X022202Y007414D01*
X022095Y007370D01*
X021480Y007370D01*
X021373Y007414D01*
X021292Y007496D01*
X020917Y007870D01*
X019047Y007870D01*
X019008Y007830D01*
X018865Y007771D01*
X018710Y007771D01*
X018567Y007830D01*
X018528Y007870D01*
X017658Y007870D01*
X017202Y007414D01*
X017095Y007370D01*
X016480Y007370D01*
X016373Y007414D01*
X015917Y007870D01*
X014047Y007870D01*
X014008Y007830D01*
X013865Y007771D01*
X013710Y007771D01*
X013567Y007830D01*
X013528Y007870D01*
X012658Y007870D01*
X012202Y007414D01*
X012095Y007370D01*
X011480Y007370D01*
X011373Y007414D01*
X011292Y007496D01*
X010917Y007870D01*
X009047Y007870D01*
X009008Y007830D01*
X008865Y007771D01*
X008710Y007771D01*
X008567Y007830D01*
X008528Y007870D01*
X007658Y007870D01*
X007202Y007414D01*
X007095Y007370D01*
X006480Y007370D01*
X006373Y007414D01*
X006292Y007496D01*
X005917Y007870D01*
X004047Y007870D01*
X004008Y007830D01*
X003865Y007771D01*
X003710Y007771D01*
X003567Y007830D01*
X003458Y007940D01*
X003399Y008083D01*
X003399Y008237D01*
X003458Y008380D01*
X003567Y008490D01*
X003710Y008549D01*
X003865Y008549D01*
X004008Y008490D01*
X004047Y008450D01*
X006095Y008450D01*
X006202Y008406D01*
X006399Y008209D01*
X006399Y008237D01*
X006458Y008380D01*
X006497Y008420D01*
X006497Y010400D01*
X006458Y010440D01*
X003577Y010440D01*
X003577Y010420D02*
X003577Y012040D01*
X003897Y012360D01*
X003897Y012283D01*
X003995Y012047D01*
X004132Y011910D01*
X003995Y011773D01*
X003897Y011537D01*
X003897Y011283D01*
X003995Y011047D01*
X004175Y010867D01*
X004410Y010770D01*
X004665Y010770D01*
X004900Y010867D01*
X005080Y011047D01*
X005177Y011283D01*
X005177Y011537D01*
X005080Y011773D01*
X004943Y011910D01*
X005080Y012047D01*
X005177Y012283D01*
X005177Y012537D01*
X005080Y012773D01*
X004943Y012910D01*
X005080Y013047D01*
X005177Y013283D01*
X005177Y013537D01*
X005147Y013610D01*
X006198Y014660D01*
X016497Y014660D01*
X016497Y014030D01*
X015542Y013074D01*
X015497Y012968D01*
X015497Y012170D01*
X015458Y012130D01*
X015399Y011987D01*
X015399Y011833D01*
X015458Y011690D01*
X015567Y011580D01*
X015710Y011521D01*
X015865Y011521D01*
X015997Y011576D01*
X015997Y011521D01*
X015827Y011351D01*
X015827Y010969D01*
X016097Y010700D01*
X016478Y010700D01*
X016747Y010969D01*
X016747Y011351D01*
X016577Y011521D01*
X016577Y012540D01*
X016997Y012960D01*
X016997Y011521D01*
X016827Y011351D01*
X016827Y010969D01*
X017097Y010700D01*
X017478Y010700D01*
X017497Y010719D01*
X017497Y009280D01*
X016766Y008549D01*
X016710Y008549D01*
X016567Y008490D01*
X016458Y008380D01*
X016399Y008237D01*
X016399Y008209D01*
X016202Y008406D01*
X016095Y008450D01*
X014047Y008450D01*
X014008Y008490D01*
X013865Y008549D01*
X013710Y008549D01*
X013567Y008490D01*
X013528Y008450D01*
X012480Y008450D01*
X012373Y008406D01*
X012292Y008324D01*
X012176Y008209D01*
X012176Y008237D01*
X012117Y008380D01*
X012077Y008420D01*
X012077Y010400D01*
X012117Y010440D01*
X012347Y010440D01*
X012387Y010400D02*
X012387Y008412D01*
X012707Y008450D02*
X012707Y010129D01*
X012730Y010120D02*
X012077Y010120D01*
X012077Y009800D02*
X017497Y009800D01*
X017497Y009480D02*
X012077Y009480D01*
X012077Y009160D02*
X017377Y009160D01*
X017187Y008970D02*
X017187Y010700D01*
X017117Y010630D02*
X017176Y010487D01*
X017176Y010333D01*
X017117Y010190D01*
X017008Y010080D01*
X016865Y010021D01*
X016710Y010021D01*
X016567Y010080D01*
X016528Y010120D01*
X012730Y010120D01*
X012623Y010164D01*
X012176Y010611D01*
X012176Y010583D01*
X012117Y010440D01*
X012707Y010900D02*
X012707Y014660D01*
X012387Y014660D02*
X012387Y011220D01*
X012283Y011324D02*
X012202Y011406D01*
X012095Y011450D01*
X010658Y011450D01*
X009033Y013074D01*
X008952Y013156D01*
X008845Y013200D01*
X006824Y013200D01*
X006804Y013205D01*
X006767Y013200D01*
X006730Y013200D01*
X006710Y013192D01*
X006689Y013189D01*
X006657Y013170D01*
X006623Y013156D01*
X006608Y013141D01*
X006590Y013130D01*
X006568Y013100D01*
X006542Y013074D01*
X006534Y013055D01*
X005967Y012299D01*
X005960Y012299D01*
X005817Y012240D01*
X005708Y012130D01*
X005649Y011987D01*
X005649Y011833D01*
X005708Y011690D01*
X005817Y011580D01*
X005960Y011521D01*
X006115Y011521D01*
X006258Y011580D01*
X006367Y011690D01*
X006426Y011833D01*
X006426Y011945D01*
X006932Y012620D01*
X008667Y012620D01*
X010373Y010914D01*
X010480Y010870D01*
X011454Y010870D01*
X011399Y010737D01*
X011399Y010583D01*
X011458Y010440D01*
X008488Y010440D01*
X008460Y010430D02*
X008785Y010548D01*
X009050Y010770D01*
X009223Y011070D01*
X009283Y011410D01*
X009223Y011750D01*
X009223Y011750D01*
X009050Y012050D01*
X008785Y012272D01*
X008460Y012390D01*
X008115Y012390D01*
X007790Y012272D01*
X007525Y012050D01*
X007525Y012050D01*
X007525Y012050D01*
X007352Y011750D01*
X007292Y011410D01*
X007352Y011070D01*
X007352Y011070D01*
X007525Y010770D01*
X007790Y010548D01*
X008115Y010430D01*
X008238Y010430D01*
X008460Y010430D01*
X008547Y010462D02*
X008547Y008470D01*
X008528Y008450D02*
X007480Y008450D01*
X007373Y008406D01*
X007292Y008324D01*
X007176Y008209D01*
X007176Y008237D01*
X007117Y008380D01*
X007077Y008420D01*
X007077Y010400D01*
X007117Y010440D01*
X008087Y010440D01*
X008227Y010430D02*
X008227Y008450D01*
X008528Y008450D02*
X008567Y008490D01*
X008710Y008549D01*
X008865Y008549D01*
X009008Y008490D01*
X009047Y008450D01*
X011095Y008450D01*
X011202Y008406D01*
X011399Y008209D01*
X011399Y008237D01*
X011458Y008380D01*
X011497Y008420D01*
X011497Y010400D01*
X011458Y010440D01*
X011427Y010513D02*
X011427Y008307D01*
X011497Y008520D02*
X008934Y008520D01*
X008867Y008548D02*
X008867Y010617D01*
X008785Y010548D02*
X008785Y010548D01*
X009037Y010760D02*
X011408Y010760D01*
X011427Y010807D02*
X011427Y010870D01*
X011107Y010870D02*
X011107Y008445D01*
X010787Y008450D02*
X010787Y010870D01*
X010467Y010875D02*
X010467Y008450D01*
X010147Y008450D02*
X010147Y011140D01*
X010207Y011080D02*
X009224Y011080D01*
X009223Y011070D02*
X009223Y011070D01*
X009187Y011009D02*
X009187Y008450D01*
X009507Y008450D02*
X009507Y011780D01*
X009567Y011720D02*
X009228Y011720D01*
X009187Y011811D02*
X009187Y012100D01*
X009247Y012040D02*
X009055Y012040D01*
X009050Y012050D02*
X009050Y012050D01*
X008867Y012203D02*
X008867Y012420D01*
X008927Y012360D02*
X008543Y012360D01*
X008547Y012358D02*
X008547Y012620D01*
X008227Y012620D02*
X008227Y012390D01*
X008032Y012360D02*
X006737Y012360D01*
X006627Y012213D02*
X006627Y011014D01*
X006567Y010990D02*
X006458Y010880D01*
X006399Y010737D01*
X006399Y010583D01*
X006458Y010440D01*
X006497Y010120D02*
X003676Y010120D01*
X003676Y010083D02*
X003676Y010237D01*
X003617Y010380D01*
X003577Y010420D01*
X003577Y010760D02*
X006408Y010760D01*
X006567Y010990D02*
X006710Y011049D01*
X006865Y011049D01*
X007008Y010990D01*
X007117Y010880D01*
X007176Y010737D01*
X007176Y010583D01*
X007117Y010440D01*
X007077Y010120D02*
X011497Y010120D01*
X011497Y009800D02*
X007077Y009800D01*
X007077Y009480D02*
X011497Y009480D01*
X011497Y009160D02*
X007077Y009160D01*
X007077Y008840D02*
X011497Y008840D01*
X012077Y008840D02*
X017057Y008840D01*
X016867Y008650D02*
X016867Y010022D01*
X017047Y010120D02*
X017497Y010120D01*
X017497Y010440D02*
X017176Y010440D01*
X017117Y010630D02*
X017008Y010740D01*
X016865Y010799D01*
X016710Y010799D01*
X016567Y010740D01*
X016528Y010700D01*
X012908Y010700D01*
X012283Y011324D01*
X012208Y011400D02*
X015877Y011400D01*
X015907Y011431D02*
X015907Y011539D01*
X015587Y011572D02*
X015587Y010700D01*
X015267Y010700D02*
X015267Y014660D01*
X014947Y014660D02*
X014947Y010700D01*
X014627Y010700D02*
X014627Y014660D01*
X014307Y014660D02*
X014307Y010700D01*
X013987Y010700D02*
X013987Y014660D01*
X013667Y014660D02*
X013667Y010700D01*
X013347Y010700D02*
X013347Y014660D01*
X013027Y014660D02*
X013027Y010700D01*
X012848Y010760D02*
X016037Y010760D01*
X015907Y010700D02*
X015907Y010889D01*
X015827Y011080D02*
X012528Y011080D01*
X012067Y011450D02*
X012067Y014660D01*
X011747Y014660D02*
X011747Y011450D01*
X011427Y011450D02*
X011427Y014660D01*
X011107Y014660D02*
X011107Y011450D01*
X010787Y011450D02*
X010787Y014660D01*
X010467Y014660D02*
X010467Y011640D01*
X010388Y011720D02*
X015445Y011720D01*
X015421Y012040D02*
X010068Y012040D01*
X010147Y011960D02*
X010147Y014660D01*
X009827Y014660D02*
X009827Y012280D01*
X009748Y012360D02*
X015497Y012360D01*
X015497Y012680D02*
X009428Y012680D01*
X009507Y012600D02*
X009507Y014660D01*
X009187Y014660D02*
X009187Y012920D01*
X009108Y013000D02*
X015511Y013000D01*
X015587Y013120D02*
X015587Y014660D01*
X015907Y014660D02*
X015907Y013440D01*
X015787Y013320D02*
X005177Y013320D01*
X005178Y013640D02*
X016107Y013640D01*
X016227Y013760D02*
X016227Y014660D01*
X016497Y014600D02*
X006138Y014600D01*
X006307Y014660D02*
X006307Y012753D01*
X006252Y012680D02*
X005118Y012680D01*
X005027Y012825D02*
X005027Y012995D01*
X005033Y013000D02*
X006492Y013000D01*
X006627Y013158D02*
X006627Y014660D01*
X006947Y014660D02*
X006947Y013200D01*
X007267Y013200D02*
X007267Y014660D01*
X007587Y014660D02*
X007587Y013200D01*
X007907Y013200D02*
X007907Y014660D01*
X008227Y014660D02*
X008227Y013200D01*
X008547Y013200D02*
X008547Y014660D01*
X008867Y014660D02*
X008867Y013191D01*
X008785Y012272D02*
X008785Y012272D01*
X007907Y012315D02*
X007907Y012620D01*
X007587Y012620D02*
X007587Y012102D01*
X007520Y012040D02*
X006497Y012040D01*
X006380Y011720D02*
X007347Y011720D01*
X007352Y011750D02*
X007352Y011750D01*
X007292Y011410D02*
X007292Y011410D01*
X007294Y011400D02*
X005177Y011400D01*
X005102Y011720D02*
X005695Y011720D01*
X005667Y011787D02*
X005667Y008450D01*
X005347Y008450D02*
X005347Y013810D01*
X005498Y013960D02*
X016427Y013960D01*
X016497Y014280D02*
X005818Y014280D01*
X005667Y014130D02*
X005667Y012033D01*
X005671Y012040D02*
X005073Y012040D01*
X005027Y011995D02*
X005027Y011825D01*
X005177Y012360D02*
X006012Y012360D01*
X005987Y012327D02*
X005987Y014450D01*
X004247Y014600D02*
X002537Y014600D01*
X002537Y014660D02*
X004247Y014660D01*
X004247Y013983D01*
X004175Y013953D01*
X003995Y013773D01*
X003897Y013537D01*
X003897Y013283D01*
X003928Y013210D01*
X003042Y012324D01*
X002997Y012218D01*
X002997Y010420D01*
X002958Y010380D01*
X002899Y010237D01*
X002899Y010083D01*
X002958Y009940D01*
X003067Y009830D01*
X003210Y009771D01*
X003365Y009771D01*
X003508Y009830D01*
X003617Y009940D01*
X003676Y010083D01*
X003434Y009800D02*
X006497Y009800D01*
X006497Y009480D02*
X001037Y009480D01*
X001037Y009800D02*
X003141Y009800D01*
X003107Y009814D02*
X003107Y000660D01*
X002787Y000660D02*
X002787Y014660D01*
X002537Y014660D02*
X002537Y013502D01*
X002440Y013200D01*
X002440Y013200D01*
X002253Y012944D01*
X002253Y012944D01*
X001997Y012758D01*
X001997Y012758D01*
X001696Y012660D01*
X001537Y012660D01*
X001459Y012654D01*
X001310Y012606D01*
X001184Y012514D01*
X001092Y012387D01*
X001044Y012238D01*
X001037Y012160D01*
X001037Y001910D01*
X001048Y001747D01*
X001133Y001432D01*
X001120Y001480D02*
X045455Y001480D01*
X045347Y001267D02*
X045347Y012545D01*
X045492Y012360D02*
X042543Y012360D01*
X042467Y012387D02*
X042467Y019160D01*
X042147Y019160D02*
X042147Y012390D01*
X042115Y012390D02*
X042238Y012390D01*
X042460Y012390D01*
X042785Y012272D01*
X042785Y012272D01*
X043050Y012050D01*
X043050Y012050D01*
X043223Y011750D01*
X043223Y011750D01*
X043283Y011410D01*
X043283Y011410D01*
X043223Y011070D01*
X043223Y011070D01*
X043050Y010770D01*
X043050Y010770D01*
X043050Y010770D01*
X042785Y010548D01*
X042785Y010548D01*
X042460Y010430D01*
X042115Y010430D01*
X041790Y010548D01*
X041790Y010548D01*
X041525Y010770D01*
X041525Y010770D01*
X041352Y011070D01*
X041352Y011070D01*
X041292Y011410D01*
X041292Y011410D01*
X041352Y011750D01*
X041352Y011750D01*
X041525Y012050D01*
X041525Y012050D01*
X041525Y012050D01*
X041790Y012272D01*
X041790Y012272D01*
X042115Y012390D01*
X042115Y012390D01*
X042032Y012360D02*
X032327Y012360D01*
X032327Y012680D02*
X043818Y012680D01*
X043747Y012703D02*
X043747Y000660D01*
X043427Y000660D02*
X043427Y012867D01*
X043281Y013000D02*
X032327Y013000D01*
X032327Y013320D02*
X043096Y013320D01*
X043107Y013286D02*
X043107Y011950D01*
X043055Y012040D02*
X045537Y012040D01*
X045537Y011720D02*
X043228Y011720D01*
X043281Y011400D02*
X045537Y011400D01*
X045537Y011080D02*
X043224Y011080D01*
X043107Y010870D02*
X043107Y000660D01*
X042787Y000660D02*
X042787Y010550D01*
X042488Y010440D02*
X045537Y010440D01*
X045537Y010120D02*
X029988Y010120D01*
X029987Y010120D02*
X029987Y010700D01*
X029827Y010440D02*
X042087Y010440D01*
X042147Y010430D02*
X042147Y008307D01*
X042176Y008200D02*
X045537Y008200D01*
X045537Y008520D02*
X041934Y008520D01*
X041827Y008549D02*
X041827Y010535D01*
X041538Y010760D02*
X032288Y010760D01*
X032227Y010700D02*
X032227Y009950D01*
X031907Y009950D02*
X031907Y010700D01*
X031787Y010760D02*
X031288Y010760D01*
X031267Y010739D02*
X031267Y009950D01*
X030947Y009950D02*
X030947Y010700D01*
X030787Y010760D02*
X030288Y010760D01*
X030307Y010779D02*
X030307Y009950D01*
X030627Y009950D02*
X030627Y010919D01*
X030577Y011080D02*
X030497Y011080D01*
X030448Y011400D02*
X030627Y011400D01*
X030627Y011401D02*
X030627Y016160D01*
X030587Y016200D02*
X028738Y016200D01*
X028707Y016170D02*
X028707Y016100D01*
X029027Y016038D02*
X029027Y016350D01*
X029150Y016520D02*
X030267Y016520D01*
X030307Y016480D02*
X030307Y011541D01*
X029987Y011620D02*
X029987Y016800D01*
X029947Y016840D02*
X029134Y016840D01*
X029027Y016970D02*
X029027Y017760D01*
X028707Y017720D02*
X028707Y017048D01*
X028441Y016840D02*
X027878Y016840D01*
X027747Y016710D02*
X027747Y016450D01*
X027558Y016520D02*
X028237Y016520D01*
X028067Y016450D02*
X028067Y017030D01*
X028198Y017160D02*
X029627Y017160D01*
X029667Y017120D02*
X029667Y014940D01*
X029688Y014920D02*
X030747Y014920D01*
X030747Y014600D02*
X029827Y014600D01*
X029827Y014280D02*
X030747Y014280D01*
X030747Y013960D02*
X029827Y013960D01*
X029827Y013640D02*
X030747Y013640D01*
X030747Y013320D02*
X029827Y013320D01*
X029827Y013000D02*
X030747Y013000D01*
X030747Y012680D02*
X029827Y012680D01*
X029827Y012360D02*
X030747Y012360D01*
X030747Y012040D02*
X029827Y012040D01*
X029827Y011720D02*
X030747Y011720D01*
X031327Y011720D02*
X031747Y011720D01*
X031747Y012040D02*
X031327Y012040D01*
X031327Y012360D02*
X031747Y012360D01*
X031747Y012680D02*
X031327Y012680D01*
X031327Y013000D02*
X031747Y013000D01*
X031747Y013320D02*
X031327Y013320D01*
X031327Y013640D02*
X031747Y013640D01*
X031747Y013960D02*
X031327Y013960D01*
X031327Y014280D02*
X031747Y014280D01*
X031747Y014600D02*
X031327Y014600D01*
X031327Y014920D02*
X031747Y014920D01*
X031747Y015240D02*
X031327Y015240D01*
X031327Y015560D02*
X031747Y015560D01*
X031747Y015880D02*
X031327Y015880D01*
X031327Y016200D02*
X031747Y016200D01*
X031747Y016520D02*
X031088Y016520D01*
X030947Y016660D02*
X030947Y019160D01*
X030627Y019160D02*
X030627Y016980D01*
X030768Y016840D02*
X031747Y016840D01*
X031747Y017160D02*
X030448Y017160D01*
X030307Y017300D02*
X030307Y019160D01*
X029987Y019160D02*
X029987Y017620D01*
X030128Y017480D02*
X031747Y017480D01*
X031747Y017800D02*
X029808Y017800D01*
X029667Y017940D02*
X029667Y019160D01*
X029347Y019160D02*
X029347Y018260D01*
X029488Y018120D02*
X031747Y018120D01*
X031747Y018440D02*
X029237Y018440D01*
X029229Y018760D02*
X031747Y018760D01*
X031747Y019080D02*
X028925Y019080D01*
X029027Y019038D02*
X029027Y019160D01*
X028707Y019160D02*
X028707Y019100D01*
X028650Y019080D02*
X028577Y019080D01*
X028518Y017480D02*
X029307Y017480D01*
X029347Y017440D02*
X029347Y015260D01*
X029368Y015240D02*
X030747Y015240D01*
X030747Y015560D02*
X029237Y015560D01*
X029179Y015880D02*
X030747Y015880D01*
X031267Y016340D02*
X031267Y019160D01*
X031587Y019160D02*
X031587Y011361D01*
X031627Y011400D02*
X031448Y011400D01*
X031497Y011080D02*
X031577Y011080D01*
X031587Y010959D02*
X031587Y009950D01*
X032497Y011080D02*
X041351Y011080D01*
X041507Y010801D02*
X041507Y008850D01*
X041518Y008840D02*
X045537Y008840D01*
X045537Y009160D02*
X041198Y009160D01*
X041187Y009170D02*
X041187Y019160D01*
X040867Y019160D02*
X040867Y009490D01*
X040878Y009480D02*
X045537Y009480D01*
X045537Y009800D02*
X040558Y009800D01*
X040547Y009810D02*
X040547Y019160D01*
X040227Y019160D02*
X040227Y009950D01*
X039907Y009950D02*
X039907Y019160D01*
X039587Y019160D02*
X039587Y015583D01*
X039635Y015560D02*
X043037Y015560D01*
X043037Y015240D02*
X039864Y015240D01*
X039891Y014920D02*
X043037Y014920D01*
X043037Y014600D02*
X039891Y014600D01*
X039891Y014280D02*
X043037Y014280D01*
X043037Y013960D02*
X039814Y013960D01*
X039587Y013737D02*
X039587Y009950D01*
X039267Y009950D02*
X039267Y013663D01*
X038947Y013754D02*
X038947Y009950D01*
X038627Y009950D02*
X038627Y015967D01*
X038307Y015956D02*
X038307Y009950D01*
X037987Y009950D02*
X037987Y015956D01*
X037667Y015956D02*
X037667Y009950D01*
X037347Y009950D02*
X037347Y013873D01*
X037414Y013960D02*
X038761Y013960D01*
X038684Y014280D02*
X037491Y014280D01*
X037491Y014600D02*
X038684Y014600D01*
X038684Y014920D02*
X037491Y014920D01*
X037464Y015240D02*
X038711Y015240D01*
X038940Y015560D02*
X037235Y015560D01*
X037347Y015447D02*
X037347Y016053D01*
X037200Y016200D02*
X037177Y016200D01*
X037177Y015880D02*
X038997Y015880D01*
X038947Y016173D02*
X038947Y015566D01*
X038975Y016200D02*
X038997Y016200D01*
X039577Y016200D02*
X043037Y016200D01*
X043037Y015880D02*
X039577Y015880D01*
X039577Y016520D02*
X043037Y016520D01*
X043107Y016784D02*
X043107Y019160D01*
X042787Y019160D02*
X042787Y012270D01*
X041827Y012285D02*
X041827Y019160D01*
X041507Y019160D02*
X041507Y012019D01*
X041520Y012040D02*
X032327Y012040D01*
X032327Y011720D02*
X041347Y011720D01*
X041294Y011400D02*
X032448Y011400D01*
X032547Y009950D02*
X032547Y019160D01*
X032327Y019080D02*
X035207Y019080D01*
X035107Y019160D02*
X035107Y009950D01*
X034787Y009950D02*
X034787Y019160D01*
X034467Y019160D02*
X034467Y009950D01*
X034147Y009950D02*
X034147Y019160D01*
X033827Y019160D02*
X033827Y009950D01*
X033507Y009950D02*
X033507Y019160D01*
X033187Y019160D02*
X033187Y009950D01*
X032867Y009950D02*
X032867Y019160D01*
X032867Y019660D02*
X032867Y021267D01*
X032795Y021297D02*
X032952Y021232D01*
X033055Y021232D01*
X034627Y019660D01*
X032327Y019660D01*
X032327Y021218D01*
X032283Y021324D01*
X032202Y021406D01*
X032086Y021521D01*
X032115Y021521D01*
X032258Y021580D01*
X032367Y021690D01*
X032426Y021833D01*
X032426Y021987D01*
X032367Y022130D01*
X032258Y022240D01*
X032115Y022299D01*
X032059Y022299D01*
X030676Y023681D01*
X030676Y023737D01*
X030673Y023745D01*
X032220Y023745D01*
X032327Y023789D01*
X032408Y023871D01*
X035658Y027121D01*
X035702Y027227D01*
X035702Y028374D01*
X035658Y028481D01*
X034864Y029275D01*
X034864Y029331D01*
X034805Y029474D01*
X034695Y029583D01*
X034552Y029642D01*
X034398Y029642D01*
X034255Y029583D01*
X034215Y029544D01*
X033814Y029544D01*
X033577Y029780D01*
X033577Y030290D01*
X033607Y030320D01*
X033599Y030280D01*
X033577Y030280D01*
X033599Y030280D02*
X033599Y030260D01*
X033975Y030260D01*
X033975Y030620D01*
X034013Y030620D01*
X034013Y030260D01*
X033975Y030260D01*
X033975Y030222D01*
X033599Y030222D01*
X033599Y030202D01*
X033614Y030125D01*
X033644Y030054D01*
X033687Y029989D01*
X033742Y029934D01*
X033807Y029891D01*
X033879Y029861D01*
X033955Y029846D01*
X033975Y029846D01*
X033975Y030222D01*
X034013Y030222D01*
X034013Y030260D01*
X034307Y030260D01*
X034307Y030222D01*
X034013Y030222D01*
X034013Y029846D01*
X034033Y029846D01*
X034109Y029861D01*
X034181Y029891D01*
X034246Y029934D01*
X034301Y029989D01*
X034344Y030054D01*
X034345Y030054D01*
X034379Y029972D01*
X034513Y029838D01*
X034687Y029766D01*
X034876Y029766D01*
X035051Y029838D01*
X035175Y029963D01*
X035300Y029838D01*
X035474Y029766D01*
X035663Y029766D01*
X035838Y029838D01*
X035963Y029963D01*
X036087Y029838D01*
X036262Y029766D01*
X036451Y029766D01*
X036506Y029788D01*
X036292Y029574D01*
X036247Y029468D01*
X036247Y027670D01*
X036208Y027630D01*
X036149Y027487D01*
X036149Y027333D01*
X036208Y027190D01*
X036317Y027080D01*
X036460Y027021D01*
X036615Y027021D01*
X036758Y027080D01*
X036854Y027177D01*
X036854Y023996D01*
X036898Y023889D01*
X038373Y022414D01*
X038480Y022370D01*
X041167Y022370D01*
X041544Y021993D01*
X041544Y021937D01*
X041604Y021794D01*
X041713Y021685D01*
X041856Y021626D01*
X042010Y021626D01*
X042153Y021685D01*
X042263Y021794D01*
X042322Y021937D01*
X042322Y022092D01*
X042263Y022235D01*
X042153Y022344D01*
X042010Y022403D01*
X041955Y022403D01*
X041533Y022824D01*
X041452Y022906D01*
X041345Y022950D01*
X038658Y022950D01*
X037434Y024174D01*
X037434Y026748D01*
X037458Y026690D01*
X037567Y026580D01*
X037710Y026521D01*
X037865Y026521D01*
X038008Y026580D01*
X038117Y026690D01*
X038176Y026833D01*
X038176Y026987D01*
X038117Y027130D01*
X038077Y027170D01*
X038077Y029040D01*
X038158Y029120D01*
X041595Y029120D01*
X041702Y029164D01*
X041783Y029246D01*
X042033Y029496D01*
X042077Y029602D01*
X042077Y030468D01*
X042033Y030574D01*
X041952Y030656D01*
X041836Y030771D01*
X041990Y030771D01*
X042133Y030830D01*
X042242Y030940D01*
X042301Y031083D01*
X042301Y031237D01*
X042242Y031380D01*
X042133Y031490D01*
X041991Y031548D01*
X041430Y032109D01*
X041430Y033413D01*
X041380Y033534D01*
X041287Y033627D01*
X040974Y033940D01*
X040853Y033990D01*
X040222Y033990D01*
X040101Y033940D01*
X040008Y033847D01*
X039581Y033420D01*
X039326Y033420D01*
X039243Y033337D01*
X039190Y033389D01*
X038690Y033889D01*
X038591Y033930D01*
X034393Y033930D01*
X034345Y033950D01*
X034230Y033950D01*
X034123Y033906D01*
X033637Y033420D01*
X033438Y033420D01*
X033033Y033824D01*
X033033Y033824D01*
X032952Y033906D01*
X032845Y033950D01*
X026480Y033950D01*
X026373Y033906D01*
X026292Y033824D01*
X025975Y033508D01*
X025533Y033949D01*
X025533Y033949D01*
X025452Y034031D01*
X025345Y034075D01*
X021605Y034075D01*
X021498Y034031D01*
X019417Y031950D01*
X016480Y031950D01*
X016373Y031906D01*
X016292Y031824D01*
X015123Y030656D01*
X015042Y030574D01*
X014997Y030468D01*
X014997Y028843D01*
X014266Y028111D01*
X014210Y028111D01*
X014067Y028052D01*
X013958Y027943D01*
X013899Y027800D01*
X013899Y027645D01*
X013958Y027502D01*
X014067Y027393D01*
X014210Y027334D01*
X014365Y027334D01*
X014508Y027393D01*
X014617Y027502D01*
X014676Y027645D01*
X014676Y027701D01*
X015497Y028522D01*
X015497Y025360D01*
X014926Y025931D01*
X014926Y025987D01*
X014867Y026130D01*
X014758Y026240D01*
X014615Y026299D01*
X014460Y026299D01*
X014317Y026240D01*
X014278Y026200D01*
X009658Y026200D01*
X009597Y026260D01*
X009491Y026304D01*
X009395Y026304D01*
X009322Y026377D01*
X009164Y026442D01*
X008994Y026442D01*
X008837Y026377D01*
X008764Y026304D01*
X007084Y026304D01*
X006978Y026260D01*
X006896Y026179D01*
X006215Y025497D01*
X006150Y025653D01*
X006030Y025773D01*
X005873Y025838D01*
X005702Y025838D01*
X005545Y025773D01*
X005472Y025700D01*
X004603Y025700D01*
X004530Y025773D01*
X004373Y025838D01*
X004202Y025838D01*
X004045Y025773D01*
X003925Y025653D01*
X003859Y025495D01*
X003859Y025325D01*
X003925Y025167D01*
X004045Y025047D01*
X004074Y025035D01*
X004045Y025023D01*
X003972Y024950D01*
X002730Y024950D01*
X002623Y024906D01*
X002542Y024824D01*
X001292Y023574D01*
X001247Y023468D01*
X001247Y018602D01*
X001292Y018496D01*
X004247Y015540D01*
X004247Y015160D01*
X002537Y015160D01*
X002537Y016568D01*
X002440Y016870D01*
X002253Y017126D01*
X001997Y017312D01*
X001696Y017410D01*
X001537Y017410D01*
X001459Y017416D01*
X001310Y017464D01*
X001310Y017464D01*
X001184Y017556D01*
X001092Y017683D01*
X001044Y017832D01*
X001037Y017910D01*
X001037Y033410D01*
X001048Y033573D01*
X001133Y033888D01*
X001296Y034171D01*
X001527Y034402D01*
X001809Y034565D01*
X002124Y034649D01*
X002287Y034660D01*
X044287Y034660D01*
X044451Y034649D01*
X044766Y034565D01*
X045048Y034402D01*
X045279Y034171D01*
X045442Y033888D01*
X045527Y033573D01*
X045537Y033410D01*
X045537Y019660D01*
X035448Y019660D01*
X034003Y021104D01*
X034089Y021104D01*
X034263Y021177D01*
X034388Y021301D01*
X034513Y021177D01*
X034687Y021104D01*
X034876Y021104D01*
X035051Y021177D01*
X035175Y021301D01*
X035300Y021177D01*
X035474Y021104D01*
X035663Y021104D01*
X035838Y021177D01*
X035963Y021301D01*
X036087Y021177D01*
X036262Y021104D01*
X036451Y021104D01*
X036625Y021177D01*
X036750Y021301D01*
X036875Y021177D01*
X037049Y021104D01*
X037238Y021104D01*
X037413Y021177D01*
X037537Y021301D01*
X037662Y021177D01*
X037837Y021104D01*
X038026Y021104D01*
X038200Y021177D01*
X038325Y021301D01*
X038450Y021177D01*
X038624Y021104D01*
X038813Y021104D01*
X038988Y021177D01*
X039112Y021301D01*
X039237Y021177D01*
X039411Y021104D01*
X039600Y021104D01*
X039775Y021177D01*
X039900Y021301D01*
X040024Y021177D01*
X040199Y021104D01*
X040388Y021104D01*
X040562Y021177D01*
X040687Y021301D01*
X040812Y021177D01*
X040986Y021104D01*
X041175Y021104D01*
X041350Y021177D01*
X041483Y021310D01*
X041556Y021485D01*
X041556Y021674D01*
X041483Y021848D01*
X041350Y021982D01*
X041175Y022054D01*
X040986Y022054D01*
X040812Y021982D01*
X040687Y021857D01*
X040562Y021982D01*
X040388Y022054D01*
X040199Y022054D01*
X040024Y021982D01*
X039900Y021857D01*
X039775Y021982D01*
X039600Y022054D01*
X039411Y022054D01*
X039237Y021982D01*
X039112Y021857D01*
X038988Y021982D01*
X038813Y022054D01*
X038624Y022054D01*
X038450Y021982D01*
X038325Y021857D01*
X038200Y021982D01*
X038026Y022054D01*
X037837Y022054D01*
X037662Y021982D01*
X037537Y021857D01*
X037413Y021982D01*
X037238Y022054D01*
X037049Y022054D01*
X036875Y021982D01*
X036750Y021857D01*
X036625Y021982D01*
X036451Y022054D01*
X036262Y022054D01*
X036087Y021982D01*
X035963Y021857D01*
X035838Y021982D01*
X035663Y022054D01*
X035474Y022054D01*
X035300Y021982D01*
X035175Y021857D01*
X035051Y021982D01*
X034876Y022054D01*
X034687Y022054D01*
X034513Y021982D01*
X034388Y021857D01*
X034263Y021982D01*
X034089Y022054D01*
X033900Y022054D01*
X033725Y021982D01*
X033591Y021848D01*
X033519Y021674D01*
X033519Y021588D01*
X033466Y021642D01*
X033466Y021745D01*
X033400Y021903D01*
X033280Y022023D01*
X033123Y022088D01*
X032952Y022088D01*
X032795Y022023D01*
X032675Y021903D01*
X032609Y021745D01*
X032609Y021575D01*
X032675Y021417D01*
X032795Y021297D01*
X032772Y021320D02*
X032285Y021320D01*
X032227Y021380D02*
X032227Y021568D01*
X032317Y021640D02*
X032609Y021640D01*
X032732Y021960D02*
X032426Y021960D01*
X032227Y022252D02*
X032227Y023748D01*
X032408Y023871D02*
X032408Y023871D01*
X032418Y023880D02*
X036907Y023880D01*
X037027Y023760D02*
X037027Y022045D01*
X036853Y021960D02*
X036647Y021960D01*
X036707Y021900D02*
X036707Y027060D01*
X036757Y027080D02*
X036854Y027080D01*
X036854Y026760D02*
X035298Y026760D01*
X035427Y026890D02*
X035427Y022035D01*
X035278Y021960D02*
X035073Y021960D01*
X035107Y021925D02*
X035107Y026570D01*
X034978Y026440D02*
X036854Y026440D01*
X036854Y026120D02*
X034658Y026120D01*
X034787Y026250D02*
X034787Y022054D01*
X034491Y021960D02*
X034285Y021960D01*
X034147Y022030D02*
X034147Y025610D01*
X034018Y025480D02*
X036854Y025480D01*
X036854Y025160D02*
X033698Y025160D01*
X033827Y025290D02*
X033827Y022024D01*
X033703Y021960D02*
X033343Y021960D01*
X033187Y022061D02*
X033187Y024650D01*
X033058Y024520D02*
X036854Y024520D01*
X036854Y024200D02*
X032738Y024200D01*
X032867Y024330D02*
X032867Y022053D01*
X032160Y022280D02*
X041257Y022280D01*
X041187Y022350D02*
X041187Y022049D01*
X041372Y021960D02*
X041544Y021960D01*
X041507Y022030D02*
X041507Y021790D01*
X041556Y021640D02*
X041821Y021640D01*
X041827Y021637D02*
X041827Y019660D01*
X041507Y019660D02*
X041507Y021368D01*
X041488Y021320D02*
X045537Y021320D01*
X045537Y021000D02*
X034108Y021000D01*
X034147Y020960D02*
X034147Y021129D01*
X034467Y021222D02*
X034467Y020640D01*
X034428Y020680D02*
X045537Y020680D01*
X045537Y020360D02*
X034748Y020360D01*
X034787Y020320D02*
X034787Y021104D01*
X035107Y021233D02*
X035107Y020000D01*
X035068Y020040D02*
X045537Y020040D01*
X045537Y019720D02*
X035388Y019720D01*
X035427Y019680D02*
X035427Y021124D01*
X035747Y021139D02*
X035747Y019660D01*
X036067Y019660D02*
X036067Y021196D01*
X036387Y021104D02*
X036387Y019660D01*
X036707Y019660D02*
X036707Y021259D01*
X037027Y021113D02*
X037027Y019660D01*
X037347Y019660D02*
X037347Y021150D01*
X037667Y021174D02*
X037667Y019660D01*
X037987Y019660D02*
X037987Y021104D01*
X038307Y021284D02*
X038307Y019660D01*
X038627Y019660D02*
X038627Y021104D01*
X038947Y021160D02*
X038947Y019660D01*
X039267Y019660D02*
X039267Y021164D01*
X039587Y021104D02*
X039587Y019660D01*
X039907Y019660D02*
X039907Y021293D01*
X040227Y021104D02*
X040227Y019660D01*
X040547Y019660D02*
X040547Y021170D01*
X040867Y021154D02*
X040867Y019660D01*
X041187Y019660D02*
X041187Y021109D01*
X040790Y021960D02*
X040584Y021960D01*
X040547Y021988D02*
X040547Y022370D01*
X040227Y022370D02*
X040227Y022054D01*
X040002Y021960D02*
X039797Y021960D01*
X039907Y021865D02*
X039907Y022370D01*
X039587Y022370D02*
X039587Y022054D01*
X039267Y021995D02*
X039267Y022370D01*
X038947Y022370D02*
X038947Y021999D01*
X039010Y021960D02*
X039215Y021960D01*
X038627Y022054D02*
X038627Y022370D01*
X038307Y022480D02*
X038307Y021875D01*
X038222Y021960D02*
X038428Y021960D01*
X037987Y022054D02*
X037987Y022800D01*
X037867Y022920D02*
X031438Y022920D01*
X031587Y022770D02*
X031587Y023745D01*
X031267Y023745D02*
X031267Y023090D01*
X031118Y023240D02*
X037547Y023240D01*
X037667Y023120D02*
X037667Y021984D01*
X037640Y021960D02*
X037435Y021960D01*
X037347Y022009D02*
X037347Y023440D01*
X037227Y023560D02*
X030798Y023560D01*
X030947Y023410D02*
X030947Y023745D01*
X031907Y023745D02*
X031907Y022450D01*
X031758Y022600D02*
X038187Y022600D01*
X038627Y022980D02*
X038627Y029120D01*
X038307Y029120D02*
X038307Y023300D01*
X038368Y023240D02*
X045537Y023240D01*
X045537Y022920D02*
X041418Y022920D01*
X041507Y022850D02*
X041507Y029120D01*
X041187Y029120D02*
X041187Y022950D01*
X040867Y022950D02*
X040867Y029120D01*
X040547Y029120D02*
X040547Y022950D01*
X040227Y022950D02*
X040227Y029120D01*
X039907Y029120D02*
X039907Y022950D01*
X039587Y022950D02*
X039587Y029120D01*
X039267Y029120D02*
X039267Y022950D01*
X038947Y022950D02*
X038947Y029120D01*
X038077Y029000D02*
X045537Y029000D01*
X045537Y028680D02*
X038077Y028680D01*
X038077Y028360D02*
X045537Y028360D01*
X045537Y028040D02*
X038077Y028040D01*
X038077Y027720D02*
X045537Y027720D01*
X045537Y027400D02*
X038077Y027400D01*
X038138Y027080D02*
X045537Y027080D01*
X045537Y026760D02*
X038146Y026760D01*
X037987Y026572D02*
X037987Y023620D01*
X038048Y023560D02*
X045537Y023560D01*
X045537Y023880D02*
X037728Y023880D01*
X037667Y023940D02*
X037667Y026539D01*
X037434Y026440D02*
X045537Y026440D01*
X045537Y026120D02*
X037434Y026120D01*
X037434Y025800D02*
X045537Y025800D01*
X045537Y025480D02*
X037434Y025480D01*
X037434Y025160D02*
X045537Y025160D01*
X045537Y024840D02*
X037434Y024840D01*
X037434Y024520D02*
X045537Y024520D01*
X045537Y024200D02*
X037434Y024200D01*
X036854Y024840D02*
X033378Y024840D01*
X033507Y024970D02*
X033507Y021600D01*
X033519Y021640D02*
X033468Y021640D01*
X033187Y021100D02*
X033187Y019660D01*
X033507Y019660D02*
X033507Y020780D01*
X033607Y020680D02*
X032327Y020680D01*
X032327Y021000D02*
X033287Y021000D01*
X033827Y020460D02*
X033827Y019660D01*
X034147Y019660D02*
X034147Y020140D01*
X034247Y020040D02*
X032327Y020040D01*
X032327Y020360D02*
X033927Y020360D01*
X034467Y019820D02*
X034467Y019660D01*
X034567Y019720D02*
X032327Y019720D01*
X032547Y019660D02*
X032547Y024010D01*
X034338Y025800D02*
X036854Y025800D01*
X036387Y027051D02*
X036387Y022054D01*
X036067Y021962D02*
X036067Y029858D01*
X035965Y029960D02*
X035960Y029960D01*
X035747Y029801D02*
X035747Y022019D01*
X035860Y021960D02*
X036065Y021960D01*
X034467Y021937D02*
X034467Y025930D01*
X035618Y027080D02*
X036318Y027080D01*
X036149Y027400D02*
X035702Y027400D01*
X035702Y027720D02*
X036247Y027720D01*
X036247Y028040D02*
X035702Y028040D01*
X035702Y028360D02*
X036247Y028360D01*
X036247Y028680D02*
X035459Y028680D01*
X035427Y028711D02*
X035427Y029785D01*
X035178Y029960D02*
X035173Y029960D01*
X035107Y029895D02*
X035107Y029031D01*
X035139Y029000D02*
X036247Y029000D01*
X036247Y029320D02*
X034864Y029320D01*
X034787Y029491D02*
X034787Y029766D01*
X034558Y029640D02*
X036357Y029640D01*
X036387Y029670D02*
X036387Y029766D01*
X034467Y029883D02*
X034467Y029642D01*
X034392Y029640D02*
X033718Y029640D01*
X033827Y029544D02*
X033827Y029882D01*
X033716Y029960D02*
X033577Y029960D01*
X033827Y030222D02*
X033827Y030260D01*
X033975Y030280D02*
X034013Y030280D01*
X034147Y030260D02*
X034147Y030222D01*
X034272Y029960D02*
X034391Y029960D01*
X034147Y029877D02*
X034147Y029544D01*
X034013Y029960D02*
X033975Y029960D01*
X033975Y030600D02*
X034013Y030600D01*
X032247Y029576D02*
X032247Y029280D01*
X032167Y029200D01*
X027547Y029200D01*
X027508Y029240D01*
X027365Y029299D01*
X027210Y029299D01*
X027077Y029244D01*
X027077Y029719D01*
X027097Y029700D01*
X027478Y029700D01*
X027747Y029969D01*
X027747Y030351D01*
X027478Y030620D01*
X027097Y030620D01*
X027077Y030601D01*
X027077Y030718D01*
X027033Y030824D01*
X026952Y030906D01*
X026458Y031400D01*
X026749Y031400D01*
X027037Y031689D01*
X027326Y031400D01*
X027749Y031400D01*
X028037Y031689D01*
X028326Y031400D01*
X028637Y031400D01*
X029373Y030664D01*
X029480Y030620D01*
X030278Y030620D01*
X030317Y030580D01*
X030460Y030521D01*
X030615Y030521D01*
X030758Y030580D01*
X030867Y030690D01*
X030926Y030833D01*
X030926Y030987D01*
X030867Y031130D01*
X030758Y031240D01*
X030615Y031299D01*
X030460Y031299D01*
X030317Y031240D01*
X030278Y031200D01*
X029658Y031200D01*
X029458Y031400D01*
X029749Y031400D01*
X030037Y031689D01*
X030326Y031400D01*
X030749Y031400D01*
X031047Y031699D01*
X031047Y032121D01*
X030759Y032410D01*
X031047Y032699D01*
X031047Y033121D01*
X030799Y033370D01*
X032276Y033370D01*
X032027Y033121D01*
X032027Y032699D01*
X032316Y032410D01*
X032027Y032121D01*
X032027Y031810D01*
X031967Y031750D01*
X031967Y031860D01*
X031587Y031860D01*
X031587Y031480D01*
X031716Y031480D01*
X031779Y031543D01*
X031747Y031468D01*
X031747Y030170D01*
X031708Y030130D01*
X031649Y029987D01*
X031649Y029833D01*
X031708Y029690D01*
X031817Y029580D01*
X031960Y029521D01*
X032115Y029521D01*
X032247Y029576D01*
X032227Y029568D02*
X032227Y029260D01*
X032247Y029320D02*
X027077Y029320D01*
X027107Y029256D02*
X027107Y029700D01*
X027077Y029640D02*
X031758Y029640D01*
X031907Y029543D02*
X031907Y029200D01*
X031587Y029200D02*
X031587Y031480D01*
X031587Y031560D02*
X031487Y031560D01*
X031487Y031480D02*
X031487Y031860D01*
X031107Y031860D01*
X031107Y031732D01*
X031359Y031480D01*
X031487Y031480D01*
X031279Y031560D02*
X030909Y031560D01*
X030947Y031599D02*
X030947Y029200D01*
X030627Y029200D02*
X030627Y030527D01*
X030777Y030600D02*
X031747Y030600D01*
X031747Y030920D02*
X030926Y030920D01*
X030757Y031240D02*
X031747Y031240D01*
X031267Y031572D02*
X031267Y029200D01*
X031649Y029960D02*
X028738Y029960D01*
X028747Y029969D02*
X028478Y029700D01*
X028097Y029700D01*
X027827Y029969D01*
X027827Y030351D01*
X028097Y030620D01*
X028478Y030620D01*
X028747Y030351D01*
X028747Y029969D01*
X028707Y029929D02*
X028707Y029200D01*
X028387Y029200D02*
X028387Y029700D01*
X028067Y029729D02*
X028067Y029200D01*
X027747Y029200D02*
X027747Y031400D01*
X027909Y031560D02*
X028166Y031560D01*
X028067Y031659D02*
X028067Y030591D01*
X028077Y030600D02*
X027498Y030600D01*
X027427Y030620D02*
X027427Y031400D01*
X027166Y031560D02*
X026909Y031560D01*
X026787Y031439D02*
X026787Y031070D01*
X026938Y030920D02*
X029117Y030920D01*
X029027Y031010D02*
X029027Y029200D01*
X029347Y029200D02*
X029347Y030690D01*
X029667Y030620D02*
X029667Y029200D01*
X029987Y029200D02*
X029987Y030620D01*
X030298Y030600D02*
X028498Y030600D01*
X028387Y030620D02*
X028387Y031400D01*
X028707Y031330D02*
X028707Y030391D01*
X028747Y030280D02*
X031747Y030280D01*
X030307Y030590D02*
X030307Y029200D01*
X029987Y031200D02*
X029987Y031639D01*
X029909Y031560D02*
X030166Y031560D01*
X030307Y031419D02*
X030307Y031230D01*
X030318Y031240D02*
X029618Y031240D01*
X029667Y031200D02*
X029667Y031400D01*
X028797Y031240D02*
X026618Y031240D01*
X026467Y031390D02*
X026467Y031400D01*
X026117Y030920D02*
X024688Y030920D01*
X024547Y031060D02*
X024547Y031350D01*
X024368Y031240D02*
X025797Y031240D01*
X025827Y031210D02*
X025827Y030351D01*
X025827Y029969D01*
X025827Y027780D01*
X025888Y027720D02*
X026497Y027720D01*
X026497Y027400D02*
X026208Y027400D01*
X026147Y027460D02*
X026147Y028047D01*
X026165Y028040D02*
X025568Y028040D01*
X025507Y028100D02*
X025507Y029843D01*
X025445Y029780D02*
X025667Y030003D01*
X025667Y030131D01*
X025316Y030131D01*
X025316Y029780D01*
X025445Y029780D01*
X025259Y029780D02*
X025259Y030131D01*
X025316Y030131D01*
X025316Y030189D01*
X025259Y030189D01*
X025259Y030540D01*
X025130Y030540D01*
X025072Y030482D01*
X025033Y030574D01*
X024297Y031310D01*
X024297Y031358D01*
X024306Y031350D01*
X024769Y031350D01*
X025097Y031678D01*
X025097Y032142D01*
X024773Y032467D01*
X025017Y032711D01*
X025017Y032871D01*
X024576Y032871D01*
X024576Y032949D01*
X025017Y032949D01*
X025017Y033109D01*
X024881Y033245D01*
X024917Y033245D01*
X025247Y032915D01*
X025247Y031852D01*
X025292Y031746D01*
X026417Y030620D01*
X026097Y030620D01*
X025827Y030351D01*
X025827Y030280D02*
X025667Y030280D01*
X025667Y030317D02*
X025445Y030540D01*
X025316Y030540D01*
X025316Y030189D01*
X025667Y030189D01*
X025667Y030317D01*
X025507Y030189D02*
X025507Y030131D01*
X025625Y029960D02*
X025837Y029960D01*
X025827Y029969D02*
X025997Y029799D01*
X025997Y028670D01*
X025958Y028630D01*
X025899Y028487D01*
X025899Y028333D01*
X025958Y028190D01*
X026067Y028080D01*
X026210Y028021D01*
X026365Y028021D01*
X026497Y028076D01*
X026497Y027110D01*
X024577Y029030D01*
X024577Y029290D01*
X025033Y029746D01*
X025072Y029838D01*
X025130Y029780D01*
X025259Y029780D01*
X025187Y029780D02*
X025187Y028420D01*
X025248Y028360D02*
X025899Y028360D01*
X025997Y028680D02*
X024928Y028680D01*
X024867Y028740D02*
X024867Y029580D01*
X024928Y029640D02*
X025997Y029640D01*
X025997Y029320D02*
X024608Y029320D01*
X024608Y029000D02*
X025997Y029000D01*
X026410Y028040D02*
X026497Y028040D01*
X026467Y028064D02*
X026467Y027140D01*
X024837Y027950D02*
X023158Y027950D01*
X023077Y028030D01*
X023077Y029719D01*
X023097Y029700D01*
X023478Y029700D01*
X023747Y029969D01*
X023747Y030351D01*
X023478Y030620D01*
X023408Y030620D01*
X023783Y030996D01*
X023787Y031006D01*
X023792Y030996D01*
X024247Y030540D01*
X024130Y030540D01*
X023907Y030317D01*
X023907Y030880D01*
X023867Y030920D02*
X023708Y030920D01*
X023587Y030800D02*
X023587Y030511D01*
X023498Y030600D02*
X024187Y030600D01*
X024227Y030560D02*
X024227Y030540D01*
X024227Y030189D02*
X024227Y030131D01*
X024259Y030131D02*
X023907Y030131D01*
X023907Y030189D01*
X024259Y030189D01*
X024259Y030131D01*
X024247Y029780D02*
X024123Y029656D01*
X024042Y029574D01*
X023997Y029468D01*
X023997Y028852D01*
X024042Y028746D01*
X024123Y028664D01*
X024123Y028664D01*
X024837Y027950D01*
X024747Y028040D02*
X023077Y028040D01*
X023267Y027950D02*
X023267Y029700D01*
X023077Y029640D02*
X024107Y029640D01*
X024130Y029780D02*
X023907Y030003D01*
X023907Y027950D01*
X023587Y027950D02*
X023587Y029809D01*
X023738Y029960D02*
X023950Y029960D01*
X023907Y030003D02*
X023907Y030131D01*
X023907Y030189D02*
X023907Y030317D01*
X023907Y030280D02*
X023747Y030280D01*
X024130Y029780D02*
X024247Y029780D01*
X024227Y029780D02*
X024227Y029760D01*
X023997Y029320D02*
X023077Y029320D01*
X023077Y029000D02*
X023997Y029000D01*
X024107Y028680D02*
X023077Y028680D01*
X023077Y028360D02*
X024427Y028360D01*
X024547Y028240D02*
X024547Y027950D01*
X024227Y027950D02*
X024227Y028560D01*
X025259Y029960D02*
X025316Y029960D01*
X025316Y030280D02*
X025259Y030280D01*
X025187Y030540D02*
X025187Y032975D01*
X025247Y032840D02*
X025017Y032840D01*
X024867Y032871D02*
X024867Y032949D01*
X024966Y033160D02*
X025002Y033160D01*
X024867Y032561D02*
X024867Y032372D01*
X024826Y032520D02*
X025247Y032520D01*
X025247Y032200D02*
X025039Y032200D01*
X025097Y031880D02*
X025247Y031880D01*
X025477Y031560D02*
X024979Y031560D01*
X024867Y031448D02*
X024867Y030740D01*
X025008Y030600D02*
X026077Y030600D01*
X026147Y030620D02*
X026147Y030890D01*
X025507Y030477D02*
X025507Y031530D01*
X024037Y031160D02*
X024037Y032410D01*
X023537Y032910D01*
X023587Y034075D02*
X023587Y034660D01*
X023267Y034660D02*
X023267Y034075D01*
X022947Y034075D02*
X022947Y034660D01*
X022627Y034660D02*
X022627Y034075D01*
X022307Y034075D02*
X022307Y034660D01*
X021987Y034660D02*
X021987Y034075D01*
X021667Y034075D02*
X021667Y034660D01*
X021347Y034660D02*
X021347Y033880D01*
X021267Y033800D02*
X001109Y033800D01*
X001187Y033983D02*
X001187Y017554D01*
X001289Y017480D02*
X002307Y017480D01*
X002147Y017640D02*
X002147Y017203D01*
X002206Y017160D02*
X002627Y017160D01*
X002467Y017320D02*
X002467Y016784D01*
X002449Y016840D02*
X002947Y016840D01*
X002787Y017000D02*
X002787Y015160D01*
X002537Y015240D02*
X004247Y015240D01*
X004067Y015160D02*
X004067Y015720D01*
X003907Y015880D02*
X002537Y015880D01*
X002537Y016200D02*
X003587Y016200D01*
X003427Y016360D02*
X003427Y015160D01*
X003107Y015160D02*
X003107Y016680D01*
X003267Y016520D02*
X002537Y016520D01*
X002440Y016870D02*
X002440Y016870D01*
X002253Y017126D02*
X002253Y017126D01*
X002253Y017126D01*
X001997Y017312D02*
X001997Y017312D01*
X001827Y017367D02*
X001827Y017960D01*
X001667Y018120D02*
X001037Y018120D01*
X001037Y018440D02*
X001347Y018440D01*
X001507Y018280D02*
X001507Y017412D01*
X001054Y017800D02*
X001987Y017800D01*
X001247Y018760D02*
X001037Y018760D01*
X001037Y019080D02*
X001247Y019080D01*
X001247Y019400D02*
X001037Y019400D01*
X001037Y019720D02*
X001247Y019720D01*
X001247Y020040D02*
X001037Y020040D01*
X001037Y020360D02*
X001247Y020360D01*
X001247Y020680D02*
X001037Y020680D01*
X001037Y021000D02*
X001247Y021000D01*
X001247Y021320D02*
X001037Y021320D01*
X001037Y021640D02*
X001247Y021640D01*
X001247Y021960D02*
X001037Y021960D01*
X001037Y022280D02*
X001247Y022280D01*
X001247Y022600D02*
X001037Y022600D01*
X001037Y022920D02*
X001247Y022920D01*
X001247Y023240D02*
X001037Y023240D01*
X001037Y023560D02*
X001286Y023560D01*
X001507Y023790D02*
X001507Y034383D01*
X001593Y034440D02*
X044982Y034440D01*
X045027Y034414D02*
X045027Y019660D01*
X044707Y019660D02*
X044707Y034580D01*
X044387Y034653D02*
X044387Y019660D01*
X044067Y019660D02*
X044067Y034660D01*
X043747Y034660D02*
X043747Y032859D01*
X043751Y032840D02*
X045537Y032840D01*
X045537Y033160D02*
X043630Y033160D01*
X043550Y033300D02*
X043550Y033300D01*
X043285Y033522D01*
X042960Y033640D01*
X042615Y033640D01*
X042290Y033522D01*
X042025Y033300D01*
X042025Y033300D01*
X042025Y033300D01*
X041852Y033000D01*
X041792Y032660D01*
X041792Y032660D01*
X041852Y032320D01*
X042025Y032020D01*
X042290Y031798D01*
X042615Y031680D01*
X042738Y031680D01*
X042960Y031680D01*
X043285Y031798D01*
X043550Y032020D01*
X043723Y032320D01*
X043783Y032660D01*
X043723Y033000D01*
X043723Y033000D01*
X043550Y033300D01*
X043427Y033402D02*
X043427Y034660D01*
X043107Y034660D02*
X043107Y033586D01*
X043285Y033522D02*
X043285Y033522D01*
X043335Y033480D02*
X045533Y033480D01*
X045466Y033800D02*
X041114Y033800D01*
X041187Y033727D02*
X041187Y034660D01*
X040867Y034660D02*
X040867Y033984D01*
X040547Y033990D02*
X040547Y034660D01*
X040227Y034660D02*
X040227Y033990D01*
X039961Y033800D02*
X038779Y033800D01*
X038627Y033915D02*
X038627Y034660D01*
X038307Y034660D02*
X038307Y033930D01*
X037987Y033930D02*
X037987Y034660D01*
X037667Y034660D02*
X037667Y033930D01*
X037347Y033930D02*
X037347Y034660D01*
X037027Y034660D02*
X037027Y033930D01*
X036707Y033930D02*
X036707Y034660D01*
X036387Y034660D02*
X036387Y033930D01*
X036067Y033930D02*
X036067Y034660D01*
X035747Y034660D02*
X035747Y033930D01*
X035427Y033930D02*
X035427Y034660D01*
X035107Y034660D02*
X035107Y033930D01*
X034787Y033930D02*
X034787Y034660D01*
X034467Y034660D02*
X034467Y033930D01*
X034147Y033916D02*
X034147Y034660D01*
X033827Y034660D02*
X033827Y033610D01*
X033697Y033480D02*
X033378Y033480D01*
X033507Y033420D02*
X033507Y034660D01*
X033187Y034660D02*
X033187Y033670D01*
X033058Y033800D02*
X034017Y033800D01*
X032867Y033941D02*
X032867Y034660D01*
X032547Y034660D02*
X032547Y033950D01*
X032227Y033950D02*
X032227Y034660D01*
X031907Y034660D02*
X031907Y033950D01*
X031587Y033950D02*
X031587Y034660D01*
X031267Y034660D02*
X031267Y033950D01*
X030947Y033950D02*
X030947Y034660D01*
X030627Y034660D02*
X030627Y033950D01*
X030307Y033950D02*
X030307Y034660D01*
X029987Y034660D02*
X029987Y033950D01*
X029667Y033950D02*
X029667Y034660D01*
X029347Y034660D02*
X029347Y033950D01*
X029027Y033950D02*
X029027Y034660D01*
X028707Y034660D02*
X028707Y033950D01*
X028387Y033950D02*
X028387Y034660D01*
X028067Y034660D02*
X028067Y033950D01*
X027747Y033950D02*
X027747Y034660D01*
X027427Y034660D02*
X027427Y033950D01*
X027107Y033950D02*
X027107Y034660D01*
X026787Y034660D02*
X026787Y033950D01*
X026467Y033945D02*
X026467Y034660D01*
X026147Y034660D02*
X026147Y033680D01*
X026267Y033800D02*
X025683Y033800D01*
X025827Y033655D02*
X025827Y034660D01*
X025507Y034660D02*
X025507Y033975D01*
X025187Y034075D02*
X025187Y034660D01*
X024867Y034660D02*
X024867Y034075D01*
X024547Y034075D02*
X024547Y034660D01*
X024227Y034660D02*
X024227Y034075D01*
X023907Y034075D02*
X023907Y034660D01*
X026292Y033824D02*
X026292Y033824D01*
X026799Y033370D02*
X029276Y033370D01*
X029027Y033121D01*
X029027Y033370D01*
X029066Y033160D02*
X028896Y033160D01*
X028967Y033088D02*
X028716Y033340D01*
X028587Y033340D01*
X028587Y032960D01*
X028487Y032960D01*
X028487Y032860D01*
X028107Y032860D01*
X028107Y032732D01*
X028359Y032480D01*
X028487Y032480D01*
X028487Y032860D01*
X028587Y032860D01*
X028587Y032480D01*
X028716Y032480D01*
X028967Y032732D01*
X028967Y032860D01*
X028587Y032860D01*
X028587Y032960D01*
X028967Y032960D01*
X028967Y033088D01*
X029027Y033121D02*
X029027Y032699D01*
X029027Y032141D01*
X029037Y032131D02*
X028749Y032420D01*
X028326Y032420D01*
X028037Y032131D01*
X027749Y032420D01*
X027326Y032420D01*
X027037Y032131D01*
X026759Y032410D01*
X027047Y032699D01*
X027047Y033121D01*
X026799Y033370D01*
X027009Y033160D02*
X027179Y033160D01*
X027107Y033088D02*
X027107Y033370D01*
X027359Y033340D02*
X027107Y033088D01*
X027107Y032960D01*
X027487Y032960D01*
X027487Y032860D01*
X027107Y032860D01*
X027107Y032960D01*
X027107Y032860D02*
X027107Y032732D01*
X027107Y032201D01*
X027106Y032200D02*
X026969Y032200D01*
X026787Y032381D02*
X026787Y032439D01*
X026869Y032520D02*
X027319Y032520D01*
X027359Y032480D02*
X027487Y032480D01*
X027487Y032860D01*
X027587Y032860D01*
X027587Y032480D01*
X027716Y032480D01*
X027967Y032732D01*
X027967Y032860D01*
X027587Y032860D01*
X027587Y032960D01*
X027487Y032960D01*
X027487Y033340D01*
X027359Y033340D01*
X027427Y033340D02*
X027427Y033370D01*
X027587Y033340D02*
X027716Y033340D01*
X027967Y033088D01*
X027967Y032960D01*
X027587Y032960D01*
X027587Y033340D01*
X027747Y033370D02*
X027747Y033308D01*
X027896Y033160D02*
X028179Y033160D01*
X028107Y033088D02*
X028107Y032960D01*
X028487Y032960D01*
X028487Y033340D01*
X028359Y033340D01*
X028107Y033088D01*
X028107Y032840D02*
X027967Y032840D01*
X027747Y032860D02*
X027747Y032960D01*
X027587Y032840D02*
X027487Y032840D01*
X027427Y032860D02*
X027427Y032960D01*
X027487Y033160D02*
X027587Y033160D01*
X028067Y033370D02*
X028067Y032161D01*
X028106Y032200D02*
X027969Y032200D01*
X027747Y032420D02*
X027747Y032512D01*
X027756Y032520D02*
X028319Y032520D01*
X028387Y032480D02*
X028387Y032420D01*
X028487Y032520D02*
X028587Y032520D01*
X028707Y032480D02*
X028707Y032420D01*
X028756Y032520D02*
X029206Y032520D01*
X029316Y032410D02*
X029037Y032131D01*
X028969Y032200D02*
X029106Y032200D01*
X029316Y032410D02*
X029027Y032699D01*
X029027Y032840D02*
X028967Y032840D01*
X028707Y032860D02*
X028707Y032960D01*
X028587Y032840D02*
X028487Y032840D01*
X028387Y032860D02*
X028387Y032960D01*
X028487Y033160D02*
X028587Y033160D01*
X028707Y033340D02*
X028707Y033370D01*
X028387Y033370D02*
X028387Y033340D01*
X027587Y032520D02*
X027487Y032520D01*
X027427Y032480D02*
X027427Y032420D01*
X027359Y032480D02*
X027107Y032732D01*
X027107Y032840D02*
X027047Y032840D01*
X027107Y031619D02*
X027107Y030620D01*
X027747Y030280D02*
X027827Y030280D01*
X027837Y029960D02*
X027738Y029960D01*
X027427Y029700D02*
X027427Y029273D01*
X030627Y031293D02*
X030627Y031400D01*
X031047Y031880D02*
X031487Y031880D01*
X031487Y031860D02*
X031487Y031960D01*
X031107Y031960D01*
X031107Y032088D01*
X031359Y032340D01*
X031487Y032340D01*
X031487Y031960D01*
X031587Y031960D01*
X031587Y032340D01*
X031716Y032340D01*
X031967Y032088D01*
X031967Y031960D01*
X031587Y031960D01*
X031587Y031860D01*
X031487Y031860D01*
X031587Y031880D02*
X032027Y031880D01*
X031907Y031860D02*
X031907Y031960D01*
X031907Y032148D02*
X031907Y032672D01*
X031967Y032732D02*
X031716Y032480D01*
X031587Y032480D01*
X031587Y032860D01*
X031487Y032860D01*
X031107Y032860D01*
X031107Y032732D01*
X031359Y032480D01*
X031487Y032480D01*
X031487Y032860D01*
X031487Y032960D01*
X031107Y032960D01*
X031107Y033088D01*
X031359Y033340D01*
X031487Y033340D01*
X031487Y032960D01*
X031587Y032960D01*
X031587Y033340D01*
X031716Y033340D01*
X031967Y033088D01*
X031967Y032960D01*
X031587Y032960D01*
X031587Y032860D01*
X031967Y032860D01*
X031967Y032732D01*
X031967Y032840D02*
X032027Y032840D01*
X031907Y032860D02*
X031907Y032960D01*
X031907Y033148D02*
X031907Y033370D01*
X031896Y033160D02*
X032066Y033160D01*
X032227Y033321D02*
X032227Y033370D01*
X031587Y033340D02*
X031587Y033370D01*
X031587Y033160D02*
X031487Y033160D01*
X031267Y033248D02*
X031267Y033370D01*
X031179Y033160D02*
X031009Y033160D01*
X030947Y033221D02*
X030947Y033370D01*
X031267Y032960D02*
X031267Y032860D01*
X031107Y032840D02*
X031047Y032840D01*
X030947Y032599D02*
X030947Y032221D01*
X030969Y032200D02*
X031219Y032200D01*
X031267Y032248D02*
X031267Y032572D01*
X031319Y032520D02*
X030869Y032520D01*
X031487Y032520D02*
X031587Y032520D01*
X031587Y032480D02*
X031587Y032340D01*
X031587Y032200D02*
X031487Y032200D01*
X031267Y031960D02*
X031267Y031860D01*
X031856Y032200D02*
X032106Y032200D01*
X032227Y032321D02*
X032227Y032499D01*
X032206Y032520D02*
X031756Y032520D01*
X031587Y032840D02*
X031487Y032840D01*
X038947Y033632D02*
X038947Y034660D01*
X039267Y034660D02*
X039267Y033361D01*
X039099Y033480D02*
X039641Y033480D01*
X039587Y033427D02*
X039587Y034660D01*
X039907Y034660D02*
X039907Y033747D01*
X040107Y033013D02*
X040107Y032960D01*
X040487Y032960D01*
X040487Y032860D01*
X040107Y032860D01*
X040107Y032732D01*
X040359Y032480D01*
X040487Y032480D01*
X040487Y032860D01*
X040587Y032860D01*
X040587Y032480D01*
X040716Y032480D01*
X040770Y032534D01*
X040770Y032286D01*
X040716Y032340D01*
X040587Y032340D01*
X040587Y031960D01*
X040487Y031960D01*
X040487Y031860D01*
X040107Y031860D01*
X040107Y031732D01*
X040359Y031480D01*
X040487Y031480D01*
X040487Y031860D01*
X040587Y031860D01*
X040587Y031480D01*
X040716Y031480D01*
X040921Y031685D01*
X041057Y031549D01*
X040960Y031549D01*
X040817Y031490D01*
X040708Y031380D01*
X040649Y031237D01*
X040649Y031083D01*
X040576Y031156D01*
X040469Y031200D01*
X039658Y031200D01*
X039458Y031400D01*
X039749Y031400D01*
X040047Y031699D01*
X040047Y032121D01*
X039867Y032301D01*
X039867Y032519D01*
X040047Y032699D01*
X040047Y032953D01*
X040107Y033013D01*
X040227Y032960D02*
X040227Y032860D01*
X040107Y032840D02*
X040047Y032840D01*
X040227Y032612D02*
X040227Y032208D01*
X040219Y032200D02*
X039969Y032200D01*
X039907Y032261D02*
X039907Y032559D01*
X039869Y032520D02*
X040319Y032520D01*
X040487Y032520D02*
X040587Y032520D01*
X040756Y032520D02*
X040770Y032520D01*
X040487Y032340D02*
X040359Y032340D01*
X040107Y032088D01*
X040107Y031960D01*
X040487Y031960D01*
X040487Y032340D01*
X040487Y032200D02*
X040587Y032200D01*
X040547Y031960D02*
X040547Y032860D01*
X040587Y032840D02*
X040487Y032840D01*
X040227Y031960D02*
X040227Y031860D01*
X040047Y031880D02*
X040487Y031880D01*
X040547Y031860D02*
X040547Y031168D01*
X040650Y031240D02*
X039618Y031240D01*
X039587Y031270D02*
X039587Y031400D01*
X039907Y031559D02*
X039907Y031200D01*
X040227Y031200D02*
X040227Y031612D01*
X040279Y031560D02*
X039909Y031560D01*
X040487Y031560D02*
X040587Y031560D01*
X040796Y031560D02*
X041046Y031560D01*
X040867Y031510D02*
X040867Y031632D01*
X041507Y032032D02*
X041507Y034660D01*
X041827Y034660D02*
X041827Y032859D01*
X041824Y032840D02*
X041430Y032840D01*
X041430Y033160D02*
X041945Y033160D01*
X041852Y033000D02*
X041852Y033000D01*
X041817Y032520D02*
X041430Y032520D01*
X041430Y032200D02*
X041921Y032200D01*
X042025Y032020D02*
X042025Y032020D01*
X042147Y031918D02*
X042147Y031475D01*
X041979Y031560D02*
X045537Y031560D01*
X045537Y031880D02*
X043383Y031880D01*
X043427Y031918D02*
X043427Y019660D01*
X043107Y019660D02*
X043107Y031734D01*
X043285Y031798D02*
X043285Y031798D01*
X043550Y032020D02*
X043550Y032020D01*
X043550Y032020D01*
X043654Y032200D02*
X045537Y032200D01*
X045537Y032520D02*
X043758Y032520D01*
X043747Y032461D02*
X043747Y019660D01*
X043747Y019160D02*
X043747Y017367D01*
X044067Y017410D02*
X044067Y019160D01*
X044387Y019160D02*
X044387Y017410D01*
X044707Y017410D02*
X044707Y019160D01*
X045027Y019160D02*
X045027Y017410D01*
X045286Y017480D02*
X039577Y017480D01*
X039577Y017160D02*
X043368Y017160D01*
X043322Y017126D02*
X043322Y017126D01*
X043427Y017203D02*
X043427Y019160D01*
X042787Y019660D02*
X042787Y031680D01*
X042467Y031734D02*
X042467Y019660D01*
X042147Y019660D02*
X042147Y021682D01*
X042045Y021640D02*
X045537Y021640D01*
X045537Y021960D02*
X042322Y021960D01*
X042217Y022280D02*
X045537Y022280D01*
X045537Y022600D02*
X041758Y022600D01*
X041827Y022530D02*
X041827Y029290D01*
X041858Y029320D02*
X045537Y029320D01*
X045537Y029640D02*
X042077Y029640D01*
X042077Y029960D02*
X045537Y029960D01*
X045537Y030280D02*
X042077Y030280D01*
X042008Y030600D02*
X045537Y030600D01*
X045537Y030920D02*
X042222Y030920D01*
X042147Y030845D02*
X042147Y022346D01*
X040867Y022370D02*
X040867Y022005D01*
X039577Y019080D02*
X045537Y019080D01*
X045347Y019160D02*
X045347Y017525D01*
X045521Y017800D02*
X039577Y017800D01*
X039577Y018120D02*
X045537Y018120D01*
X045537Y018440D02*
X039577Y018440D01*
X039577Y018760D02*
X045537Y018760D01*
X045347Y019660D02*
X045347Y034053D01*
X045309Y034120D02*
X001266Y034120D01*
X001042Y033480D02*
X003490Y033480D01*
X003540Y033522D02*
X003275Y033300D01*
X003275Y033300D01*
X003275Y033300D01*
X003102Y033000D01*
X003042Y032660D01*
X003102Y032320D01*
X003102Y032320D01*
X003275Y032020D01*
X003540Y031798D01*
X003865Y031680D01*
X004087Y031680D01*
X004210Y031680D01*
X004210Y031680D01*
X004535Y031798D01*
X004800Y032020D01*
X004973Y032320D01*
X005033Y032660D01*
X004973Y033000D01*
X004973Y033000D01*
X004800Y033300D01*
X004535Y033522D01*
X004210Y033640D01*
X003865Y033640D01*
X003540Y033522D01*
X003540Y033522D01*
X003427Y033427D02*
X003427Y034660D01*
X003107Y034660D02*
X003107Y033009D01*
X003102Y033000D02*
X003102Y033000D01*
X003074Y032840D02*
X001037Y032840D01*
X001037Y033160D02*
X003195Y033160D01*
X003042Y032660D02*
X003042Y032660D01*
X003067Y032520D02*
X001037Y032520D01*
X001037Y032200D02*
X003171Y032200D01*
X003107Y032311D02*
X003107Y024950D01*
X002787Y024950D02*
X002787Y034660D01*
X002467Y034660D02*
X002467Y024750D01*
X002542Y024824D02*
X002542Y024824D01*
X002557Y024840D02*
X001037Y024840D01*
X001037Y024520D02*
X002237Y024520D01*
X002147Y024430D02*
X002147Y034651D01*
X001827Y034570D02*
X001827Y024110D01*
X001917Y024200D02*
X001037Y024200D01*
X001037Y023880D02*
X001597Y023880D01*
X001037Y025160D02*
X003932Y025160D01*
X004067Y025038D02*
X004067Y025032D01*
X003747Y024950D02*
X003747Y031723D01*
X003540Y031798D02*
X003540Y031798D01*
X003442Y031880D02*
X001037Y031880D01*
X001037Y031560D02*
X016027Y031560D01*
X015907Y031440D02*
X015907Y034660D01*
X015587Y034660D02*
X015587Y031120D01*
X015707Y031240D02*
X001037Y031240D01*
X001037Y030920D02*
X015387Y030920D01*
X015267Y030800D02*
X015267Y034660D01*
X014947Y034660D02*
X014947Y028793D01*
X014835Y028680D02*
X001037Y028680D01*
X001037Y029000D02*
X014997Y029000D01*
X014997Y029320D02*
X001037Y029320D01*
X001037Y029640D02*
X014997Y029640D01*
X014997Y029960D02*
X001037Y029960D01*
X001037Y030280D02*
X014997Y030280D01*
X015067Y030600D02*
X001037Y030600D01*
X001037Y028360D02*
X014515Y028360D01*
X014627Y028473D02*
X014627Y034660D01*
X014307Y034660D02*
X014307Y028153D01*
X014055Y028040D02*
X001037Y028040D01*
X001037Y027720D02*
X013899Y027720D01*
X013987Y027473D02*
X013987Y026200D01*
X013667Y026200D02*
X013667Y034660D01*
X013347Y034660D02*
X013347Y026200D01*
X013027Y026200D02*
X013027Y034660D01*
X012707Y034660D02*
X012707Y026200D01*
X012387Y026200D02*
X012387Y034660D01*
X012067Y034660D02*
X012067Y026200D01*
X011747Y026200D02*
X011747Y034660D01*
X011427Y034660D02*
X011427Y026200D01*
X011107Y026200D02*
X011107Y034660D01*
X010787Y034660D02*
X010787Y026200D01*
X010467Y026200D02*
X010467Y034660D01*
X010147Y034660D02*
X010147Y026200D01*
X009827Y026200D02*
X009827Y034660D01*
X009507Y034660D02*
X009507Y026297D01*
X009187Y026433D02*
X009187Y034660D01*
X008867Y034660D02*
X008867Y026390D01*
X008988Y026440D02*
X001037Y026440D01*
X001037Y026760D02*
X015497Y026760D01*
X015497Y026440D02*
X009170Y026440D01*
X008547Y026304D02*
X008547Y034660D01*
X008227Y034660D02*
X008227Y026304D01*
X007907Y026304D02*
X007907Y034660D01*
X007587Y034660D02*
X007587Y026304D01*
X007267Y026304D02*
X007267Y034660D01*
X006947Y034660D02*
X006947Y026230D01*
X006837Y026120D02*
X001037Y026120D01*
X001037Y025800D02*
X004110Y025800D01*
X004067Y025782D02*
X004067Y031680D01*
X004387Y031744D02*
X004387Y025832D01*
X004465Y025800D02*
X005610Y025800D01*
X005667Y025824D02*
X005667Y034660D01*
X005347Y034660D02*
X005347Y025700D01*
X005027Y025700D02*
X005027Y032631D01*
X005033Y032660D02*
X005033Y032660D01*
X005027Y032689D02*
X005027Y034660D01*
X004707Y034660D02*
X004707Y033377D01*
X004800Y033300D02*
X004800Y033300D01*
X004880Y033160D02*
X020627Y033160D01*
X020707Y033240D02*
X020707Y034660D01*
X020387Y034660D02*
X020387Y032920D01*
X020307Y032840D02*
X005001Y032840D01*
X005008Y032520D02*
X019987Y032520D01*
X020067Y032600D02*
X020067Y034660D01*
X019747Y034660D02*
X019747Y032280D01*
X019667Y032200D02*
X004904Y032200D01*
X004973Y032320D02*
X004973Y032320D01*
X004800Y032020D02*
X004800Y032020D01*
X004800Y032020D01*
X004707Y031943D02*
X004707Y025700D01*
X003859Y025480D02*
X001037Y025480D01*
X001037Y027080D02*
X015497Y027080D01*
X015497Y027400D02*
X014515Y027400D01*
X014627Y027528D02*
X014627Y026293D01*
X014871Y026120D02*
X015497Y026120D01*
X015497Y025800D02*
X015058Y025800D01*
X014947Y025910D02*
X014947Y027972D01*
X015015Y028040D02*
X015497Y028040D01*
X015497Y028360D02*
X015335Y028360D01*
X015267Y028292D02*
X015267Y025590D01*
X015378Y025480D02*
X015497Y025480D01*
X014307Y026230D02*
X014307Y027334D01*
X014060Y027400D02*
X001037Y027400D01*
X003427Y024950D02*
X003427Y031893D01*
X003275Y032020D02*
X003275Y032020D01*
X004535Y031798D02*
X004535Y031798D01*
X004633Y031880D02*
X016347Y031880D01*
X016227Y031760D02*
X016227Y034660D01*
X016547Y034660D02*
X016547Y031950D01*
X016867Y031950D02*
X016867Y034660D01*
X017187Y034660D02*
X017187Y031950D01*
X017507Y031950D02*
X017507Y034660D01*
X017827Y034660D02*
X017827Y031950D01*
X018147Y031950D02*
X018147Y034660D01*
X018467Y034660D02*
X018467Y031950D01*
X018787Y031950D02*
X018787Y034660D01*
X019107Y034660D02*
X019107Y031950D01*
X019427Y031960D02*
X019427Y034660D01*
X021027Y034660D02*
X021027Y033560D01*
X020947Y033480D02*
X004585Y033480D01*
X004535Y033522D02*
X004535Y033522D01*
X004387Y033576D02*
X004387Y034660D01*
X004067Y034660D02*
X004067Y033640D01*
X003747Y033597D02*
X003747Y034660D01*
X005987Y034660D02*
X005987Y025791D01*
X005965Y025800D02*
X006517Y025800D01*
X006627Y025910D02*
X006627Y034660D01*
X006307Y034660D02*
X006307Y025590D01*
X003747Y016040D02*
X003747Y015160D01*
X003747Y014660D02*
X003747Y013030D01*
X003717Y013000D02*
X002294Y013000D01*
X002253Y012944D02*
X002253Y012944D01*
X002147Y012867D02*
X002147Y000669D01*
X002467Y000660D02*
X002467Y013286D01*
X002478Y013320D02*
X003897Y013320D01*
X003940Y013640D02*
X002537Y013640D01*
X002537Y013960D02*
X004193Y013960D01*
X004067Y013845D02*
X004067Y014660D01*
X004247Y014280D02*
X002537Y014280D01*
X003107Y014660D02*
X003107Y012390D01*
X003077Y012360D02*
X001083Y012360D01*
X001187Y012516D02*
X001187Y001337D01*
X001289Y001160D02*
X045285Y001160D01*
X045027Y000906D02*
X045027Y012660D01*
X044707Y012660D02*
X044707Y000740D01*
X044913Y000840D02*
X001662Y000840D01*
X001507Y000937D02*
X001507Y012658D01*
X001757Y012680D02*
X003397Y012680D01*
X003427Y012710D02*
X003427Y014660D01*
X004227Y015560D02*
X002537Y015560D01*
X001827Y012703D02*
X001827Y000750D01*
X001045Y001800D02*
X045530Y001800D01*
X045537Y002120D02*
X001037Y002120D01*
X001037Y002440D02*
X005735Y002440D01*
X005742Y002423D02*
X005923Y002242D01*
X006159Y002144D01*
X006416Y002144D01*
X006652Y002242D01*
X006833Y002423D01*
X006931Y002660D01*
X006931Y002916D01*
X006833Y003153D01*
X006652Y003334D01*
X006416Y003432D01*
X006159Y003432D01*
X005923Y003334D01*
X005742Y003153D01*
X005644Y002916D01*
X005644Y002660D01*
X005742Y002423D01*
X005667Y002603D02*
X005667Y000660D01*
X005347Y000660D02*
X005347Y007870D01*
X005027Y007870D02*
X005027Y000660D01*
X004707Y000660D02*
X004707Y007870D01*
X004387Y007870D02*
X004387Y000660D01*
X004067Y000660D02*
X004067Y007870D01*
X003747Y007771D02*
X003747Y000660D01*
X003427Y000660D02*
X003427Y008013D01*
X003518Y007880D02*
X001037Y007880D01*
X001037Y007560D02*
X006227Y007560D01*
X006307Y007480D02*
X006307Y006188D01*
X006416Y006188D02*
X006159Y006188D01*
X005923Y006090D01*
X005742Y005908D01*
X005644Y005672D01*
X005644Y005416D01*
X005742Y005179D01*
X005923Y004998D01*
X006159Y004900D01*
X006416Y004900D01*
X006652Y004998D01*
X006833Y005179D01*
X006931Y005416D01*
X006931Y005672D01*
X006833Y005908D01*
X006652Y006090D01*
X006416Y006188D01*
X006627Y006100D02*
X006627Y007370D01*
X006947Y007370D02*
X006947Y000660D01*
X006627Y000660D02*
X006627Y002232D01*
X006840Y002440D02*
X010735Y002440D01*
X010742Y002423D02*
X010923Y002242D01*
X011159Y002144D01*
X011416Y002144D01*
X011652Y002242D01*
X011833Y002423D01*
X011931Y002660D01*
X011931Y002916D01*
X011833Y003153D01*
X011652Y003334D01*
X011416Y003432D01*
X011159Y003432D01*
X010923Y003334D01*
X010742Y003153D01*
X010644Y002916D01*
X010644Y002660D01*
X010742Y002423D01*
X010787Y002378D02*
X010787Y000660D01*
X010467Y000660D02*
X010467Y007870D01*
X010147Y007870D02*
X010147Y000660D01*
X009827Y000660D02*
X009827Y007870D01*
X009507Y007870D02*
X009507Y000660D01*
X009187Y000660D02*
X009187Y007870D01*
X008867Y007772D02*
X008867Y000660D01*
X008547Y000660D02*
X008547Y007850D01*
X008227Y007870D02*
X008227Y000660D01*
X007907Y000660D02*
X007907Y007870D01*
X007587Y007800D02*
X007587Y000660D01*
X007267Y000660D02*
X007267Y007480D01*
X007348Y007560D02*
X011227Y007560D01*
X011107Y007680D02*
X011107Y006166D01*
X011159Y006188D02*
X010923Y006090D01*
X010742Y005908D01*
X010644Y005672D01*
X010644Y005416D01*
X010742Y005179D01*
X010923Y004998D01*
X011159Y004900D01*
X011416Y004900D01*
X011652Y004998D01*
X011833Y005179D01*
X011931Y005416D01*
X011931Y005672D01*
X011833Y005908D01*
X011652Y006090D01*
X011416Y006188D01*
X011159Y006188D01*
X011427Y006183D02*
X011427Y007392D01*
X011747Y007370D02*
X011747Y005994D01*
X011782Y005960D02*
X015793Y005960D01*
X015742Y005908D02*
X015923Y006090D01*
X016159Y006188D01*
X016416Y006188D01*
X016652Y006090D01*
X016833Y005908D01*
X016931Y005672D01*
X016931Y005416D01*
X016833Y005179D01*
X016652Y004998D01*
X016416Y004900D01*
X016159Y004900D01*
X015923Y004998D01*
X015742Y005179D01*
X015644Y005416D01*
X015644Y005672D01*
X015742Y005908D01*
X015907Y006074D02*
X015907Y007870D01*
X015587Y007870D02*
X015587Y000660D01*
X015267Y000660D02*
X015267Y007870D01*
X014947Y007870D02*
X014947Y000660D01*
X014627Y000660D02*
X014627Y007870D01*
X014307Y007870D02*
X014307Y000660D01*
X013987Y000660D02*
X013987Y007822D01*
X013667Y007789D02*
X013667Y000660D01*
X013347Y000660D02*
X013347Y007870D01*
X013027Y007870D02*
X013027Y000660D01*
X012707Y000660D02*
X012707Y007870D01*
X012387Y007600D02*
X012387Y000660D01*
X012067Y000660D02*
X012067Y007370D01*
X012348Y007560D02*
X016227Y007560D01*
X016227Y006188D01*
X016547Y006133D02*
X016547Y007370D01*
X016867Y007370D02*
X016867Y005826D01*
X016782Y005960D02*
X020793Y005960D01*
X020742Y005908D02*
X020644Y005672D01*
X020644Y005416D01*
X020742Y005179D01*
X020923Y004998D01*
X021159Y004900D01*
X021416Y004900D01*
X021652Y004998D01*
X021833Y005179D01*
X021931Y005416D01*
X021931Y005672D01*
X021833Y005908D01*
X021652Y006090D01*
X021416Y006188D01*
X021159Y006188D01*
X020923Y006090D01*
X020742Y005908D01*
X020707Y005826D02*
X020707Y007870D01*
X020387Y007870D02*
X020387Y000660D01*
X020067Y000660D02*
X020067Y007870D01*
X019747Y007870D02*
X019747Y000660D01*
X019427Y000660D02*
X019427Y007870D01*
X019107Y007870D02*
X019107Y000660D01*
X018787Y000660D02*
X018787Y007771D01*
X018467Y007870D02*
X018467Y000660D01*
X018147Y000660D02*
X018147Y007870D01*
X017827Y007870D02*
X017827Y000660D01*
X017507Y000660D02*
X017507Y007720D01*
X017348Y007560D02*
X021227Y007560D01*
X021347Y007440D02*
X021347Y006188D01*
X021027Y006133D02*
X021027Y007760D01*
X021667Y007370D02*
X021667Y006074D01*
X021782Y005960D02*
X025793Y005960D01*
X025827Y005994D02*
X025827Y007870D01*
X025507Y007870D02*
X025507Y000660D01*
X025187Y000660D02*
X025187Y007870D01*
X024867Y007870D02*
X024867Y000660D01*
X024547Y000660D02*
X024547Y007870D01*
X024227Y007870D02*
X024227Y000660D01*
X023907Y000660D02*
X023907Y007789D01*
X023587Y007822D02*
X023587Y000660D01*
X023267Y000660D02*
X023267Y007870D01*
X022947Y007870D02*
X022947Y000660D01*
X022627Y000660D02*
X022627Y007840D01*
X022348Y007560D02*
X026227Y007560D01*
X026147Y007640D02*
X026147Y006183D01*
X026159Y006188D02*
X025923Y006090D01*
X025742Y005908D01*
X025644Y005672D01*
X025644Y005416D01*
X025742Y005179D01*
X025923Y004998D01*
X026159Y004900D01*
X026416Y004900D01*
X026652Y004998D01*
X026833Y005179D01*
X026931Y005416D01*
X026931Y005672D01*
X026833Y005908D01*
X026652Y006090D01*
X026416Y006188D01*
X026159Y006188D01*
X026467Y006166D02*
X026467Y007375D01*
X026787Y007370D02*
X026787Y005954D01*
X026782Y005960D02*
X030793Y005960D01*
X030742Y005908D02*
X030644Y005672D01*
X030644Y005416D01*
X030742Y005179D01*
X030923Y004998D01*
X031159Y004900D01*
X031416Y004900D01*
X031652Y004998D01*
X031833Y005179D01*
X031931Y005416D01*
X031931Y005672D01*
X031833Y005908D01*
X031652Y006090D01*
X031416Y006188D01*
X031159Y006188D01*
X030923Y006090D01*
X030742Y005908D01*
X030947Y006100D02*
X030947Y007840D01*
X030627Y007870D02*
X030627Y000660D01*
X030307Y000660D02*
X030307Y007870D01*
X029987Y007870D02*
X029987Y000660D01*
X029667Y000660D02*
X029667Y007870D01*
X029347Y007870D02*
X029347Y000660D01*
X029027Y000660D02*
X029027Y007850D01*
X028707Y007772D02*
X028707Y000660D01*
X028387Y000660D02*
X028387Y007870D01*
X028067Y007870D02*
X028067Y000660D01*
X027747Y000660D02*
X027747Y007870D01*
X027427Y007640D02*
X027427Y000660D01*
X027107Y000660D02*
X027107Y007375D01*
X027348Y007560D02*
X031227Y007560D01*
X031267Y007520D02*
X031267Y006188D01*
X031587Y006116D02*
X031587Y007370D01*
X031907Y007370D02*
X031907Y005729D01*
X031931Y005640D02*
X035644Y005640D01*
X035644Y005672D02*
X035644Y005416D01*
X035742Y005179D01*
X035923Y004998D01*
X036159Y004900D01*
X036416Y004900D01*
X036652Y004998D01*
X036833Y005179D01*
X036931Y005416D01*
X036931Y005672D01*
X036833Y005908D01*
X036652Y006090D01*
X036416Y006188D01*
X036159Y006188D01*
X035923Y006090D01*
X035742Y005908D01*
X035644Y005672D01*
X035747Y005914D02*
X035747Y007870D01*
X035427Y007870D02*
X035427Y000660D01*
X035107Y000660D02*
X035107Y007870D01*
X034787Y007870D02*
X034787Y000660D01*
X034467Y000660D02*
X034467Y007870D01*
X034147Y007870D02*
X034147Y000660D01*
X033827Y000660D02*
X033827Y007771D01*
X033507Y007870D02*
X033507Y000660D01*
X033187Y000660D02*
X033187Y007870D01*
X032867Y007870D02*
X032867Y000660D01*
X032547Y000660D02*
X032547Y007760D01*
X032348Y007560D02*
X036227Y007560D01*
X036387Y007408D02*
X036387Y006188D01*
X036067Y006149D02*
X036067Y007720D01*
X036707Y007370D02*
X036707Y006034D01*
X036782Y005960D02*
X040793Y005960D01*
X040742Y005908D02*
X040644Y005672D01*
X040644Y005416D01*
X040742Y005179D01*
X040923Y004998D01*
X041159Y004900D01*
X041416Y004900D01*
X041652Y004998D01*
X041833Y005179D01*
X041931Y005416D01*
X041931Y005672D01*
X041833Y005908D01*
X041652Y006090D01*
X041416Y006188D01*
X041159Y006188D01*
X040923Y006090D01*
X040742Y005908D01*
X040867Y006034D02*
X040867Y008670D01*
X041017Y008520D02*
X038934Y008520D01*
X038947Y008514D02*
X038947Y009370D01*
X038627Y009370D02*
X038627Y008514D01*
X038641Y008520D02*
X036934Y008520D01*
X037027Y008470D02*
X037027Y009370D01*
X036707Y009370D02*
X036707Y008650D01*
X036518Y008840D02*
X040697Y008840D01*
X040547Y008990D02*
X040547Y000660D01*
X040227Y000660D02*
X040227Y009310D01*
X040377Y009160D02*
X036198Y009160D01*
X036067Y009290D02*
X036067Y009370D01*
X036387Y009370D02*
X036387Y008970D01*
X036387Y009950D02*
X036387Y013913D01*
X036361Y013960D02*
X032327Y013960D01*
X032327Y013640D02*
X043037Y013640D01*
X044067Y012660D02*
X044067Y000660D01*
X044387Y000667D02*
X044387Y012660D01*
X045537Y010760D02*
X043037Y010760D01*
X042467Y010433D02*
X042467Y000660D01*
X042147Y000660D02*
X042147Y008013D01*
X042057Y007880D02*
X045537Y007880D01*
X045537Y007560D02*
X037348Y007560D01*
X037347Y007560D02*
X037347Y000660D01*
X037027Y000660D02*
X037027Y007370D01*
X037667Y007870D02*
X037667Y000660D01*
X037987Y000660D02*
X037987Y007870D01*
X038307Y007870D02*
X038307Y000660D01*
X038627Y000660D02*
X038627Y007806D01*
X038947Y007806D02*
X038947Y000660D01*
X039267Y000660D02*
X039267Y009370D01*
X039587Y009370D02*
X039587Y000660D01*
X039907Y000660D02*
X039907Y009370D01*
X039176Y008200D02*
X041337Y008200D01*
X041187Y008350D02*
X041187Y006188D01*
X041507Y006149D02*
X041507Y007890D01*
X041518Y007880D02*
X039057Y007880D01*
X038307Y008450D02*
X038307Y009370D01*
X037987Y009370D02*
X037987Y008450D01*
X037667Y008450D02*
X037667Y009370D01*
X037347Y009370D02*
X037347Y008380D01*
X037027Y009950D02*
X037027Y013671D01*
X036707Y013687D02*
X036707Y009950D01*
X036067Y009950D02*
X036067Y018220D01*
X036167Y018120D02*
X032327Y018120D01*
X032327Y018440D02*
X035847Y018440D01*
X035747Y018540D02*
X035747Y009950D01*
X035427Y009950D02*
X035427Y018860D01*
X035527Y018760D02*
X032327Y018760D01*
X032327Y017800D02*
X036487Y017800D01*
X036387Y017900D02*
X036387Y015407D01*
X036311Y015240D02*
X032327Y015240D01*
X032327Y015560D02*
X036540Y015560D01*
X036597Y015880D02*
X032327Y015880D01*
X032327Y016200D02*
X036597Y016200D01*
X036597Y016520D02*
X032327Y016520D01*
X032327Y016840D02*
X036597Y016840D01*
X036597Y017160D02*
X032327Y017160D01*
X032327Y017480D02*
X036597Y017480D01*
X036284Y014920D02*
X032327Y014920D01*
X032327Y014600D02*
X036284Y014600D01*
X036284Y014280D02*
X032327Y014280D01*
X028387Y016670D02*
X028387Y017350D01*
X025609Y019063D02*
X025533Y019031D01*
X025406Y018905D01*
X025337Y018740D01*
X025337Y018080D01*
X025392Y017950D01*
X025183Y017950D01*
X025237Y018080D01*
X025237Y018740D01*
X025169Y018905D01*
X025042Y019031D01*
X024877Y019100D01*
X024698Y019100D01*
X024533Y019031D01*
X024406Y018905D01*
X024337Y018740D01*
X024337Y018080D01*
X024392Y017950D01*
X024085Y017950D01*
X024115Y017995D01*
X024143Y018062D01*
X024157Y018134D01*
X024157Y018380D01*
X023817Y018380D01*
X023817Y018440D01*
X023757Y018440D01*
X023757Y018380D01*
X023417Y018380D01*
X023417Y018134D01*
X023432Y018062D01*
X023460Y017995D01*
X023489Y017950D01*
X023183Y017950D01*
X023237Y018080D01*
X023237Y018740D01*
X023169Y018905D01*
X023042Y019031D01*
X022877Y019100D01*
X022698Y019100D01*
X022533Y019031D01*
X022406Y018905D01*
X022337Y018740D01*
X022337Y018080D01*
X022406Y017915D01*
X022533Y017789D01*
X022690Y017723D01*
X021577Y016610D01*
X021577Y017770D01*
X021698Y017720D01*
X021877Y017720D01*
X022042Y017789D01*
X022169Y017915D01*
X022237Y018080D01*
X022237Y018740D01*
X022169Y018905D01*
X022077Y018996D01*
X022077Y019160D01*
X022988Y019160D01*
X023067Y019080D01*
X023210Y019021D01*
X023365Y019021D01*
X023508Y019080D01*
X023547Y019120D01*
X025528Y019120D01*
X025567Y019080D01*
X025609Y019063D01*
X025568Y019080D02*
X024925Y019080D01*
X024867Y019100D02*
X024867Y019120D01*
X024650Y019080D02*
X023507Y019080D01*
X023587Y019120D02*
X023587Y018961D01*
X023612Y018978D02*
X023552Y018937D01*
X023500Y018886D01*
X023460Y018825D01*
X023432Y018758D01*
X023417Y018686D01*
X023417Y018440D01*
X023237Y018440D01*
X023417Y018440D02*
X023757Y018440D01*
X023757Y019020D01*
X023751Y019020D01*
X023680Y019006D01*
X023612Y018978D01*
X023817Y019020D02*
X023817Y018440D01*
X024157Y018440D01*
X024337Y018440D01*
X024157Y018440D02*
X024157Y018686D01*
X024143Y018758D01*
X024115Y018825D01*
X024075Y018886D01*
X024023Y018937D01*
X023963Y018978D01*
X023895Y019006D01*
X023824Y019020D01*
X023817Y019020D01*
X023907Y019001D02*
X023907Y019120D01*
X024227Y019120D02*
X024227Y017950D01*
X024155Y018120D02*
X024337Y018120D01*
X023907Y018380D02*
X023907Y018440D01*
X023587Y018440D02*
X023587Y018380D01*
X023420Y018120D02*
X023237Y018120D01*
X023267Y017950D02*
X023267Y019021D01*
X023068Y019080D02*
X022925Y019080D01*
X022947Y019071D02*
X022947Y019160D01*
X022650Y019080D02*
X022077Y019080D01*
X022307Y019160D02*
X022307Y017340D01*
X022447Y017480D02*
X021577Y017480D01*
X021667Y017733D02*
X021667Y016700D01*
X021577Y016840D02*
X021807Y016840D01*
X021987Y017020D02*
X021987Y017766D01*
X022054Y017800D02*
X022521Y017800D01*
X022627Y017749D02*
X022627Y017660D01*
X022337Y018120D02*
X022237Y018120D01*
X022237Y018440D02*
X022337Y018440D01*
X022346Y018760D02*
X022229Y018760D01*
X022627Y019071D02*
X022627Y019160D01*
X023077Y019744D02*
X023077Y021525D01*
X023117Y021565D01*
X023176Y021708D01*
X023176Y021862D01*
X023117Y022005D01*
X023008Y022115D01*
X022865Y022174D01*
X022710Y022174D01*
X022655Y022151D01*
X022669Y022165D01*
X022737Y022330D01*
X022737Y022990D01*
X022669Y023155D01*
X022542Y023281D01*
X022377Y023350D01*
X022198Y023350D01*
X022033Y023281D01*
X021906Y023155D01*
X021837Y022990D01*
X021837Y022330D01*
X021906Y022165D01*
X021997Y022074D01*
X021997Y020030D01*
X021627Y019660D01*
X021577Y019660D01*
X021577Y022074D01*
X021669Y022165D01*
X021737Y022330D01*
X021737Y022990D01*
X021669Y023155D01*
X021542Y023281D01*
X021377Y023350D01*
X021198Y023350D01*
X021033Y023281D01*
X020906Y023155D01*
X020837Y022990D01*
X020837Y022330D01*
X020906Y022165D01*
X020997Y022074D01*
X020997Y019660D01*
X020577Y019660D01*
X020577Y022074D01*
X020669Y022165D01*
X020737Y022330D01*
X020737Y022990D01*
X020669Y023155D01*
X020542Y023281D01*
X020377Y023350D01*
X020198Y023350D01*
X020033Y023281D01*
X019906Y023155D01*
X019837Y022990D01*
X019837Y022330D01*
X019906Y022165D01*
X019997Y022074D01*
X019997Y019660D01*
X019577Y019660D01*
X019577Y022074D01*
X019669Y022165D01*
X019737Y022330D01*
X019737Y022990D01*
X019669Y023155D01*
X019542Y023281D01*
X019407Y023338D01*
X019814Y023745D01*
X027712Y023745D01*
X027542Y023574D01*
X027497Y023468D01*
X027497Y023300D01*
X027377Y023350D01*
X027198Y023350D01*
X027033Y023281D01*
X026906Y023155D01*
X026837Y022990D01*
X026837Y022330D01*
X026906Y022165D01*
X026920Y022151D01*
X026865Y022174D01*
X026710Y022174D01*
X026655Y022151D01*
X026669Y022165D01*
X026737Y022330D01*
X026737Y022990D01*
X026669Y023155D01*
X026542Y023281D01*
X026377Y023350D01*
X026198Y023350D01*
X026033Y023281D01*
X025906Y023155D01*
X025837Y022990D01*
X025837Y022330D01*
X025906Y022165D01*
X025997Y022074D01*
X025997Y021360D01*
X025577Y021780D01*
X025577Y022074D01*
X025669Y022165D01*
X025737Y022330D01*
X025737Y022990D01*
X025669Y023155D01*
X025542Y023281D01*
X025377Y023350D01*
X025198Y023350D01*
X025033Y023281D01*
X024906Y023155D01*
X024837Y022990D01*
X024837Y022330D01*
X024906Y022165D01*
X024997Y022074D01*
X024997Y021602D01*
X025042Y021496D01*
X025123Y021414D01*
X025497Y021040D01*
X025497Y021006D01*
X025406Y020915D01*
X025337Y020750D01*
X025337Y020570D01*
X025406Y020405D01*
X025533Y020279D01*
X025698Y020210D01*
X025877Y020210D01*
X025997Y020260D01*
X025997Y019744D01*
X025865Y019799D01*
X025710Y019799D01*
X025567Y019740D01*
X025528Y019700D01*
X023547Y019700D01*
X023508Y019740D01*
X023365Y019799D01*
X023210Y019799D01*
X023077Y019744D01*
X023267Y019799D02*
X023267Y022630D01*
X023257Y022630D02*
X023317Y022630D01*
X023317Y022050D01*
X023324Y022050D01*
X023395Y022064D01*
X023463Y022092D01*
X023523Y022133D01*
X023575Y022184D01*
X023615Y022245D01*
X023643Y022312D01*
X023657Y022384D01*
X023657Y022630D01*
X023317Y022630D01*
X023317Y022690D01*
X023257Y022690D01*
X023257Y022630D01*
X022917Y022630D01*
X022917Y022384D01*
X022932Y022312D01*
X022960Y022245D01*
X023000Y022184D01*
X023052Y022133D01*
X023112Y022092D01*
X023180Y022064D01*
X023251Y022050D01*
X023257Y022050D01*
X023257Y022630D01*
X023257Y022600D02*
X023317Y022600D01*
X023317Y022690D02*
X023657Y022690D01*
X023657Y022936D01*
X023643Y023008D01*
X023615Y023075D01*
X023575Y023136D01*
X023523Y023187D01*
X023463Y023228D01*
X023395Y023256D01*
X023324Y023270D01*
X023317Y023270D01*
X023317Y022690D01*
X023267Y022690D02*
X023267Y023745D01*
X022947Y023745D02*
X022947Y023046D01*
X022960Y023075D02*
X022932Y023008D01*
X022917Y022936D01*
X022917Y022690D01*
X023257Y022690D01*
X023257Y023270D01*
X023251Y023270D01*
X023180Y023256D01*
X023112Y023228D01*
X023052Y023187D01*
X023000Y023136D01*
X022960Y023075D01*
X022917Y022920D02*
X022737Y022920D01*
X022627Y023196D02*
X022627Y023745D01*
X022307Y023745D02*
X022307Y023350D01*
X022584Y023240D02*
X023141Y023240D01*
X023257Y023240D02*
X023317Y023240D01*
X023434Y023240D02*
X023991Y023240D01*
X024033Y023281D02*
X023906Y023155D01*
X023837Y022990D01*
X023837Y022330D01*
X023906Y022165D01*
X023997Y022074D01*
X023997Y021780D01*
X023542Y021324D01*
X023497Y021218D01*
X023497Y021006D01*
X023406Y020915D01*
X023337Y020750D01*
X023337Y020570D01*
X023406Y020405D01*
X023533Y020279D01*
X023698Y020210D01*
X023877Y020210D01*
X024042Y020279D01*
X024169Y020405D01*
X024237Y020570D01*
X024237Y020750D01*
X024169Y020915D01*
X024077Y021006D01*
X024077Y021040D01*
X024452Y021414D01*
X024533Y021496D01*
X024577Y021602D01*
X024577Y022074D01*
X024669Y022165D01*
X024737Y022330D01*
X024737Y022990D01*
X024669Y023155D01*
X024542Y023281D01*
X024377Y023350D01*
X024198Y023350D01*
X024033Y023281D01*
X023907Y023156D02*
X023907Y023745D01*
X023587Y023745D02*
X023587Y023117D01*
X023657Y022920D02*
X023837Y022920D01*
X023837Y022600D02*
X023657Y022600D01*
X023587Y022630D02*
X023587Y022690D01*
X023317Y022920D02*
X023257Y022920D01*
X022947Y022690D02*
X022947Y022630D01*
X022917Y022600D02*
X022737Y022600D01*
X022717Y022280D02*
X022945Y022280D01*
X022947Y022274D02*
X022947Y022139D01*
X023136Y021960D02*
X023997Y021960D01*
X023907Y022164D02*
X023907Y021690D01*
X023857Y021640D02*
X023148Y021640D01*
X023077Y021320D02*
X023540Y021320D01*
X023587Y021370D02*
X023587Y022203D01*
X023630Y022280D02*
X023858Y022280D01*
X023317Y022280D02*
X023257Y022280D01*
X024577Y021960D02*
X024997Y021960D01*
X024997Y021640D02*
X024577Y021640D01*
X024547Y021530D02*
X024547Y019700D01*
X024227Y019700D02*
X024227Y020546D01*
X024237Y020680D02*
X025337Y020680D01*
X025451Y020360D02*
X024124Y020360D01*
X023907Y020223D02*
X023907Y019700D01*
X023587Y019700D02*
X023587Y020256D01*
X023451Y020360D02*
X023077Y020360D01*
X023077Y020040D02*
X025997Y020040D01*
X025827Y020210D02*
X025827Y019799D01*
X025548Y019720D02*
X023527Y019720D01*
X023433Y018760D02*
X023229Y018760D01*
X023757Y018760D02*
X023817Y018760D01*
X024142Y018760D02*
X024346Y018760D01*
X024547Y019038D02*
X024547Y019120D01*
X024867Y019700D02*
X024867Y022258D01*
X024858Y022280D02*
X024717Y022280D01*
X024737Y022600D02*
X024837Y022600D01*
X024837Y022920D02*
X024737Y022920D01*
X024867Y023062D02*
X024867Y023745D01*
X024547Y023745D02*
X024547Y023276D01*
X024584Y023240D02*
X024991Y023240D01*
X025187Y023346D02*
X025187Y023745D01*
X025507Y023745D02*
X025507Y023296D01*
X025584Y023240D02*
X025991Y023240D01*
X026147Y023329D02*
X026147Y023745D01*
X025827Y023745D02*
X025827Y021530D01*
X025718Y021640D02*
X025997Y021640D01*
X025997Y021960D02*
X025577Y021960D01*
X025717Y022280D02*
X025858Y022280D01*
X025837Y022600D02*
X025737Y022600D01*
X025737Y022920D02*
X025837Y022920D01*
X026467Y023313D02*
X026467Y023745D01*
X026787Y023745D02*
X026787Y022174D01*
X026717Y022280D02*
X026858Y022280D01*
X026837Y022600D02*
X026737Y022600D01*
X026737Y022920D02*
X026837Y022920D01*
X026991Y023240D02*
X026584Y023240D01*
X027107Y023313D02*
X027107Y023745D01*
X027427Y023745D02*
X027427Y023329D01*
X027536Y023560D02*
X019629Y023560D01*
X019747Y023679D02*
X019747Y019660D01*
X019577Y019720D02*
X019997Y019720D01*
X019997Y020040D02*
X019577Y020040D01*
X019577Y020360D02*
X019997Y020360D01*
X019997Y020680D02*
X019577Y020680D01*
X019577Y021000D02*
X019997Y021000D01*
X019997Y021320D02*
X019577Y021320D01*
X019577Y021640D02*
X019997Y021640D01*
X019997Y021960D02*
X019577Y021960D01*
X019717Y022280D02*
X019858Y022280D01*
X019837Y022600D02*
X019737Y022600D01*
X019737Y022920D02*
X019837Y022920D01*
X019991Y023240D02*
X019584Y023240D01*
X019427Y023329D02*
X019427Y023359D01*
X020067Y023296D02*
X020067Y023745D01*
X020387Y023745D02*
X020387Y023346D01*
X020584Y023240D02*
X020991Y023240D01*
X021027Y023276D02*
X021027Y023745D01*
X020707Y023745D02*
X020707Y023062D01*
X020737Y022920D02*
X020837Y022920D01*
X020837Y022600D02*
X020737Y022600D01*
X020717Y022280D02*
X020858Y022280D01*
X020707Y022258D02*
X020707Y019660D01*
X020577Y019720D02*
X020997Y019720D01*
X020997Y020040D02*
X020577Y020040D01*
X020577Y020360D02*
X020997Y020360D01*
X020997Y020680D02*
X020577Y020680D01*
X020577Y021000D02*
X020997Y021000D01*
X020997Y021320D02*
X020577Y021320D01*
X020577Y021640D02*
X020997Y021640D01*
X020997Y021960D02*
X020577Y021960D01*
X021577Y021960D02*
X021997Y021960D01*
X021987Y022084D02*
X021987Y020020D01*
X021997Y020040D02*
X021577Y020040D01*
X021577Y020360D02*
X021997Y020360D01*
X021997Y020680D02*
X021577Y020680D01*
X021577Y021000D02*
X021997Y021000D01*
X021997Y021320D02*
X021577Y021320D01*
X021577Y021640D02*
X021997Y021640D01*
X021667Y022164D02*
X021667Y019700D01*
X021687Y019720D02*
X021577Y019720D01*
X020497Y018540D02*
X020497Y016780D01*
X019766Y016049D01*
X019710Y016049D01*
X019567Y015990D01*
X019458Y015880D01*
X019077Y015880D01*
X019077Y016200D02*
X019917Y016200D01*
X020067Y016350D02*
X020067Y016600D01*
X020084Y016600D02*
X020154Y016614D01*
X020219Y016641D01*
X020278Y016680D01*
X020328Y016731D01*
X020368Y016789D01*
X020395Y016855D01*
X020409Y016925D01*
X020409Y016935D01*
X019844Y016935D01*
X019844Y016985D01*
X020409Y016985D01*
X020409Y016995D01*
X020395Y017065D01*
X020368Y017131D01*
X020328Y017189D01*
X020278Y017240D01*
X020242Y017264D01*
X020298Y017287D01*
X020422Y017411D01*
X020489Y017572D01*
X020489Y017748D01*
X020422Y017909D01*
X020321Y018010D01*
X020422Y018111D01*
X020489Y018272D01*
X020489Y018448D01*
X020422Y018609D01*
X020298Y018733D01*
X020136Y018800D01*
X019556Y018800D01*
X019577Y018852D01*
X019577Y019160D01*
X019997Y019160D01*
X019997Y019102D01*
X020042Y018996D01*
X020497Y018540D01*
X020489Y018440D02*
X020497Y018440D01*
X020387Y018644D02*
X020387Y018650D01*
X020277Y018760D02*
X020233Y018760D01*
X020067Y018800D02*
X020067Y018970D01*
X020007Y019080D02*
X019577Y019080D01*
X019747Y019160D02*
X019747Y018800D01*
X020426Y018120D02*
X020497Y018120D01*
X020387Y018076D02*
X020387Y017944D01*
X020467Y017800D02*
X020497Y017800D01*
X020497Y017480D02*
X020450Y017480D01*
X020387Y017376D02*
X020387Y017083D01*
X020348Y017160D02*
X020497Y017160D01*
X020387Y016985D02*
X020387Y016935D01*
X020389Y016840D02*
X020497Y016840D01*
X020387Y016837D02*
X020387Y016670D01*
X020237Y016520D02*
X019077Y016520D01*
X019309Y016731D02*
X019359Y016680D01*
X019418Y016641D01*
X019484Y016614D01*
X019553Y016600D01*
X019794Y016600D01*
X019794Y016935D01*
X019844Y016935D01*
X019844Y016600D01*
X020084Y016600D01*
X020067Y016935D02*
X020067Y016985D01*
X019844Y016840D02*
X019794Y016840D01*
X019794Y016935D02*
X019229Y016935D01*
X019229Y016925D01*
X019243Y016855D01*
X019270Y016789D01*
X019309Y016731D01*
X019249Y016840D02*
X019077Y016840D01*
X019077Y017040D02*
X019332Y017294D01*
X019339Y017287D01*
X019395Y017264D01*
X019359Y017240D01*
X019309Y017189D01*
X019270Y017131D01*
X019243Y017065D01*
X019229Y016995D01*
X019229Y016985D01*
X019794Y016985D01*
X019794Y016935D01*
X019747Y016935D02*
X019747Y016985D01*
X019427Y016985D02*
X019427Y016935D01*
X019289Y017160D02*
X019198Y017160D01*
X019107Y017070D02*
X019107Y011620D01*
X019097Y011620D02*
X019077Y011601D01*
X019077Y017040D01*
X019427Y016637D02*
X019427Y015807D01*
X019399Y015737D02*
X019458Y015880D01*
X019399Y015737D02*
X019399Y015583D01*
X019458Y015440D01*
X019497Y015400D01*
X019497Y011780D01*
X019337Y011620D01*
X019097Y011620D01*
X019077Y011720D02*
X019437Y011720D01*
X019427Y011710D02*
X019427Y015513D01*
X019408Y015560D02*
X019077Y015560D01*
X019077Y015240D02*
X019497Y015240D01*
X019497Y014920D02*
X019077Y014920D01*
X019077Y014600D02*
X019497Y014600D01*
X019497Y014280D02*
X019077Y014280D01*
X019077Y013960D02*
X019497Y013960D01*
X019497Y013640D02*
X019077Y013640D01*
X019077Y013320D02*
X019497Y013320D01*
X019497Y013000D02*
X019077Y013000D01*
X019077Y012680D02*
X019497Y012680D01*
X019497Y012360D02*
X019077Y012360D01*
X019077Y012040D02*
X019497Y012040D01*
X016997Y012040D02*
X016577Y012040D01*
X016577Y011720D02*
X016997Y011720D01*
X016877Y011400D02*
X016698Y011400D01*
X016867Y011391D02*
X016867Y012830D01*
X016997Y012680D02*
X016718Y012680D01*
X016577Y012360D02*
X016997Y012360D01*
X016827Y011080D02*
X016747Y011080D01*
X016867Y010929D02*
X016867Y010798D01*
X016958Y010760D02*
X017037Y010760D01*
X016617Y010760D02*
X016538Y010760D01*
X016547Y010769D02*
X016547Y010720D01*
X016227Y010700D02*
X016227Y010700D01*
X016227Y010120D02*
X016227Y008380D01*
X015907Y008450D02*
X015907Y010120D01*
X015587Y010120D02*
X015587Y008450D01*
X015267Y008450D02*
X015267Y010120D01*
X014947Y010120D02*
X014947Y008450D01*
X014627Y008450D02*
X014627Y010120D01*
X014307Y010120D02*
X014307Y008450D01*
X013987Y008498D02*
X013987Y010120D01*
X013667Y010120D02*
X013667Y008531D01*
X013641Y008520D02*
X012077Y008520D01*
X013027Y008450D02*
X013027Y010120D01*
X013347Y010120D02*
X013347Y008450D01*
X013934Y008520D02*
X016641Y008520D01*
X016547Y008470D02*
X016547Y010100D01*
X017187Y007408D02*
X017187Y000660D01*
X016867Y000660D02*
X016867Y002506D01*
X016840Y002440D02*
X020735Y002440D01*
X020742Y002423D02*
X020923Y002242D01*
X021159Y002144D01*
X021416Y002144D01*
X021652Y002242D01*
X021833Y002423D01*
X021931Y002660D01*
X021931Y002916D01*
X021833Y003153D01*
X021652Y003334D01*
X021416Y003432D01*
X021159Y003432D01*
X020923Y003334D01*
X020742Y003153D01*
X020644Y002916D01*
X020644Y002660D01*
X020742Y002423D01*
X020707Y002506D02*
X020707Y000660D01*
X021027Y000660D02*
X021027Y002199D01*
X021347Y002144D02*
X021347Y000660D01*
X021667Y000660D02*
X021667Y002258D01*
X021840Y002440D02*
X025735Y002440D01*
X025742Y002423D02*
X025923Y002242D01*
X026159Y002144D01*
X026416Y002144D01*
X026652Y002242D01*
X026833Y002423D01*
X026931Y002660D01*
X026931Y002916D01*
X026833Y003153D01*
X026652Y003334D01*
X026416Y003432D01*
X026159Y003432D01*
X025923Y003334D01*
X025742Y003153D01*
X025644Y002916D01*
X025644Y002660D01*
X025742Y002423D01*
X025827Y002338D02*
X025827Y000660D01*
X026147Y000660D02*
X026147Y002149D01*
X026467Y002166D02*
X026467Y000660D01*
X026787Y000660D02*
X026787Y002378D01*
X026840Y002440D02*
X030735Y002440D01*
X030742Y002423D02*
X030923Y002242D01*
X031159Y002144D01*
X031416Y002144D01*
X031652Y002242D01*
X031833Y002423D01*
X031931Y002660D01*
X031931Y002916D01*
X031833Y003153D01*
X031652Y003334D01*
X031416Y003432D01*
X031159Y003432D01*
X030923Y003334D01*
X030742Y003153D01*
X030644Y002916D01*
X030644Y002660D01*
X030742Y002423D01*
X030947Y002232D02*
X030947Y000660D01*
X031267Y000660D02*
X031267Y002144D01*
X031587Y002215D02*
X031587Y000660D01*
X031907Y000660D02*
X031907Y002603D01*
X031931Y002760D02*
X035644Y002760D01*
X035644Y002660D02*
X035742Y002423D01*
X035923Y002242D01*
X036159Y002144D01*
X036416Y002144D01*
X036652Y002242D01*
X036833Y002423D01*
X036931Y002660D01*
X036931Y002916D01*
X036833Y003153D01*
X036652Y003334D01*
X036416Y003432D01*
X036159Y003432D01*
X035923Y003334D01*
X035742Y003153D01*
X035644Y002916D01*
X035644Y002660D01*
X035735Y002440D02*
X031840Y002440D01*
X031907Y002973D02*
X031907Y005359D01*
X031891Y005320D02*
X035683Y005320D01*
X035747Y005174D02*
X035747Y003158D01*
X035712Y003080D02*
X031863Y003080D01*
X031587Y003360D02*
X031587Y004971D01*
X031654Y005000D02*
X035921Y005000D01*
X036067Y004938D02*
X036067Y003394D01*
X036083Y003400D02*
X031492Y003400D01*
X031267Y003432D02*
X031267Y004900D01*
X030947Y004988D02*
X030947Y003344D01*
X031083Y003400D02*
X026492Y003400D01*
X026467Y003410D02*
X026467Y004922D01*
X026654Y005000D02*
X030921Y005000D01*
X030683Y005320D02*
X026891Y005320D01*
X026787Y005134D02*
X026787Y003198D01*
X026863Y003080D02*
X030712Y003080D01*
X030644Y002760D02*
X026931Y002760D01*
X026147Y003427D02*
X026147Y004905D01*
X025921Y005000D02*
X021654Y005000D01*
X021667Y005014D02*
X021667Y003318D01*
X021492Y003400D02*
X026083Y003400D01*
X025827Y003238D02*
X025827Y005094D01*
X025683Y005320D02*
X021891Y005320D01*
X021931Y005640D02*
X025644Y005640D01*
X026931Y005640D02*
X030644Y005640D01*
X031782Y005960D02*
X035793Y005960D01*
X036931Y005640D02*
X040644Y005640D01*
X040683Y005320D02*
X036891Y005320D01*
X036707Y005054D02*
X036707Y003278D01*
X036492Y003400D02*
X041083Y003400D01*
X041159Y003432D02*
X040923Y003334D01*
X040742Y003153D01*
X040644Y002916D01*
X040644Y002660D01*
X040742Y002423D01*
X040923Y002242D01*
X041159Y002144D01*
X041416Y002144D01*
X041652Y002242D01*
X041833Y002423D01*
X041931Y002660D01*
X041931Y002916D01*
X041833Y003153D01*
X041652Y003334D01*
X041416Y003432D01*
X041159Y003432D01*
X041187Y003432D02*
X041187Y004900D01*
X040921Y005000D02*
X036654Y005000D01*
X036387Y004900D02*
X036387Y003432D01*
X036863Y003080D02*
X040712Y003080D01*
X040867Y003278D02*
X040867Y005054D01*
X041507Y004938D02*
X041507Y003394D01*
X041492Y003400D02*
X045537Y003400D01*
X045537Y003080D02*
X041863Y003080D01*
X041827Y003158D02*
X041827Y005174D01*
X041891Y005320D02*
X045537Y005320D01*
X045537Y005640D02*
X041931Y005640D01*
X041827Y005914D02*
X041827Y007771D01*
X041782Y005960D02*
X045537Y005960D01*
X045537Y006280D02*
X001037Y006280D01*
X001037Y005960D02*
X005793Y005960D01*
X005987Y006116D02*
X005987Y007800D01*
X005667Y007870D02*
X005667Y005729D01*
X005644Y005640D02*
X001037Y005640D01*
X001037Y005320D02*
X005683Y005320D01*
X005667Y005359D02*
X005667Y002973D01*
X005712Y003080D02*
X001037Y003080D01*
X001037Y003400D02*
X006083Y003400D01*
X005987Y003360D02*
X005987Y004971D01*
X005921Y005000D02*
X001037Y005000D01*
X001037Y004680D02*
X045537Y004680D01*
X045537Y005000D02*
X041654Y005000D01*
X041931Y002760D02*
X045537Y002760D01*
X045537Y002440D02*
X041840Y002440D01*
X041827Y002418D02*
X041827Y000660D01*
X041507Y000660D02*
X041507Y002182D01*
X041187Y002144D02*
X041187Y000660D01*
X040867Y000660D02*
X040867Y002298D01*
X040735Y002440D02*
X036840Y002440D01*
X036707Y002298D02*
X036707Y000660D01*
X036387Y000660D02*
X036387Y002144D01*
X036067Y002182D02*
X036067Y000660D01*
X035747Y000660D02*
X035747Y002418D01*
X036931Y002760D02*
X040644Y002760D01*
X045537Y003720D02*
X001037Y003720D01*
X001037Y004040D02*
X045537Y004040D01*
X045537Y004360D02*
X001037Y004360D01*
X001037Y002760D02*
X005644Y002760D01*
X005987Y002215D02*
X005987Y000660D01*
X006307Y000660D02*
X006307Y002144D01*
X006931Y002760D02*
X010644Y002760D01*
X010712Y003080D02*
X006863Y003080D01*
X006627Y003344D02*
X006627Y004988D01*
X006654Y005000D02*
X010921Y005000D01*
X010787Y005134D02*
X010787Y003198D01*
X011083Y003400D02*
X006492Y003400D01*
X006307Y003432D02*
X006307Y004900D01*
X006891Y005320D02*
X010683Y005320D01*
X010644Y005640D02*
X006931Y005640D01*
X006782Y005960D02*
X010793Y005960D01*
X010787Y005954D02*
X010787Y007870D01*
X009827Y008450D02*
X009827Y011460D01*
X009887Y011400D02*
X009281Y011400D01*
X009050Y010770D02*
X009050Y010770D01*
X007907Y010505D02*
X007907Y008450D01*
X007587Y008450D02*
X007587Y010718D01*
X007538Y010760D02*
X007167Y010760D01*
X006947Y011014D02*
X006947Y012620D01*
X007267Y012620D02*
X007267Y008300D01*
X007077Y008520D02*
X008641Y008520D01*
X007790Y010548D02*
X007790Y010548D01*
X007525Y010770D02*
X007525Y010770D01*
X007351Y011080D02*
X005094Y011080D01*
X005027Y010995D02*
X005027Y008450D01*
X004707Y008450D02*
X004707Y010788D01*
X004387Y010779D02*
X004387Y008450D01*
X004067Y008450D02*
X004067Y010975D01*
X003981Y011080D02*
X003577Y011080D01*
X003577Y011400D02*
X003897Y011400D01*
X003973Y011720D02*
X003577Y011720D01*
X003578Y012040D02*
X004002Y012040D01*
X004067Y011975D02*
X004067Y011845D01*
X003747Y012210D02*
X003747Y008549D01*
X003641Y008520D02*
X001037Y008520D01*
X001037Y008200D02*
X003399Y008200D01*
X003427Y008307D02*
X003427Y009797D01*
X002899Y010120D02*
X001037Y010120D01*
X001037Y010440D02*
X002997Y010440D01*
X002997Y010760D02*
X001037Y010760D01*
X001037Y011080D02*
X002997Y011080D01*
X002997Y011400D02*
X001037Y011400D01*
X001037Y011720D02*
X002997Y011720D01*
X002997Y012040D02*
X001037Y012040D01*
X001037Y009160D02*
X006497Y009160D01*
X006497Y008840D02*
X001037Y008840D01*
X001037Y007240D02*
X045537Y007240D01*
X045537Y006920D02*
X001037Y006920D01*
X001037Y006600D02*
X045537Y006600D01*
X043126Y016840D02*
X039577Y016840D01*
X032227Y007440D02*
X032227Y000660D01*
X025644Y002760D02*
X021931Y002760D01*
X021863Y003080D02*
X025712Y003080D01*
X022307Y000660D02*
X022307Y007520D01*
X021987Y007370D02*
X021987Y000660D01*
X020644Y002760D02*
X016931Y002760D01*
X016931Y002660D02*
X016833Y002423D01*
X016652Y002242D01*
X016416Y002144D01*
X016159Y002144D01*
X015923Y002242D01*
X015742Y002423D01*
X015644Y002660D01*
X015644Y002916D01*
X015742Y003153D01*
X015923Y003334D01*
X016159Y003432D01*
X016416Y003432D01*
X016652Y003334D01*
X016833Y003153D01*
X016931Y002916D01*
X016931Y002660D01*
X016867Y003070D02*
X016867Y005262D01*
X016891Y005320D02*
X020683Y005320D01*
X020707Y005262D02*
X020707Y003070D01*
X020712Y003080D02*
X016863Y003080D01*
X016547Y003377D02*
X016547Y004955D01*
X016654Y005000D02*
X020921Y005000D01*
X021027Y004955D02*
X021027Y003377D01*
X021083Y003400D02*
X016492Y003400D01*
X016227Y003432D02*
X016227Y004900D01*
X015921Y005000D02*
X011654Y005000D01*
X011747Y005094D02*
X011747Y003238D01*
X011863Y003080D02*
X015712Y003080D01*
X015907Y003318D02*
X015907Y005014D01*
X015683Y005320D02*
X011891Y005320D01*
X011931Y005640D02*
X015644Y005640D01*
X016931Y005640D02*
X020644Y005640D01*
X021347Y004900D02*
X021347Y003432D01*
X016547Y002199D02*
X016547Y000660D01*
X016227Y000660D02*
X016227Y002144D01*
X015907Y002258D02*
X015907Y000660D01*
X015735Y002440D02*
X011840Y002440D01*
X011747Y002338D02*
X011747Y000660D01*
X011427Y000660D02*
X011427Y002149D01*
X011107Y002166D02*
X011107Y000660D01*
X011931Y002760D02*
X015644Y002760D01*
X016083Y003400D02*
X011492Y003400D01*
X011427Y003427D02*
X011427Y004905D01*
X011107Y004922D02*
X011107Y003410D01*
X006307Y008300D02*
X006307Y011630D01*
X005987Y011521D02*
X005987Y008450D01*
X006497Y008520D02*
X003934Y008520D01*
X007790Y012272D02*
X007790Y012272D01*
X019747Y016049D02*
X019747Y016600D01*
X021577Y017160D02*
X022127Y017160D01*
X023077Y020680D02*
X023337Y020680D01*
X023491Y021000D02*
X023077Y021000D01*
X024084Y021000D02*
X025491Y021000D01*
X025217Y021320D02*
X024358Y021320D01*
X024227Y021190D02*
X024227Y020774D01*
X025187Y021350D02*
X025187Y019700D01*
X025507Y019700D02*
X025507Y020304D01*
X025507Y019120D02*
X025507Y019006D01*
X025346Y018760D02*
X025229Y018760D01*
X025187Y018860D02*
X025187Y019120D01*
X025237Y018440D02*
X025337Y018440D01*
X025337Y018120D02*
X025237Y018120D01*
X025187Y017960D02*
X025187Y017950D01*
X021858Y022280D02*
X021717Y022280D01*
X021737Y022600D02*
X021837Y022600D01*
X021837Y022920D02*
X021737Y022920D01*
X021667Y023156D02*
X021667Y023745D01*
X021347Y023745D02*
X021347Y023350D01*
X021584Y023240D02*
X021991Y023240D01*
X021987Y023236D02*
X021987Y023745D01*
X024227Y023745D02*
X024227Y023350D01*
X015497Y027720D02*
X014695Y027720D01*
X013987Y027972D02*
X013987Y034660D01*
X015123Y030656D02*
X015123Y030656D01*
X041402Y033480D02*
X042240Y033480D01*
X042290Y033522D02*
X042290Y033522D01*
X042147Y033402D02*
X042147Y034660D01*
X042467Y034660D02*
X042467Y033586D01*
X042787Y033640D02*
X042787Y034660D01*
X043783Y032660D02*
X043783Y032660D01*
X043723Y032320D02*
X043723Y032320D01*
X042290Y031798D02*
X042290Y031798D01*
X042192Y031880D02*
X041659Y031880D01*
X041827Y031712D02*
X041827Y032461D01*
X042300Y031240D02*
X045537Y031240D01*
D23*
X041912Y031160D03*
X041037Y031160D03*
X037787Y026910D03*
X036537Y027410D03*
X036287Y025910D03*
X034787Y028223D03*
X034475Y029254D03*
X035537Y030910D03*
X036756Y030879D03*
X032537Y026410D03*
X031787Y026410D03*
X031037Y026410D03*
X030537Y027660D03*
X029787Y027660D03*
X029037Y027660D03*
X027225Y028129D03*
X027287Y028910D03*
X026287Y028410D03*
X026287Y027660D03*
X024787Y027160D03*
X024912Y029160D03*
X024787Y031035D03*
X022037Y030660D03*
X018037Y032160D03*
X017787Y031160D03*
X014287Y027723D03*
X014537Y025910D03*
X014037Y022160D03*
X015412Y021910D03*
X014037Y019910D03*
X015412Y019660D03*
X016787Y019160D03*
X016287Y016035D03*
X017787Y012410D03*
X019287Y012410D03*
X016787Y010410D03*
X015787Y011910D03*
X016787Y008160D03*
X018787Y008160D03*
X018787Y007410D03*
X021787Y008160D03*
X023787Y008160D03*
X026787Y008160D03*
X028787Y008160D03*
X031787Y008160D03*
X033787Y008160D03*
X036787Y008160D03*
X038787Y008160D03*
X041787Y008160D03*
X033537Y019910D03*
X032037Y021910D03*
X031037Y023535D03*
X030287Y023660D03*
X030287Y022910D03*
X031537Y024660D03*
X031100Y025098D03*
X028537Y024660D03*
X026787Y021785D03*
X025787Y019410D03*
X023287Y019410D03*
X022787Y021785D03*
X020787Y021910D03*
X021787Y024910D03*
X018787Y024910D03*
X013287Y017410D03*
X012412Y019723D03*
X010787Y023660D03*
X007037Y025410D03*
X007631Y017348D03*
X008037Y015910D03*
X007037Y015910D03*
X006037Y011910D03*
X006787Y010660D03*
X006787Y008160D03*
X008787Y008160D03*
X011787Y008160D03*
X013787Y008160D03*
X011787Y010660D03*
X003787Y008160D03*
X003287Y010160D03*
X019787Y015660D03*
X022287Y016160D03*
X023287Y016160D03*
X025287Y016160D03*
X028037Y014410D03*
X028037Y013785D03*
X027537Y012660D03*
X028037Y012160D03*
X028787Y016660D03*
X023787Y011910D03*
X032319Y028129D03*
X032037Y029910D03*
X031537Y030410D03*
X030537Y030910D03*
X041933Y022014D03*
D24*
X041287Y022660D01*
X038537Y022660D01*
X037144Y024054D01*
X037144Y030241D01*
X036756Y029629D02*
X036537Y029410D01*
X036537Y027410D01*
X035412Y027285D02*
X035412Y028316D01*
X034475Y029254D01*
X033694Y029254D01*
X033287Y029660D01*
X033287Y030410D01*
X033787Y030910D01*
X035537Y030910D01*
X035537Y031910D02*
X035537Y032910D01*
X036537Y032910D02*
X036537Y031910D01*
X037912Y031285D02*
X038537Y031910D01*
X037912Y031285D02*
X033662Y031285D01*
X032912Y030535D01*
X032912Y028723D01*
X032319Y028129D01*
X027225Y028129D01*
X027287Y028910D02*
X032287Y028910D01*
X032537Y029160D01*
X032537Y030910D01*
X033537Y031910D01*
X032537Y031910D02*
X032037Y031410D01*
X032037Y029910D01*
X030537Y030910D02*
X029537Y030910D01*
X028537Y031910D01*
X026537Y031910D02*
X025975Y032473D01*
X025975Y033098D01*
X026537Y033660D01*
X032787Y033660D01*
X033537Y032910D01*
X034287Y033660D01*
X038037Y029410D02*
X037787Y029160D01*
X037787Y026910D01*
X038037Y029410D02*
X041537Y029410D01*
X041787Y029660D01*
X041787Y030410D01*
X041037Y031160D01*
X040411Y030910D02*
X041081Y030241D01*
X040411Y030910D02*
X039537Y030910D01*
X039037Y031410D01*
X035412Y027285D02*
X032162Y024035D01*
X019694Y024035D01*
X018319Y022660D01*
X018287Y022660D01*
X018287Y018660D01*
X017787Y018160D01*
X017787Y013410D01*
X017287Y012910D01*
X017287Y011160D01*
X016787Y010410D02*
X012787Y010410D01*
X012037Y011160D01*
X010537Y011160D01*
X008787Y012910D01*
X006787Y012910D01*
X006037Y011910D01*
X006787Y010660D02*
X006787Y008160D01*
X006537Y007660D02*
X007037Y007660D01*
X007537Y008160D01*
X008787Y008160D01*
X011037Y008160D01*
X011537Y007660D01*
X012037Y007660D01*
X012537Y008160D01*
X013787Y008160D01*
X016037Y008160D01*
X016537Y007660D01*
X017037Y007660D01*
X017537Y008160D01*
X018787Y008160D01*
X018787Y017160D01*
X019287Y017660D01*
X019819Y017660D01*
X019287Y018910D02*
X018287Y017910D01*
X018287Y011160D01*
X019287Y011160D02*
X019787Y011660D01*
X019787Y015660D01*
X020787Y016660D01*
X020787Y018660D01*
X020287Y019160D01*
X020287Y022660D01*
X019287Y022660D02*
X019287Y018910D01*
X021287Y016504D02*
X020287Y015504D01*
X020287Y011160D01*
X021287Y011160D02*
X021287Y015910D01*
X023037Y017660D01*
X026037Y017660D01*
X026287Y017910D01*
X026287Y022660D01*
X026787Y021785D02*
X026787Y018410D01*
X027287Y017660D02*
X026787Y017160D01*
X023287Y017160D01*
X022287Y016160D01*
X022287Y011160D01*
X023287Y011160D02*
X023287Y016160D01*
X023787Y016660D01*
X027287Y016660D01*
X028287Y017660D01*
X028287Y022660D01*
X027787Y023410D02*
X028037Y023660D01*
X030287Y023660D01*
X032037Y021910D01*
X032037Y021160D02*
X032037Y011160D01*
X031037Y011160D02*
X031037Y016160D01*
X028787Y018410D01*
X027787Y018410D02*
X027787Y023410D01*
X027287Y022660D02*
X027287Y017660D01*
X028287Y016160D02*
X028787Y016660D01*
X028287Y016160D02*
X025287Y016160D01*
X024537Y016160D01*
X024287Y015910D01*
X024287Y012410D01*
X023787Y011910D01*
X024787Y011910D02*
X021787Y008910D01*
X021787Y008160D01*
X021537Y007660D02*
X022037Y007660D01*
X022537Y008160D01*
X023787Y008160D01*
X026037Y008160D01*
X026537Y007660D01*
X027037Y007660D01*
X027537Y008160D01*
X028787Y008160D01*
X031037Y008160D01*
X031537Y007660D01*
X032037Y007660D01*
X032537Y008160D01*
X033787Y008160D01*
X033037Y008160D01*
X033787Y008160D02*
X036037Y008160D01*
X036537Y007660D01*
X037037Y007660D01*
X037537Y008160D01*
X038787Y008160D01*
X040287Y009660D02*
X041787Y008160D01*
X040287Y009660D02*
X030037Y009660D01*
X029537Y010160D01*
X029537Y014660D01*
X028787Y015410D01*
X028537Y014660D02*
X028537Y009660D01*
X029037Y009160D01*
X035787Y009160D01*
X036787Y008160D01*
X031787Y008160D02*
X031287Y008660D01*
X028037Y008660D01*
X027537Y009160D01*
X027537Y011660D01*
X026787Y012410D01*
X026787Y015410D01*
X025787Y015410D02*
X025787Y012410D01*
X026537Y011660D01*
X026537Y008410D01*
X026787Y008160D01*
X028037Y012160D02*
X028037Y013785D01*
X027537Y013910D02*
X028037Y014410D01*
X028537Y014660D02*
X027787Y015410D01*
X027537Y013910D02*
X027537Y012660D01*
X024787Y011910D02*
X024787Y015410D01*
X022787Y019160D02*
X022787Y021785D01*
X022287Y022660D02*
X022287Y019910D01*
X021787Y019410D01*
X021787Y018410D01*
X021287Y016504D02*
X021287Y022660D01*
X021787Y024910D02*
X018787Y024910D01*
X017537Y024910D01*
X016787Y024160D01*
X016787Y022160D01*
X016537Y021910D01*
X015412Y021910D01*
X015787Y022285D01*
X015787Y024660D01*
X014537Y025910D01*
X009537Y025910D01*
X009433Y026014D01*
X009079Y026014D01*
X007142Y026014D01*
X006037Y024910D01*
X004537Y024910D01*
X004287Y024660D01*
X002787Y024660D01*
X001537Y023410D01*
X001537Y018660D01*
X004537Y015660D01*
X004537Y013410D01*
X006287Y015160D01*
X007287Y015160D01*
X008037Y015910D01*
X007037Y015910D02*
X008037Y016910D01*
X008037Y018160D01*
X010287Y020410D01*
X010287Y023160D01*
X010787Y023660D01*
X009787Y024160D02*
X012787Y024160D01*
X013287Y023660D01*
X013287Y017410D01*
X012412Y016410D02*
X012787Y016035D01*
X016287Y016035D01*
X016787Y013910D02*
X016787Y019160D01*
X015412Y019660D02*
X015412Y021910D01*
X014537Y021910D02*
X014537Y024410D01*
X014037Y024910D01*
X007537Y024910D01*
X007037Y025410D01*
X006537Y024660D02*
X006287Y024410D01*
X005037Y024410D01*
X004287Y023660D01*
X003975Y023160D02*
X003287Y023160D01*
X002787Y022660D01*
X002037Y021910D01*
X002037Y021410D01*
X002787Y020660D01*
X002037Y019910D01*
X002037Y019410D01*
X002787Y018660D01*
X003537Y017910D01*
X005037Y017910D01*
X005787Y018660D01*
X007537Y018660D01*
X009037Y020160D01*
X009037Y021035D01*
X009662Y021660D01*
X009787Y024160D02*
X007287Y024160D01*
X006787Y023660D01*
X006787Y020660D01*
X006287Y020160D01*
X006069Y020160D01*
X005787Y020660D02*
X005037Y021410D01*
X005037Y021910D01*
X005787Y022660D01*
X005287Y023160D01*
X004600Y023160D01*
X004287Y022660D02*
X003537Y021910D01*
X003537Y021410D01*
X004287Y020660D01*
X003537Y019910D01*
X003537Y019410D01*
X004287Y018660D01*
X004287Y019660D02*
X004787Y020160D01*
X005506Y020160D01*
X005787Y018660D02*
X006319Y018660D01*
X007631Y017348D01*
X004537Y013410D02*
X003287Y012160D01*
X003287Y010160D01*
X003787Y008160D02*
X006037Y008160D01*
X006537Y007660D01*
X011787Y008160D02*
X011787Y010660D01*
X015787Y011910D02*
X015787Y012910D01*
X016787Y013910D01*
X017287Y013660D02*
X017287Y022660D01*
X018912Y024285D01*
X031787Y024285D01*
X034787Y027285D01*
X034787Y028223D01*
X032537Y026410D02*
X032037Y025910D01*
X030787Y025910D01*
X029037Y027660D01*
X029787Y027660D02*
X031037Y026410D01*
X031787Y026410D02*
X030537Y027660D01*
X029537Y026410D02*
X027537Y026410D01*
X026787Y027160D01*
X026787Y030660D01*
X025537Y031910D01*
X025537Y033035D01*
X025037Y033535D01*
X022162Y033535D01*
X019787Y031160D01*
X017787Y031160D01*
X017287Y030160D02*
X017287Y025660D01*
X016287Y025660D02*
X016287Y030160D01*
X015787Y030410D02*
X016037Y030660D01*
X022037Y030660D01*
X022787Y030410D02*
X022787Y027910D01*
X023037Y027660D01*
X024037Y027660D01*
X024287Y027660D01*
X025037Y027660D01*
X025287Y027410D01*
X025287Y025660D01*
X024287Y025660D02*
X023537Y026410D01*
X022037Y026410D01*
X021787Y026160D01*
X021787Y024910D01*
X021287Y025660D02*
X021287Y030160D01*
X020787Y029660D02*
X020787Y026160D01*
X020287Y025660D01*
X019287Y025660D02*
X019287Y030160D01*
X018287Y030160D02*
X018287Y025660D01*
X016287Y024660D02*
X015787Y025160D01*
X015787Y030410D01*
X015287Y030410D02*
X015287Y028723D01*
X014287Y027723D01*
X015287Y030410D02*
X016537Y031660D01*
X019537Y031660D01*
X021662Y033785D01*
X025287Y033785D01*
X025975Y033098D01*
X024037Y031160D02*
X024787Y030410D01*
X024787Y029910D01*
X024287Y029410D01*
X024287Y028910D01*
X027287Y025910D01*
X027287Y025660D01*
X028537Y024660D02*
X024287Y024660D01*
X023287Y025660D01*
X023037Y027160D02*
X022537Y027660D01*
X022537Y031910D01*
X023537Y031910D02*
X023537Y031160D01*
X022787Y030410D01*
X020787Y029660D02*
X020287Y030160D01*
X023037Y027160D02*
X024787Y027160D01*
X026287Y028410D02*
X026287Y030160D01*
X029537Y026410D02*
X030850Y025098D01*
X031100Y025098D01*
X031537Y024660D02*
X030287Y024660D01*
X029287Y025660D01*
X030287Y022910D02*
X032037Y021160D01*
X033037Y021660D02*
X036887Y017810D01*
X036887Y014660D01*
X039287Y014660D02*
X039287Y019910D01*
X025787Y019410D02*
X023287Y019410D01*
X023787Y020660D02*
X023787Y021160D01*
X024287Y021660D01*
X024287Y022660D01*
X025287Y022660D02*
X025287Y021660D01*
X025787Y021160D01*
X025787Y020660D01*
X017787Y012410D02*
X017787Y009160D01*
X016787Y008160D01*
X018787Y008160D02*
X021037Y008160D01*
X021537Y007660D01*
X016287Y012660D02*
X017287Y013660D01*
X016287Y012660D02*
X016287Y011160D01*
X012412Y016410D02*
X012412Y019723D01*
X014037Y019910D02*
X014037Y021410D01*
X014537Y021910D01*
X014037Y022160D02*
X014037Y024160D01*
X013537Y024660D01*
X006537Y024660D01*
X005787Y025410D02*
X004287Y025410D01*
X016287Y024660D02*
X016287Y022660D01*
D25*
X014037Y024160D03*
X009787Y024160D03*
X009079Y026014D03*
X005787Y025410D03*
X004287Y025410D03*
X004287Y024660D03*
X009037Y020160D03*
X009662Y021660D03*
X033037Y021660D03*
D26*
X036756Y029629D02*
X036756Y030879D01*
X006069Y020160D02*
X005506Y020160D01*
X004600Y023160D02*
X003975Y023160D01*
D27*
X034287Y033660D02*
X038537Y033660D01*
X039037Y033160D01*
X039037Y031410D01*
D28*
X039537Y031910D02*
X039537Y032910D01*
X040287Y033660D01*
X040787Y033660D01*
X041100Y033348D01*
X041100Y031973D01*
X041912Y031160D01*
M02*
