G75*
G70*
%OFA0B0*%
%FSLAX24Y24*%
%IPPOS*%
%LPD*%
%AMOC8*
5,1,8,0,0,1.08239X$1,22.5*
%
%ADD10C,0.0480*%
%ADD11R,0.0700X0.0700*%
%ADD12OC8,0.0700*%
%ADD13C,0.0760*%
%ADD14C,0.0860*%
%ADD15OC8,0.0600*%
%ADD16OC8,0.0500*%
%ADD17C,0.0460*%
%ADD18C,0.0787*%
%ADD19C,0.0530*%
%ADD20C,0.0100*%
%ADD21C,0.0357*%
%ADD22C,0.0160*%
%ADD23C,0.0080*%
%ADD24C,0.0120*%
%ADD25C,0.0240*%
D10*
X021670Y015170D02*
X021670Y015650D01*
X022670Y015650D02*
X022670Y015170D01*
X023670Y015170D02*
X023670Y015650D01*
X024670Y015650D02*
X024670Y015170D01*
X025670Y015170D02*
X025670Y015650D01*
X026670Y015650D02*
X026670Y015170D01*
X027670Y015170D02*
X027670Y015650D01*
X028670Y015650D02*
X028670Y015170D01*
X028670Y018170D02*
X028670Y018650D01*
X027670Y018650D02*
X027670Y018170D01*
X026670Y018170D02*
X026670Y018650D01*
X025670Y018650D02*
X025670Y018170D01*
X024670Y018170D02*
X024670Y018650D01*
X023670Y018650D02*
X023670Y018170D01*
X022670Y018170D02*
X022670Y018650D01*
X021670Y018650D02*
X021670Y018170D01*
X021170Y022420D02*
X021170Y022900D01*
X020170Y022900D02*
X020170Y022420D01*
X019170Y022420D02*
X019170Y022900D01*
X018170Y022900D02*
X018170Y022420D01*
X017170Y022420D02*
X017170Y022900D01*
X016170Y022900D02*
X016170Y022420D01*
X016170Y025420D02*
X016170Y025900D01*
X017170Y025900D02*
X017170Y025420D01*
X018170Y025420D02*
X018170Y025900D01*
X019170Y025900D02*
X019170Y025420D01*
X020170Y025420D02*
X020170Y025900D01*
X021170Y025900D02*
X021170Y025420D01*
X022170Y025420D02*
X022170Y025900D01*
X023170Y025900D02*
X023170Y025420D01*
X024170Y025420D02*
X024170Y025900D01*
X025170Y025900D02*
X025170Y025420D01*
X026170Y025420D02*
X026170Y025900D01*
X027170Y025900D02*
X027170Y025420D01*
X028170Y025420D02*
X028170Y025900D01*
X029170Y025900D02*
X029170Y025420D01*
X029170Y022900D02*
X029170Y022420D01*
X028170Y022420D02*
X028170Y022900D01*
X027170Y022900D02*
X027170Y022420D01*
X026170Y022420D02*
X026170Y022900D01*
X025170Y022900D02*
X025170Y022420D01*
X024170Y022420D02*
X024170Y022900D01*
X023170Y022900D02*
X023170Y022420D01*
X022170Y022420D02*
X022170Y022900D01*
D11*
X022420Y031910D03*
D12*
X023420Y031910D03*
X024420Y031910D03*
X024420Y032910D03*
X023420Y032910D03*
X022420Y032910D03*
D13*
X005670Y023660D03*
X005670Y022660D03*
X005670Y021660D03*
X005670Y020660D03*
X005670Y019660D03*
X005670Y018660D03*
X004170Y018660D03*
X004170Y019660D03*
X004170Y020660D03*
X004170Y021660D03*
X004170Y022660D03*
X004170Y023660D03*
X002670Y023660D03*
X002670Y022660D03*
X002670Y021660D03*
X002670Y020660D03*
X002670Y019660D03*
X002670Y018660D03*
D14*
X004420Y013410D03*
X004420Y012410D03*
X004420Y011410D03*
D15*
X026420Y031910D03*
X027420Y031910D03*
X028420Y031910D03*
X029420Y031910D03*
X030420Y031910D03*
X031420Y031910D03*
X032420Y031910D03*
X032420Y032910D03*
X031420Y032910D03*
X030420Y032910D03*
X029420Y032910D03*
X028420Y032910D03*
X027420Y032910D03*
X026420Y032910D03*
X033420Y032910D03*
X033420Y031910D03*
X035420Y031910D03*
X036420Y031910D03*
X037420Y031910D03*
X038420Y031910D03*
X038420Y032910D03*
X037420Y032910D03*
X036420Y032910D03*
X035420Y032910D03*
X039420Y032910D03*
X040420Y032910D03*
X040420Y031910D03*
X039420Y031910D03*
D16*
X028170Y030160D03*
X027170Y030160D03*
X026170Y030160D03*
X025170Y030160D03*
X024170Y030160D03*
X023170Y030160D03*
X021170Y030160D03*
X020170Y030160D03*
X019170Y030160D03*
X018170Y030160D03*
X017170Y030160D03*
X016170Y030160D03*
X016170Y011160D03*
X017170Y011160D03*
X018170Y011160D03*
X019170Y011160D03*
X020170Y011160D03*
X021170Y011160D03*
X022170Y011160D03*
X023170Y011160D03*
X024920Y011160D03*
X025920Y011160D03*
X026920Y011160D03*
X027920Y011160D03*
X028920Y011160D03*
X029920Y011160D03*
X030920Y011160D03*
X031920Y011160D03*
D17*
X019931Y016960D02*
X019471Y016960D01*
X019471Y017660D02*
X019931Y017660D01*
X019931Y018360D02*
X019471Y018360D01*
D18*
X039670Y015304D02*
X039670Y014516D01*
X040476Y013010D02*
X041264Y013010D01*
X042070Y014516D02*
X042070Y015304D01*
D19*
X040963Y021579D03*
X040176Y021579D03*
X039389Y021579D03*
X038601Y021579D03*
X037814Y021579D03*
X037026Y021579D03*
X036239Y021579D03*
X035451Y021579D03*
X034664Y021579D03*
X033877Y021579D03*
X033877Y030241D03*
X034664Y030241D03*
X035451Y030241D03*
X036239Y030241D03*
X037026Y030241D03*
X037814Y030241D03*
X038601Y030241D03*
X039389Y030241D03*
X040176Y030241D03*
X040963Y030241D03*
D20*
X001015Y001432D02*
X001178Y001149D01*
X001409Y000918D01*
X001692Y000755D01*
X001692Y000755D01*
X002007Y000671D01*
X002170Y000660D01*
X044170Y000660D01*
X044333Y000671D01*
X044648Y000755D01*
X044931Y000918D01*
X045162Y001149D01*
X045325Y001432D01*
X045409Y001747D01*
X045420Y001910D01*
X045420Y012160D01*
X045414Y012238D01*
X045366Y012387D01*
X045274Y012514D01*
X045147Y012606D01*
X044998Y012654D01*
X044920Y012660D01*
X043762Y012660D01*
X043460Y012758D01*
X043460Y012758D01*
X043204Y012944D01*
X043204Y012944D01*
X043204Y012944D01*
X043018Y013200D01*
X043018Y013200D01*
X042920Y013502D01*
X042920Y016568D01*
X043018Y016870D01*
X043018Y016870D01*
X043204Y017126D01*
X043204Y017126D01*
X043204Y017126D01*
X043460Y017312D01*
X043460Y017312D01*
X043762Y017410D01*
X044920Y017410D01*
X044998Y017416D01*
X045147Y017464D01*
X045274Y017556D01*
X045366Y017683D01*
X045414Y017832D01*
X045420Y017910D01*
X045420Y019160D01*
X040210Y019160D01*
X040210Y015578D01*
X040274Y015424D01*
X040274Y014424D01*
X041006Y015156D01*
X041112Y015200D01*
X041466Y015200D01*
X041466Y015424D01*
X041558Y015646D01*
X041728Y015815D01*
X041950Y015907D01*
X042190Y015907D01*
X042412Y015815D01*
X042582Y015646D01*
X042674Y015424D01*
X042674Y014396D01*
X042582Y014174D01*
X042412Y014005D01*
X042190Y013913D01*
X041950Y013913D01*
X041728Y014005D01*
X041558Y014174D01*
X041466Y014396D01*
X041466Y014620D01*
X041290Y014620D01*
X040233Y013563D01*
X040356Y013614D01*
X041384Y013614D01*
X041606Y013522D01*
X041775Y013352D01*
X041867Y013130D01*
X041867Y012890D01*
X041775Y012668D01*
X041606Y012498D01*
X041384Y012406D01*
X040356Y012406D01*
X040134Y012498D01*
X039965Y012668D01*
X039873Y012890D01*
X039873Y013130D01*
X039965Y013352D01*
X039986Y013373D01*
X039978Y013370D01*
X038862Y013370D01*
X038756Y013414D01*
X038506Y013664D01*
X038424Y013746D01*
X038380Y013852D01*
X038380Y019160D01*
X032210Y019160D01*
X032210Y011521D01*
X032380Y011351D01*
X032380Y010969D01*
X032111Y010700D01*
X031729Y010700D01*
X031460Y010969D01*
X031460Y011351D01*
X031630Y011521D01*
X031630Y019160D01*
X028460Y019160D01*
X028460Y019050D01*
X028580Y019100D01*
X028760Y019100D01*
X028925Y019031D01*
X029051Y018905D01*
X029120Y018740D01*
X029120Y018370D01*
X031166Y016324D01*
X031210Y016218D01*
X031210Y011521D01*
X031380Y011351D01*
X031380Y010969D01*
X031111Y010700D01*
X030729Y010700D01*
X030460Y010969D01*
X030460Y011351D01*
X030630Y011521D01*
X030630Y016040D01*
X028894Y017776D01*
X028760Y017720D01*
X028580Y017720D01*
X028460Y017770D01*
X028460Y017602D01*
X028416Y017496D01*
X027370Y016450D01*
X028050Y016450D01*
X028281Y016681D01*
X028281Y016737D01*
X028340Y016880D01*
X028450Y016990D01*
X028593Y017049D01*
X028747Y017049D01*
X028890Y016990D01*
X029000Y016880D01*
X029059Y016737D01*
X029059Y016583D01*
X029000Y016440D01*
X028890Y016330D01*
X028747Y016271D01*
X028691Y016271D01*
X028477Y016057D01*
X028580Y016100D01*
X028760Y016100D01*
X028925Y016031D01*
X029051Y015905D01*
X029120Y015740D01*
X029120Y015370D01*
X029584Y014906D01*
X029666Y014824D01*
X029710Y014718D01*
X029710Y011601D01*
X029729Y011620D01*
X030111Y011620D01*
X030380Y011351D01*
X030380Y010969D01*
X030111Y010700D01*
X029729Y010700D01*
X029710Y010719D01*
X029710Y010280D01*
X030040Y009950D01*
X040228Y009950D01*
X040334Y009906D01*
X041691Y008549D01*
X041747Y008549D01*
X041890Y008490D01*
X042000Y008380D01*
X042059Y008237D01*
X042059Y008083D01*
X042000Y007940D01*
X041890Y007830D01*
X041747Y007771D01*
X041593Y007771D01*
X041450Y007830D01*
X041340Y007940D01*
X041281Y008083D01*
X041281Y008139D01*
X040050Y009370D01*
X035870Y009370D01*
X036691Y008549D01*
X036747Y008549D01*
X036890Y008490D01*
X037000Y008380D01*
X037059Y008237D01*
X037059Y008209D01*
X037256Y008406D01*
X037362Y008450D01*
X038410Y008450D01*
X038450Y008490D01*
X038593Y008549D01*
X038747Y008549D01*
X038890Y008490D01*
X039000Y008380D01*
X039059Y008237D01*
X039059Y008083D01*
X039000Y007940D01*
X038890Y007830D01*
X038747Y007771D01*
X038593Y007771D01*
X038450Y007830D01*
X038410Y007870D01*
X037540Y007870D01*
X037084Y007414D01*
X036978Y007370D01*
X036362Y007370D01*
X036256Y007414D01*
X035800Y007870D01*
X033930Y007870D01*
X033890Y007830D01*
X033747Y007771D01*
X033593Y007771D01*
X033450Y007830D01*
X033410Y007870D01*
X032540Y007870D01*
X032166Y007496D01*
X032084Y007414D01*
X031978Y007370D01*
X031362Y007370D01*
X031256Y007414D01*
X030800Y007870D01*
X028930Y007870D01*
X028890Y007830D01*
X028747Y007771D01*
X028593Y007771D01*
X028450Y007830D01*
X028410Y007870D01*
X027540Y007870D01*
X027084Y007414D01*
X026978Y007370D01*
X026362Y007370D01*
X026256Y007414D01*
X026174Y007496D01*
X025800Y007870D01*
X023930Y007870D01*
X023890Y007830D01*
X023747Y007771D01*
X023593Y007771D01*
X023450Y007830D01*
X023410Y007870D01*
X022540Y007870D01*
X022084Y007414D01*
X021978Y007370D01*
X021362Y007370D01*
X021256Y007414D01*
X020800Y007870D01*
X018930Y007870D01*
X018890Y007830D01*
X018747Y007771D01*
X018593Y007771D01*
X018450Y007830D01*
X018410Y007870D01*
X017540Y007870D01*
X017084Y007414D01*
X016978Y007370D01*
X016362Y007370D01*
X016256Y007414D01*
X016174Y007496D01*
X015800Y007870D01*
X013930Y007870D01*
X013890Y007830D01*
X013747Y007771D01*
X013593Y007771D01*
X013450Y007830D01*
X013410Y007870D01*
X012540Y007870D01*
X012084Y007414D01*
X011978Y007370D01*
X011362Y007370D01*
X011256Y007414D01*
X011174Y007496D01*
X010800Y007870D01*
X008930Y007870D01*
X008890Y007830D01*
X008747Y007771D01*
X008593Y007771D01*
X008450Y007830D01*
X008410Y007870D01*
X007540Y007870D01*
X007084Y007414D01*
X006978Y007370D01*
X006362Y007370D01*
X006256Y007414D01*
X006174Y007496D01*
X005800Y007870D01*
X003930Y007870D01*
X003890Y007830D01*
X003747Y007771D01*
X003593Y007771D01*
X003450Y007830D01*
X003340Y007940D01*
X003281Y008083D01*
X003281Y008237D01*
X003340Y008380D01*
X003450Y008490D01*
X003593Y008549D01*
X003747Y008549D01*
X003890Y008490D01*
X003930Y008450D01*
X005978Y008450D01*
X006084Y008406D01*
X006281Y008209D01*
X006281Y008237D01*
X006340Y008380D01*
X006380Y008420D01*
X006380Y010400D01*
X006340Y010440D01*
X003460Y010440D01*
X003460Y010420D02*
X003460Y012040D01*
X003885Y012040D01*
X003877Y012047D02*
X004015Y011910D01*
X003877Y011773D01*
X003780Y011537D01*
X003780Y011283D01*
X003877Y011047D01*
X004057Y010867D01*
X004293Y010770D01*
X004547Y010770D01*
X004783Y010867D01*
X004963Y011047D01*
X005060Y011283D01*
X005060Y011537D01*
X004963Y011773D01*
X004825Y011910D01*
X004963Y012047D01*
X005060Y012283D01*
X005060Y012537D01*
X004963Y012773D01*
X004825Y012910D01*
X004963Y013047D01*
X005060Y013283D01*
X005060Y013537D01*
X005030Y013610D01*
X006080Y014660D01*
X016380Y014660D01*
X016380Y014030D01*
X015424Y013074D01*
X015380Y012968D01*
X015380Y012170D01*
X015340Y012130D01*
X015281Y011987D01*
X015281Y011833D01*
X015340Y011690D01*
X015450Y011580D01*
X015593Y011521D01*
X015747Y011521D01*
X015880Y011576D01*
X015880Y011521D01*
X015710Y011351D01*
X015710Y010969D01*
X015979Y010700D01*
X016361Y010700D01*
X016630Y010969D01*
X016630Y011351D01*
X016460Y011521D01*
X016460Y012540D01*
X016880Y012960D01*
X016880Y011521D01*
X016710Y011351D01*
X016710Y010969D01*
X016979Y010700D01*
X017361Y010700D01*
X017380Y010719D01*
X017380Y009280D01*
X016649Y008549D01*
X016593Y008549D01*
X016450Y008490D01*
X016340Y008380D01*
X016281Y008237D01*
X016281Y008209D01*
X016084Y008406D01*
X015978Y008450D01*
X013930Y008450D01*
X013890Y008490D01*
X013747Y008549D01*
X013593Y008549D01*
X013450Y008490D01*
X013410Y008450D01*
X012362Y008450D01*
X012256Y008406D01*
X012174Y008324D01*
X012059Y008209D01*
X012059Y008237D01*
X012000Y008380D01*
X011960Y008420D01*
X011960Y010400D01*
X012000Y010440D01*
X012230Y010440D01*
X012270Y010400D02*
X012270Y008412D01*
X012590Y008450D02*
X012590Y010129D01*
X012612Y010120D02*
X011960Y010120D01*
X011960Y009800D02*
X017380Y009800D01*
X017380Y010120D02*
X016930Y010120D01*
X016890Y010080D02*
X017000Y010190D01*
X017059Y010333D01*
X017059Y010487D01*
X017000Y010630D01*
X016890Y010740D01*
X016747Y010799D01*
X016593Y010799D01*
X016450Y010740D01*
X016410Y010700D01*
X012790Y010700D01*
X012166Y011324D01*
X012084Y011406D01*
X011978Y011450D01*
X010540Y011450D01*
X008916Y013074D01*
X008834Y013156D01*
X008728Y013200D01*
X006707Y013200D01*
X006686Y013205D01*
X006649Y013200D01*
X006612Y013200D01*
X006593Y013192D01*
X006572Y013189D01*
X006540Y013170D01*
X006506Y013156D01*
X006491Y013141D01*
X006473Y013130D01*
X006450Y013100D01*
X006424Y013074D01*
X006416Y013055D01*
X005849Y012299D01*
X005843Y012299D01*
X005700Y012240D01*
X005590Y012130D01*
X005531Y011987D01*
X005531Y011833D01*
X005590Y011690D01*
X005700Y011580D01*
X005843Y011521D01*
X005997Y011521D01*
X006140Y011580D01*
X006250Y011690D01*
X006309Y011833D01*
X006309Y011945D01*
X006815Y012620D01*
X008550Y012620D01*
X010256Y010914D01*
X010362Y010870D01*
X011336Y010870D01*
X011281Y010737D01*
X011281Y010583D01*
X011340Y010440D01*
X007000Y010440D01*
X007059Y010583D01*
X007059Y010737D01*
X007000Y010880D01*
X006890Y010990D01*
X006747Y011049D01*
X006593Y011049D01*
X006450Y010990D01*
X006340Y010880D01*
X006281Y010737D01*
X006281Y010583D01*
X006340Y010440D01*
X006380Y010120D02*
X003559Y010120D01*
X003559Y010083D02*
X003559Y010237D01*
X003500Y010380D01*
X003460Y010420D01*
X003460Y010760D02*
X006291Y010760D01*
X006510Y011014D02*
X006510Y012213D01*
X006620Y012360D02*
X008810Y012360D01*
X008750Y012420D02*
X008750Y008548D01*
X008747Y008549D02*
X008593Y008549D01*
X008450Y008490D01*
X008410Y008450D01*
X007362Y008450D01*
X007256Y008406D01*
X007174Y008324D01*
X007059Y008209D01*
X007059Y008237D01*
X007000Y008380D01*
X006960Y008420D01*
X006960Y010400D01*
X007000Y010440D01*
X006960Y010120D02*
X011380Y010120D01*
X011380Y010400D02*
X011380Y008420D01*
X011340Y008380D01*
X011281Y008237D01*
X011281Y008209D01*
X011084Y008406D01*
X010978Y008450D01*
X008930Y008450D01*
X008890Y008490D01*
X008747Y008549D01*
X008817Y008520D02*
X011380Y008520D01*
X011310Y008307D02*
X011310Y010513D01*
X011340Y010440D02*
X011380Y010400D01*
X011291Y010760D02*
X007049Y010760D01*
X006830Y011014D02*
X006830Y012620D01*
X007150Y012620D02*
X007150Y008300D01*
X006960Y008520D02*
X008523Y008520D01*
X008430Y008470D02*
X008430Y012620D01*
X008110Y012620D02*
X008110Y008450D01*
X007790Y008450D02*
X007790Y012620D01*
X007470Y012620D02*
X007470Y008450D01*
X006960Y008840D02*
X011380Y008840D01*
X011380Y009160D02*
X006960Y009160D01*
X006960Y009480D02*
X011380Y009480D01*
X011380Y009800D02*
X006960Y009800D01*
X006380Y009800D02*
X003317Y009800D01*
X003310Y009797D02*
X003310Y008307D01*
X003281Y008200D02*
X000920Y008200D01*
X000920Y008520D02*
X003523Y008520D01*
X003630Y008549D02*
X003630Y012210D01*
X003780Y012283D02*
X003780Y012360D01*
X003460Y012040D01*
X003460Y011720D02*
X003856Y011720D01*
X003950Y011845D02*
X003950Y011975D01*
X003877Y012047D02*
X003780Y012283D01*
X003310Y012710D02*
X003310Y014660D01*
X003630Y014660D02*
X003630Y013030D01*
X003600Y013000D02*
X002177Y013000D01*
X002136Y012944D02*
X002322Y013200D01*
X002322Y013200D01*
X002420Y013502D01*
X002420Y014660D01*
X004130Y014660D01*
X004130Y013983D01*
X004057Y013953D01*
X003877Y013773D01*
X003780Y013537D01*
X003780Y013283D01*
X003810Y013210D01*
X002924Y012324D01*
X002880Y012218D01*
X002880Y010420D01*
X002840Y010380D01*
X002781Y010237D01*
X002781Y010083D01*
X002840Y009940D01*
X002950Y009830D01*
X003093Y009771D01*
X003247Y009771D01*
X003390Y009830D01*
X003500Y009940D01*
X003559Y010083D01*
X003023Y009800D02*
X000920Y009800D01*
X000920Y009480D02*
X006380Y009480D01*
X006380Y009160D02*
X000920Y009160D01*
X000920Y008840D02*
X006380Y008840D01*
X006380Y008520D02*
X003817Y008520D01*
X003950Y008450D02*
X003950Y010975D01*
X003864Y011080D02*
X003460Y011080D01*
X003460Y011400D02*
X003780Y011400D01*
X004270Y010779D02*
X004270Y008450D01*
X004590Y008450D02*
X004590Y010788D01*
X004910Y010995D02*
X004910Y008450D01*
X005230Y008450D02*
X005230Y013810D01*
X005380Y013960D02*
X016310Y013960D01*
X016110Y013760D02*
X016110Y014660D01*
X016380Y014600D02*
X006020Y014600D01*
X006190Y014660D02*
X006190Y012753D01*
X006135Y012680D02*
X005001Y012680D01*
X004910Y012825D02*
X004910Y012995D01*
X004915Y013000D02*
X006375Y013000D01*
X006510Y013158D02*
X006510Y014660D01*
X006830Y014660D02*
X006830Y013200D01*
X007150Y013200D02*
X007150Y014660D01*
X007470Y014660D02*
X007470Y013200D01*
X007790Y013200D02*
X007790Y014660D01*
X008110Y014660D02*
X008110Y013200D01*
X008430Y013200D02*
X008430Y014660D01*
X008750Y014660D02*
X008750Y013191D01*
X008990Y013000D02*
X015393Y013000D01*
X015470Y013120D02*
X015470Y014660D01*
X015150Y014660D02*
X015150Y010700D01*
X014830Y010700D02*
X014830Y014660D01*
X014510Y014660D02*
X014510Y010700D01*
X014190Y010700D02*
X014190Y014660D01*
X013870Y014660D02*
X013870Y010700D01*
X013550Y010700D02*
X013550Y014660D01*
X013230Y014660D02*
X013230Y010700D01*
X012910Y010700D02*
X012910Y014660D01*
X012590Y014660D02*
X012590Y010900D01*
X012730Y010760D02*
X015919Y010760D01*
X015790Y010700D02*
X015790Y010889D01*
X015710Y011080D02*
X012410Y011080D01*
X012270Y011220D02*
X012270Y014660D01*
X011950Y014660D02*
X011950Y011450D01*
X012090Y011400D02*
X015759Y011400D01*
X015790Y011431D02*
X015790Y011539D01*
X015470Y011572D02*
X015470Y010700D01*
X015470Y010120D02*
X015470Y008450D01*
X015150Y008450D02*
X015150Y010120D01*
X014830Y010120D02*
X014830Y008450D01*
X014510Y008450D02*
X014510Y010120D01*
X014190Y010120D02*
X014190Y008450D01*
X013870Y008498D02*
X013870Y010120D01*
X013550Y010120D02*
X013550Y008531D01*
X013523Y008520D02*
X011960Y008520D01*
X011960Y008840D02*
X016940Y008840D01*
X017070Y008970D02*
X017070Y010700D01*
X016919Y010760D02*
X016841Y010760D01*
X016750Y010798D02*
X016750Y010929D01*
X016710Y011080D02*
X016630Y011080D01*
X016581Y011400D02*
X016759Y011400D01*
X016750Y011391D02*
X016750Y012830D01*
X016880Y012680D02*
X016600Y012680D01*
X016460Y012360D02*
X016880Y012360D01*
X016880Y012040D02*
X016460Y012040D01*
X016460Y011720D02*
X016880Y011720D01*
X016499Y010760D02*
X016421Y010760D01*
X016430Y010769D02*
X016430Y010720D01*
X016110Y010700D02*
X016110Y010700D01*
X016110Y010120D02*
X016110Y008380D01*
X015790Y008450D02*
X015790Y010120D01*
X016410Y010120D02*
X016450Y010080D01*
X016593Y010021D01*
X016747Y010021D01*
X016890Y010080D01*
X016750Y010022D02*
X016750Y008650D01*
X016523Y008520D02*
X013817Y008520D01*
X013230Y008450D02*
X013230Y010120D01*
X012910Y010120D02*
X012910Y008450D01*
X012910Y007870D02*
X012910Y000660D01*
X012590Y000660D02*
X012590Y007870D01*
X012270Y007600D02*
X012270Y000660D01*
X011950Y000660D02*
X011950Y007370D01*
X011630Y007370D02*
X011630Y005994D01*
X011664Y005960D02*
X015676Y005960D01*
X015624Y005908D02*
X015526Y005672D01*
X015526Y005416D01*
X015624Y005179D01*
X015805Y004998D01*
X016042Y004900D01*
X016298Y004900D01*
X016535Y004998D01*
X016716Y005179D01*
X016814Y005416D01*
X016814Y005672D01*
X016716Y005908D01*
X016535Y006090D01*
X016298Y006188D01*
X016042Y006188D01*
X015805Y006090D01*
X015624Y005908D01*
X015790Y006074D02*
X015790Y007870D01*
X015470Y007870D02*
X015470Y000660D01*
X015150Y000660D02*
X015150Y007870D01*
X014830Y007870D02*
X014830Y000660D01*
X014510Y000660D02*
X014510Y007870D01*
X014190Y007870D02*
X014190Y000660D01*
X013870Y000660D02*
X013870Y007822D01*
X013550Y007789D02*
X013550Y000660D01*
X013230Y000660D02*
X013230Y007870D01*
X012230Y007560D02*
X016110Y007560D01*
X016110Y006188D01*
X016430Y006133D02*
X016430Y007370D01*
X016750Y007370D02*
X016750Y005826D01*
X016664Y005960D02*
X020676Y005960D01*
X020624Y005908D02*
X020805Y006090D01*
X021042Y006188D01*
X021298Y006188D01*
X021535Y006090D01*
X021716Y005908D01*
X021814Y005672D01*
X021814Y005416D01*
X021716Y005179D01*
X021535Y004998D01*
X021298Y004900D01*
X021042Y004900D01*
X020805Y004998D01*
X020624Y005179D01*
X020526Y005416D01*
X020526Y005672D01*
X020624Y005908D01*
X020590Y005826D02*
X020590Y007870D01*
X020270Y007870D02*
X020270Y000660D01*
X019950Y000660D02*
X019950Y007870D01*
X019630Y007870D02*
X019630Y000660D01*
X019310Y000660D02*
X019310Y007870D01*
X018990Y007870D02*
X018990Y000660D01*
X018670Y000660D02*
X018670Y007771D01*
X018350Y007870D02*
X018350Y000660D01*
X018030Y000660D02*
X018030Y007870D01*
X017710Y007870D02*
X017710Y000660D01*
X017390Y000660D02*
X017390Y007720D01*
X017230Y007560D02*
X021110Y007560D01*
X021230Y007440D02*
X021230Y006188D01*
X020910Y006133D02*
X020910Y007760D01*
X021550Y007370D02*
X021550Y006074D01*
X021664Y005960D02*
X025676Y005960D01*
X025710Y005994D02*
X025710Y007870D01*
X025390Y007870D02*
X025390Y000660D01*
X025070Y000660D02*
X025070Y007870D01*
X024750Y007870D02*
X024750Y000660D01*
X024430Y000660D02*
X024430Y007870D01*
X024110Y007870D02*
X024110Y000660D01*
X023790Y000660D02*
X023790Y007789D01*
X023470Y007822D02*
X023470Y000660D01*
X023150Y000660D02*
X023150Y007870D01*
X022830Y007870D02*
X022830Y000660D01*
X022510Y000660D02*
X022510Y007840D01*
X022230Y007560D02*
X026110Y007560D01*
X026030Y007640D02*
X026030Y006183D01*
X026042Y006188D02*
X025805Y006090D01*
X025624Y005908D01*
X025526Y005672D01*
X025526Y005416D01*
X025624Y005179D01*
X025805Y004998D01*
X026042Y004900D01*
X026298Y004900D01*
X026535Y004998D01*
X026716Y005179D01*
X026814Y005416D01*
X026814Y005672D01*
X026716Y005908D01*
X026535Y006090D01*
X026298Y006188D01*
X026042Y006188D01*
X026350Y006166D02*
X026350Y007375D01*
X026670Y007370D02*
X026670Y005954D01*
X026664Y005960D02*
X030676Y005960D01*
X030624Y005908D02*
X030805Y006090D01*
X031042Y006188D01*
X031298Y006188D01*
X031535Y006090D01*
X031716Y005908D01*
X031814Y005672D01*
X031814Y005416D01*
X031716Y005179D01*
X031535Y004998D01*
X031298Y004900D01*
X031042Y004900D01*
X030805Y004998D01*
X030624Y005179D01*
X030526Y005416D01*
X030526Y005672D01*
X030624Y005908D01*
X030830Y006100D02*
X030830Y007840D01*
X030510Y007870D02*
X030510Y000660D01*
X030190Y000660D02*
X030190Y007870D01*
X029870Y007870D02*
X029870Y000660D01*
X029550Y000660D02*
X029550Y007870D01*
X029230Y007870D02*
X029230Y000660D01*
X028910Y000660D02*
X028910Y007850D01*
X028590Y007772D02*
X028590Y000660D01*
X028270Y000660D02*
X028270Y007870D01*
X027950Y007870D02*
X027950Y000660D01*
X027630Y000660D02*
X027630Y007870D01*
X027310Y007640D02*
X027310Y000660D01*
X026990Y000660D02*
X026990Y007375D01*
X027230Y007560D02*
X031110Y007560D01*
X031150Y007520D02*
X031150Y006188D01*
X031470Y006116D02*
X031470Y007370D01*
X031790Y007370D02*
X031790Y005729D01*
X031814Y005640D02*
X035526Y005640D01*
X035526Y005672D02*
X035526Y005416D01*
X035624Y005179D01*
X035805Y004998D01*
X036042Y004900D01*
X036298Y004900D01*
X036535Y004998D01*
X036716Y005179D01*
X036814Y005416D01*
X036814Y005672D01*
X036716Y005908D01*
X036535Y006090D01*
X036298Y006188D01*
X036042Y006188D01*
X035805Y006090D01*
X035624Y005908D01*
X035526Y005672D01*
X035630Y005914D02*
X035630Y007870D01*
X035310Y007870D02*
X035310Y000660D01*
X035630Y000660D02*
X035630Y002418D01*
X035624Y002423D02*
X035805Y002242D01*
X036042Y002144D01*
X036298Y002144D01*
X036535Y002242D01*
X036716Y002423D01*
X036814Y002660D01*
X036814Y002916D01*
X036716Y003153D01*
X036535Y003334D01*
X036298Y003432D01*
X036042Y003432D01*
X035805Y003334D01*
X035624Y003153D01*
X035526Y002916D01*
X035526Y002660D01*
X035624Y002423D01*
X035617Y002440D02*
X031723Y002440D01*
X031716Y002423D02*
X031814Y002660D01*
X031814Y002916D01*
X031716Y003153D01*
X031535Y003334D01*
X031298Y003432D01*
X031042Y003432D01*
X030805Y003334D01*
X030624Y003153D01*
X030526Y002916D01*
X030526Y002660D01*
X030624Y002423D01*
X030805Y002242D01*
X031042Y002144D01*
X031298Y002144D01*
X031535Y002242D01*
X031716Y002423D01*
X031790Y002603D02*
X031790Y000660D01*
X031470Y000660D02*
X031470Y002215D01*
X031150Y002144D02*
X031150Y000660D01*
X030830Y000660D02*
X030830Y002232D01*
X030617Y002440D02*
X026723Y002440D01*
X026716Y002423D02*
X026814Y002660D01*
X026814Y002916D01*
X026716Y003153D01*
X026535Y003334D01*
X026298Y003432D01*
X026042Y003432D01*
X025805Y003334D01*
X025624Y003153D01*
X025526Y002916D01*
X025526Y002660D01*
X025624Y002423D01*
X025805Y002242D01*
X026042Y002144D01*
X026298Y002144D01*
X026535Y002242D01*
X026716Y002423D01*
X026670Y002378D02*
X026670Y000660D01*
X026350Y000660D02*
X026350Y002166D01*
X026030Y002149D02*
X026030Y000660D01*
X025710Y000660D02*
X025710Y002338D01*
X025617Y002440D02*
X021723Y002440D01*
X021716Y002423D02*
X021814Y002660D01*
X021814Y002916D01*
X021716Y003153D01*
X021535Y003334D01*
X021298Y003432D01*
X021042Y003432D01*
X020805Y003334D01*
X020624Y003153D01*
X020526Y002916D01*
X020526Y002660D01*
X020624Y002423D01*
X020805Y002242D01*
X021042Y002144D01*
X021298Y002144D01*
X021535Y002242D01*
X021716Y002423D01*
X021550Y002258D02*
X021550Y000660D01*
X021230Y000660D02*
X021230Y002144D01*
X020910Y002199D02*
X020910Y000660D01*
X020590Y000660D02*
X020590Y002506D01*
X020617Y002440D02*
X016723Y002440D01*
X016716Y002423D02*
X016814Y002660D01*
X016814Y002916D01*
X016716Y003153D01*
X016535Y003334D01*
X016298Y003432D01*
X016042Y003432D01*
X015805Y003334D01*
X015624Y003153D01*
X015526Y002916D01*
X015526Y002660D01*
X015624Y002423D01*
X015805Y002242D01*
X016042Y002144D01*
X016298Y002144D01*
X016535Y002242D01*
X016716Y002423D01*
X016750Y002506D02*
X016750Y000660D01*
X017070Y000660D02*
X017070Y007408D01*
X016430Y008470D02*
X016430Y010100D01*
X016410Y010120D02*
X012612Y010120D01*
X012506Y010164D01*
X012059Y010611D01*
X012059Y010583D01*
X012000Y010440D01*
X011310Y010807D02*
X011310Y010870D01*
X010990Y010870D02*
X010990Y008445D01*
X010670Y008450D02*
X010670Y010870D01*
X010350Y010875D02*
X010350Y008450D01*
X010030Y008450D02*
X010030Y011140D01*
X010090Y011080D02*
X004976Y011080D01*
X005060Y011400D02*
X009770Y011400D01*
X009710Y011460D02*
X009710Y008450D01*
X009390Y008450D02*
X009390Y011780D01*
X009450Y011720D02*
X006262Y011720D01*
X006190Y011630D02*
X006190Y008300D01*
X005870Y008450D02*
X005870Y011521D01*
X005578Y011720D02*
X004984Y011720D01*
X004910Y011825D02*
X004910Y011995D01*
X004955Y012040D02*
X005553Y012040D01*
X005550Y012033D02*
X005550Y014130D01*
X005700Y014280D02*
X016380Y014280D01*
X015790Y014660D02*
X015790Y013440D01*
X015670Y013320D02*
X005060Y013320D01*
X005060Y013640D02*
X015990Y013640D01*
X015380Y012680D02*
X009310Y012680D01*
X009390Y012600D02*
X009390Y014660D01*
X009710Y014660D02*
X009710Y012280D01*
X009630Y012360D02*
X015380Y012360D01*
X015303Y012040D02*
X009950Y012040D01*
X010030Y011960D02*
X010030Y014660D01*
X010350Y014660D02*
X010350Y011640D01*
X010270Y011720D02*
X015328Y011720D01*
X017059Y010440D02*
X017380Y010440D01*
X017380Y009480D02*
X011960Y009480D01*
X011960Y009160D02*
X017260Y009160D01*
X018960Y011601D02*
X018960Y017040D01*
X019215Y017294D01*
X019222Y017287D01*
X019278Y017264D01*
X019242Y017240D01*
X019192Y017189D01*
X019152Y017131D01*
X019125Y017065D01*
X019111Y016995D01*
X019111Y016985D01*
X019676Y016985D01*
X019676Y016935D01*
X019111Y016935D01*
X019111Y016925D01*
X019125Y016855D01*
X019152Y016789D01*
X019192Y016731D01*
X019242Y016680D01*
X019301Y016641D01*
X019366Y016614D01*
X019436Y016600D01*
X019676Y016600D01*
X019676Y016935D01*
X019726Y016935D01*
X019726Y016600D01*
X019967Y016600D01*
X020036Y016614D01*
X020102Y016641D01*
X020161Y016680D01*
X020211Y016731D01*
X020250Y016789D01*
X020277Y016855D01*
X020291Y016925D01*
X020291Y016935D01*
X019726Y016935D01*
X019726Y016985D01*
X020291Y016985D01*
X020291Y016995D01*
X020277Y017065D01*
X020250Y017131D01*
X020211Y017189D01*
X020161Y017240D01*
X020125Y017264D01*
X020180Y017287D01*
X020304Y017411D01*
X020371Y017572D01*
X020371Y017748D01*
X020304Y017909D01*
X020204Y018010D01*
X020304Y018111D01*
X020371Y018272D01*
X020371Y018448D01*
X020304Y018609D01*
X020180Y018733D01*
X020019Y018800D01*
X019438Y018800D01*
X019460Y018852D01*
X019460Y019160D01*
X019880Y019160D01*
X019880Y019102D01*
X019924Y018996D01*
X020380Y018540D01*
X020380Y016780D01*
X019649Y016049D01*
X019593Y016049D01*
X019450Y015990D01*
X019340Y015880D01*
X018960Y015880D01*
X018960Y015560D02*
X019291Y015560D01*
X019281Y015583D02*
X019340Y015440D01*
X019380Y015400D01*
X019380Y011780D01*
X019220Y011620D01*
X018979Y011620D01*
X018960Y011601D01*
X018990Y011620D02*
X018990Y017070D01*
X019080Y017160D02*
X019172Y017160D01*
X019310Y016985D02*
X019310Y016935D01*
X019131Y016840D02*
X018960Y016840D01*
X018960Y016520D02*
X020120Y016520D01*
X019950Y016600D02*
X019950Y016350D01*
X019800Y016200D02*
X018960Y016200D01*
X019340Y015880D02*
X019281Y015737D01*
X019281Y015583D01*
X019310Y015513D02*
X019310Y011710D01*
X019320Y011720D02*
X018960Y011720D01*
X018960Y012040D02*
X019380Y012040D01*
X019380Y012360D02*
X018960Y012360D01*
X018960Y012680D02*
X019380Y012680D01*
X019380Y013000D02*
X018960Y013000D01*
X018960Y013320D02*
X019380Y013320D01*
X019380Y013640D02*
X018960Y013640D01*
X018960Y013960D02*
X019380Y013960D01*
X019380Y014280D02*
X018960Y014280D01*
X018960Y014600D02*
X019380Y014600D01*
X019380Y014920D02*
X018960Y014920D01*
X018960Y015240D02*
X019380Y015240D01*
X019310Y015807D02*
X019310Y016637D01*
X019630Y016600D02*
X019630Y016049D01*
X020270Y016670D02*
X020270Y016837D01*
X020271Y016840D02*
X020380Y016840D01*
X020270Y016935D02*
X020270Y016985D01*
X020270Y017083D02*
X020270Y017376D01*
X020333Y017480D02*
X020380Y017480D01*
X020380Y017160D02*
X020231Y017160D01*
X019950Y016985D02*
X019950Y016935D01*
X019726Y016840D02*
X019676Y016840D01*
X019630Y016935D02*
X019630Y016985D01*
X020350Y017800D02*
X020380Y017800D01*
X020270Y017944D02*
X020270Y018076D01*
X020308Y018120D02*
X020380Y018120D01*
X020371Y018440D02*
X020380Y018440D01*
X020270Y018644D02*
X020270Y018650D01*
X020160Y018760D02*
X020115Y018760D01*
X019950Y018800D02*
X019950Y018970D01*
X019889Y019080D02*
X019460Y019080D01*
X019630Y019160D02*
X019630Y018800D01*
X019630Y019660D02*
X019630Y023679D01*
X019696Y023745D02*
X024463Y023745D01*
X024450Y023740D01*
X024340Y023630D01*
X024281Y023487D01*
X024281Y023341D01*
X024260Y023350D01*
X024080Y023350D01*
X023915Y023281D01*
X023789Y023155D01*
X023720Y022990D01*
X023720Y022330D01*
X023789Y022165D01*
X023915Y022039D01*
X024080Y021970D01*
X024260Y021970D01*
X024380Y022020D01*
X024380Y019660D01*
X022960Y019660D01*
X022960Y021525D01*
X023000Y021565D01*
X023059Y021708D01*
X023059Y021862D01*
X023000Y022005D01*
X022890Y022115D01*
X022747Y022174D01*
X022593Y022174D01*
X022537Y022151D01*
X022551Y022165D01*
X022620Y022330D01*
X022620Y022990D01*
X022551Y023155D01*
X022425Y023281D01*
X022260Y023350D01*
X022080Y023350D01*
X021915Y023281D01*
X021789Y023155D01*
X021720Y022990D01*
X021720Y022330D01*
X021789Y022165D01*
X021880Y022074D01*
X021880Y020030D01*
X021510Y019660D01*
X021460Y019660D01*
X021460Y022074D01*
X021551Y022165D01*
X021620Y022330D01*
X021620Y022990D01*
X021551Y023155D01*
X021425Y023281D01*
X021260Y023350D01*
X021080Y023350D01*
X020915Y023281D01*
X020789Y023155D01*
X020720Y022990D01*
X020720Y022330D01*
X020789Y022165D01*
X020880Y022074D01*
X020880Y019660D01*
X020460Y019660D01*
X020460Y022074D01*
X020551Y022165D01*
X020620Y022330D01*
X020620Y022990D01*
X020551Y023155D01*
X020425Y023281D01*
X020260Y023350D01*
X020080Y023350D01*
X019915Y023281D01*
X019789Y023155D01*
X019720Y022990D01*
X019720Y022330D01*
X019789Y022165D01*
X019880Y022074D01*
X019880Y019660D01*
X019460Y019660D01*
X019460Y022074D01*
X019551Y022165D01*
X019620Y022330D01*
X019620Y022990D01*
X019551Y023155D01*
X019425Y023281D01*
X019289Y023338D01*
X019696Y023745D01*
X019950Y023745D02*
X019950Y023296D01*
X019874Y023240D02*
X019466Y023240D01*
X019310Y023329D02*
X019310Y023359D01*
X019511Y023560D02*
X024311Y023560D01*
X024430Y023720D02*
X024430Y023745D01*
X024110Y023745D02*
X024110Y023350D01*
X023874Y023240D02*
X023316Y023240D01*
X023345Y023228D02*
X023278Y023256D01*
X023206Y023270D01*
X023200Y023270D01*
X023200Y022690D01*
X023540Y022690D01*
X023540Y022936D01*
X023526Y023008D01*
X023498Y023075D01*
X023457Y023136D01*
X023406Y023187D01*
X023345Y023228D01*
X023200Y023240D02*
X023140Y023240D01*
X023140Y023270D02*
X023134Y023270D01*
X023062Y023256D01*
X022995Y023228D01*
X022934Y023187D01*
X022883Y023136D01*
X022842Y023075D01*
X022814Y023008D01*
X022800Y022936D01*
X022800Y022690D01*
X023140Y022690D01*
X023140Y023270D01*
X023024Y023240D02*
X022466Y023240D01*
X022510Y023196D02*
X022510Y023745D01*
X022190Y023745D02*
X022190Y023350D01*
X021874Y023240D02*
X021466Y023240D01*
X021550Y023156D02*
X021550Y023745D01*
X021230Y023745D02*
X021230Y023350D01*
X020910Y023276D02*
X020910Y023745D01*
X020590Y023745D02*
X020590Y023062D01*
X020620Y022920D02*
X020720Y022920D01*
X020720Y022600D02*
X020620Y022600D01*
X020599Y022280D02*
X020741Y022280D01*
X020590Y022258D02*
X020590Y019660D01*
X020460Y019720D02*
X020880Y019720D01*
X020880Y020040D02*
X020460Y020040D01*
X020460Y020360D02*
X020880Y020360D01*
X020880Y020680D02*
X020460Y020680D01*
X020460Y021000D02*
X020880Y021000D01*
X020880Y021320D02*
X020460Y021320D01*
X020460Y021640D02*
X020880Y021640D01*
X020880Y021960D02*
X020460Y021960D01*
X019880Y021960D02*
X019460Y021960D01*
X019460Y021640D02*
X019880Y021640D01*
X019880Y021320D02*
X019460Y021320D01*
X019460Y021000D02*
X019880Y021000D01*
X019880Y020680D02*
X019460Y020680D01*
X019460Y020360D02*
X019880Y020360D01*
X019880Y020040D02*
X019460Y020040D01*
X019460Y019720D02*
X019880Y019720D01*
X021460Y019720D02*
X021570Y019720D01*
X021550Y019700D02*
X021550Y022164D01*
X021599Y022280D02*
X021741Y022280D01*
X021870Y022084D02*
X021870Y020020D01*
X021880Y020040D02*
X021460Y020040D01*
X021460Y020360D02*
X021880Y020360D01*
X021880Y020680D02*
X021460Y020680D01*
X021460Y021000D02*
X021880Y021000D01*
X021880Y021320D02*
X021460Y021320D01*
X021460Y021640D02*
X021880Y021640D01*
X021880Y021960D02*
X021460Y021960D01*
X021620Y022600D02*
X021720Y022600D01*
X021720Y022920D02*
X021620Y022920D01*
X021870Y023236D02*
X021870Y023745D01*
X022830Y023745D02*
X022830Y023046D01*
X022800Y022920D02*
X022620Y022920D01*
X022830Y022690D02*
X022830Y022630D01*
X022800Y022630D02*
X022800Y022384D01*
X022814Y022312D01*
X022842Y022245D01*
X022883Y022184D01*
X022934Y022133D01*
X022995Y022092D01*
X023062Y022064D01*
X023134Y022050D01*
X023140Y022050D01*
X023140Y022630D01*
X023200Y022630D01*
X023200Y022690D01*
X023140Y022690D01*
X023140Y022630D01*
X022800Y022630D01*
X022800Y022600D02*
X022620Y022600D01*
X022599Y022280D02*
X022828Y022280D01*
X022830Y022274D02*
X022830Y022139D01*
X023018Y021960D02*
X024380Y021960D01*
X024110Y021970D02*
X024110Y019660D01*
X024380Y019720D02*
X022960Y019720D01*
X023150Y019660D02*
X023150Y022630D01*
X023140Y022600D02*
X023200Y022600D01*
X023200Y022630D02*
X023200Y022050D01*
X023206Y022050D01*
X023278Y022064D01*
X023345Y022092D01*
X023406Y022133D01*
X023457Y022184D01*
X023498Y022245D01*
X023526Y022312D01*
X023540Y022384D01*
X023540Y022630D01*
X023200Y022630D01*
X023150Y022690D02*
X023150Y023745D01*
X023470Y023745D02*
X023470Y023117D01*
X023540Y022920D02*
X023720Y022920D01*
X023790Y023156D02*
X023790Y023745D01*
X023200Y022920D02*
X023140Y022920D01*
X023470Y022690D02*
X023470Y022630D01*
X023540Y022600D02*
X023720Y022600D01*
X023741Y022280D02*
X023512Y022280D01*
X023470Y022203D02*
X023470Y019660D01*
X023790Y019660D02*
X023790Y022164D01*
X023200Y022280D02*
X023140Y022280D01*
X023031Y021640D02*
X024380Y021640D01*
X024380Y021320D02*
X022960Y021320D01*
X022960Y021000D02*
X024380Y021000D01*
X024380Y020680D02*
X022960Y020680D01*
X022960Y020360D02*
X024380Y020360D01*
X024380Y020040D02*
X022960Y020040D01*
X022830Y019160D02*
X022830Y019071D01*
X022808Y019080D02*
X024380Y019080D01*
X024380Y019160D02*
X024380Y018996D01*
X024289Y018905D01*
X024220Y018740D01*
X024220Y018080D01*
X024274Y017950D01*
X023968Y017950D01*
X023998Y017995D01*
X024026Y018062D01*
X024040Y018134D01*
X024040Y018380D01*
X023700Y018380D01*
X023700Y018440D01*
X023640Y018440D01*
X023640Y019020D01*
X023634Y019020D01*
X023562Y019006D01*
X023495Y018978D01*
X023434Y018937D01*
X023383Y018886D01*
X023342Y018825D01*
X023314Y018758D01*
X023300Y018686D01*
X023300Y018440D01*
X023120Y018440D01*
X023300Y018440D02*
X023640Y018440D01*
X023640Y018380D01*
X023300Y018380D01*
X023300Y018134D01*
X023314Y018062D01*
X023342Y017995D01*
X023372Y017950D01*
X023066Y017950D01*
X023120Y018080D01*
X023120Y018740D01*
X023051Y018905D01*
X022925Y019031D01*
X022760Y019100D01*
X022580Y019100D01*
X022415Y019031D01*
X022289Y018905D01*
X022220Y018740D01*
X022220Y018080D01*
X022289Y017915D01*
X022415Y017789D01*
X022573Y017723D01*
X021460Y016610D01*
X021460Y017770D01*
X021580Y017720D01*
X021760Y017720D01*
X021925Y017789D01*
X022051Y017915D01*
X022120Y018080D01*
X022120Y018740D01*
X022051Y018905D01*
X021960Y018996D01*
X021960Y019160D01*
X024380Y019160D01*
X024110Y019160D02*
X024110Y017950D01*
X024037Y018120D02*
X024220Y018120D01*
X024220Y018440D02*
X024040Y018440D01*
X024040Y018686D01*
X024026Y018758D01*
X023998Y018825D01*
X023957Y018886D01*
X023906Y018937D01*
X023845Y018978D01*
X023778Y019006D01*
X023706Y019020D01*
X023700Y019020D01*
X023700Y018440D01*
X024040Y018440D01*
X023790Y018440D02*
X023790Y018380D01*
X023470Y018380D02*
X023470Y018440D01*
X023315Y018760D02*
X023112Y018760D01*
X023150Y019160D02*
X023150Y017950D01*
X023120Y018120D02*
X023303Y018120D01*
X023640Y018760D02*
X023700Y018760D01*
X023790Y019001D02*
X023790Y019160D01*
X023470Y019160D02*
X023470Y018961D01*
X024025Y018760D02*
X024228Y018760D01*
X022532Y019080D02*
X021960Y019080D01*
X022190Y019160D02*
X022190Y017340D01*
X022330Y017480D02*
X021460Y017480D01*
X021550Y017733D02*
X021550Y016700D01*
X021460Y016840D02*
X021690Y016840D01*
X021870Y017020D02*
X021870Y017766D01*
X021936Y017800D02*
X022404Y017800D01*
X022510Y017749D02*
X022510Y017660D01*
X022220Y018120D02*
X022120Y018120D01*
X022120Y018440D02*
X022220Y018440D01*
X022228Y018760D02*
X022112Y018760D01*
X022510Y019071D02*
X022510Y019160D01*
X022010Y017160D02*
X021460Y017160D01*
X019741Y022280D02*
X019599Y022280D01*
X019620Y022600D02*
X019720Y022600D01*
X019720Y022920D02*
X019620Y022920D01*
X020270Y023346D02*
X020270Y023745D01*
X020466Y023240D02*
X020874Y023240D01*
X026030Y027460D02*
X026030Y028047D01*
X026047Y028040D02*
X025450Y028040D01*
X025390Y028100D02*
X025390Y029843D01*
X025327Y029780D02*
X025550Y030003D01*
X025550Y030131D01*
X025199Y030131D01*
X025199Y030189D01*
X025141Y030189D01*
X025141Y030540D01*
X025013Y030540D01*
X024954Y030482D01*
X024916Y030574D01*
X024180Y031310D01*
X024180Y031358D01*
X024188Y031350D01*
X024652Y031350D01*
X024980Y031678D01*
X024980Y032142D01*
X024655Y032467D01*
X024900Y032711D01*
X024900Y032871D01*
X024459Y032871D01*
X024459Y032949D01*
X024900Y032949D01*
X024900Y033109D01*
X024764Y033245D01*
X024800Y033245D01*
X025130Y032915D01*
X025130Y031852D01*
X025174Y031746D01*
X026300Y030620D01*
X025979Y030620D01*
X025710Y030351D01*
X025710Y031210D01*
X025680Y031240D02*
X024250Y031240D01*
X024430Y031350D02*
X024430Y031060D01*
X024570Y030920D02*
X026000Y030920D01*
X026030Y030890D02*
X026030Y030620D01*
X025959Y030600D02*
X024890Y030600D01*
X025070Y030540D02*
X025070Y032975D01*
X025130Y032840D02*
X024900Y032840D01*
X024750Y032871D02*
X024750Y032949D01*
X024849Y033160D02*
X024885Y033160D01*
X024750Y032561D02*
X024750Y032372D01*
X024709Y032520D02*
X025130Y032520D01*
X025130Y032200D02*
X024922Y032200D01*
X024980Y031880D02*
X025130Y031880D01*
X025360Y031560D02*
X024862Y031560D01*
X024750Y031448D02*
X024750Y030740D01*
X025199Y030540D02*
X025199Y030189D01*
X025550Y030189D01*
X025550Y030317D01*
X025327Y030540D01*
X025199Y030540D01*
X025390Y030477D02*
X025390Y031530D01*
X026340Y031400D02*
X026631Y031400D01*
X026920Y031689D01*
X027209Y031400D01*
X027631Y031400D01*
X027920Y031689D01*
X028209Y031400D01*
X028520Y031400D01*
X029256Y030664D01*
X029362Y030620D01*
X030160Y030620D01*
X030200Y030580D01*
X030343Y030521D01*
X030497Y030521D01*
X030640Y030580D01*
X030750Y030690D01*
X030809Y030833D01*
X030809Y030987D01*
X030750Y031130D01*
X030640Y031240D01*
X030497Y031299D01*
X030343Y031299D01*
X030200Y031240D01*
X030160Y031200D01*
X029540Y031200D01*
X029340Y031400D01*
X029631Y031400D01*
X029920Y031689D01*
X030209Y031400D01*
X030631Y031400D01*
X030930Y031699D01*
X030930Y032121D01*
X030641Y032410D01*
X030930Y032699D01*
X030930Y033121D01*
X030681Y033370D01*
X032159Y033370D01*
X031910Y033121D01*
X031910Y032699D01*
X032199Y032410D01*
X031910Y032121D01*
X031910Y031810D01*
X031850Y031750D01*
X031850Y031860D01*
X031470Y031860D01*
X031470Y031960D01*
X031370Y031960D01*
X031370Y032340D01*
X031242Y032340D01*
X030990Y032088D01*
X030990Y031960D01*
X031370Y031960D01*
X031370Y031860D01*
X031470Y031860D01*
X031470Y031480D01*
X031470Y029200D01*
X031150Y029200D02*
X031150Y031572D01*
X031162Y031560D02*
X030791Y031560D01*
X030830Y031599D02*
X030830Y029200D01*
X030510Y029200D02*
X030510Y030527D01*
X030660Y030600D02*
X031630Y030600D01*
X031630Y030280D02*
X028630Y030280D01*
X028630Y030351D02*
X028361Y030620D01*
X027979Y030620D01*
X027710Y030351D01*
X027710Y029969D01*
X027979Y029700D01*
X028361Y029700D01*
X028630Y029969D01*
X028630Y030351D01*
X028590Y030391D02*
X028590Y031330D01*
X028680Y031240D02*
X026500Y031240D01*
X026350Y031390D02*
X026350Y031400D01*
X026340Y031400D02*
X026834Y030906D01*
X026916Y030824D01*
X026960Y030718D01*
X026960Y030601D01*
X026979Y030620D01*
X027361Y030620D01*
X027630Y030351D01*
X027630Y029969D01*
X027361Y029700D01*
X026979Y029700D01*
X026960Y029719D01*
X026960Y029244D01*
X027093Y029299D01*
X027247Y029299D01*
X027390Y029240D01*
X027430Y029200D01*
X032050Y029200D01*
X032130Y029280D01*
X032130Y029576D01*
X031997Y029521D01*
X031843Y029521D01*
X031700Y029580D01*
X031590Y029690D01*
X031531Y029833D01*
X031531Y029987D01*
X031590Y030130D01*
X031630Y030170D01*
X031630Y031468D01*
X031661Y031543D01*
X031598Y031480D01*
X031470Y031480D01*
X031470Y031560D02*
X031370Y031560D01*
X031370Y031480D02*
X031370Y031860D01*
X030990Y031860D01*
X030990Y031732D01*
X031242Y031480D01*
X031370Y031480D01*
X031630Y031240D02*
X030639Y031240D01*
X030510Y031293D02*
X030510Y031400D01*
X030190Y031419D02*
X030190Y031230D01*
X030201Y031240D02*
X029500Y031240D01*
X029550Y031200D02*
X029550Y031400D01*
X029791Y031560D02*
X030049Y031560D01*
X029870Y031639D02*
X029870Y031200D01*
X029870Y030620D02*
X029870Y029200D01*
X029550Y029200D02*
X029550Y030620D01*
X029230Y030690D02*
X029230Y029200D01*
X028910Y029200D02*
X028910Y031010D01*
X029000Y030920D02*
X026820Y030920D01*
X026670Y031070D02*
X026670Y031439D01*
X026791Y031560D02*
X027049Y031560D01*
X026990Y031619D02*
X026990Y030620D01*
X027310Y030620D02*
X027310Y031400D01*
X027630Y031400D02*
X027630Y029200D01*
X027950Y029200D02*
X027950Y029729D01*
X028270Y029700D02*
X028270Y029200D01*
X028590Y029200D02*
X028590Y029929D01*
X028621Y029960D02*
X031531Y029960D01*
X031640Y029640D02*
X026960Y029640D01*
X026990Y029700D02*
X026990Y029256D01*
X026960Y029320D02*
X032130Y029320D01*
X032110Y029260D02*
X032110Y029568D01*
X031790Y029543D02*
X031790Y029200D01*
X030190Y029200D02*
X030190Y030590D01*
X030180Y030600D02*
X028381Y030600D01*
X028270Y030620D02*
X028270Y031400D01*
X028049Y031560D02*
X027791Y031560D01*
X027950Y031659D02*
X027950Y030591D01*
X027959Y030600D02*
X027381Y030600D01*
X027630Y030280D02*
X027710Y030280D01*
X027719Y029960D02*
X027621Y029960D01*
X027310Y029700D02*
X027310Y029273D01*
X025880Y029320D02*
X024490Y029320D01*
X024460Y029290D02*
X024916Y029746D01*
X024954Y029838D01*
X025013Y029780D01*
X025141Y029780D01*
X025141Y030131D01*
X025199Y030131D01*
X025199Y029780D01*
X025327Y029780D01*
X025199Y029960D02*
X025141Y029960D01*
X025070Y029780D02*
X025070Y028420D01*
X025130Y028360D02*
X025781Y028360D01*
X025781Y028333D02*
X025840Y028190D01*
X025950Y028080D01*
X026093Y028021D01*
X026247Y028021D01*
X026380Y028076D01*
X026380Y027110D01*
X024460Y029030D01*
X024460Y029290D01*
X024490Y029000D02*
X025880Y029000D01*
X025880Y028680D02*
X024810Y028680D01*
X024750Y028740D02*
X024750Y029580D01*
X024810Y029640D02*
X025880Y029640D01*
X025880Y029799D02*
X025880Y028670D01*
X025840Y028630D01*
X025781Y028487D01*
X025781Y028333D01*
X026293Y028040D02*
X026380Y028040D01*
X026350Y028064D02*
X026350Y027140D01*
X026380Y027400D02*
X026090Y027400D01*
X026380Y027720D02*
X025770Y027720D01*
X025710Y027780D02*
X025710Y029969D01*
X025880Y029799D01*
X025719Y029960D02*
X025507Y029960D01*
X025710Y029969D02*
X025710Y030351D01*
X025710Y030280D02*
X025550Y030280D01*
X025390Y030189D02*
X025390Y030131D01*
X025199Y030280D02*
X025141Y030280D01*
X024141Y030189D02*
X024141Y030131D01*
X023790Y030131D01*
X023790Y030189D01*
X024141Y030189D01*
X024110Y030189D02*
X024110Y030131D01*
X023790Y030131D02*
X023790Y030003D01*
X023790Y027950D01*
X024110Y027950D02*
X024110Y028560D01*
X023990Y028680D02*
X022960Y028680D01*
X022960Y029000D02*
X023880Y029000D01*
X023880Y028968D02*
X023880Y029468D01*
X023924Y029574D01*
X024006Y029656D01*
X024006Y029656D01*
X024130Y029780D01*
X024013Y029780D01*
X023790Y030003D01*
X023833Y029960D02*
X023621Y029960D01*
X023630Y029969D02*
X023361Y029700D01*
X022979Y029700D01*
X022960Y029719D01*
X022960Y028030D01*
X023040Y027950D01*
X024720Y027950D01*
X023924Y028746D01*
X023880Y028852D01*
X023880Y028968D01*
X023880Y029320D02*
X022960Y029320D01*
X022960Y029640D02*
X023990Y029640D01*
X024110Y029760D02*
X024110Y029780D01*
X023630Y029969D02*
X023630Y030351D01*
X023361Y030620D01*
X023290Y030620D01*
X023666Y030996D01*
X023670Y031006D01*
X023674Y030996D01*
X024130Y030540D01*
X024013Y030540D01*
X023790Y030317D01*
X023790Y030880D01*
X023750Y030920D02*
X023590Y030920D01*
X023470Y030800D02*
X023470Y030511D01*
X023381Y030600D02*
X024070Y030600D01*
X024110Y030560D02*
X024110Y030540D01*
X023790Y030317D02*
X023790Y030189D01*
X023790Y030280D02*
X023630Y030280D01*
X023470Y029809D02*
X023470Y027950D01*
X023150Y027950D02*
X023150Y029700D01*
X022960Y028360D02*
X024310Y028360D01*
X024430Y028240D02*
X024430Y027950D01*
X024630Y028040D02*
X022960Y028040D01*
X023920Y031160D02*
X023920Y032410D01*
X023420Y032910D01*
X023470Y034075D02*
X023470Y034660D01*
X023150Y034660D02*
X023150Y034075D01*
X022830Y034075D02*
X022830Y034660D01*
X022510Y034660D02*
X022510Y034075D01*
X022190Y034075D02*
X022190Y034660D01*
X021870Y034660D02*
X021870Y034075D01*
X021550Y034075D02*
X021550Y034660D01*
X021230Y034660D02*
X021230Y033880D01*
X021299Y033949D02*
X019300Y031950D01*
X016362Y031950D01*
X016256Y031906D01*
X016174Y031824D01*
X014924Y030574D01*
X014880Y030468D01*
X014880Y028843D01*
X014149Y028111D01*
X014093Y028111D01*
X013950Y028052D01*
X013840Y027943D01*
X013781Y027800D01*
X013781Y027645D01*
X013840Y027502D01*
X013950Y027393D01*
X014093Y027334D01*
X014247Y027334D01*
X014390Y027393D01*
X014500Y027502D01*
X014559Y027645D01*
X014559Y027701D01*
X015380Y028522D01*
X015380Y025360D01*
X014809Y025931D01*
X014809Y025987D01*
X014750Y026130D01*
X014640Y026240D01*
X014497Y026299D01*
X014343Y026299D01*
X014200Y026240D01*
X014160Y026200D01*
X009540Y026200D01*
X009480Y026260D01*
X009373Y026304D01*
X009222Y026304D01*
X009182Y026344D01*
X009039Y026403D01*
X008885Y026403D01*
X008742Y026344D01*
X008702Y026304D01*
X006967Y026304D01*
X006860Y026260D01*
X006778Y026179D01*
X006059Y025459D01*
X006059Y025487D01*
X006000Y025630D01*
X005890Y025740D01*
X005747Y025799D01*
X005593Y025799D01*
X005450Y025740D01*
X005410Y025700D01*
X004430Y025700D01*
X004390Y025740D01*
X004247Y025799D01*
X004093Y025799D01*
X003950Y025740D01*
X003950Y034660D01*
X003630Y034660D02*
X003630Y024950D01*
X003910Y024950D02*
X003950Y024990D01*
X003950Y025080D01*
X004060Y025035D01*
X003950Y024990D01*
X003910Y024950D02*
X002612Y024950D01*
X002506Y024906D01*
X002424Y024824D01*
X001174Y023574D01*
X001130Y023468D01*
X001130Y018602D01*
X001174Y018496D01*
X001256Y018414D01*
X004130Y015540D01*
X004130Y015160D01*
X002420Y015160D01*
X002420Y016568D01*
X002322Y016870D01*
X002136Y017126D01*
X002136Y017126D01*
X002136Y017126D01*
X001880Y017312D01*
X001880Y017312D01*
X001578Y017410D01*
X001420Y017410D01*
X001342Y017416D01*
X001193Y017464D01*
X001193Y017464D01*
X001066Y017556D01*
X000974Y017683D01*
X000926Y017832D01*
X000920Y017910D01*
X000920Y033410D01*
X000931Y033573D01*
X001015Y033888D01*
X001178Y034171D01*
X001409Y034402D01*
X001692Y034565D01*
X002007Y034649D01*
X002170Y034660D01*
X044170Y034660D01*
X044333Y034649D01*
X044648Y034565D01*
X044931Y034402D01*
X045162Y034171D01*
X045325Y033888D01*
X045409Y033573D01*
X045420Y033410D01*
X045420Y019660D01*
X038960Y019660D01*
X038960Y020218D01*
X038916Y020324D01*
X038334Y020906D01*
X038228Y020950D01*
X034040Y020950D01*
X033886Y021104D01*
X033971Y021104D01*
X034146Y021177D01*
X034270Y021301D01*
X034395Y021177D01*
X034570Y021104D01*
X034759Y021104D01*
X034933Y021177D01*
X035058Y021301D01*
X035182Y021177D01*
X035357Y021104D01*
X035546Y021104D01*
X035721Y021177D01*
X035845Y021301D01*
X035970Y021177D01*
X036144Y021104D01*
X036333Y021104D01*
X036508Y021177D01*
X036633Y021301D01*
X036757Y021177D01*
X036932Y021104D01*
X037121Y021104D01*
X037295Y021177D01*
X037420Y021301D01*
X037545Y021177D01*
X037719Y021104D01*
X037908Y021104D01*
X038083Y021177D01*
X038207Y021301D01*
X038332Y021177D01*
X038507Y021104D01*
X038696Y021104D01*
X038870Y021177D01*
X038995Y021301D01*
X039119Y021177D01*
X039294Y021104D01*
X039483Y021104D01*
X039658Y021177D01*
X039782Y021301D01*
X039907Y021177D01*
X040081Y021104D01*
X040270Y021104D01*
X040445Y021177D01*
X040570Y021301D01*
X040694Y021177D01*
X040869Y021104D01*
X041058Y021104D01*
X041232Y021177D01*
X041366Y021310D01*
X041438Y021485D01*
X041438Y021674D01*
X041366Y021848D01*
X041232Y021982D01*
X041058Y022054D01*
X040869Y022054D01*
X040694Y021982D01*
X040570Y021857D01*
X040445Y021982D01*
X040270Y022054D01*
X040081Y022054D01*
X039907Y021982D01*
X039782Y021857D01*
X039658Y021982D01*
X039483Y022054D01*
X039294Y022054D01*
X039119Y021982D01*
X038995Y021857D01*
X038870Y021982D01*
X038696Y022054D01*
X038507Y022054D01*
X038332Y021982D01*
X038207Y021857D01*
X038083Y021982D01*
X037908Y022054D01*
X037719Y022054D01*
X037545Y021982D01*
X037420Y021857D01*
X037295Y021982D01*
X037121Y022054D01*
X036932Y022054D01*
X036757Y021982D01*
X036633Y021857D01*
X036508Y021982D01*
X036333Y022054D01*
X036144Y022054D01*
X035970Y021982D01*
X035845Y021857D01*
X035721Y021982D01*
X035546Y022054D01*
X035357Y022054D01*
X035182Y021982D01*
X035058Y021857D01*
X034933Y021982D01*
X034759Y022054D01*
X034570Y022054D01*
X034395Y021982D01*
X034270Y021857D01*
X034146Y021982D01*
X033971Y022054D01*
X033782Y022054D01*
X033608Y021982D01*
X033474Y021848D01*
X033402Y021674D01*
X033402Y021588D01*
X033309Y021681D01*
X033309Y021737D01*
X033250Y021880D01*
X033140Y021990D01*
X032997Y022049D01*
X032843Y022049D01*
X032700Y021990D01*
X032590Y021880D01*
X032531Y021737D01*
X032531Y021583D01*
X032590Y021440D01*
X032700Y021330D01*
X032843Y021271D01*
X032899Y021271D01*
X033756Y020414D01*
X033862Y020370D01*
X038050Y020370D01*
X038380Y020040D01*
X032210Y020040D01*
X032210Y019720D02*
X038380Y019720D01*
X038380Y019660D02*
X032210Y019660D01*
X032210Y021218D01*
X032166Y021324D01*
X032084Y021406D01*
X031969Y021521D01*
X031997Y021521D01*
X032140Y021580D01*
X032250Y021690D01*
X032309Y021833D01*
X032309Y021987D01*
X032250Y022130D01*
X032140Y022240D01*
X031997Y022299D01*
X031941Y022299D01*
X030559Y023681D01*
X030559Y023737D01*
X030556Y023745D01*
X032103Y023745D01*
X032209Y023789D01*
X032291Y023871D01*
X035541Y027121D01*
X035585Y027227D01*
X035585Y028374D01*
X035541Y028481D01*
X034746Y029275D01*
X034746Y029331D01*
X034687Y029474D01*
X034578Y029583D01*
X034435Y029642D01*
X034280Y029642D01*
X034137Y029583D01*
X034098Y029544D01*
X033696Y029544D01*
X033460Y029780D01*
X033460Y030290D01*
X033490Y030320D01*
X033482Y030280D01*
X033460Y030280D01*
X033482Y030280D02*
X033482Y030260D01*
X033858Y030260D01*
X033858Y030620D01*
X033896Y030620D01*
X033896Y030260D01*
X033858Y030260D01*
X033858Y030222D01*
X033896Y030222D01*
X033896Y030260D01*
X034189Y030260D01*
X034189Y030222D01*
X033896Y030222D01*
X033896Y029846D01*
X033916Y029846D01*
X033992Y029861D01*
X034064Y029891D01*
X034128Y029934D01*
X034184Y029989D01*
X034227Y030054D01*
X034227Y030054D01*
X034261Y029972D01*
X034395Y029838D01*
X034570Y029766D01*
X034759Y029766D01*
X034933Y029838D01*
X035058Y029963D01*
X035182Y029838D01*
X035357Y029766D01*
X035546Y029766D01*
X035721Y029838D01*
X035845Y029963D01*
X035970Y029838D01*
X036144Y029766D01*
X036333Y029766D01*
X036388Y029788D01*
X036174Y029574D01*
X036130Y029468D01*
X036130Y027670D01*
X036090Y027630D01*
X036031Y027487D01*
X036031Y027333D01*
X036090Y027190D01*
X036200Y027080D01*
X036343Y027021D01*
X036497Y027021D01*
X036640Y027080D01*
X036736Y027177D01*
X036736Y023996D01*
X036780Y023889D01*
X038256Y022414D01*
X038362Y022370D01*
X041050Y022370D01*
X041427Y021993D01*
X041427Y021937D01*
X041486Y021794D01*
X041595Y021685D01*
X041738Y021626D01*
X041893Y021626D01*
X042036Y021685D01*
X042145Y021794D01*
X042204Y021937D01*
X042204Y022092D01*
X042145Y022235D01*
X042036Y022344D01*
X041893Y022403D01*
X041837Y022403D01*
X041416Y022824D01*
X041334Y022906D01*
X041228Y022950D01*
X038540Y022950D01*
X037316Y024174D01*
X037316Y026748D01*
X037340Y026690D01*
X037450Y026580D01*
X037593Y026521D01*
X037747Y026521D01*
X037890Y026580D01*
X038000Y026690D01*
X038059Y026833D01*
X038059Y026987D01*
X038000Y027130D01*
X037960Y027170D01*
X037960Y029040D01*
X038040Y029120D01*
X041478Y029120D01*
X041584Y029164D01*
X041666Y029246D01*
X041916Y029496D01*
X041960Y029602D01*
X041960Y030468D01*
X041916Y030574D01*
X041834Y030656D01*
X041719Y030771D01*
X041872Y030771D01*
X042015Y030830D01*
X042125Y030940D01*
X042184Y031083D01*
X042184Y031237D01*
X042125Y031380D01*
X042015Y031490D01*
X041873Y031548D01*
X041312Y032109D01*
X041312Y033413D01*
X041262Y033534D01*
X041169Y033627D01*
X040857Y033940D01*
X040736Y033990D01*
X040104Y033990D01*
X039983Y033940D01*
X039890Y033847D01*
X039463Y033420D01*
X039209Y033420D01*
X039125Y033337D01*
X039073Y033389D01*
X038573Y033889D01*
X038474Y033930D01*
X034276Y033930D01*
X034228Y033950D01*
X034112Y033950D01*
X034006Y033906D01*
X033520Y033420D01*
X033320Y033420D01*
X032916Y033824D01*
X032834Y033906D01*
X032728Y033950D01*
X026362Y033950D01*
X026256Y033906D01*
X026174Y033824D01*
X025858Y033508D01*
X025416Y033949D01*
X025334Y034031D01*
X025228Y034075D01*
X021487Y034075D01*
X021381Y034031D01*
X021299Y033949D01*
X021299Y033949D01*
X021150Y033800D02*
X003076Y033800D01*
X003105Y033750D02*
X002932Y034050D01*
X002668Y034272D01*
X002668Y034272D01*
X002343Y034390D01*
X001997Y034390D01*
X001672Y034272D01*
X001408Y034050D01*
X001408Y034050D01*
X001235Y033750D01*
X001175Y033410D01*
X001235Y033070D01*
X001235Y033070D01*
X001408Y032770D01*
X001672Y032548D01*
X001672Y032548D01*
X001997Y032430D01*
X002220Y032430D01*
X002343Y032430D01*
X002668Y032548D01*
X002932Y032770D01*
X002932Y032770D01*
X002932Y032770D01*
X003105Y033070D01*
X003165Y033410D01*
X003105Y033750D01*
X003105Y033750D01*
X002990Y033950D02*
X002990Y034660D01*
X002670Y034660D02*
X002670Y034270D01*
X002848Y034120D02*
X043492Y034120D01*
X043408Y034050D02*
X043408Y034050D01*
X043672Y034272D01*
X043672Y034272D01*
X043997Y034390D01*
X044343Y034390D01*
X044668Y034272D01*
X044668Y034272D01*
X044932Y034050D01*
X044932Y034050D01*
X045105Y033750D01*
X045105Y033750D01*
X045165Y033410D01*
X045165Y033410D01*
X045105Y033070D01*
X045105Y033070D01*
X044932Y032770D01*
X044932Y032770D01*
X044932Y032770D01*
X044668Y032548D01*
X044668Y032548D01*
X044343Y032430D01*
X044120Y032430D01*
X043997Y032430D01*
X043672Y032548D01*
X043672Y032548D01*
X043408Y032770D01*
X043408Y032770D01*
X043235Y033070D01*
X043175Y033410D01*
X043175Y033410D01*
X043235Y033750D01*
X043235Y033750D01*
X043408Y034050D01*
X043408Y034050D01*
X043310Y033880D02*
X043310Y034660D01*
X042990Y034660D02*
X042990Y019660D01*
X042670Y019660D02*
X042670Y034660D01*
X042350Y034660D02*
X042350Y019660D01*
X042030Y019660D02*
X042030Y021682D01*
X041928Y021640D02*
X045420Y021640D01*
X045420Y021960D02*
X042204Y021960D01*
X042100Y022280D02*
X045420Y022280D01*
X045420Y022600D02*
X041640Y022600D01*
X041710Y022530D02*
X041710Y029290D01*
X041740Y029320D02*
X045420Y029320D01*
X045420Y029000D02*
X037960Y029000D01*
X038190Y029120D02*
X038190Y023300D01*
X038250Y023240D02*
X045420Y023240D01*
X045420Y022920D02*
X041300Y022920D01*
X041390Y022850D02*
X041390Y029120D01*
X041070Y029120D02*
X041070Y022950D01*
X040750Y022950D02*
X040750Y029120D01*
X040430Y029120D02*
X040430Y022950D01*
X040110Y022950D02*
X040110Y029120D01*
X039790Y029120D02*
X039790Y022950D01*
X039470Y022950D02*
X039470Y029120D01*
X039150Y029120D02*
X039150Y022950D01*
X038830Y022950D02*
X038830Y029120D01*
X038510Y029120D02*
X038510Y022980D01*
X038070Y022600D02*
X031640Y022600D01*
X031790Y022450D02*
X031790Y023745D01*
X031470Y023745D02*
X031470Y022770D01*
X031320Y022920D02*
X037750Y022920D01*
X037870Y022800D02*
X037870Y022054D01*
X038105Y021960D02*
X038310Y021960D01*
X038190Y021875D02*
X038190Y022480D01*
X038510Y022370D02*
X038510Y022054D01*
X038830Y021999D02*
X038830Y022370D01*
X039150Y022370D02*
X039150Y021995D01*
X039097Y021960D02*
X038892Y021960D01*
X038190Y021284D02*
X038190Y020950D01*
X037870Y020950D02*
X037870Y021104D01*
X037550Y021174D02*
X037550Y020950D01*
X037230Y020950D02*
X037230Y021150D01*
X036910Y021113D02*
X036910Y020950D01*
X036590Y020950D02*
X036590Y021259D01*
X036270Y021104D02*
X036270Y020950D01*
X035950Y020950D02*
X035950Y021196D01*
X035630Y021139D02*
X035630Y020950D01*
X035310Y020950D02*
X035310Y021124D01*
X034990Y021233D02*
X034990Y020950D01*
X034670Y020950D02*
X034670Y021104D01*
X034350Y021222D02*
X034350Y020950D01*
X034030Y020960D02*
X034030Y021129D01*
X033990Y021000D02*
X045420Y021000D01*
X045420Y020680D02*
X038560Y020680D01*
X038510Y020730D02*
X038510Y021104D01*
X038830Y021160D02*
X038830Y020410D01*
X038880Y020360D02*
X045420Y020360D01*
X045420Y020040D02*
X038960Y020040D01*
X038960Y019720D02*
X045420Y019720D01*
X045230Y019660D02*
X045230Y034053D01*
X045191Y034120D02*
X044848Y034120D01*
X044910Y034068D02*
X044910Y034414D01*
X044865Y034440D02*
X001475Y034440D01*
X001390Y034383D02*
X001390Y034019D01*
X001408Y034050D02*
X001408Y034050D01*
X001492Y034120D02*
X001149Y034120D01*
X001070Y033983D02*
X001070Y017554D01*
X001172Y017480D02*
X002190Y017480D01*
X002030Y017640D02*
X002030Y017203D01*
X002089Y017160D02*
X002510Y017160D01*
X002350Y017320D02*
X002350Y016784D01*
X002332Y016840D02*
X002830Y016840D01*
X002670Y017000D02*
X002670Y015160D01*
X002420Y015240D02*
X004130Y015240D01*
X003950Y015160D02*
X003950Y015720D01*
X004110Y015560D02*
X002420Y015560D01*
X002420Y015880D02*
X003790Y015880D01*
X003630Y016040D02*
X003630Y015160D01*
X003310Y015160D02*
X003310Y016360D01*
X003470Y016200D02*
X002420Y016200D01*
X002420Y016520D02*
X003150Y016520D01*
X002990Y016680D02*
X002990Y015160D01*
X002990Y014660D02*
X002990Y012390D01*
X002960Y012360D02*
X000966Y012360D01*
X000974Y012387D02*
X001066Y012514D01*
X001193Y012606D01*
X001342Y012654D01*
X001420Y012660D01*
X001578Y012660D01*
X001880Y012758D01*
X002136Y012944D01*
X002136Y012944D01*
X002136Y012944D01*
X002030Y012867D02*
X002030Y002765D01*
X001997Y002765D02*
X001672Y002647D01*
X001408Y002425D01*
X001408Y002425D01*
X001235Y002125D01*
X001175Y001785D01*
X001235Y001445D01*
X001235Y001445D01*
X001408Y001145D01*
X001672Y000923D01*
X001672Y000923D01*
X001997Y000805D01*
X002120Y000805D01*
X002343Y000805D01*
X002668Y000923D01*
X002932Y001145D01*
X002932Y001145D01*
X003105Y001445D01*
X003105Y001445D01*
X003165Y001785D01*
X003105Y002125D01*
X003105Y002125D01*
X002932Y002425D01*
X002668Y002647D01*
X002668Y002647D01*
X002343Y002765D01*
X001997Y002765D01*
X001983Y002760D02*
X000920Y002760D01*
X000920Y002440D02*
X001426Y002440D01*
X001408Y002425D02*
X001408Y002425D01*
X001390Y002394D02*
X001390Y012658D01*
X001640Y012680D02*
X003280Y012680D01*
X003780Y013320D02*
X002361Y013320D01*
X002350Y013286D02*
X002350Y002762D01*
X002357Y002760D02*
X005526Y002760D01*
X005526Y002660D02*
X005624Y002423D01*
X005805Y002242D01*
X006042Y002144D01*
X006298Y002144D01*
X006535Y002242D01*
X006716Y002423D01*
X006814Y002660D01*
X006814Y002916D01*
X006716Y003153D01*
X006535Y003334D01*
X006298Y003432D01*
X006042Y003432D01*
X005805Y003334D01*
X005624Y003153D01*
X005526Y002916D01*
X005526Y002660D01*
X005550Y002603D02*
X005550Y000660D01*
X005230Y000660D02*
X005230Y007870D01*
X005550Y007870D02*
X005550Y005729D01*
X005526Y005672D02*
X005526Y005416D01*
X005624Y005179D01*
X005805Y004998D01*
X006042Y004900D01*
X006298Y004900D01*
X006535Y004998D01*
X006716Y005179D01*
X006814Y005416D01*
X006814Y005672D01*
X006716Y005908D01*
X006535Y006090D01*
X006298Y006188D01*
X006042Y006188D01*
X005805Y006090D01*
X005624Y005908D01*
X005526Y005672D01*
X005526Y005640D02*
X000920Y005640D01*
X000920Y005320D02*
X005566Y005320D01*
X005550Y005359D02*
X005550Y002973D01*
X005594Y003080D02*
X000920Y003080D01*
X000920Y003400D02*
X005966Y003400D01*
X005870Y003360D02*
X005870Y004971D01*
X005804Y005000D02*
X000920Y005000D01*
X000920Y004680D02*
X045420Y004680D01*
X045420Y004360D02*
X000920Y004360D01*
X000920Y004040D02*
X045420Y004040D01*
X045420Y003720D02*
X000920Y003720D01*
X001672Y002647D02*
X001672Y002647D01*
X001710Y002660D02*
X001710Y012703D01*
X001880Y012758D02*
X001880Y012758D01*
X001070Y012516D02*
X001070Y001337D01*
X001015Y001432D02*
X000931Y001747D01*
X000920Y001910D01*
X000920Y012160D01*
X000926Y012238D01*
X000974Y012387D01*
X000920Y012040D02*
X002880Y012040D01*
X002880Y011720D02*
X000920Y011720D01*
X000920Y011400D02*
X002880Y011400D01*
X002880Y011080D02*
X000920Y011080D01*
X000920Y010760D02*
X002880Y010760D01*
X002880Y010440D02*
X000920Y010440D01*
X000920Y010120D02*
X002781Y010120D01*
X002990Y009814D02*
X002990Y002325D01*
X002932Y002425D02*
X002932Y002425D01*
X002914Y002440D02*
X005617Y002440D01*
X005870Y002215D02*
X005870Y000660D01*
X006190Y000660D02*
X006190Y002144D01*
X006510Y002232D02*
X006510Y000660D01*
X006830Y000660D02*
X006830Y007370D01*
X006510Y007370D02*
X006510Y006100D01*
X006664Y005960D02*
X010676Y005960D01*
X010670Y005954D02*
X010670Y007870D01*
X010350Y007870D02*
X010350Y000660D01*
X010030Y000660D02*
X010030Y007870D01*
X009710Y007870D02*
X009710Y000660D01*
X009390Y000660D02*
X009390Y007870D01*
X009070Y007870D02*
X009070Y000660D01*
X008750Y000660D02*
X008750Y007772D01*
X008430Y007850D02*
X008430Y000660D01*
X008110Y000660D02*
X008110Y007870D01*
X007790Y007870D02*
X007790Y000660D01*
X007470Y000660D02*
X007470Y007800D01*
X007230Y007560D02*
X011110Y007560D01*
X010990Y007680D02*
X010990Y006166D01*
X011042Y006188D02*
X010805Y006090D01*
X010624Y005908D01*
X010526Y005672D01*
X010526Y005416D01*
X010624Y005179D01*
X010805Y004998D01*
X011042Y004900D01*
X011298Y004900D01*
X011535Y004998D01*
X011716Y005179D01*
X011814Y005416D01*
X011814Y005672D01*
X011716Y005908D01*
X011535Y006090D01*
X011298Y006188D01*
X011042Y006188D01*
X011310Y006183D02*
X011310Y007392D01*
X011814Y005640D02*
X015526Y005640D01*
X015566Y005320D02*
X011774Y005320D01*
X011630Y005094D02*
X011630Y003238D01*
X011716Y003153D02*
X011535Y003334D01*
X011298Y003432D01*
X011042Y003432D01*
X010805Y003334D01*
X010624Y003153D01*
X010526Y002916D01*
X010526Y002660D01*
X010624Y002423D01*
X010805Y002242D01*
X011042Y002144D01*
X011298Y002144D01*
X011535Y002242D01*
X011716Y002423D01*
X011814Y002660D01*
X011814Y002916D01*
X011716Y003153D01*
X011746Y003080D02*
X015594Y003080D01*
X015790Y003318D02*
X015790Y005014D01*
X015804Y005000D02*
X011536Y005000D01*
X011310Y004905D02*
X011310Y003427D01*
X011374Y003400D02*
X015966Y003400D01*
X016110Y003432D02*
X016110Y004900D01*
X016430Y004955D02*
X016430Y003377D01*
X016374Y003400D02*
X020966Y003400D01*
X020910Y003377D02*
X020910Y004955D01*
X020804Y005000D02*
X016536Y005000D01*
X016750Y005262D02*
X016750Y003070D01*
X016746Y003080D02*
X020594Y003080D01*
X020590Y003070D02*
X020590Y005262D01*
X020566Y005320D02*
X016774Y005320D01*
X016814Y005640D02*
X020526Y005640D01*
X021230Y004900D02*
X021230Y003432D01*
X021374Y003400D02*
X025966Y003400D01*
X026030Y003427D02*
X026030Y004905D01*
X025804Y005000D02*
X021536Y005000D01*
X021550Y005014D02*
X021550Y003318D01*
X021746Y003080D02*
X025594Y003080D01*
X025710Y003238D02*
X025710Y005094D01*
X025566Y005320D02*
X021774Y005320D01*
X021814Y005640D02*
X025526Y005640D01*
X026350Y004922D02*
X026350Y003410D01*
X026374Y003400D02*
X030966Y003400D01*
X030830Y003344D02*
X030830Y004988D01*
X030804Y005000D02*
X026536Y005000D01*
X026670Y005134D02*
X026670Y003198D01*
X026746Y003080D02*
X030594Y003080D01*
X030526Y002760D02*
X026814Y002760D01*
X025526Y002760D02*
X021814Y002760D01*
X020526Y002760D02*
X016814Y002760D01*
X016430Y002199D02*
X016430Y000660D01*
X016110Y000660D02*
X016110Y002144D01*
X015790Y002258D02*
X015790Y000660D01*
X015617Y002440D02*
X011723Y002440D01*
X011630Y002338D02*
X011630Y000660D01*
X011310Y000660D02*
X011310Y002149D01*
X010990Y002166D02*
X010990Y000660D01*
X010670Y000660D02*
X010670Y002378D01*
X010617Y002440D02*
X006723Y002440D01*
X006814Y002760D02*
X010526Y002760D01*
X010594Y003080D02*
X006746Y003080D01*
X006510Y003344D02*
X006510Y004988D01*
X006536Y005000D02*
X010804Y005000D01*
X010670Y005134D02*
X010670Y003198D01*
X010966Y003400D02*
X006374Y003400D01*
X006190Y003432D02*
X006190Y004900D01*
X006774Y005320D02*
X010566Y005320D01*
X010526Y005640D02*
X006814Y005640D01*
X006190Y006188D02*
X006190Y007480D01*
X006110Y007560D02*
X000920Y007560D01*
X000920Y007240D02*
X045420Y007240D01*
X045420Y006920D02*
X000920Y006920D01*
X000920Y006600D02*
X045420Y006600D01*
X045420Y006280D02*
X000920Y006280D01*
X000920Y005960D02*
X005676Y005960D01*
X005870Y006116D02*
X005870Y007800D01*
X005550Y008450D02*
X005550Y011787D01*
X005870Y012327D02*
X005870Y014450D01*
X004130Y014600D02*
X002420Y014600D01*
X002670Y014660D02*
X002670Y002645D01*
X003106Y002120D02*
X043212Y002120D01*
X043235Y002250D02*
X043175Y001910D01*
X043235Y001570D01*
X043235Y001570D01*
X043408Y001270D01*
X043672Y001048D01*
X043672Y001048D01*
X043997Y000930D01*
X044343Y000930D01*
X044668Y001048D01*
X044932Y001270D01*
X044932Y001270D01*
X044932Y001270D01*
X045105Y001570D01*
X045165Y001910D01*
X045105Y002250D01*
X045105Y002250D01*
X044932Y002550D01*
X044668Y002772D01*
X044668Y002772D01*
X044343Y002890D01*
X044120Y002890D01*
X043997Y002890D01*
X043672Y002772D01*
X043408Y002550D01*
X043408Y002550D01*
X043235Y002250D01*
X043235Y002250D01*
X043310Y002380D02*
X043310Y012867D01*
X043163Y013000D02*
X041867Y013000D01*
X041789Y013320D02*
X042979Y013320D01*
X042990Y013286D02*
X042990Y000660D01*
X042670Y000660D02*
X042670Y014387D01*
X042626Y014280D02*
X042920Y014280D01*
X042920Y013960D02*
X042305Y013960D01*
X042350Y013979D02*
X042350Y000660D01*
X042030Y000660D02*
X042030Y008013D01*
X041940Y007880D02*
X045420Y007880D01*
X045420Y007560D02*
X037230Y007560D01*
X037230Y000660D01*
X036910Y000660D02*
X036910Y007370D01*
X036590Y007370D02*
X036590Y006034D01*
X036664Y005960D02*
X040676Y005960D01*
X040624Y005908D02*
X040526Y005672D01*
X040526Y005416D01*
X040624Y005179D01*
X040805Y004998D01*
X041042Y004900D01*
X041298Y004900D01*
X041535Y004998D01*
X041716Y005179D01*
X041814Y005416D01*
X041814Y005672D01*
X041716Y005908D01*
X041535Y006090D01*
X041298Y006188D01*
X041042Y006188D01*
X040805Y006090D01*
X040624Y005908D01*
X040750Y006034D02*
X040750Y008670D01*
X040900Y008520D02*
X038817Y008520D01*
X038830Y008514D02*
X038830Y009370D01*
X038510Y009370D02*
X038510Y008514D01*
X038523Y008520D02*
X036817Y008520D01*
X036910Y008470D02*
X036910Y009370D01*
X036590Y009370D02*
X036590Y008650D01*
X036400Y008840D02*
X040580Y008840D01*
X040430Y008990D02*
X040430Y000660D01*
X040750Y000660D02*
X040750Y002298D01*
X040805Y002242D02*
X040624Y002423D01*
X040526Y002660D01*
X040526Y002916D01*
X040624Y003153D01*
X040805Y003334D01*
X041042Y003432D01*
X041298Y003432D01*
X041535Y003334D01*
X041716Y003153D01*
X041814Y002916D01*
X041814Y002660D01*
X041716Y002423D01*
X041535Y002242D01*
X041298Y002144D01*
X041042Y002144D01*
X040805Y002242D01*
X040617Y002440D02*
X036723Y002440D01*
X036590Y002298D02*
X036590Y000660D01*
X036270Y000660D02*
X036270Y002144D01*
X035950Y002182D02*
X035950Y000660D01*
X034990Y000660D02*
X034990Y007870D01*
X034670Y007870D02*
X034670Y000660D01*
X034350Y000660D02*
X034350Y007870D01*
X034030Y007870D02*
X034030Y000660D01*
X033710Y000660D02*
X033710Y007771D01*
X033390Y007870D02*
X033390Y000660D01*
X033070Y000660D02*
X033070Y007870D01*
X032750Y007870D02*
X032750Y000660D01*
X032430Y000660D02*
X032430Y007760D01*
X032230Y007560D02*
X036110Y007560D01*
X036270Y007408D02*
X036270Y006188D01*
X035950Y006149D02*
X035950Y007720D01*
X037230Y008380D02*
X037230Y009370D01*
X037550Y009370D02*
X037550Y008450D01*
X037870Y008450D02*
X037870Y009370D01*
X038190Y009370D02*
X038190Y008450D01*
X038190Y007870D02*
X038190Y000660D01*
X037870Y000660D02*
X037870Y007870D01*
X037550Y007870D02*
X037550Y000660D01*
X038510Y000660D02*
X038510Y007806D01*
X038830Y007806D02*
X038830Y000660D01*
X039150Y000660D02*
X039150Y009370D01*
X039470Y009370D02*
X039470Y000660D01*
X039790Y000660D02*
X039790Y009370D01*
X040110Y009310D02*
X040110Y000660D01*
X041070Y000660D02*
X041070Y002144D01*
X041390Y002182D02*
X041390Y000660D01*
X041710Y000660D02*
X041710Y002418D01*
X041723Y002440D02*
X043344Y002440D01*
X043408Y002550D02*
X043408Y002550D01*
X043630Y002736D02*
X043630Y012703D01*
X043700Y012680D02*
X041780Y012680D01*
X041710Y012603D02*
X041710Y008549D01*
X041817Y008520D02*
X045420Y008520D01*
X045420Y008200D02*
X042059Y008200D01*
X042030Y008307D02*
X042030Y013913D01*
X041835Y013960D02*
X040630Y013960D01*
X040750Y014080D02*
X040750Y013614D01*
X040430Y013614D02*
X040430Y013760D01*
X040310Y013640D02*
X042920Y013640D01*
X041710Y013417D02*
X041710Y014023D01*
X041514Y014280D02*
X040950Y014280D01*
X041070Y014400D02*
X041070Y013614D01*
X041390Y013611D02*
X041390Y014620D01*
X041466Y014600D02*
X041270Y014600D01*
X041390Y015200D02*
X041390Y019160D01*
X041070Y019160D02*
X041070Y015182D01*
X040770Y014920D02*
X040274Y014920D01*
X040274Y015240D02*
X041466Y015240D01*
X041523Y015560D02*
X040217Y015560D01*
X040210Y015880D02*
X041884Y015880D01*
X042030Y015907D02*
X042030Y019160D01*
X041710Y019160D02*
X041710Y015797D01*
X042256Y015880D02*
X042920Y015880D01*
X042920Y015560D02*
X042617Y015560D01*
X042670Y015433D02*
X042670Y019160D01*
X042990Y019160D02*
X042990Y016784D01*
X043008Y016840D02*
X040210Y016840D01*
X040210Y016520D02*
X042920Y016520D01*
X042920Y016200D02*
X040210Y016200D01*
X040210Y017160D02*
X043251Y017160D01*
X043310Y017203D02*
X043310Y019160D01*
X043630Y019160D02*
X043630Y017367D01*
X043950Y017410D02*
X043950Y019160D01*
X044270Y019160D02*
X044270Y017410D01*
X044590Y017410D02*
X044590Y019160D01*
X044910Y019160D02*
X044910Y017410D01*
X045168Y017480D02*
X040210Y017480D01*
X040210Y017800D02*
X045404Y017800D01*
X045420Y018120D02*
X040210Y018120D01*
X040210Y018440D02*
X045420Y018440D01*
X045420Y018760D02*
X040210Y018760D01*
X040210Y019080D02*
X045420Y019080D01*
X045230Y019160D02*
X045230Y017525D01*
X044910Y019660D02*
X044910Y032752D01*
X044973Y032840D02*
X045420Y032840D01*
X045420Y033160D02*
X045121Y033160D01*
X045153Y033480D02*
X045415Y033480D01*
X045349Y033800D02*
X045076Y033800D01*
X044590Y034300D02*
X044590Y034580D01*
X044270Y034653D02*
X044270Y034390D01*
X043950Y034373D02*
X043950Y034660D01*
X043630Y034660D02*
X043630Y034236D01*
X043264Y033800D02*
X040997Y033800D01*
X041070Y033727D02*
X041070Y034660D01*
X040750Y034660D02*
X040750Y033984D01*
X040430Y033990D02*
X040430Y034660D01*
X040110Y034660D02*
X040110Y033990D01*
X039843Y033800D02*
X038662Y033800D01*
X038510Y033915D02*
X038510Y034660D01*
X038830Y034660D02*
X038830Y033632D01*
X038982Y033480D02*
X039523Y033480D01*
X039470Y033427D02*
X039470Y034660D01*
X039790Y034660D02*
X039790Y033747D01*
X039150Y033361D02*
X039150Y034660D01*
X038190Y034660D02*
X038190Y033930D01*
X037870Y033930D02*
X037870Y034660D01*
X037550Y034660D02*
X037550Y033930D01*
X037230Y033930D02*
X037230Y034660D01*
X036910Y034660D02*
X036910Y033930D01*
X036590Y033930D02*
X036590Y034660D01*
X036270Y034660D02*
X036270Y033930D01*
X035950Y033930D02*
X035950Y034660D01*
X035630Y034660D02*
X035630Y033930D01*
X035310Y033930D02*
X035310Y034660D01*
X034990Y034660D02*
X034990Y033930D01*
X034670Y033930D02*
X034670Y034660D01*
X034350Y034660D02*
X034350Y033930D01*
X034030Y033916D02*
X034030Y034660D01*
X033710Y034660D02*
X033710Y033610D01*
X033580Y033480D02*
X033260Y033480D01*
X033390Y033420D02*
X033390Y034660D01*
X033070Y034660D02*
X033070Y033670D01*
X032940Y033800D02*
X033900Y033800D01*
X032916Y033824D02*
X032916Y033824D01*
X032750Y033941D02*
X032750Y034660D01*
X032430Y034660D02*
X032430Y033950D01*
X032110Y033950D02*
X032110Y034660D01*
X031790Y034660D02*
X031790Y033950D01*
X031470Y033950D02*
X031470Y034660D01*
X031150Y034660D02*
X031150Y033950D01*
X030830Y033950D02*
X030830Y034660D01*
X030510Y034660D02*
X030510Y033950D01*
X030190Y033950D02*
X030190Y034660D01*
X029870Y034660D02*
X029870Y033950D01*
X029550Y033950D02*
X029550Y034660D01*
X029230Y034660D02*
X029230Y033950D01*
X028910Y033950D02*
X028910Y034660D01*
X028590Y034660D02*
X028590Y033950D01*
X028270Y033950D02*
X028270Y034660D01*
X027950Y034660D02*
X027950Y033950D01*
X027630Y033950D02*
X027630Y034660D01*
X027310Y034660D02*
X027310Y033950D01*
X026990Y033950D02*
X026990Y034660D01*
X026670Y034660D02*
X026670Y033950D01*
X026350Y033945D02*
X026350Y034660D01*
X026030Y034660D02*
X026030Y033680D01*
X026150Y033800D02*
X025565Y033800D01*
X025710Y033655D02*
X025710Y034660D01*
X025390Y034660D02*
X025390Y033975D01*
X025070Y034075D02*
X025070Y034660D01*
X024750Y034660D02*
X024750Y034075D01*
X024430Y034075D02*
X024430Y034660D01*
X024110Y034660D02*
X024110Y034075D01*
X023790Y034075D02*
X023790Y034660D01*
X026174Y033824D02*
X026174Y033824D01*
X026681Y033370D02*
X029159Y033370D01*
X028910Y033121D01*
X028910Y033370D01*
X028949Y033160D02*
X028778Y033160D01*
X028850Y033088D02*
X028598Y033340D01*
X028470Y033340D01*
X028470Y032960D01*
X028850Y032960D01*
X028850Y033088D01*
X028910Y033121D02*
X028910Y032699D01*
X028910Y032141D01*
X028920Y032131D02*
X028631Y032420D01*
X028209Y032420D01*
X027920Y032131D01*
X027631Y032420D01*
X027209Y032420D01*
X026920Y032131D01*
X026641Y032410D01*
X026930Y032699D01*
X026930Y033121D01*
X026681Y033370D01*
X026891Y033160D02*
X027062Y033160D01*
X026990Y033088D02*
X026990Y033370D01*
X027242Y033340D02*
X026990Y033088D01*
X026990Y032960D01*
X026990Y032860D01*
X026990Y032732D01*
X026990Y032201D01*
X026989Y032200D02*
X026851Y032200D01*
X026670Y032381D02*
X026670Y032439D01*
X026751Y032520D02*
X027202Y032520D01*
X027242Y032480D02*
X027370Y032480D01*
X027370Y032860D01*
X027470Y032860D01*
X027470Y032960D01*
X027850Y032960D01*
X027850Y033088D01*
X027598Y033340D01*
X027470Y033340D01*
X027470Y032960D01*
X027370Y032960D01*
X027370Y033340D01*
X027242Y033340D01*
X027310Y033340D02*
X027310Y033370D01*
X027370Y033160D02*
X027470Y033160D01*
X027630Y033308D02*
X027630Y033370D01*
X027778Y033160D02*
X028062Y033160D01*
X027990Y033088D02*
X028242Y033340D01*
X028370Y033340D01*
X028370Y032960D01*
X028470Y032960D01*
X028470Y032860D01*
X028850Y032860D01*
X028850Y032732D01*
X028598Y032480D01*
X028470Y032480D01*
X028470Y032860D01*
X028370Y032860D01*
X028370Y032480D01*
X028242Y032480D01*
X027990Y032732D01*
X027990Y032860D01*
X028370Y032860D01*
X028370Y032960D01*
X027990Y032960D01*
X027990Y033088D01*
X027990Y032840D02*
X027850Y032840D01*
X027850Y032860D02*
X027470Y032860D01*
X027470Y032480D01*
X027598Y032480D01*
X027850Y032732D01*
X027850Y032860D01*
X027630Y032860D02*
X027630Y032960D01*
X027470Y032840D02*
X027370Y032840D01*
X027370Y032860D02*
X026990Y032860D01*
X026990Y032840D02*
X026930Y032840D01*
X026990Y032732D02*
X027242Y032480D01*
X027310Y032480D02*
X027310Y032420D01*
X027370Y032520D02*
X027470Y032520D01*
X027630Y032512D02*
X027630Y032420D01*
X027638Y032520D02*
X028202Y032520D01*
X028270Y032480D02*
X028270Y032420D01*
X028370Y032520D02*
X028470Y032520D01*
X028590Y032480D02*
X028590Y032420D01*
X028638Y032520D02*
X029089Y032520D01*
X029199Y032410D02*
X028910Y032699D01*
X028910Y032840D02*
X028850Y032840D01*
X028590Y032860D02*
X028590Y032960D01*
X028470Y032840D02*
X028370Y032840D01*
X028270Y032860D02*
X028270Y032960D01*
X028370Y033160D02*
X028470Y033160D01*
X028590Y033340D02*
X028590Y033370D01*
X028270Y033370D02*
X028270Y033340D01*
X027950Y033370D02*
X027950Y032161D01*
X027989Y032200D02*
X027851Y032200D01*
X027370Y032860D02*
X027370Y032960D01*
X026990Y032960D01*
X027310Y032960D02*
X027310Y032860D01*
X028851Y032200D02*
X028989Y032200D01*
X028920Y032131D02*
X029199Y032410D01*
X030751Y032520D02*
X031202Y032520D01*
X031242Y032480D02*
X031370Y032480D01*
X031370Y032860D01*
X031470Y032860D01*
X031470Y032960D01*
X031850Y032960D01*
X031850Y033088D01*
X031598Y033340D01*
X031470Y033340D01*
X031470Y033370D01*
X031470Y033340D02*
X031470Y032960D01*
X031370Y032960D01*
X031370Y033340D01*
X031242Y033340D01*
X030990Y033088D01*
X030990Y032960D01*
X031370Y032960D01*
X031370Y032860D01*
X030990Y032860D01*
X030990Y032732D01*
X031242Y032480D01*
X031150Y032572D02*
X031150Y032248D01*
X031102Y032200D02*
X030851Y032200D01*
X030830Y032221D02*
X030830Y032599D01*
X030930Y032840D02*
X030990Y032840D01*
X031150Y032860D02*
X031150Y032960D01*
X031062Y033160D02*
X030891Y033160D01*
X030830Y033221D02*
X030830Y033370D01*
X031150Y033370D02*
X031150Y033248D01*
X031370Y033160D02*
X031470Y033160D01*
X031470Y032860D02*
X031850Y032860D01*
X031850Y032732D01*
X031598Y032480D01*
X031470Y032480D01*
X031470Y032340D01*
X031470Y031960D01*
X031850Y031960D01*
X031850Y032088D01*
X031598Y032340D01*
X031470Y032340D01*
X031470Y032200D02*
X031370Y032200D01*
X031470Y032480D02*
X031470Y032860D01*
X031470Y032840D02*
X031370Y032840D01*
X031370Y032520D02*
X031470Y032520D01*
X031638Y032520D02*
X032089Y032520D01*
X032110Y032499D02*
X032110Y032321D01*
X031989Y032200D02*
X031738Y032200D01*
X031790Y032148D02*
X031790Y032672D01*
X031850Y032840D02*
X031910Y032840D01*
X031790Y032860D02*
X031790Y032960D01*
X031790Y033148D02*
X031790Y033370D01*
X031778Y033160D02*
X031949Y033160D01*
X032110Y033321D02*
X032110Y033370D01*
X031790Y031960D02*
X031790Y031860D01*
X031910Y031880D02*
X031470Y031880D01*
X031370Y031880D02*
X030930Y031880D01*
X031150Y031860D02*
X031150Y031960D01*
X030809Y030920D02*
X031630Y030920D01*
X033482Y030222D02*
X033482Y030202D01*
X033497Y030125D01*
X033527Y030054D01*
X033570Y029989D01*
X033625Y029934D01*
X033690Y029891D01*
X033761Y029861D01*
X033838Y029846D01*
X033858Y029846D01*
X033858Y030222D01*
X033482Y030222D01*
X033710Y030222D02*
X033710Y030260D01*
X033858Y030280D02*
X033896Y030280D01*
X034030Y030260D02*
X034030Y030222D01*
X034155Y029960D02*
X034273Y029960D01*
X034350Y029883D02*
X034350Y029642D01*
X034274Y029640D02*
X033600Y029640D01*
X033710Y029544D02*
X033710Y029882D01*
X033599Y029960D02*
X033460Y029960D01*
X033858Y029960D02*
X033896Y029960D01*
X034030Y029877D02*
X034030Y029544D01*
X034441Y029640D02*
X036240Y029640D01*
X036270Y029670D02*
X036270Y029766D01*
X035950Y029858D02*
X035950Y021962D01*
X035948Y021960D02*
X035743Y021960D01*
X035630Y022019D02*
X035630Y029801D01*
X035843Y029960D02*
X035848Y029960D01*
X035310Y029785D02*
X035310Y028711D01*
X035341Y028680D02*
X036130Y028680D01*
X036130Y029000D02*
X035021Y029000D01*
X034990Y029031D02*
X034990Y029895D01*
X035055Y029960D02*
X035060Y029960D01*
X034670Y029766D02*
X034670Y029491D01*
X034746Y029320D02*
X036130Y029320D01*
X036130Y028360D02*
X035585Y028360D01*
X035585Y028040D02*
X036130Y028040D01*
X036130Y027720D02*
X035585Y027720D01*
X035585Y027400D02*
X036031Y027400D01*
X036201Y027080D02*
X035500Y027080D01*
X035310Y026890D02*
X035310Y022035D01*
X035160Y021960D02*
X034955Y021960D01*
X034990Y021925D02*
X034990Y026570D01*
X034860Y026440D02*
X036736Y026440D01*
X036736Y026120D02*
X034540Y026120D01*
X034670Y026250D02*
X034670Y022054D01*
X034373Y021960D02*
X034168Y021960D01*
X034030Y022030D02*
X034030Y025610D01*
X033900Y025480D02*
X036736Y025480D01*
X036736Y025160D02*
X033580Y025160D01*
X033710Y025290D02*
X033710Y022024D01*
X033586Y021960D02*
X033170Y021960D01*
X033070Y022019D02*
X033070Y024650D01*
X032940Y024520D02*
X036736Y024520D01*
X036736Y024200D02*
X032620Y024200D01*
X032750Y024330D02*
X032750Y022010D01*
X032670Y021960D02*
X032309Y021960D01*
X032200Y021640D02*
X032531Y021640D01*
X032725Y021320D02*
X032168Y021320D01*
X032110Y021380D02*
X032110Y021568D01*
X032210Y021000D02*
X033170Y021000D01*
X033070Y021100D02*
X033070Y019660D01*
X032750Y019660D02*
X032750Y021310D01*
X033350Y021640D02*
X033402Y021640D01*
X033390Y021600D02*
X033390Y024970D01*
X033260Y024840D02*
X036736Y024840D01*
X037316Y024840D02*
X045420Y024840D01*
X045420Y024520D02*
X037316Y024520D01*
X037316Y024200D02*
X045420Y024200D01*
X045420Y023880D02*
X037610Y023880D01*
X037550Y023940D02*
X037550Y026539D01*
X037316Y026440D02*
X045420Y026440D01*
X045420Y026120D02*
X037316Y026120D01*
X037316Y025800D02*
X045420Y025800D01*
X045420Y025480D02*
X037316Y025480D01*
X037316Y025160D02*
X045420Y025160D01*
X045420Y023560D02*
X037930Y023560D01*
X037870Y023620D02*
X037870Y026572D01*
X038029Y026760D02*
X045420Y026760D01*
X045420Y027080D02*
X038020Y027080D01*
X037960Y027400D02*
X045420Y027400D01*
X045420Y027720D02*
X037960Y027720D01*
X037960Y028040D02*
X045420Y028040D01*
X045420Y028360D02*
X037960Y028360D01*
X037960Y028680D02*
X045420Y028680D01*
X045420Y029640D02*
X041960Y029640D01*
X041960Y029960D02*
X045420Y029960D01*
X045420Y030280D02*
X041960Y030280D01*
X041890Y030600D02*
X045420Y030600D01*
X045420Y030920D02*
X042105Y030920D01*
X042030Y030845D02*
X042030Y022346D01*
X041390Y022030D02*
X041390Y021790D01*
X041438Y021640D02*
X041704Y021640D01*
X041710Y021637D02*
X041710Y019660D01*
X041390Y019660D02*
X041390Y021368D01*
X041370Y021320D02*
X045420Y021320D01*
X044590Y019660D02*
X044590Y032520D01*
X045420Y032520D01*
X045420Y032200D02*
X041312Y032200D01*
X041390Y032032D02*
X041390Y034660D01*
X041710Y034660D02*
X041710Y031712D01*
X041862Y031560D02*
X045420Y031560D01*
X045420Y031240D02*
X042183Y031240D01*
X042030Y031475D02*
X042030Y034660D01*
X041285Y033480D02*
X043187Y033480D01*
X043219Y033160D02*
X041312Y033160D01*
X041312Y032840D02*
X043367Y032840D01*
X043310Y032940D02*
X043310Y019660D01*
X043630Y019660D02*
X043630Y032584D01*
X043750Y032520D02*
X041312Y032520D01*
X040653Y032520D02*
X040638Y032520D01*
X040653Y032534D02*
X040653Y032286D01*
X040598Y032340D01*
X040470Y032340D01*
X040470Y031960D01*
X040370Y031960D01*
X040370Y032340D01*
X040242Y032340D01*
X039990Y032088D01*
X039990Y031960D01*
X040370Y031960D01*
X040370Y031860D01*
X040470Y031860D01*
X040470Y031480D01*
X040598Y031480D01*
X040803Y031685D01*
X040940Y031549D01*
X040843Y031549D01*
X040700Y031490D01*
X040590Y031380D01*
X040531Y031237D01*
X040531Y031083D01*
X040458Y031156D01*
X040352Y031200D01*
X039540Y031200D01*
X039340Y031400D01*
X039631Y031400D01*
X039930Y031699D01*
X039930Y032121D01*
X039750Y032301D01*
X039750Y032519D01*
X039930Y032699D01*
X039930Y032953D01*
X039990Y033013D01*
X039990Y032960D01*
X040370Y032960D01*
X040370Y032860D01*
X040470Y032860D01*
X040470Y032480D01*
X040598Y032480D01*
X040653Y032534D01*
X040470Y032520D02*
X040370Y032520D01*
X040370Y032480D02*
X040370Y032860D01*
X039990Y032860D01*
X039990Y032732D01*
X040242Y032480D01*
X040370Y032480D01*
X040202Y032520D02*
X039751Y032520D01*
X039790Y032559D02*
X039790Y032261D01*
X039851Y032200D02*
X040102Y032200D01*
X040110Y032208D02*
X040110Y032612D01*
X040110Y032860D02*
X040110Y032960D01*
X039990Y032840D02*
X039930Y032840D01*
X040370Y032840D02*
X040470Y032840D01*
X040430Y032860D02*
X040430Y031960D01*
X040370Y031880D02*
X039930Y031880D01*
X039990Y031860D02*
X039990Y031732D01*
X040242Y031480D01*
X040370Y031480D01*
X040370Y031860D01*
X039990Y031860D01*
X040110Y031860D02*
X040110Y031960D01*
X040430Y031860D02*
X040430Y031168D01*
X040532Y031240D02*
X039500Y031240D01*
X039470Y031270D02*
X039470Y031400D01*
X039790Y031559D02*
X039790Y031200D01*
X040110Y031200D02*
X040110Y031612D01*
X040162Y031560D02*
X039791Y031560D01*
X040370Y031560D02*
X040470Y031560D01*
X040678Y031560D02*
X040928Y031560D01*
X040750Y031510D02*
X040750Y031632D01*
X040470Y032200D02*
X040370Y032200D01*
X041542Y031880D02*
X045420Y031880D01*
X044270Y032430D02*
X044270Y019660D01*
X043950Y019660D02*
X043950Y032447D01*
X036736Y027080D02*
X036639Y027080D01*
X036590Y027060D02*
X036590Y021900D01*
X036530Y021960D02*
X036735Y021960D01*
X036910Y022045D02*
X036910Y023760D01*
X036790Y023880D02*
X032300Y023880D01*
X032291Y023871D02*
X032291Y023871D01*
X032430Y024010D02*
X032430Y019660D01*
X032430Y019160D02*
X032430Y009950D01*
X032110Y009950D02*
X032110Y010700D01*
X032171Y010760D02*
X045420Y010760D01*
X045420Y010440D02*
X029710Y010440D01*
X029870Y010700D02*
X029870Y010120D01*
X045420Y010120D01*
X045420Y009800D02*
X040440Y009800D01*
X040430Y009810D02*
X040430Y012406D01*
X040750Y012406D02*
X040750Y009490D01*
X040760Y009480D02*
X045420Y009480D01*
X045420Y009160D02*
X041080Y009160D01*
X041070Y009170D02*
X041070Y012406D01*
X041390Y012409D02*
X041390Y008850D01*
X041400Y008840D02*
X045420Y008840D01*
X045420Y011080D02*
X032380Y011080D01*
X032331Y011400D02*
X045420Y011400D01*
X045420Y011720D02*
X032210Y011720D01*
X032210Y012040D02*
X045420Y012040D01*
X045374Y012360D02*
X032210Y012360D01*
X032210Y012680D02*
X039960Y012680D01*
X040110Y012523D02*
X040110Y009950D01*
X039790Y009950D02*
X039790Y013370D01*
X039951Y013320D02*
X032210Y013320D01*
X032210Y013000D02*
X039873Y013000D01*
X039470Y013370D02*
X039470Y009950D01*
X039150Y009950D02*
X039150Y013370D01*
X038830Y013383D02*
X038830Y009950D01*
X038510Y009950D02*
X038510Y013660D01*
X038530Y013640D02*
X032210Y013640D01*
X032210Y013960D02*
X038380Y013960D01*
X038380Y014280D02*
X032210Y014280D01*
X032210Y014600D02*
X038380Y014600D01*
X038380Y014920D02*
X032210Y014920D01*
X032210Y015240D02*
X038380Y015240D01*
X038380Y015560D02*
X032210Y015560D01*
X032210Y015880D02*
X038380Y015880D01*
X038380Y016200D02*
X032210Y016200D01*
X032210Y016520D02*
X038380Y016520D01*
X038380Y016840D02*
X032210Y016840D01*
X032210Y017160D02*
X038380Y017160D01*
X038380Y017480D02*
X032210Y017480D01*
X032210Y017800D02*
X038380Y017800D01*
X038380Y018120D02*
X032210Y018120D01*
X032210Y018440D02*
X038380Y018440D01*
X038380Y018760D02*
X032210Y018760D01*
X032210Y019080D02*
X038380Y019080D01*
X038190Y019160D02*
X038190Y009950D01*
X037870Y009950D02*
X037870Y019160D01*
X037550Y019160D02*
X037550Y009950D01*
X037230Y009950D02*
X037230Y019160D01*
X036910Y019160D02*
X036910Y009950D01*
X036590Y009950D02*
X036590Y019160D01*
X036270Y019160D02*
X036270Y009950D01*
X035950Y009950D02*
X035950Y019160D01*
X035630Y019160D02*
X035630Y009950D01*
X035310Y009950D02*
X035310Y019160D01*
X034990Y019160D02*
X034990Y009950D01*
X034670Y009950D02*
X034670Y019160D01*
X034350Y019160D02*
X034350Y009950D01*
X034030Y009950D02*
X034030Y019160D01*
X033710Y019160D02*
X033710Y009950D01*
X033390Y009950D02*
X033390Y019160D01*
X033070Y019160D02*
X033070Y009950D01*
X032750Y009950D02*
X032750Y019160D01*
X033390Y019660D02*
X033390Y020780D01*
X033490Y020680D02*
X032210Y020680D01*
X032210Y020360D02*
X038060Y020360D01*
X038190Y020230D02*
X038190Y019660D01*
X038380Y019660D02*
X038380Y020040D01*
X037870Y020370D02*
X037870Y019660D01*
X037550Y019660D02*
X037550Y020370D01*
X037230Y020370D02*
X037230Y019660D01*
X036910Y019660D02*
X036910Y020370D01*
X036590Y020370D02*
X036590Y019660D01*
X036270Y019660D02*
X036270Y020370D01*
X035950Y020370D02*
X035950Y019660D01*
X035630Y019660D02*
X035630Y020370D01*
X035310Y020370D02*
X035310Y019660D01*
X034990Y019660D02*
X034990Y020370D01*
X034670Y020370D02*
X034670Y019660D01*
X034350Y019660D02*
X034350Y020370D01*
X034030Y020370D02*
X034030Y019660D01*
X033710Y019660D02*
X033710Y020460D01*
X034350Y021937D02*
X034350Y025930D01*
X034220Y025800D02*
X036736Y025800D01*
X036736Y026760D02*
X035180Y026760D01*
X036270Y027051D02*
X036270Y022054D01*
X037230Y022009D02*
X037230Y023440D01*
X037110Y023560D02*
X030680Y023560D01*
X030830Y023410D02*
X030830Y023745D01*
X031150Y023745D02*
X031150Y023090D01*
X031000Y023240D02*
X037430Y023240D01*
X037550Y023120D02*
X037550Y021984D01*
X037523Y021960D02*
X037317Y021960D01*
X039150Y021164D02*
X039150Y019660D01*
X039470Y019660D02*
X039470Y021104D01*
X039790Y021293D02*
X039790Y019660D01*
X040110Y019660D02*
X040110Y021104D01*
X040430Y021170D02*
X040430Y019660D01*
X040750Y019660D02*
X040750Y021154D01*
X041070Y021109D02*
X041070Y019660D01*
X040750Y019160D02*
X040750Y014900D01*
X040450Y014600D02*
X040274Y014600D01*
X040430Y014580D02*
X040430Y019160D01*
X042350Y019160D02*
X042350Y015841D01*
X042674Y015240D02*
X042920Y015240D01*
X042920Y014920D02*
X042674Y014920D01*
X042674Y014600D02*
X042920Y014600D01*
X043950Y012660D02*
X043950Y002873D01*
X043997Y002890D02*
X043997Y002890D01*
X044270Y002890D02*
X044270Y012660D01*
X044590Y012660D02*
X044590Y002800D01*
X044682Y002760D02*
X045420Y002760D01*
X045420Y002440D02*
X044996Y002440D01*
X044932Y002550D02*
X044932Y002550D01*
X044910Y002568D02*
X044910Y012660D01*
X045230Y012545D02*
X045230Y001267D01*
X045168Y001160D02*
X044801Y001160D01*
X044910Y001252D02*
X044910Y000906D01*
X044795Y000840D02*
X002439Y000840D01*
X002350Y000808D02*
X002350Y000660D01*
X002670Y000660D02*
X002670Y000925D01*
X002668Y000923D02*
X002668Y000923D01*
X002941Y001160D02*
X043539Y001160D01*
X043630Y001084D02*
X043630Y000660D01*
X043950Y000660D02*
X043950Y000947D01*
X044270Y000930D02*
X044270Y000667D01*
X044590Y000740D02*
X044590Y001020D01*
X044668Y001048D02*
X044668Y001048D01*
X045053Y001480D02*
X045338Y001480D01*
X045105Y001570D02*
X045105Y001570D01*
X045146Y001800D02*
X045413Y001800D01*
X045165Y001910D02*
X045165Y001910D01*
X045128Y002120D02*
X045420Y002120D01*
X045420Y003080D02*
X041746Y003080D01*
X041710Y003158D02*
X041710Y005174D01*
X041774Y005320D02*
X045420Y005320D01*
X045420Y005000D02*
X041536Y005000D01*
X041390Y004938D02*
X041390Y003394D01*
X041374Y003400D02*
X045420Y003400D01*
X043672Y002772D02*
X043672Y002772D01*
X043658Y002760D02*
X041814Y002760D01*
X041070Y003432D02*
X041070Y004900D01*
X040804Y005000D02*
X036536Y005000D01*
X036590Y005054D02*
X036590Y003278D01*
X036374Y003400D02*
X040966Y003400D01*
X040750Y003278D02*
X040750Y005054D01*
X040566Y005320D02*
X036774Y005320D01*
X036814Y005640D02*
X040526Y005640D01*
X041070Y006188D02*
X041070Y008350D01*
X041220Y008200D02*
X039059Y008200D01*
X038940Y007880D02*
X041400Y007880D01*
X041390Y007890D02*
X041390Y006149D01*
X041664Y005960D02*
X045420Y005960D01*
X045420Y005640D02*
X041814Y005640D01*
X041710Y005914D02*
X041710Y007771D01*
X040260Y009160D02*
X036080Y009160D01*
X035950Y009290D02*
X035950Y009370D01*
X036270Y009370D02*
X036270Y008970D01*
X035676Y005960D02*
X031664Y005960D01*
X031790Y005359D02*
X031790Y002973D01*
X031746Y003080D02*
X035594Y003080D01*
X035630Y003158D02*
X035630Y005174D01*
X035566Y005320D02*
X031774Y005320D01*
X031536Y005000D02*
X035804Y005000D01*
X035950Y004938D02*
X035950Y003394D01*
X035966Y003400D02*
X031374Y003400D01*
X031470Y003360D02*
X031470Y004971D01*
X031150Y004900D02*
X031150Y003432D01*
X031814Y002760D02*
X035526Y002760D01*
X036270Y003432D02*
X036270Y004900D01*
X036746Y003080D02*
X040594Y003080D01*
X040526Y002760D02*
X036814Y002760D01*
X032110Y000660D02*
X032110Y007440D01*
X030526Y005640D02*
X026814Y005640D01*
X026774Y005320D02*
X030566Y005320D01*
X030510Y009950D02*
X030510Y010919D01*
X030460Y011080D02*
X030380Y011080D01*
X030331Y011400D02*
X030509Y011400D01*
X030510Y011401D02*
X030510Y016160D01*
X030470Y016200D02*
X028620Y016200D01*
X028590Y016170D02*
X028590Y016100D01*
X028910Y016038D02*
X028910Y016350D01*
X029033Y016520D02*
X030150Y016520D01*
X030190Y016480D02*
X030190Y011541D01*
X029870Y011620D02*
X029870Y016800D01*
X029830Y016840D02*
X029016Y016840D01*
X028910Y016970D02*
X028910Y017760D01*
X028590Y017720D02*
X028590Y017048D01*
X028324Y016840D02*
X027760Y016840D01*
X027630Y016710D02*
X027630Y016450D01*
X027440Y016520D02*
X028120Y016520D01*
X027950Y016450D02*
X027950Y017030D01*
X028080Y017160D02*
X029510Y017160D01*
X029550Y017120D02*
X029550Y014940D01*
X029570Y014920D02*
X030630Y014920D01*
X030630Y015240D02*
X029250Y015240D01*
X029230Y015260D02*
X029230Y017440D01*
X029190Y017480D02*
X028400Y017480D01*
X028270Y017350D02*
X028270Y016670D01*
X029062Y015880D02*
X030630Y015880D01*
X030630Y015560D02*
X029120Y015560D01*
X029710Y014600D02*
X030630Y014600D01*
X030630Y014280D02*
X029710Y014280D01*
X029710Y013960D02*
X030630Y013960D01*
X030630Y013640D02*
X029710Y013640D01*
X029710Y013320D02*
X030630Y013320D01*
X030630Y013000D02*
X029710Y013000D01*
X029710Y012680D02*
X030630Y012680D01*
X030630Y012360D02*
X029710Y012360D01*
X029710Y012040D02*
X030630Y012040D01*
X030630Y011720D02*
X029710Y011720D01*
X030190Y010779D02*
X030190Y009950D01*
X030830Y009950D02*
X030830Y010700D01*
X030669Y010760D02*
X030171Y010760D01*
X031150Y010739D02*
X031150Y009950D01*
X031470Y009950D02*
X031470Y010959D01*
X031460Y011080D02*
X031380Y011080D01*
X031470Y011361D02*
X031470Y019160D01*
X031630Y019080D02*
X028808Y019080D01*
X028910Y019038D02*
X028910Y019160D01*
X028590Y019160D02*
X028590Y019100D01*
X028532Y019080D02*
X028460Y019080D01*
X029112Y018760D02*
X031630Y018760D01*
X031630Y018440D02*
X029120Y018440D01*
X029230Y018260D02*
X029230Y019160D01*
X029550Y019160D02*
X029550Y017940D01*
X029690Y017800D02*
X031630Y017800D01*
X031630Y017480D02*
X030010Y017480D01*
X029870Y017620D02*
X029870Y019160D01*
X030190Y019160D02*
X030190Y017300D01*
X030330Y017160D02*
X031630Y017160D01*
X031630Y016840D02*
X030650Y016840D01*
X030510Y016980D02*
X030510Y019160D01*
X030830Y019160D02*
X030830Y016660D01*
X030970Y016520D02*
X031630Y016520D01*
X031630Y016200D02*
X031210Y016200D01*
X031150Y016340D02*
X031150Y019160D01*
X031630Y018120D02*
X029370Y018120D01*
X031210Y015880D02*
X031630Y015880D01*
X031630Y015560D02*
X031210Y015560D01*
X031210Y015240D02*
X031630Y015240D01*
X031630Y014920D02*
X031210Y014920D01*
X031210Y014600D02*
X031630Y014600D01*
X031630Y014280D02*
X031210Y014280D01*
X031210Y013960D02*
X031630Y013960D01*
X031630Y013640D02*
X031210Y013640D01*
X031210Y013320D02*
X031630Y013320D01*
X031630Y013000D02*
X031210Y013000D01*
X031210Y012680D02*
X031630Y012680D01*
X031630Y012360D02*
X031210Y012360D01*
X031210Y012040D02*
X031630Y012040D01*
X031630Y011720D02*
X031210Y011720D01*
X031331Y011400D02*
X031509Y011400D01*
X031669Y010760D02*
X031171Y010760D01*
X031790Y010700D02*
X031790Y009950D01*
X022190Y007520D02*
X022190Y000660D01*
X021870Y000660D02*
X021870Y007370D01*
X015526Y002760D02*
X011814Y002760D01*
X010990Y003410D02*
X010990Y004922D01*
X007150Y007480D02*
X007150Y000660D01*
X004910Y000660D02*
X004910Y007870D01*
X004590Y007870D02*
X004590Y000660D01*
X004270Y000660D02*
X004270Y007870D01*
X003950Y007870D02*
X003950Y000660D01*
X003630Y000660D02*
X003630Y007771D01*
X003400Y007880D02*
X000920Y007880D01*
X003310Y008013D02*
X003310Y000660D01*
X002990Y000660D02*
X002990Y001245D01*
X003111Y001480D02*
X043287Y001480D01*
X043310Y001440D02*
X043310Y000660D01*
X043408Y001270D02*
X043408Y001270D01*
X043194Y001800D02*
X003162Y001800D01*
X002030Y000805D02*
X002030Y000669D01*
X001901Y000840D02*
X001545Y000840D01*
X001710Y000910D02*
X001710Y000750D01*
X001390Y000937D02*
X001390Y001176D01*
X001399Y001160D02*
X001172Y001160D01*
X001408Y001145D02*
X001408Y001145D01*
X001229Y001480D02*
X001002Y001480D01*
X000927Y001800D02*
X001178Y001800D01*
X001175Y001785D02*
X001175Y001785D01*
X001234Y002120D02*
X000920Y002120D01*
X001235Y002125D02*
X001235Y002125D01*
X009070Y008450D02*
X009070Y012100D01*
X009130Y012040D02*
X006380Y012040D01*
X005895Y012360D02*
X005060Y012360D01*
X003823Y013640D02*
X002420Y013640D01*
X002420Y013960D02*
X004075Y013960D01*
X003950Y013845D02*
X003950Y014660D01*
X004130Y014280D02*
X002420Y014280D01*
X002322Y016870D02*
X002322Y016870D01*
X001710Y017367D02*
X001710Y017960D01*
X001870Y017800D02*
X000936Y017800D01*
X000920Y018120D02*
X001550Y018120D01*
X001390Y018280D02*
X001390Y017412D01*
X001230Y018440D02*
X000920Y018440D01*
X000920Y018760D02*
X001130Y018760D01*
X001130Y019080D02*
X000920Y019080D01*
X000920Y019400D02*
X001130Y019400D01*
X001130Y019720D02*
X000920Y019720D01*
X000920Y020040D02*
X001130Y020040D01*
X001130Y020360D02*
X000920Y020360D01*
X000920Y020680D02*
X001130Y020680D01*
X001130Y021000D02*
X000920Y021000D01*
X000920Y021320D02*
X001130Y021320D01*
X001130Y021640D02*
X000920Y021640D01*
X000920Y021960D02*
X001130Y021960D01*
X001130Y022280D02*
X000920Y022280D01*
X000920Y022600D02*
X001130Y022600D01*
X001130Y022920D02*
X000920Y022920D01*
X000920Y023240D02*
X001130Y023240D01*
X001168Y023560D02*
X000920Y023560D01*
X000920Y023880D02*
X001480Y023880D01*
X001390Y023790D02*
X001390Y032801D01*
X001408Y032770D02*
X001408Y032770D01*
X001367Y032840D02*
X000920Y032840D01*
X000920Y032520D02*
X001750Y032520D01*
X001710Y032535D02*
X001710Y024110D01*
X001800Y024200D02*
X000920Y024200D01*
X000920Y024520D02*
X002120Y024520D01*
X002030Y024430D02*
X002030Y032430D01*
X002343Y032430D02*
X002343Y032430D01*
X002350Y032433D02*
X002350Y024750D01*
X002440Y024840D02*
X000920Y024840D01*
X000920Y025160D02*
X003870Y025160D01*
X003840Y025190D02*
X003950Y025080D01*
X003840Y025190D02*
X003781Y025333D01*
X003781Y025487D01*
X003840Y025630D01*
X003950Y025740D01*
X003781Y025480D02*
X000920Y025480D01*
X000920Y025800D02*
X006400Y025800D01*
X006510Y025910D02*
X006510Y034660D01*
X006830Y034660D02*
X006830Y026230D01*
X006778Y026179D02*
X006778Y026179D01*
X006720Y026120D02*
X000920Y026120D01*
X000920Y026440D02*
X015380Y026440D01*
X015380Y026120D02*
X014754Y026120D01*
X014830Y025910D02*
X014830Y027972D01*
X014898Y028040D02*
X015380Y028040D01*
X015380Y028360D02*
X015218Y028360D01*
X015150Y028292D02*
X015150Y025590D01*
X015260Y025480D02*
X015380Y025480D01*
X015380Y025800D02*
X014940Y025800D01*
X014510Y026293D02*
X014510Y027528D01*
X014397Y027400D02*
X015380Y027400D01*
X015380Y027080D02*
X000920Y027080D01*
X000920Y026760D02*
X015380Y026760D01*
X015380Y027720D02*
X014578Y027720D01*
X014190Y027334D02*
X014190Y026230D01*
X013870Y026200D02*
X013870Y027473D01*
X013943Y027400D02*
X000920Y027400D01*
X000920Y027720D02*
X013781Y027720D01*
X013870Y027972D02*
X013870Y034660D01*
X013550Y034660D02*
X013550Y026200D01*
X013230Y026200D02*
X013230Y034660D01*
X012910Y034660D02*
X012910Y026200D01*
X012590Y026200D02*
X012590Y034660D01*
X012270Y034660D02*
X012270Y026200D01*
X011950Y026200D02*
X011950Y034660D01*
X011630Y034660D02*
X011630Y026200D01*
X011310Y026200D02*
X011310Y034660D01*
X010990Y034660D02*
X010990Y026200D01*
X010670Y026200D02*
X010670Y034660D01*
X010350Y034660D02*
X010350Y026200D01*
X010030Y026200D02*
X010030Y034660D01*
X009710Y034660D02*
X009710Y026200D01*
X009390Y026297D02*
X009390Y034660D01*
X009070Y034660D02*
X009070Y026390D01*
X008750Y026347D02*
X008750Y034660D01*
X008430Y034660D02*
X008430Y026304D01*
X008110Y026304D02*
X008110Y034660D01*
X007790Y034660D02*
X007790Y026304D01*
X007470Y026304D02*
X007470Y034660D01*
X007150Y034660D02*
X007150Y026304D01*
X006190Y025590D02*
X006190Y034660D01*
X005870Y034660D02*
X005870Y025748D01*
X005550Y025781D02*
X005550Y034660D01*
X005230Y034660D02*
X005230Y025700D01*
X004910Y025700D02*
X004910Y034660D01*
X004590Y034660D02*
X004590Y025700D01*
X004270Y025789D02*
X004270Y034660D01*
X003310Y034660D02*
X003310Y024950D01*
X002990Y024950D02*
X002990Y032870D01*
X002973Y032840D02*
X020190Y032840D01*
X020270Y032920D02*
X020270Y034660D01*
X019950Y034660D02*
X019950Y032600D01*
X019870Y032520D02*
X002590Y032520D01*
X002668Y032548D02*
X002668Y032548D01*
X002670Y032550D02*
X002670Y024950D01*
X006059Y025480D02*
X006080Y025480D01*
X000920Y028040D02*
X013938Y028040D01*
X014190Y028153D02*
X014190Y034660D01*
X014510Y034660D02*
X014510Y028473D01*
X014397Y028360D02*
X000920Y028360D01*
X000920Y028680D02*
X014717Y028680D01*
X014830Y028793D02*
X014830Y034660D01*
X015150Y034660D02*
X015150Y030800D01*
X015270Y030920D02*
X000920Y030920D01*
X000920Y031240D02*
X015590Y031240D01*
X015470Y031120D02*
X015470Y034660D01*
X015790Y034660D02*
X015790Y031440D01*
X015910Y031560D02*
X000920Y031560D01*
X000920Y031880D02*
X016230Y031880D01*
X016110Y031760D02*
X016110Y034660D01*
X016430Y034660D02*
X016430Y031950D01*
X016750Y031950D02*
X016750Y034660D01*
X017070Y034660D02*
X017070Y031950D01*
X017390Y031950D02*
X017390Y034660D01*
X017710Y034660D02*
X017710Y031950D01*
X018030Y031950D02*
X018030Y034660D01*
X018350Y034660D02*
X018350Y031950D01*
X018670Y031950D02*
X018670Y034660D01*
X018990Y034660D02*
X018990Y031950D01*
X019310Y031960D02*
X019310Y034660D01*
X019630Y034660D02*
X019630Y032280D01*
X019550Y032200D02*
X000920Y032200D01*
X000920Y033160D02*
X001219Y033160D01*
X001175Y033410D02*
X001175Y033410D01*
X001187Y033480D02*
X000925Y033480D01*
X000991Y033800D02*
X001264Y033800D01*
X001235Y033750D02*
X001235Y033750D01*
X001672Y034272D02*
X001672Y034272D01*
X001710Y034285D02*
X001710Y034570D01*
X002030Y034651D02*
X002030Y034390D01*
X002350Y034387D02*
X002350Y034660D01*
X002932Y034050D02*
X002932Y034050D01*
X003153Y033480D02*
X020830Y033480D01*
X020910Y033560D02*
X020910Y034660D01*
X020590Y034660D02*
X020590Y033240D01*
X020510Y033160D02*
X003121Y033160D01*
X003105Y033070D02*
X003105Y033070D01*
X003165Y033410D02*
X003165Y033410D01*
X000920Y030600D02*
X014950Y030600D01*
X014880Y030280D02*
X000920Y030280D01*
X000920Y029960D02*
X014880Y029960D01*
X014880Y029640D02*
X000920Y029640D01*
X000920Y029320D02*
X014880Y029320D01*
X014880Y029000D02*
X000920Y029000D01*
X009070Y014660D02*
X009070Y012920D01*
X010670Y011450D02*
X010670Y014660D01*
X010990Y014660D02*
X010990Y011450D01*
X011310Y011450D02*
X011310Y014660D01*
X011630Y014660D02*
X011630Y011450D01*
X032043Y022280D02*
X041140Y022280D01*
X041070Y022350D02*
X041070Y022049D01*
X041254Y021960D02*
X041427Y021960D01*
X040750Y022005D02*
X040750Y022370D01*
X040430Y022370D02*
X040430Y021988D01*
X040467Y021960D02*
X040672Y021960D01*
X040110Y022054D02*
X040110Y022370D01*
X039790Y022370D02*
X039790Y021865D01*
X039885Y021960D02*
X039680Y021960D01*
X039470Y022054D02*
X039470Y022370D01*
X032110Y022252D02*
X032110Y023748D01*
X033858Y030600D02*
X033896Y030600D01*
X043175Y001910D02*
X043175Y001910D01*
D21*
X041670Y008160D03*
X038670Y008160D03*
X036670Y008160D03*
X033670Y008160D03*
X031670Y008160D03*
X028670Y008160D03*
X026670Y008160D03*
X023670Y008160D03*
X021670Y008160D03*
X018670Y008160D03*
X018670Y007410D03*
X016670Y008160D03*
X016670Y010410D03*
X015670Y011910D03*
X017670Y012410D03*
X019170Y012410D03*
X019670Y015660D03*
X022170Y016160D03*
X023170Y016160D03*
X025170Y016160D03*
X027920Y014410D03*
X027920Y013785D03*
X027420Y012660D03*
X027920Y012160D03*
X023670Y011910D03*
X028670Y016660D03*
X033420Y019910D03*
X032920Y021660D03*
X031920Y021910D03*
X030170Y022910D03*
X030170Y023660D03*
X030920Y023535D03*
X031420Y024660D03*
X030983Y025098D03*
X030920Y026410D03*
X031670Y026410D03*
X032420Y026410D03*
X030420Y027660D03*
X029670Y027660D03*
X028920Y027660D03*
X027108Y028129D03*
X027170Y028910D03*
X026170Y028410D03*
X026170Y027660D03*
X024670Y027160D03*
X024795Y029160D03*
X024670Y031035D03*
X021920Y030660D03*
X017920Y032160D03*
X017670Y031160D03*
X014170Y027723D03*
X014420Y025910D03*
X013920Y024160D03*
X013920Y022160D03*
X015295Y021910D03*
X013920Y019910D03*
X015295Y019660D03*
X016670Y019160D03*
X013170Y017410D03*
X012295Y019723D03*
X009545Y021660D03*
X008920Y020160D03*
X007514Y017348D03*
X007920Y015910D03*
X006920Y015910D03*
X005920Y011910D03*
X006670Y010660D03*
X006670Y008160D03*
X008670Y008160D03*
X011670Y008160D03*
X013670Y008160D03*
X011670Y010660D03*
X016170Y016035D03*
X020670Y021910D03*
X022670Y021785D03*
X024670Y023410D03*
X025670Y023410D03*
X026670Y021785D03*
X028420Y024660D03*
X032201Y028129D03*
X031920Y029910D03*
X031420Y030410D03*
X030420Y030910D03*
X034358Y029254D03*
X034670Y028223D03*
X036420Y027410D03*
X037670Y026910D03*
X036170Y025910D03*
X041816Y022014D03*
X036639Y030879D03*
X035420Y030910D03*
X040920Y031160D03*
X041795Y031160D03*
X021670Y024910D03*
X018670Y024910D03*
X010670Y023660D03*
X009670Y024160D03*
X008962Y026014D03*
X006920Y025410D03*
X005670Y025410D03*
X004170Y025410D03*
X004170Y024660D03*
X003170Y010160D03*
X003670Y008160D03*
D22*
X005920Y008160D01*
X006420Y007660D01*
X006920Y007660D01*
X007420Y008160D01*
X008670Y008160D01*
X010920Y008160D01*
X011420Y007660D01*
X011920Y007660D01*
X012420Y008160D01*
X013670Y008160D01*
X015920Y008160D01*
X016420Y007660D01*
X016920Y007660D01*
X017420Y008160D01*
X018670Y008160D01*
X018670Y017160D01*
X019170Y017660D01*
X019701Y017660D01*
X019170Y018910D02*
X018170Y017910D01*
X018170Y011160D01*
X017170Y011160D02*
X017170Y012910D01*
X017670Y013410D01*
X017670Y018160D01*
X018170Y018660D01*
X018170Y022660D01*
X018201Y022660D01*
X019576Y024035D01*
X032045Y024035D01*
X035295Y027285D01*
X035295Y028316D01*
X034358Y029254D01*
X033576Y029254D01*
X033170Y029660D01*
X033170Y030410D01*
X033670Y030910D01*
X035420Y030910D01*
X035420Y031910D02*
X035420Y032910D01*
X036420Y032910D02*
X036420Y031910D01*
X037795Y031285D02*
X038420Y031910D01*
X037795Y031285D02*
X033545Y031285D01*
X032795Y030535D01*
X032795Y028723D01*
X032201Y028129D01*
X027108Y028129D01*
X027170Y028910D02*
X032170Y028910D01*
X032420Y029160D01*
X032420Y030910D01*
X033420Y031910D01*
X033420Y032910D02*
X034170Y033660D01*
X033420Y032910D02*
X032670Y033660D01*
X026420Y033660D01*
X025858Y033098D01*
X025858Y032473D01*
X026420Y031910D01*
X025420Y031910D02*
X025420Y033035D01*
X024920Y033535D01*
X022045Y033535D01*
X019670Y031160D01*
X017670Y031160D01*
X017170Y030160D02*
X017170Y025660D01*
X017420Y024910D02*
X016670Y024160D01*
X016670Y022160D01*
X016420Y021910D01*
X015295Y021910D01*
X015670Y022285D01*
X015670Y024660D01*
X014420Y025910D01*
X009420Y025910D01*
X009316Y026014D01*
X008962Y026014D01*
X007024Y026014D01*
X005920Y024910D01*
X004420Y024910D01*
X004170Y024660D01*
X002670Y024660D01*
X001420Y023410D01*
X001420Y018660D01*
X004420Y015660D01*
X004420Y013410D01*
X006170Y015160D01*
X007170Y015160D01*
X007920Y015910D01*
X007920Y016910D02*
X007920Y018160D01*
X010170Y020410D01*
X010170Y023160D01*
X010670Y023660D01*
X009670Y024160D02*
X012670Y024160D01*
X013170Y023660D01*
X013170Y017410D01*
X012295Y017410D02*
X013670Y016035D01*
X016170Y016035D01*
X016670Y013910D02*
X016670Y019160D01*
X015295Y019660D02*
X015295Y021910D01*
X014420Y021910D02*
X014420Y024410D01*
X013920Y024910D01*
X007420Y024910D01*
X006920Y025410D01*
X006420Y024660D02*
X006170Y024410D01*
X004920Y024410D01*
X004170Y023660D01*
X003858Y023160D02*
X003170Y023160D01*
X002670Y022660D01*
X001920Y021910D01*
X001920Y021410D01*
X002670Y020660D01*
X001920Y019910D01*
X001920Y019410D01*
X002670Y018660D01*
X003420Y017910D01*
X004920Y017910D01*
X005670Y018660D01*
X007420Y018660D01*
X008920Y020160D01*
X008920Y021035D01*
X009545Y021660D01*
X009670Y024160D02*
X007170Y024160D01*
X006670Y023660D01*
X006670Y020660D01*
X006170Y020160D01*
X005951Y020160D01*
X005389Y020160D02*
X004670Y020160D01*
X004170Y019660D01*
X003420Y019410D02*
X004170Y018660D01*
X003420Y019410D02*
X003420Y019910D01*
X004170Y020660D01*
X003420Y021410D01*
X003420Y021910D01*
X004170Y022660D01*
X004483Y023160D02*
X005170Y023160D01*
X005670Y022660D01*
X004920Y021910D01*
X004920Y021410D01*
X005670Y020660D01*
X005670Y018660D02*
X006201Y018660D01*
X007514Y017348D01*
X007920Y016910D02*
X006920Y015910D01*
X004420Y013410D02*
X003170Y012160D01*
X003170Y010160D01*
X005920Y011910D02*
X006670Y012910D01*
X008670Y012910D01*
X010420Y011160D01*
X011920Y011160D01*
X012670Y010410D01*
X016670Y010410D01*
X016170Y011160D02*
X016170Y012660D01*
X017170Y013660D01*
X017170Y022660D01*
X018795Y024285D01*
X031670Y024285D01*
X034670Y027285D01*
X034670Y028223D01*
X036420Y027410D02*
X036420Y029410D01*
X036639Y029629D01*
X037026Y030241D02*
X037026Y024054D01*
X038420Y022660D01*
X041170Y022660D01*
X041816Y022014D01*
X039920Y019910D02*
X039920Y014910D01*
X039670Y014910D01*
X039920Y013660D02*
X041170Y014910D01*
X042070Y014910D01*
X039920Y013660D02*
X038920Y013660D01*
X038670Y013910D01*
X038670Y020160D01*
X038170Y020660D01*
X033920Y020660D01*
X032920Y021660D01*
X031920Y021910D02*
X030170Y023660D01*
X027920Y023660D01*
X027670Y023410D01*
X027670Y018410D01*
X027170Y017660D02*
X026670Y017160D01*
X023170Y017160D01*
X022170Y016160D01*
X022170Y011160D01*
X021170Y011160D02*
X021170Y015910D01*
X022920Y017660D01*
X025920Y017660D01*
X026170Y017910D01*
X026170Y022660D01*
X025670Y023410D02*
X025670Y018410D01*
X024670Y018410D02*
X024670Y023410D01*
X024170Y024660D02*
X023170Y025660D01*
X023420Y026410D02*
X024170Y025660D01*
X024170Y024660D02*
X028420Y024660D01*
X029170Y025660D02*
X030170Y024660D01*
X031420Y024660D01*
X030983Y025098D02*
X030733Y025098D01*
X029420Y026410D01*
X027420Y026410D01*
X026670Y027160D01*
X026670Y030660D01*
X025420Y031910D01*
X025858Y033098D02*
X025170Y033785D01*
X021545Y033785D01*
X019420Y031660D01*
X016420Y031660D01*
X015170Y030410D01*
X015170Y028723D01*
X014170Y027723D01*
X016170Y025660D02*
X016170Y030160D01*
X015670Y030410D02*
X015920Y030660D01*
X021920Y030660D01*
X022670Y030410D02*
X022670Y027910D01*
X022920Y027660D01*
X024920Y027660D01*
X025170Y027410D01*
X025170Y025660D01*
X024670Y027160D02*
X022920Y027160D01*
X022420Y027660D01*
X022420Y031910D01*
X023420Y031910D02*
X023420Y031160D01*
X022670Y030410D01*
X023920Y031160D02*
X024670Y030410D01*
X024670Y029910D01*
X024170Y029410D01*
X024170Y028910D01*
X027170Y025910D01*
X027170Y025660D01*
X028920Y027660D02*
X030670Y025910D01*
X031920Y025910D01*
X032420Y026410D01*
X031670Y026410D02*
X030420Y027660D01*
X029670Y027660D02*
X030920Y026410D01*
X030170Y022910D02*
X031920Y021160D01*
X031920Y011160D01*
X030920Y011160D02*
X030920Y016160D01*
X028670Y018410D01*
X028170Y017660D02*
X027170Y016660D01*
X023670Y016660D01*
X023170Y016160D01*
X023170Y011160D01*
X023670Y011910D02*
X024170Y012410D01*
X024170Y015910D01*
X024420Y016160D01*
X025170Y016160D01*
X028170Y016160D01*
X028670Y016660D01*
X028170Y017660D02*
X028170Y022660D01*
X027170Y022660D02*
X027170Y017660D01*
X026670Y018410D02*
X026670Y021785D01*
X022670Y021785D02*
X022670Y019160D01*
X022170Y019910D02*
X021670Y019410D01*
X021670Y018410D01*
X020670Y018660D02*
X020670Y016660D01*
X019670Y015660D01*
X019670Y011660D01*
X019170Y011160D01*
X020170Y011160D02*
X020170Y015504D01*
X021170Y016504D01*
X021170Y022660D01*
X020170Y022660D02*
X020170Y019160D01*
X020670Y018660D01*
X019170Y018910D02*
X019170Y022660D01*
X018670Y024910D02*
X017420Y024910D01*
X018170Y025660D02*
X018170Y030160D01*
X019170Y030160D02*
X019170Y025660D01*
X018670Y024910D02*
X021670Y024910D01*
X021670Y026160D01*
X021920Y026410D01*
X023420Y026410D01*
X021170Y025660D02*
X021170Y030160D01*
X020670Y029660D02*
X020670Y026160D01*
X020170Y025660D01*
X022170Y022660D02*
X022170Y019910D01*
X024670Y015410D02*
X024670Y011910D01*
X021670Y008910D01*
X021670Y008160D01*
X021420Y007660D02*
X021920Y007660D01*
X022420Y008160D01*
X023670Y008160D01*
X025920Y008160D01*
X026420Y007660D01*
X026920Y007660D01*
X027420Y008160D01*
X028670Y008160D01*
X030920Y008160D01*
X031420Y007660D01*
X031920Y007660D01*
X032420Y008160D01*
X033670Y008160D01*
X032920Y008160D01*
X033670Y008160D02*
X035920Y008160D01*
X036420Y007660D01*
X036920Y007660D01*
X037420Y008160D01*
X038670Y008160D01*
X036670Y008160D02*
X035670Y009160D01*
X028920Y009160D01*
X028420Y009660D01*
X028420Y014660D01*
X027670Y015410D01*
X026670Y015410D02*
X026670Y012410D01*
X027420Y011660D01*
X027420Y009160D01*
X027920Y008660D01*
X031170Y008660D01*
X031670Y008160D01*
X029920Y009660D02*
X040170Y009660D01*
X041670Y008160D01*
X029920Y009660D02*
X029420Y010160D01*
X029420Y014660D01*
X028670Y015410D01*
X027920Y014410D02*
X027420Y013910D01*
X027420Y012660D01*
X027920Y012160D02*
X027920Y013785D01*
X026420Y011660D02*
X025670Y012410D01*
X025670Y015410D01*
X026420Y011660D02*
X026420Y008410D01*
X026670Y008160D01*
X021420Y007660D02*
X020920Y008160D01*
X018670Y008160D01*
X017670Y009160D02*
X017670Y012410D01*
X016670Y013910D02*
X015670Y012910D01*
X015670Y011910D01*
X017670Y009160D02*
X016670Y008160D01*
X011670Y008160D02*
X011670Y010660D01*
X006670Y010660D02*
X006670Y008160D01*
X012295Y017410D02*
X012295Y019723D01*
X013920Y019910D02*
X013920Y021410D01*
X014420Y021910D01*
X013920Y022160D02*
X013920Y024160D01*
X013420Y024660D01*
X006420Y024660D01*
X005670Y025410D02*
X004170Y025410D01*
X015670Y025160D02*
X015670Y030410D01*
X020170Y030160D02*
X020670Y029660D01*
X026170Y030160D02*
X026170Y028410D01*
X029420Y030910D02*
X028420Y031910D01*
X029420Y030910D02*
X030420Y030910D01*
X031920Y031410D02*
X031920Y029910D01*
X031920Y031410D02*
X032420Y031910D01*
X037670Y029160D02*
X037670Y026910D01*
X037670Y029160D02*
X037920Y029410D01*
X041420Y029410D01*
X041670Y029660D01*
X041670Y030410D01*
X040920Y031160D01*
X040294Y030910D02*
X040963Y030241D01*
X040294Y030910D02*
X039420Y030910D01*
X038920Y031410D01*
X016170Y024660D02*
X016170Y022660D01*
X016170Y024660D02*
X015670Y025160D01*
D23*
X005951Y020160D02*
X005389Y020160D01*
X004483Y023160D02*
X003858Y023160D01*
X036639Y029629D02*
X036639Y030879D01*
D24*
X038920Y031410D02*
X038920Y033160D01*
X038420Y033660D01*
X034170Y033660D01*
D25*
X039420Y032910D02*
X039420Y031910D01*
X039420Y032910D02*
X040170Y033660D01*
X040670Y033660D01*
X040983Y033348D01*
X040983Y031973D01*
X041795Y031160D01*
M02*
