G75*
G70*
%OFA0B0*%
%FSLAX24Y24*%
%IPPOS*%
%LPD*%
%AMOC8*
5,1,8,0,0,1.08239X$1,22.5*
%
%ADD10C,0.1360*%
%ADD11C,0.0540*%
%ADD12R,0.0760X0.0760*%
%ADD13OC8,0.0760*%
%ADD14C,0.0820*%
%ADD15C,0.0920*%
%ADD16OC8,0.0660*%
%ADD17OC8,0.0560*%
%ADD18R,0.0808X0.0611*%
%ADD19R,0.0611X0.0769*%
%ADD20R,0.0651X0.0336*%
%ADD21R,0.0660X0.0360*%
%ADD22R,0.0532X0.0375*%
%ADD23R,0.0690X0.0520*%
%ADD24R,0.0720X0.0060*%
%ADD25R,0.0375X0.0532*%
%ADD26C,0.0520*%
%ADD27R,0.0414X0.0375*%
%ADD28R,0.0387X0.0308*%
%ADD29R,0.0520X0.0690*%
%ADD30C,0.0540*%
%ADD31R,0.1044X0.0847*%
%ADD32R,0.0847X0.1044*%
%ADD33R,0.1044X0.0532*%
%ADD34C,0.0847*%
%ADD35C,0.0847*%
%ADD36R,0.0650X0.0850*%
%ADD37R,0.1560X0.0850*%
%ADD38C,0.0590*%
%ADD39R,0.0060X0.0720*%
%ADD40R,0.0300X0.0930*%
%ADD41R,0.1620X0.1620*%
%ADD42R,0.1310X0.1310*%
%ADD43C,0.0720*%
%ADD44C,0.0050*%
%ADD45R,0.0360X0.0660*%
%ADD46R,0.0308X0.0387*%
D10*
X002287Y001785D03*
X002287Y033410D03*
X044287Y033410D03*
X044287Y001910D03*
D11*
X028787Y015170D02*
X028787Y015650D01*
X027787Y015650D02*
X027787Y015170D01*
X026787Y015170D02*
X026787Y015650D01*
X025787Y015650D02*
X025787Y015170D01*
X024787Y015170D02*
X024787Y015650D01*
X023787Y015650D02*
X023787Y015170D01*
X022787Y015170D02*
X022787Y015650D01*
X021787Y015650D02*
X021787Y015170D01*
X021787Y018170D02*
X021787Y018650D01*
X022787Y018650D02*
X022787Y018170D01*
X023787Y018170D02*
X023787Y018650D01*
X024787Y018650D02*
X024787Y018170D01*
X025787Y018170D02*
X025787Y018650D01*
X026787Y018650D02*
X026787Y018170D01*
X027787Y018170D02*
X027787Y018650D01*
X028787Y018650D02*
X028787Y018170D01*
X028287Y022420D02*
X028287Y022900D01*
X027287Y022900D02*
X027287Y022420D01*
X026287Y022420D02*
X026287Y022900D01*
X025287Y022900D02*
X025287Y022420D01*
X024287Y022420D02*
X024287Y022900D01*
X023287Y022900D02*
X023287Y022420D01*
X022287Y022420D02*
X022287Y022900D01*
X021287Y022900D02*
X021287Y022420D01*
X020287Y022420D02*
X020287Y022900D01*
X019287Y022900D02*
X019287Y022420D01*
X018287Y022420D02*
X018287Y022900D01*
X017287Y022900D02*
X017287Y022420D01*
X016287Y022420D02*
X016287Y022900D01*
X016287Y025420D02*
X016287Y025900D01*
X017287Y025900D02*
X017287Y025420D01*
X018287Y025420D02*
X018287Y025900D01*
X019287Y025900D02*
X019287Y025420D01*
X020287Y025420D02*
X020287Y025900D01*
X021287Y025900D02*
X021287Y025420D01*
X022287Y025420D02*
X022287Y025900D01*
X023287Y025900D02*
X023287Y025420D01*
X024287Y025420D02*
X024287Y025900D01*
X025287Y025900D02*
X025287Y025420D01*
X026287Y025420D02*
X026287Y025900D01*
X027287Y025900D02*
X027287Y025420D01*
X028287Y025420D02*
X028287Y025900D01*
X029287Y025900D02*
X029287Y025420D01*
X029287Y022900D02*
X029287Y022420D01*
D12*
X022537Y031910D03*
D13*
X022537Y032910D03*
X023537Y032910D03*
X023537Y031910D03*
X024537Y031910D03*
X024537Y032910D03*
D14*
X005787Y023660D03*
X005787Y022660D03*
X005787Y021660D03*
X005787Y020660D03*
X005787Y019660D03*
X005787Y018660D03*
X004287Y018660D03*
X004287Y019660D03*
X004287Y020660D03*
X004287Y021660D03*
X004287Y022660D03*
X004287Y023660D03*
X002787Y023660D03*
X002787Y022660D03*
X002787Y021660D03*
X002787Y020660D03*
X002787Y019660D03*
X002787Y018660D03*
D15*
X004537Y013410D03*
X004537Y012410D03*
X004537Y011410D03*
D16*
X026537Y031910D03*
X026537Y032910D03*
X027537Y032910D03*
X027537Y031910D03*
X028537Y031910D03*
X028537Y032910D03*
X029537Y032910D03*
X029537Y031910D03*
X030537Y031910D03*
X030537Y032910D03*
X031537Y032910D03*
X031537Y031910D03*
X032537Y031910D03*
X032537Y032910D03*
X033537Y032910D03*
X033537Y031910D03*
X035537Y031910D03*
X035537Y032910D03*
X036537Y032910D03*
X036537Y031910D03*
X037537Y031910D03*
X037537Y032910D03*
X038537Y032910D03*
X038537Y031910D03*
X039537Y031910D03*
X039537Y032910D03*
X040537Y032910D03*
X040537Y031910D03*
D17*
X028287Y030160D03*
X027287Y030160D03*
X026287Y030160D03*
X025287Y030160D03*
X024287Y030160D03*
X023287Y030160D03*
X021287Y030160D03*
X020287Y030160D03*
X019287Y030160D03*
X018287Y030160D03*
X017287Y030160D03*
X016287Y030160D03*
X016287Y011160D03*
X017287Y011160D03*
X018287Y011160D03*
X019287Y011160D03*
X020287Y011160D03*
X021287Y011160D03*
X022287Y011160D03*
X023287Y011160D03*
X025037Y011160D03*
X026037Y011160D03*
X027037Y011160D03*
X028037Y011160D03*
X029037Y011160D03*
X030037Y011160D03*
X031037Y011160D03*
X032037Y011160D03*
D18*
X042118Y023317D03*
X042473Y028514D03*
D19*
X036961Y026310D03*
X036961Y023947D03*
D20*
X040819Y026270D03*
X040976Y025837D03*
X041134Y025404D03*
X040976Y024971D03*
X041134Y024538D03*
X040976Y024105D03*
X040976Y023672D03*
X040976Y026703D03*
D21*
X021287Y031660D03*
X021287Y033160D03*
X019287Y033160D03*
X019287Y031660D03*
D22*
X012162Y026014D03*
X012162Y025306D03*
X012412Y023014D03*
X012412Y022306D03*
X011537Y022306D03*
X011537Y023014D03*
X011537Y021014D03*
X011537Y020306D03*
X012412Y020306D03*
X012412Y021014D03*
X012412Y019014D03*
X012412Y018306D03*
X011537Y018306D03*
X011537Y019014D03*
X008037Y018806D03*
X008037Y019514D03*
X007037Y019514D03*
X007037Y018806D03*
X007037Y020806D03*
X007037Y021514D03*
X008037Y021514D03*
X008037Y020806D03*
X008037Y022806D03*
X008037Y023514D03*
X007037Y023514D03*
X007037Y022806D03*
X006787Y026056D03*
X006787Y026764D03*
X005787Y026764D03*
X005787Y026056D03*
X007787Y026056D03*
X007787Y026764D03*
X009662Y026014D03*
X009662Y025306D03*
X005537Y017264D03*
X005537Y016556D03*
X005537Y015514D03*
X005537Y014806D03*
X004287Y014806D03*
X004287Y015514D03*
X004287Y016556D03*
X004287Y017264D03*
X006037Y013264D03*
X006037Y012556D03*
X005787Y009514D03*
X005787Y008806D03*
X004787Y008806D03*
X004787Y009514D03*
X003787Y009514D03*
X003787Y008806D03*
X006787Y008806D03*
X006787Y009514D03*
X007787Y009514D03*
X007787Y008806D03*
X008787Y008806D03*
X008787Y009514D03*
X009787Y009514D03*
X009787Y008806D03*
X010787Y008806D03*
X010787Y009514D03*
X011787Y009514D03*
X011787Y008806D03*
X012787Y008806D03*
X012787Y009514D03*
X013787Y009514D03*
X013787Y008806D03*
X014787Y008806D03*
X014787Y009514D03*
X015787Y009514D03*
X015787Y008806D03*
X016787Y008806D03*
X016787Y009514D03*
X017787Y009514D03*
X017787Y008806D03*
X018787Y008806D03*
X018787Y009514D03*
X019787Y009514D03*
X019787Y008806D03*
X020787Y008806D03*
X020787Y009514D03*
X021787Y009514D03*
X021787Y008806D03*
X022787Y008806D03*
X022787Y009514D03*
X023787Y009514D03*
X023787Y008806D03*
X024787Y008806D03*
X024787Y009514D03*
X025787Y009514D03*
X025787Y008806D03*
X026787Y008806D03*
X026787Y009514D03*
X027787Y009514D03*
X027787Y008806D03*
X028787Y008806D03*
X028787Y009514D03*
X029787Y009514D03*
X029787Y008806D03*
X030787Y008806D03*
X030787Y009514D03*
X031787Y009514D03*
X031787Y008806D03*
X032787Y008806D03*
X032787Y009514D03*
X033787Y009514D03*
X033787Y008806D03*
X034787Y008806D03*
X034787Y009514D03*
X035787Y009514D03*
X035787Y008806D03*
X036787Y008806D03*
X036787Y009514D03*
X037787Y009514D03*
X037787Y008806D03*
X038787Y008806D03*
X038787Y009514D03*
X039787Y009514D03*
X039787Y008806D03*
X040787Y008806D03*
X040787Y009514D03*
X041787Y009514D03*
X041787Y008806D03*
X042787Y008806D03*
X042787Y009514D03*
X042787Y018056D03*
X042787Y018764D03*
X042787Y019806D03*
X042787Y020514D03*
X042787Y021306D03*
X042787Y022014D03*
X041787Y018764D03*
X041787Y018056D03*
X035787Y027056D03*
X035787Y027764D03*
X034787Y027764D03*
X034787Y027056D03*
X033787Y027056D03*
X033787Y027764D03*
X033787Y028556D03*
X033787Y029264D03*
X032787Y029264D03*
X032787Y028556D03*
X032787Y027764D03*
X032787Y027056D03*
X031787Y027056D03*
X031787Y027764D03*
X031787Y028556D03*
X031787Y029264D03*
D23*
X019537Y019960D03*
X019537Y019360D03*
X003787Y007460D03*
X003787Y006860D03*
D24*
X003787Y007160D03*
X019537Y019660D03*
D25*
X018392Y018535D03*
X017683Y018535D03*
X017683Y017660D03*
X018392Y017660D03*
X021308Y019660D03*
X022017Y019660D03*
X022017Y020535D03*
X022017Y021410D03*
X021308Y021410D03*
X021308Y020535D03*
X022433Y026910D03*
X023142Y026910D03*
X020142Y026910D03*
X019433Y026910D03*
X016142Y027410D03*
X015433Y027410D03*
X015433Y028410D03*
X016142Y028410D03*
X013892Y025910D03*
X013183Y025910D03*
X027558Y020660D03*
X028267Y020660D03*
X028267Y019660D03*
X027558Y019660D03*
D26*
X020049Y018360D02*
X019589Y018360D01*
X019589Y017660D02*
X020049Y017660D01*
X020049Y016960D02*
X019589Y016960D01*
D27*
X010681Y018286D03*
X010681Y019034D03*
X009854Y018660D03*
X010681Y020286D03*
X009854Y020660D03*
X010681Y021034D03*
X010681Y022286D03*
X010681Y023034D03*
X009854Y022660D03*
D28*
X009037Y022707D03*
X009037Y021613D03*
X009037Y020707D03*
X009037Y019613D03*
X009037Y018707D03*
X009037Y023613D03*
D29*
X010737Y025660D03*
X011337Y025660D03*
X008231Y016660D03*
X007631Y016660D03*
X007031Y016660D03*
D30*
X023787Y020660D03*
X025787Y020660D03*
D31*
X027646Y006016D03*
X029929Y003103D03*
X027646Y002394D03*
X024929Y003103D03*
X022646Y002394D03*
X019929Y003103D03*
X017646Y002394D03*
X014929Y003103D03*
X012646Y002394D03*
X009929Y003103D03*
X007646Y002394D03*
X004929Y003103D03*
X007646Y006016D03*
X012646Y006016D03*
X017646Y006016D03*
X022646Y006016D03*
X032646Y006016D03*
X034929Y003103D03*
X032646Y002394D03*
X037646Y002394D03*
X039929Y003103D03*
X037646Y006016D03*
X042646Y006016D03*
X042646Y002394D03*
D32*
X040992Y007611D03*
X035992Y007611D03*
X030992Y007611D03*
X025992Y007611D03*
X020992Y007611D03*
X015992Y007611D03*
X010992Y007611D03*
X005992Y007611D03*
D33*
X004929Y002001D03*
X009929Y002001D03*
X014929Y002001D03*
X019929Y002001D03*
X024929Y002001D03*
X029929Y002001D03*
X034929Y002001D03*
X039929Y002001D03*
D34*
X041287Y002788D03*
X041287Y005544D03*
X036287Y005544D03*
X036287Y002788D03*
X031287Y002788D03*
X031287Y005544D03*
X026287Y005544D03*
X026287Y002788D03*
X021287Y002788D03*
X021287Y005544D03*
X016287Y005544D03*
X016287Y002788D03*
X011287Y002788D03*
X011287Y005544D03*
X006287Y005544D03*
X006287Y002788D03*
D35*
X039787Y014516D02*
X039787Y015304D01*
X040594Y013010D02*
X041381Y013010D01*
X042187Y014516D02*
X042187Y015304D01*
D36*
X014447Y026920D03*
X013547Y026920D03*
X012647Y026920D03*
X011447Y026920D03*
X010547Y026920D03*
X009647Y026920D03*
D37*
X010537Y029400D03*
X013537Y029400D03*
D38*
X033994Y030241D03*
X034782Y030241D03*
X035569Y030241D03*
X036356Y030241D03*
X037144Y030241D03*
X037931Y030241D03*
X038719Y030241D03*
X039506Y030241D03*
X040293Y030241D03*
X041081Y030241D03*
X041081Y021579D03*
X040293Y021579D03*
X039506Y021579D03*
X038719Y021579D03*
X037931Y021579D03*
X037144Y021579D03*
X036356Y021579D03*
X035569Y021579D03*
X034782Y021579D03*
X033994Y021579D03*
D39*
X011037Y025660D03*
D40*
X017287Y026880D03*
X017787Y026880D03*
X018287Y026880D03*
X018787Y026880D03*
X018787Y028940D03*
X018287Y028940D03*
X017787Y028940D03*
X017287Y028940D03*
D41*
X033537Y018160D03*
D42*
X036637Y018160D03*
X030437Y018160D03*
D43*
X020037Y027910D03*
X020037Y028910D03*
D44*
X034168Y023826D02*
X034150Y023760D01*
X034144Y023691D01*
X034150Y023623D01*
X034168Y023557D01*
X034197Y023494D01*
X034236Y023438D01*
X034284Y023390D01*
X034341Y023350D01*
X034403Y023321D01*
X034469Y023304D01*
X034537Y023298D01*
X034606Y023304D01*
X034672Y023321D01*
X034734Y023350D01*
X034791Y023390D01*
X034839Y023438D01*
X034878Y023494D01*
X034907Y023557D01*
X034925Y023623D01*
X034931Y023691D01*
X034925Y023760D01*
X034907Y023826D01*
X034878Y023888D01*
X034839Y023944D01*
X034791Y023993D01*
X034734Y024032D01*
X034672Y024061D01*
X034606Y024079D01*
X034537Y024085D01*
X034469Y024079D01*
X034403Y024061D01*
X034341Y024032D01*
X034284Y023993D01*
X034236Y023944D01*
X034197Y023888D01*
X034168Y023826D01*
X034163Y023810D02*
X034912Y023810D01*
X034925Y023761D02*
X034150Y023761D01*
X034146Y023713D02*
X034929Y023713D01*
X034929Y023664D02*
X034146Y023664D01*
X034152Y023616D02*
X034923Y023616D01*
X034910Y023567D02*
X034165Y023567D01*
X034185Y023519D02*
X034890Y023519D01*
X034861Y023470D02*
X034214Y023470D01*
X034252Y023422D02*
X034823Y023422D01*
X034767Y023373D02*
X034308Y023373D01*
X034396Y023325D02*
X034679Y023325D01*
X034892Y023858D02*
X034183Y023858D01*
X034209Y023907D02*
X034865Y023907D01*
X034828Y023955D02*
X034247Y023955D01*
X034300Y024004D02*
X034775Y024004D01*
X034692Y024052D02*
X034383Y024052D01*
X003431Y026410D02*
X003425Y026478D01*
X003407Y026545D01*
X003378Y026607D01*
X003339Y026663D01*
X003291Y026712D01*
X003234Y026751D01*
X003172Y026780D01*
X003106Y026798D01*
X003037Y026804D01*
X002969Y026798D01*
X002903Y026780D01*
X002841Y026751D01*
X002784Y026712D01*
X002736Y026663D01*
X002697Y026607D01*
X002668Y026545D01*
X002650Y026478D01*
X002644Y026410D01*
X002650Y026342D01*
X002668Y026275D01*
X002697Y026213D01*
X002736Y026157D01*
X002784Y026108D01*
X002841Y026069D01*
X002903Y026040D01*
X002969Y026022D01*
X003037Y026016D01*
X003106Y026022D01*
X003172Y026040D01*
X003234Y026069D01*
X003291Y026108D01*
X003339Y026157D01*
X003378Y026213D01*
X003407Y026275D01*
X003425Y026342D01*
X003431Y026410D01*
X003430Y026429D02*
X002645Y026429D01*
X002650Y026477D02*
X003425Y026477D01*
X003413Y026526D02*
X002662Y026526D01*
X002681Y026574D02*
X003394Y026574D01*
X003367Y026623D02*
X002708Y026623D01*
X002744Y026671D02*
X003331Y026671D01*
X003279Y026720D02*
X002796Y026720D01*
X002877Y026768D02*
X003198Y026768D01*
X003429Y026380D02*
X002646Y026380D01*
X002652Y026332D02*
X003423Y026332D01*
X003410Y026283D02*
X002665Y026283D01*
X002687Y026235D02*
X003388Y026235D01*
X003360Y026186D02*
X002715Y026186D01*
X002755Y026138D02*
X003320Y026138D01*
X003263Y026089D02*
X002812Y026089D01*
X002902Y026041D02*
X003173Y026041D01*
X002787Y004304D02*
X002719Y004298D01*
X002653Y004280D01*
X002591Y004251D01*
X002534Y004212D01*
X002486Y004163D01*
X002447Y004107D01*
X002418Y004045D01*
X002400Y003978D01*
X002394Y003910D01*
X002400Y003842D01*
X002418Y003775D01*
X002447Y003713D01*
X002486Y003657D01*
X002534Y003608D01*
X002591Y003569D01*
X002653Y003540D01*
X002719Y003522D01*
X002787Y003516D01*
X002856Y003522D01*
X002922Y003540D01*
X002984Y003569D01*
X003041Y003608D01*
X003089Y003657D01*
X003128Y003713D01*
X003157Y003775D01*
X003175Y003842D01*
X003181Y003910D01*
X003175Y003978D01*
X003157Y004045D01*
X003128Y004107D01*
X003089Y004163D01*
X003041Y004212D01*
X002984Y004251D01*
X002922Y004280D01*
X002856Y004298D01*
X002787Y004304D01*
X002619Y004264D02*
X002956Y004264D01*
X003035Y004216D02*
X002540Y004216D01*
X002490Y004167D02*
X003085Y004167D01*
X003120Y004119D02*
X002455Y004119D01*
X002429Y004070D02*
X003146Y004070D01*
X003164Y004022D02*
X002411Y004022D01*
X002399Y003973D02*
X003176Y003973D01*
X003180Y003925D02*
X002395Y003925D01*
X002397Y003876D02*
X003178Y003876D01*
X003171Y003828D02*
X002404Y003828D01*
X002417Y003779D02*
X003158Y003779D01*
X003137Y003731D02*
X002438Y003731D01*
X002468Y003682D02*
X003107Y003682D01*
X003066Y003634D02*
X002509Y003634D01*
X002568Y003585D02*
X003007Y003585D01*
X002909Y003537D02*
X002666Y003537D01*
D45*
X013287Y016660D03*
X014787Y016660D03*
X014787Y018660D03*
X014787Y019660D03*
X013287Y019660D03*
X013287Y018660D03*
X013287Y021660D03*
X013287Y022660D03*
X014787Y022660D03*
X014787Y021660D03*
X014787Y024660D03*
X013287Y024660D03*
D46*
X039460Y022629D03*
X040365Y022629D03*
M02*
